%TF.GenerationSoftware,KiCad,Pcbnew,9.0.6*%
%TF.CreationDate,2025-11-19T19:53:09-08:00*%
%TF.ProjectId,LED sniffer project,4c454420-736e-4696-9666-65722070726f,1.0*%
%TF.SameCoordinates,Original*%
%TF.FileFunction,Legend,Top*%
%TF.FilePolarity,Positive*%
%FSLAX46Y46*%
G04 Gerber Fmt 4.6, Leading zero omitted, Abs format (unit mm)*
G04 Created by KiCad (PCBNEW 9.0.6) date 2025-11-19 19:53:09*
%MOMM*%
%LPD*%
G01*
G04 APERTURE LIST*
%ADD10C,0.300000*%
%ADD11C,0.150000*%
%ADD12C,0.120000*%
G04 APERTURE END LIST*
D10*
X149571177Y-75746523D02*
X150314034Y-75746523D01*
X149942606Y-77046523D02*
X149942606Y-75746523D01*
X151242605Y-76984619D02*
X151118796Y-77046523D01*
X151118796Y-77046523D02*
X150871177Y-77046523D01*
X150871177Y-77046523D02*
X150747367Y-76984619D01*
X150747367Y-76984619D02*
X150685463Y-76860809D01*
X150685463Y-76860809D02*
X150685463Y-76365571D01*
X150685463Y-76365571D02*
X150747367Y-76241761D01*
X150747367Y-76241761D02*
X150871177Y-76179857D01*
X150871177Y-76179857D02*
X151118796Y-76179857D01*
X151118796Y-76179857D02*
X151242605Y-76241761D01*
X151242605Y-76241761D02*
X151304510Y-76365571D01*
X151304510Y-76365571D02*
X151304510Y-76489380D01*
X151304510Y-76489380D02*
X150685463Y-76613190D01*
X152418796Y-77046523D02*
X152418796Y-76365571D01*
X152418796Y-76365571D02*
X152356891Y-76241761D01*
X152356891Y-76241761D02*
X152233082Y-76179857D01*
X152233082Y-76179857D02*
X151985463Y-76179857D01*
X151985463Y-76179857D02*
X151861653Y-76241761D01*
X152418796Y-76984619D02*
X152294987Y-77046523D01*
X152294987Y-77046523D02*
X151985463Y-77046523D01*
X151985463Y-77046523D02*
X151861653Y-76984619D01*
X151861653Y-76984619D02*
X151799749Y-76860809D01*
X151799749Y-76860809D02*
X151799749Y-76736999D01*
X151799749Y-76736999D02*
X151861653Y-76613190D01*
X151861653Y-76613190D02*
X151985463Y-76551285D01*
X151985463Y-76551285D02*
X152294987Y-76551285D01*
X152294987Y-76551285D02*
X152418796Y-76489380D01*
X153037843Y-77046523D02*
X153037843Y-76179857D01*
X153037843Y-76303666D02*
X153099748Y-76241761D01*
X153099748Y-76241761D02*
X153223558Y-76179857D01*
X153223558Y-76179857D02*
X153409272Y-76179857D01*
X153409272Y-76179857D02*
X153533081Y-76241761D01*
X153533081Y-76241761D02*
X153594986Y-76365571D01*
X153594986Y-76365571D02*
X153594986Y-77046523D01*
X153594986Y-76365571D02*
X153656891Y-76241761D01*
X153656891Y-76241761D02*
X153780700Y-76179857D01*
X153780700Y-76179857D02*
X153966415Y-76179857D01*
X153966415Y-76179857D02*
X154090224Y-76241761D01*
X154090224Y-76241761D02*
X154152129Y-76365571D01*
X154152129Y-76365571D02*
X154152129Y-77046523D01*
X156009271Y-75746523D02*
X156133081Y-75746523D01*
X156133081Y-75746523D02*
X156256890Y-75808428D01*
X156256890Y-75808428D02*
X156318795Y-75870333D01*
X156318795Y-75870333D02*
X156380700Y-75994142D01*
X156380700Y-75994142D02*
X156442605Y-76241761D01*
X156442605Y-76241761D02*
X156442605Y-76551285D01*
X156442605Y-76551285D02*
X156380700Y-76798904D01*
X156380700Y-76798904D02*
X156318795Y-76922714D01*
X156318795Y-76922714D02*
X156256890Y-76984619D01*
X156256890Y-76984619D02*
X156133081Y-77046523D01*
X156133081Y-77046523D02*
X156009271Y-77046523D01*
X156009271Y-77046523D02*
X155885462Y-76984619D01*
X155885462Y-76984619D02*
X155823557Y-76922714D01*
X155823557Y-76922714D02*
X155761652Y-76798904D01*
X155761652Y-76798904D02*
X155699748Y-76551285D01*
X155699748Y-76551285D02*
X155699748Y-76241761D01*
X155699748Y-76241761D02*
X155761652Y-75994142D01*
X155761652Y-75994142D02*
X155823557Y-75870333D01*
X155823557Y-75870333D02*
X155885462Y-75808428D01*
X155885462Y-75808428D02*
X156009271Y-75746523D01*
X157061652Y-77046523D02*
X157309271Y-77046523D01*
X157309271Y-77046523D02*
X157433081Y-76984619D01*
X157433081Y-76984619D02*
X157494985Y-76922714D01*
X157494985Y-76922714D02*
X157618795Y-76736999D01*
X157618795Y-76736999D02*
X157680700Y-76489380D01*
X157680700Y-76489380D02*
X157680700Y-75994142D01*
X157680700Y-75994142D02*
X157618795Y-75870333D01*
X157618795Y-75870333D02*
X157556890Y-75808428D01*
X157556890Y-75808428D02*
X157433081Y-75746523D01*
X157433081Y-75746523D02*
X157185462Y-75746523D01*
X157185462Y-75746523D02*
X157061652Y-75808428D01*
X157061652Y-75808428D02*
X156999747Y-75870333D01*
X156999747Y-75870333D02*
X156937843Y-75994142D01*
X156937843Y-75994142D02*
X156937843Y-76303666D01*
X156937843Y-76303666D02*
X156999747Y-76427476D01*
X156999747Y-76427476D02*
X157061652Y-76489380D01*
X157061652Y-76489380D02*
X157185462Y-76551285D01*
X157185462Y-76551285D02*
X157433081Y-76551285D01*
X157433081Y-76551285D02*
X157556890Y-76489380D01*
X157556890Y-76489380D02*
X157618795Y-76427476D01*
X157618795Y-76427476D02*
X157680700Y-76303666D01*
X149756891Y-79139450D02*
X149756891Y-77839450D01*
X149756891Y-77839450D02*
X150499748Y-79139450D01*
X150499748Y-79139450D02*
X150499748Y-77839450D01*
X151675939Y-79139450D02*
X151675939Y-78458498D01*
X151675939Y-78458498D02*
X151614034Y-78334688D01*
X151614034Y-78334688D02*
X151490225Y-78272784D01*
X151490225Y-78272784D02*
X151242606Y-78272784D01*
X151242606Y-78272784D02*
X151118796Y-78334688D01*
X151675939Y-79077546D02*
X151552130Y-79139450D01*
X151552130Y-79139450D02*
X151242606Y-79139450D01*
X151242606Y-79139450D02*
X151118796Y-79077546D01*
X151118796Y-79077546D02*
X151056892Y-78953736D01*
X151056892Y-78953736D02*
X151056892Y-78829926D01*
X151056892Y-78829926D02*
X151118796Y-78706117D01*
X151118796Y-78706117D02*
X151242606Y-78644212D01*
X151242606Y-78644212D02*
X151552130Y-78644212D01*
X151552130Y-78644212D02*
X151675939Y-78582307D01*
X152294986Y-79139450D02*
X152294986Y-78272784D01*
X152294986Y-78396593D02*
X152356891Y-78334688D01*
X152356891Y-78334688D02*
X152480701Y-78272784D01*
X152480701Y-78272784D02*
X152666415Y-78272784D01*
X152666415Y-78272784D02*
X152790224Y-78334688D01*
X152790224Y-78334688D02*
X152852129Y-78458498D01*
X152852129Y-78458498D02*
X152852129Y-79139450D01*
X152852129Y-78458498D02*
X152914034Y-78334688D01*
X152914034Y-78334688D02*
X153037843Y-78272784D01*
X153037843Y-78272784D02*
X153223558Y-78272784D01*
X153223558Y-78272784D02*
X153347367Y-78334688D01*
X153347367Y-78334688D02*
X153409272Y-78458498D01*
X153409272Y-78458498D02*
X153409272Y-79139450D01*
X154523557Y-79077546D02*
X154399748Y-79139450D01*
X154399748Y-79139450D02*
X154152129Y-79139450D01*
X154152129Y-79139450D02*
X154028319Y-79077546D01*
X154028319Y-79077546D02*
X153966415Y-78953736D01*
X153966415Y-78953736D02*
X153966415Y-78458498D01*
X153966415Y-78458498D02*
X154028319Y-78334688D01*
X154028319Y-78334688D02*
X154152129Y-78272784D01*
X154152129Y-78272784D02*
X154399748Y-78272784D01*
X154399748Y-78272784D02*
X154523557Y-78334688D01*
X154523557Y-78334688D02*
X154585462Y-78458498D01*
X154585462Y-78458498D02*
X154585462Y-78582307D01*
X154585462Y-78582307D02*
X153966415Y-78706117D01*
X155328320Y-79139450D02*
X155204510Y-79077546D01*
X155204510Y-79077546D02*
X155142605Y-78953736D01*
X155142605Y-78953736D02*
X155142605Y-77839450D01*
X156318795Y-79077546D02*
X156194986Y-79139450D01*
X156194986Y-79139450D02*
X155947367Y-79139450D01*
X155947367Y-79139450D02*
X155823557Y-79077546D01*
X155823557Y-79077546D02*
X155761653Y-78953736D01*
X155761653Y-78953736D02*
X155761653Y-78458498D01*
X155761653Y-78458498D02*
X155823557Y-78334688D01*
X155823557Y-78334688D02*
X155947367Y-78272784D01*
X155947367Y-78272784D02*
X156194986Y-78272784D01*
X156194986Y-78272784D02*
X156318795Y-78334688D01*
X156318795Y-78334688D02*
X156380700Y-78458498D01*
X156380700Y-78458498D02*
X156380700Y-78582307D01*
X156380700Y-78582307D02*
X155761653Y-78706117D01*
X156875939Y-79077546D02*
X156999748Y-79139450D01*
X156999748Y-79139450D02*
X157247367Y-79139450D01*
X157247367Y-79139450D02*
X157371177Y-79077546D01*
X157371177Y-79077546D02*
X157433081Y-78953736D01*
X157433081Y-78953736D02*
X157433081Y-78891831D01*
X157433081Y-78891831D02*
X157371177Y-78768022D01*
X157371177Y-78768022D02*
X157247367Y-78706117D01*
X157247367Y-78706117D02*
X157061653Y-78706117D01*
X157061653Y-78706117D02*
X156937843Y-78644212D01*
X156937843Y-78644212D02*
X156875939Y-78520403D01*
X156875939Y-78520403D02*
X156875939Y-78458498D01*
X156875939Y-78458498D02*
X156937843Y-78334688D01*
X156937843Y-78334688D02*
X157061653Y-78272784D01*
X157061653Y-78272784D02*
X157247367Y-78272784D01*
X157247367Y-78272784D02*
X157371177Y-78334688D01*
X157928320Y-79077546D02*
X158052129Y-79139450D01*
X158052129Y-79139450D02*
X158299748Y-79139450D01*
X158299748Y-79139450D02*
X158423558Y-79077546D01*
X158423558Y-79077546D02*
X158485462Y-78953736D01*
X158485462Y-78953736D02*
X158485462Y-78891831D01*
X158485462Y-78891831D02*
X158423558Y-78768022D01*
X158423558Y-78768022D02*
X158299748Y-78706117D01*
X158299748Y-78706117D02*
X158114034Y-78706117D01*
X158114034Y-78706117D02*
X157990224Y-78644212D01*
X157990224Y-78644212D02*
X157928320Y-78520403D01*
X157928320Y-78520403D02*
X157928320Y-78458498D01*
X157928320Y-78458498D02*
X157990224Y-78334688D01*
X157990224Y-78334688D02*
X158114034Y-78272784D01*
X158114034Y-78272784D02*
X158299748Y-78272784D01*
X158299748Y-78272784D02*
X158423558Y-78334688D01*
X160033081Y-79139450D02*
X160033081Y-77839450D01*
X160033081Y-77839450D02*
X160775938Y-79139450D01*
X160775938Y-79139450D02*
X160775938Y-77839450D01*
X161394986Y-79139450D02*
X161394986Y-78272784D01*
X161394986Y-77839450D02*
X161333082Y-77901355D01*
X161333082Y-77901355D02*
X161394986Y-77963260D01*
X161394986Y-77963260D02*
X161456891Y-77901355D01*
X161456891Y-77901355D02*
X161394986Y-77839450D01*
X161394986Y-77839450D02*
X161394986Y-77963260D01*
X162014034Y-78272784D02*
X162014034Y-79139450D01*
X162014034Y-78396593D02*
X162075939Y-78334688D01*
X162075939Y-78334688D02*
X162199749Y-78272784D01*
X162199749Y-78272784D02*
X162385463Y-78272784D01*
X162385463Y-78272784D02*
X162509272Y-78334688D01*
X162509272Y-78334688D02*
X162571177Y-78458498D01*
X162571177Y-78458498D02*
X162571177Y-79139450D01*
X163685462Y-79077546D02*
X163561653Y-79139450D01*
X163561653Y-79139450D02*
X163314034Y-79139450D01*
X163314034Y-79139450D02*
X163190224Y-79077546D01*
X163190224Y-79077546D02*
X163128320Y-78953736D01*
X163128320Y-78953736D02*
X163128320Y-78458498D01*
X163128320Y-78458498D02*
X163190224Y-78334688D01*
X163190224Y-78334688D02*
X163314034Y-78272784D01*
X163314034Y-78272784D02*
X163561653Y-78272784D01*
X163561653Y-78272784D02*
X163685462Y-78334688D01*
X163685462Y-78334688D02*
X163747367Y-78458498D01*
X163747367Y-78458498D02*
X163747367Y-78582307D01*
X163747367Y-78582307D02*
X163128320Y-78706117D01*
X164242606Y-79077546D02*
X164366415Y-79139450D01*
X164366415Y-79139450D02*
X164614034Y-79139450D01*
X164614034Y-79139450D02*
X164737844Y-79077546D01*
X164737844Y-79077546D02*
X164799748Y-78953736D01*
X164799748Y-78953736D02*
X164799748Y-78891831D01*
X164799748Y-78891831D02*
X164737844Y-78768022D01*
X164737844Y-78768022D02*
X164614034Y-78706117D01*
X164614034Y-78706117D02*
X164428320Y-78706117D01*
X164428320Y-78706117D02*
X164304510Y-78644212D01*
X164304510Y-78644212D02*
X164242606Y-78520403D01*
X164242606Y-78520403D02*
X164242606Y-78458498D01*
X164242606Y-78458498D02*
X164304510Y-78334688D01*
X164304510Y-78334688D02*
X164428320Y-78272784D01*
X164428320Y-78272784D02*
X164614034Y-78272784D01*
X164614034Y-78272784D02*
X164737844Y-78334688D01*
X165356891Y-79139450D02*
X165356891Y-77839450D01*
X165480701Y-78644212D02*
X165852129Y-79139450D01*
X165852129Y-78272784D02*
X165356891Y-78768022D01*
X166409272Y-79139450D02*
X166409272Y-78272784D01*
X166409272Y-77839450D02*
X166347368Y-77901355D01*
X166347368Y-77901355D02*
X166409272Y-77963260D01*
X166409272Y-77963260D02*
X166471177Y-77901355D01*
X166471177Y-77901355D02*
X166409272Y-77839450D01*
X166409272Y-77839450D02*
X166409272Y-77963260D01*
X149571177Y-79932377D02*
X150004510Y-81232377D01*
X150004510Y-81232377D02*
X150437844Y-79932377D01*
X151552130Y-81232377D02*
X150809273Y-81232377D01*
X151180701Y-81232377D02*
X151180701Y-79932377D01*
X151180701Y-79932377D02*
X151056892Y-80118092D01*
X151056892Y-80118092D02*
X150933082Y-80241901D01*
X150933082Y-80241901D02*
X150809273Y-80303806D01*
X152109272Y-81108568D02*
X152171177Y-81170473D01*
X152171177Y-81170473D02*
X152109272Y-81232377D01*
X152109272Y-81232377D02*
X152047368Y-81170473D01*
X152047368Y-81170473D02*
X152109272Y-81108568D01*
X152109272Y-81108568D02*
X152109272Y-81232377D01*
X152975939Y-79932377D02*
X153099749Y-79932377D01*
X153099749Y-79932377D02*
X153223558Y-79994282D01*
X153223558Y-79994282D02*
X153285463Y-80056187D01*
X153285463Y-80056187D02*
X153347368Y-80179996D01*
X153347368Y-80179996D02*
X153409273Y-80427615D01*
X153409273Y-80427615D02*
X153409273Y-80737139D01*
X153409273Y-80737139D02*
X153347368Y-80984758D01*
X153347368Y-80984758D02*
X153285463Y-81108568D01*
X153285463Y-81108568D02*
X153223558Y-81170473D01*
X153223558Y-81170473D02*
X153099749Y-81232377D01*
X153099749Y-81232377D02*
X152975939Y-81232377D01*
X152975939Y-81232377D02*
X152852130Y-81170473D01*
X152852130Y-81170473D02*
X152790225Y-81108568D01*
X152790225Y-81108568D02*
X152728320Y-80984758D01*
X152728320Y-80984758D02*
X152666416Y-80737139D01*
X152666416Y-80737139D02*
X152666416Y-80427615D01*
X152666416Y-80427615D02*
X152728320Y-80179996D01*
X152728320Y-80179996D02*
X152790225Y-80056187D01*
X152790225Y-80056187D02*
X152852130Y-79994282D01*
X152852130Y-79994282D02*
X152975939Y-79932377D01*
X149694987Y-82149114D02*
X149756891Y-82087209D01*
X149756891Y-82087209D02*
X149880701Y-82025304D01*
X149880701Y-82025304D02*
X150190225Y-82025304D01*
X150190225Y-82025304D02*
X150314034Y-82087209D01*
X150314034Y-82087209D02*
X150375939Y-82149114D01*
X150375939Y-82149114D02*
X150437844Y-82272923D01*
X150437844Y-82272923D02*
X150437844Y-82396733D01*
X150437844Y-82396733D02*
X150375939Y-82582447D01*
X150375939Y-82582447D02*
X149633082Y-83325304D01*
X149633082Y-83325304D02*
X150437844Y-83325304D01*
X151242605Y-82025304D02*
X151366415Y-82025304D01*
X151366415Y-82025304D02*
X151490224Y-82087209D01*
X151490224Y-82087209D02*
X151552129Y-82149114D01*
X151552129Y-82149114D02*
X151614034Y-82272923D01*
X151614034Y-82272923D02*
X151675939Y-82520542D01*
X151675939Y-82520542D02*
X151675939Y-82830066D01*
X151675939Y-82830066D02*
X151614034Y-83077685D01*
X151614034Y-83077685D02*
X151552129Y-83201495D01*
X151552129Y-83201495D02*
X151490224Y-83263400D01*
X151490224Y-83263400D02*
X151366415Y-83325304D01*
X151366415Y-83325304D02*
X151242605Y-83325304D01*
X151242605Y-83325304D02*
X151118796Y-83263400D01*
X151118796Y-83263400D02*
X151056891Y-83201495D01*
X151056891Y-83201495D02*
X150994986Y-83077685D01*
X150994986Y-83077685D02*
X150933082Y-82830066D01*
X150933082Y-82830066D02*
X150933082Y-82520542D01*
X150933082Y-82520542D02*
X150994986Y-82272923D01*
X150994986Y-82272923D02*
X151056891Y-82149114D01*
X151056891Y-82149114D02*
X151118796Y-82087209D01*
X151118796Y-82087209D02*
X151242605Y-82025304D01*
X152171177Y-82149114D02*
X152233081Y-82087209D01*
X152233081Y-82087209D02*
X152356891Y-82025304D01*
X152356891Y-82025304D02*
X152666415Y-82025304D01*
X152666415Y-82025304D02*
X152790224Y-82087209D01*
X152790224Y-82087209D02*
X152852129Y-82149114D01*
X152852129Y-82149114D02*
X152914034Y-82272923D01*
X152914034Y-82272923D02*
X152914034Y-82396733D01*
X152914034Y-82396733D02*
X152852129Y-82582447D01*
X152852129Y-82582447D02*
X152109272Y-83325304D01*
X152109272Y-83325304D02*
X152914034Y-83325304D01*
X154090224Y-82025304D02*
X153471176Y-82025304D01*
X153471176Y-82025304D02*
X153409272Y-82644352D01*
X153409272Y-82644352D02*
X153471176Y-82582447D01*
X153471176Y-82582447D02*
X153594986Y-82520542D01*
X153594986Y-82520542D02*
X153904510Y-82520542D01*
X153904510Y-82520542D02*
X154028319Y-82582447D01*
X154028319Y-82582447D02*
X154090224Y-82644352D01*
X154090224Y-82644352D02*
X154152129Y-82768161D01*
X154152129Y-82768161D02*
X154152129Y-83077685D01*
X154152129Y-83077685D02*
X154090224Y-83201495D01*
X154090224Y-83201495D02*
X154028319Y-83263400D01*
X154028319Y-83263400D02*
X153904510Y-83325304D01*
X153904510Y-83325304D02*
X153594986Y-83325304D01*
X153594986Y-83325304D02*
X153471176Y-83263400D01*
X153471176Y-83263400D02*
X153409272Y-83201495D01*
X154709271Y-83201495D02*
X154771176Y-83263400D01*
X154771176Y-83263400D02*
X154709271Y-83325304D01*
X154709271Y-83325304D02*
X154647367Y-83263400D01*
X154647367Y-83263400D02*
X154709271Y-83201495D01*
X154709271Y-83201495D02*
X154709271Y-83325304D01*
X156009272Y-83325304D02*
X155266415Y-83325304D01*
X155637843Y-83325304D02*
X155637843Y-82025304D01*
X155637843Y-82025304D02*
X155514034Y-82211019D01*
X155514034Y-82211019D02*
X155390224Y-82334828D01*
X155390224Y-82334828D02*
X155266415Y-82396733D01*
X157247367Y-83325304D02*
X156504510Y-83325304D01*
X156875938Y-83325304D02*
X156875938Y-82025304D01*
X156875938Y-82025304D02*
X156752129Y-82211019D01*
X156752129Y-82211019D02*
X156628319Y-82334828D01*
X156628319Y-82334828D02*
X156504510Y-82396733D01*
X157804509Y-83201495D02*
X157866414Y-83263400D01*
X157866414Y-83263400D02*
X157804509Y-83325304D01*
X157804509Y-83325304D02*
X157742605Y-83263400D01*
X157742605Y-83263400D02*
X157804509Y-83201495D01*
X157804509Y-83201495D02*
X157804509Y-83325304D01*
X158361653Y-82149114D02*
X158423557Y-82087209D01*
X158423557Y-82087209D02*
X158547367Y-82025304D01*
X158547367Y-82025304D02*
X158856891Y-82025304D01*
X158856891Y-82025304D02*
X158980700Y-82087209D01*
X158980700Y-82087209D02*
X159042605Y-82149114D01*
X159042605Y-82149114D02*
X159104510Y-82272923D01*
X159104510Y-82272923D02*
X159104510Y-82396733D01*
X159104510Y-82396733D02*
X159042605Y-82582447D01*
X159042605Y-82582447D02*
X158299748Y-83325304D01*
X158299748Y-83325304D02*
X159104510Y-83325304D01*
X159909271Y-82025304D02*
X160033081Y-82025304D01*
X160033081Y-82025304D02*
X160156890Y-82087209D01*
X160156890Y-82087209D02*
X160218795Y-82149114D01*
X160218795Y-82149114D02*
X160280700Y-82272923D01*
X160280700Y-82272923D02*
X160342605Y-82520542D01*
X160342605Y-82520542D02*
X160342605Y-82830066D01*
X160342605Y-82830066D02*
X160280700Y-83077685D01*
X160280700Y-83077685D02*
X160218795Y-83201495D01*
X160218795Y-83201495D02*
X160156890Y-83263400D01*
X160156890Y-83263400D02*
X160033081Y-83325304D01*
X160033081Y-83325304D02*
X159909271Y-83325304D01*
X159909271Y-83325304D02*
X159785462Y-83263400D01*
X159785462Y-83263400D02*
X159723557Y-83201495D01*
X159723557Y-83201495D02*
X159661652Y-83077685D01*
X159661652Y-83077685D02*
X159599748Y-82830066D01*
X159599748Y-82830066D02*
X159599748Y-82520542D01*
X159599748Y-82520542D02*
X159661652Y-82272923D01*
X159661652Y-82272923D02*
X159723557Y-82149114D01*
X159723557Y-82149114D02*
X159785462Y-82087209D01*
X159785462Y-82087209D02*
X159909271Y-82025304D01*
D11*
X159894819Y-104583333D02*
X160609104Y-104583333D01*
X160609104Y-104583333D02*
X160751961Y-104630952D01*
X160751961Y-104630952D02*
X160847200Y-104726190D01*
X160847200Y-104726190D02*
X160894819Y-104869047D01*
X160894819Y-104869047D02*
X160894819Y-104964285D01*
X159894819Y-103678571D02*
X159894819Y-103869047D01*
X159894819Y-103869047D02*
X159942438Y-103964285D01*
X159942438Y-103964285D02*
X159990057Y-104011904D01*
X159990057Y-104011904D02*
X160132914Y-104107142D01*
X160132914Y-104107142D02*
X160323390Y-104154761D01*
X160323390Y-104154761D02*
X160704342Y-104154761D01*
X160704342Y-104154761D02*
X160799580Y-104107142D01*
X160799580Y-104107142D02*
X160847200Y-104059523D01*
X160847200Y-104059523D02*
X160894819Y-103964285D01*
X160894819Y-103964285D02*
X160894819Y-103773809D01*
X160894819Y-103773809D02*
X160847200Y-103678571D01*
X160847200Y-103678571D02*
X160799580Y-103630952D01*
X160799580Y-103630952D02*
X160704342Y-103583333D01*
X160704342Y-103583333D02*
X160466247Y-103583333D01*
X160466247Y-103583333D02*
X160371009Y-103630952D01*
X160371009Y-103630952D02*
X160323390Y-103678571D01*
X160323390Y-103678571D02*
X160275771Y-103773809D01*
X160275771Y-103773809D02*
X160275771Y-103964285D01*
X160275771Y-103964285D02*
X160323390Y-104059523D01*
X160323390Y-104059523D02*
X160371009Y-104107142D01*
X160371009Y-104107142D02*
X160466247Y-104154761D01*
X156416666Y-95374819D02*
X156416666Y-96089104D01*
X156416666Y-96089104D02*
X156369047Y-96231961D01*
X156369047Y-96231961D02*
X156273809Y-96327200D01*
X156273809Y-96327200D02*
X156130952Y-96374819D01*
X156130952Y-96374819D02*
X156035714Y-96374819D01*
X157321428Y-95708152D02*
X157321428Y-96374819D01*
X157083333Y-95327200D02*
X156845238Y-96041485D01*
X156845238Y-96041485D02*
X157464285Y-96041485D01*
X160916666Y-95359819D02*
X160916666Y-96074104D01*
X160916666Y-96074104D02*
X160869047Y-96216961D01*
X160869047Y-96216961D02*
X160773809Y-96312200D01*
X160773809Y-96312200D02*
X160630952Y-96359819D01*
X160630952Y-96359819D02*
X160535714Y-96359819D01*
X161297619Y-95359819D02*
X161916666Y-95359819D01*
X161916666Y-95359819D02*
X161583333Y-95740771D01*
X161583333Y-95740771D02*
X161726190Y-95740771D01*
X161726190Y-95740771D02*
X161821428Y-95788390D01*
X161821428Y-95788390D02*
X161869047Y-95836009D01*
X161869047Y-95836009D02*
X161916666Y-95931247D01*
X161916666Y-95931247D02*
X161916666Y-96169342D01*
X161916666Y-96169342D02*
X161869047Y-96264580D01*
X161869047Y-96264580D02*
X161821428Y-96312200D01*
X161821428Y-96312200D02*
X161726190Y-96359819D01*
X161726190Y-96359819D02*
X161440476Y-96359819D01*
X161440476Y-96359819D02*
X161345238Y-96312200D01*
X161345238Y-96312200D02*
X161297619Y-96264580D01*
X155166666Y-51264819D02*
X155166666Y-51979104D01*
X155166666Y-51979104D02*
X155119047Y-52121961D01*
X155119047Y-52121961D02*
X155023809Y-52217200D01*
X155023809Y-52217200D02*
X154880952Y-52264819D01*
X154880952Y-52264819D02*
X154785714Y-52264819D01*
X155595238Y-51360057D02*
X155642857Y-51312438D01*
X155642857Y-51312438D02*
X155738095Y-51264819D01*
X155738095Y-51264819D02*
X155976190Y-51264819D01*
X155976190Y-51264819D02*
X156071428Y-51312438D01*
X156071428Y-51312438D02*
X156119047Y-51360057D01*
X156119047Y-51360057D02*
X156166666Y-51455295D01*
X156166666Y-51455295D02*
X156166666Y-51550533D01*
X156166666Y-51550533D02*
X156119047Y-51693390D01*
X156119047Y-51693390D02*
X155547619Y-52264819D01*
X155547619Y-52264819D02*
X156166666Y-52264819D01*
X150916666Y-51284819D02*
X150916666Y-51999104D01*
X150916666Y-51999104D02*
X150869047Y-52141961D01*
X150869047Y-52141961D02*
X150773809Y-52237200D01*
X150773809Y-52237200D02*
X150630952Y-52284819D01*
X150630952Y-52284819D02*
X150535714Y-52284819D01*
X151916666Y-52284819D02*
X151345238Y-52284819D01*
X151630952Y-52284819D02*
X151630952Y-51284819D01*
X151630952Y-51284819D02*
X151535714Y-51427676D01*
X151535714Y-51427676D02*
X151440476Y-51522914D01*
X151440476Y-51522914D02*
X151345238Y-51570533D01*
X151666666Y-95394819D02*
X151666666Y-96109104D01*
X151666666Y-96109104D02*
X151619047Y-96251961D01*
X151619047Y-96251961D02*
X151523809Y-96347200D01*
X151523809Y-96347200D02*
X151380952Y-96394819D01*
X151380952Y-96394819D02*
X151285714Y-96394819D01*
X152619047Y-95394819D02*
X152142857Y-95394819D01*
X152142857Y-95394819D02*
X152095238Y-95871009D01*
X152095238Y-95871009D02*
X152142857Y-95823390D01*
X152142857Y-95823390D02*
X152238095Y-95775771D01*
X152238095Y-95775771D02*
X152476190Y-95775771D01*
X152476190Y-95775771D02*
X152571428Y-95823390D01*
X152571428Y-95823390D02*
X152619047Y-95871009D01*
X152619047Y-95871009D02*
X152666666Y-95966247D01*
X152666666Y-95966247D02*
X152666666Y-96204342D01*
X152666666Y-96204342D02*
X152619047Y-96299580D01*
X152619047Y-96299580D02*
X152571428Y-96347200D01*
X152571428Y-96347200D02*
X152476190Y-96394819D01*
X152476190Y-96394819D02*
X152238095Y-96394819D01*
X152238095Y-96394819D02*
X152142857Y-96347200D01*
X152142857Y-96347200D02*
X152095238Y-96299580D01*
X167204819Y-86666666D02*
X166728628Y-86999999D01*
X167204819Y-87238094D02*
X166204819Y-87238094D01*
X166204819Y-87238094D02*
X166204819Y-86857142D01*
X166204819Y-86857142D02*
X166252438Y-86761904D01*
X166252438Y-86761904D02*
X166300057Y-86714285D01*
X166300057Y-86714285D02*
X166395295Y-86666666D01*
X166395295Y-86666666D02*
X166538152Y-86666666D01*
X166538152Y-86666666D02*
X166633390Y-86714285D01*
X166633390Y-86714285D02*
X166681009Y-86761904D01*
X166681009Y-86761904D02*
X166728628Y-86857142D01*
X166728628Y-86857142D02*
X166728628Y-87238094D01*
X167204819Y-85714285D02*
X167204819Y-86285713D01*
X167204819Y-85999999D02*
X166204819Y-85999999D01*
X166204819Y-85999999D02*
X166347676Y-86095237D01*
X166347676Y-86095237D02*
X166442914Y-86190475D01*
X166442914Y-86190475D02*
X166490533Y-86285713D01*
X162954819Y-86666666D02*
X162478628Y-86999999D01*
X162954819Y-87238094D02*
X161954819Y-87238094D01*
X161954819Y-87238094D02*
X161954819Y-86857142D01*
X161954819Y-86857142D02*
X162002438Y-86761904D01*
X162002438Y-86761904D02*
X162050057Y-86714285D01*
X162050057Y-86714285D02*
X162145295Y-86666666D01*
X162145295Y-86666666D02*
X162288152Y-86666666D01*
X162288152Y-86666666D02*
X162383390Y-86714285D01*
X162383390Y-86714285D02*
X162431009Y-86761904D01*
X162431009Y-86761904D02*
X162478628Y-86857142D01*
X162478628Y-86857142D02*
X162478628Y-87238094D01*
X162050057Y-86285713D02*
X162002438Y-86238094D01*
X162002438Y-86238094D02*
X161954819Y-86142856D01*
X161954819Y-86142856D02*
X161954819Y-85904761D01*
X161954819Y-85904761D02*
X162002438Y-85809523D01*
X162002438Y-85809523D02*
X162050057Y-85761904D01*
X162050057Y-85761904D02*
X162145295Y-85714285D01*
X162145295Y-85714285D02*
X162240533Y-85714285D01*
X162240533Y-85714285D02*
X162383390Y-85761904D01*
X162383390Y-85761904D02*
X162954819Y-86333332D01*
X162954819Y-86333332D02*
X162954819Y-85714285D01*
X167204819Y-83916666D02*
X166728628Y-84249999D01*
X167204819Y-84488094D02*
X166204819Y-84488094D01*
X166204819Y-84488094D02*
X166204819Y-84107142D01*
X166204819Y-84107142D02*
X166252438Y-84011904D01*
X166252438Y-84011904D02*
X166300057Y-83964285D01*
X166300057Y-83964285D02*
X166395295Y-83916666D01*
X166395295Y-83916666D02*
X166538152Y-83916666D01*
X166538152Y-83916666D02*
X166633390Y-83964285D01*
X166633390Y-83964285D02*
X166681009Y-84011904D01*
X166681009Y-84011904D02*
X166728628Y-84107142D01*
X166728628Y-84107142D02*
X166728628Y-84488094D01*
X166204819Y-83583332D02*
X166204819Y-82964285D01*
X166204819Y-82964285D02*
X166585771Y-83297618D01*
X166585771Y-83297618D02*
X166585771Y-83154761D01*
X166585771Y-83154761D02*
X166633390Y-83059523D01*
X166633390Y-83059523D02*
X166681009Y-83011904D01*
X166681009Y-83011904D02*
X166776247Y-82964285D01*
X166776247Y-82964285D02*
X167014342Y-82964285D01*
X167014342Y-82964285D02*
X167109580Y-83011904D01*
X167109580Y-83011904D02*
X167157200Y-83059523D01*
X167157200Y-83059523D02*
X167204819Y-83154761D01*
X167204819Y-83154761D02*
X167204819Y-83440475D01*
X167204819Y-83440475D02*
X167157200Y-83535713D01*
X167157200Y-83535713D02*
X167109580Y-83583332D01*
X162954819Y-83916666D02*
X162478628Y-84249999D01*
X162954819Y-84488094D02*
X161954819Y-84488094D01*
X161954819Y-84488094D02*
X161954819Y-84107142D01*
X161954819Y-84107142D02*
X162002438Y-84011904D01*
X162002438Y-84011904D02*
X162050057Y-83964285D01*
X162050057Y-83964285D02*
X162145295Y-83916666D01*
X162145295Y-83916666D02*
X162288152Y-83916666D01*
X162288152Y-83916666D02*
X162383390Y-83964285D01*
X162383390Y-83964285D02*
X162431009Y-84011904D01*
X162431009Y-84011904D02*
X162478628Y-84107142D01*
X162478628Y-84107142D02*
X162478628Y-84488094D01*
X162288152Y-83059523D02*
X162954819Y-83059523D01*
X161907200Y-83297618D02*
X162621485Y-83535713D01*
X162621485Y-83535713D02*
X162621485Y-82916666D01*
X156916667Y-66657200D02*
X157059524Y-66704819D01*
X157059524Y-66704819D02*
X157297619Y-66704819D01*
X157297619Y-66704819D02*
X157392857Y-66657200D01*
X157392857Y-66657200D02*
X157440476Y-66609580D01*
X157440476Y-66609580D02*
X157488095Y-66514342D01*
X157488095Y-66514342D02*
X157488095Y-66419104D01*
X157488095Y-66419104D02*
X157440476Y-66323866D01*
X157440476Y-66323866D02*
X157392857Y-66276247D01*
X157392857Y-66276247D02*
X157297619Y-66228628D01*
X157297619Y-66228628D02*
X157107143Y-66181009D01*
X157107143Y-66181009D02*
X157011905Y-66133390D01*
X157011905Y-66133390D02*
X156964286Y-66085771D01*
X156964286Y-66085771D02*
X156916667Y-65990533D01*
X156916667Y-65990533D02*
X156916667Y-65895295D01*
X156916667Y-65895295D02*
X156964286Y-65800057D01*
X156964286Y-65800057D02*
X157011905Y-65752438D01*
X157011905Y-65752438D02*
X157107143Y-65704819D01*
X157107143Y-65704819D02*
X157345238Y-65704819D01*
X157345238Y-65704819D02*
X157488095Y-65752438D01*
X157821429Y-65704819D02*
X158059524Y-66704819D01*
X158059524Y-66704819D02*
X158250000Y-65990533D01*
X158250000Y-65990533D02*
X158440476Y-66704819D01*
X158440476Y-66704819D02*
X158678572Y-65704819D01*
X159583333Y-66704819D02*
X159011905Y-66704819D01*
X159297619Y-66704819D02*
X159297619Y-65704819D01*
X159297619Y-65704819D02*
X159202381Y-65847676D01*
X159202381Y-65847676D02*
X159107143Y-65942914D01*
X159107143Y-65942914D02*
X159011905Y-65990533D01*
X161261905Y-59204819D02*
X161261905Y-58204819D01*
X161261905Y-58204819D02*
X161500000Y-58204819D01*
X161500000Y-58204819D02*
X161642857Y-58252438D01*
X161642857Y-58252438D02*
X161738095Y-58347676D01*
X161738095Y-58347676D02*
X161785714Y-58442914D01*
X161785714Y-58442914D02*
X161833333Y-58633390D01*
X161833333Y-58633390D02*
X161833333Y-58776247D01*
X161833333Y-58776247D02*
X161785714Y-58966723D01*
X161785714Y-58966723D02*
X161738095Y-59061961D01*
X161738095Y-59061961D02*
X161642857Y-59157200D01*
X161642857Y-59157200D02*
X161500000Y-59204819D01*
X161500000Y-59204819D02*
X161261905Y-59204819D01*
X162785714Y-59204819D02*
X162214286Y-59204819D01*
X162500000Y-59204819D02*
X162500000Y-58204819D01*
X162500000Y-58204819D02*
X162404762Y-58347676D01*
X162404762Y-58347676D02*
X162309524Y-58442914D01*
X162309524Y-58442914D02*
X162214286Y-58490533D01*
D12*
%TO.C,J6*%
X156790000Y-105630000D02*
X149060000Y-105630000D01*
X149060000Y-102870000D02*
X149060000Y-105630000D01*
X156790000Y-102870000D02*
X156790000Y-105630000D01*
X156790000Y-102870000D02*
X149060000Y-102870000D01*
X158060000Y-102870000D02*
X159440000Y-102870000D01*
X159440000Y-102870000D02*
X159440000Y-104250000D01*
%TO.C,J4*%
X158130000Y-94920000D02*
X156750000Y-94920000D01*
X158130000Y-93540000D02*
X158130000Y-94920000D01*
X158130000Y-92270000D02*
X158130000Y-87080000D01*
X158130000Y-92270000D02*
X155370000Y-92270000D01*
X158130000Y-87080000D02*
X155370000Y-87080000D01*
X155370000Y-92270000D02*
X155370000Y-87080000D01*
%TO.C,J3*%
X162630000Y-94905000D02*
X161250000Y-94905000D01*
X162630000Y-93525000D02*
X162630000Y-94905000D01*
X162630000Y-92255000D02*
X162630000Y-89605000D01*
X162630000Y-92255000D02*
X159870000Y-92255000D01*
X162630000Y-89605000D02*
X159870000Y-89605000D01*
X159870000Y-92255000D02*
X159870000Y-89605000D01*
%TO.C,J2*%
X154120000Y-52810000D02*
X155500000Y-52810000D01*
X154120000Y-54190000D02*
X154120000Y-52810000D01*
X154120000Y-55460000D02*
X154120000Y-63190000D01*
X154120000Y-55460000D02*
X156880000Y-55460000D01*
X154120000Y-63190000D02*
X156880000Y-63190000D01*
X156880000Y-55460000D02*
X156880000Y-63190000D01*
%TO.C,J1*%
X149870000Y-52830000D02*
X151250000Y-52830000D01*
X149870000Y-54210000D02*
X149870000Y-52830000D01*
X149870000Y-55480000D02*
X149870000Y-60670000D01*
X149870000Y-55480000D02*
X152630000Y-55480000D01*
X149870000Y-60670000D02*
X152630000Y-60670000D01*
X152630000Y-55480000D02*
X152630000Y-60670000D01*
%TO.C,J5*%
X153380000Y-94940000D02*
X152000000Y-94940000D01*
X153380000Y-93560000D02*
X153380000Y-94940000D01*
X153380000Y-92290000D02*
X153380000Y-84560000D01*
X153380000Y-92290000D02*
X150620000Y-92290000D01*
X153380000Y-84560000D02*
X150620000Y-84560000D01*
X150620000Y-92290000D02*
X150620000Y-84560000D01*
%TO.C,PICO_MAIN1*%
X126500000Y-54020000D02*
X126020000Y-54020000D01*
X126500000Y-54020000D02*
X126500000Y-54440000D01*
X126500000Y-56560000D02*
X126500000Y-56980000D01*
X126500000Y-59100000D02*
X126500000Y-59520000D01*
X126500000Y-61640000D02*
X126500000Y-62060000D01*
X126500000Y-64180000D02*
X126500000Y-64600000D01*
X126500000Y-66720000D02*
X126500000Y-67140000D01*
X126500000Y-69260000D02*
X126500000Y-69680000D01*
X126500000Y-71800000D02*
X126500000Y-72220000D01*
X126500000Y-74340000D02*
X126500000Y-74760000D01*
X126500000Y-76880000D02*
X126500000Y-77300000D01*
X126500000Y-79420000D02*
X126500000Y-79840000D01*
X126500000Y-81960000D02*
X126500000Y-82380000D01*
X126500000Y-84500000D02*
X126500000Y-84920000D01*
X126500000Y-87040000D02*
X126500000Y-87460000D01*
X126500000Y-89580000D02*
X126500000Y-90000000D01*
X126500000Y-92120000D02*
X126500000Y-92540000D01*
X126500000Y-94660000D02*
X126500000Y-95080000D01*
X126500000Y-97200000D02*
X126500000Y-97620000D01*
X126500000Y-99740000D02*
X126500000Y-100160000D01*
X126530324Y-51900000D02*
X126020000Y-51900000D01*
X126840000Y-51900063D02*
X126840000Y-51543000D01*
X126840000Y-54020000D02*
X126840000Y-54440000D01*
X126840000Y-56560000D02*
X126840000Y-56980000D01*
X126840000Y-59100000D02*
X126840000Y-59520000D01*
X126840000Y-61640000D02*
X126840000Y-62060000D01*
X126840000Y-64180000D02*
X126840000Y-64600000D01*
X126840000Y-66720000D02*
X126840000Y-67140000D01*
X126840000Y-69260000D02*
X126840000Y-69680000D01*
X126840000Y-71800000D02*
X126840000Y-72220000D01*
X126840000Y-74340000D02*
X126840000Y-74760000D01*
X126840000Y-76880000D02*
X126840000Y-77300000D01*
X126840000Y-79420000D02*
X126840000Y-79840000D01*
X126840000Y-81960000D02*
X126840000Y-82380000D01*
X126840000Y-84500000D02*
X126840000Y-84920000D01*
X126840000Y-87040000D02*
X126840000Y-87460000D01*
X126840000Y-89580000D02*
X126840000Y-90000000D01*
X126840000Y-92120000D02*
X126840000Y-92540000D01*
X126840000Y-94660000D02*
X126840000Y-95080000D01*
X126840000Y-97200000D02*
X126840000Y-97620000D01*
X126840000Y-99740000D02*
X126840000Y-100160000D01*
X126840000Y-102279937D02*
X126840000Y-102637000D01*
X127110000Y-51480000D02*
X129600000Y-51480000D01*
X127110000Y-102700000D02*
X130947939Y-102700000D01*
X129600000Y-51480000D02*
X129600000Y-52393520D01*
X129600000Y-51480000D02*
X130947940Y-51480000D01*
X129600000Y-54786480D02*
X129600000Y-99393520D01*
X129600000Y-101786480D02*
X129600000Y-102700000D01*
X131872061Y-51480000D02*
X132875000Y-51480000D01*
X132875000Y-51480000D02*
X141345000Y-51480000D01*
X133210000Y-51480000D02*
X133210000Y-52396000D01*
X133210000Y-54784000D02*
X133210000Y-56000000D01*
X133210000Y-56000000D02*
X133506090Y-56000000D01*
X133510000Y-102700000D02*
X131872061Y-102700000D01*
X135863910Y-56000000D02*
X138356090Y-56000000D01*
X140710000Y-102700000D02*
X133510000Y-102700000D01*
X140713910Y-56000000D02*
X141010000Y-56000000D01*
X141010000Y-51480000D02*
X141010000Y-52396000D01*
X141010000Y-54784000D02*
X141010000Y-56000000D01*
X141345000Y-51480000D02*
X142347939Y-51480000D01*
X142347939Y-102700000D02*
X140710000Y-102700000D01*
X143272061Y-51480000D02*
X144620000Y-51480000D01*
X143272061Y-102700000D02*
X147110000Y-102700000D01*
X144620000Y-51480000D02*
X144620000Y-52393520D01*
X144620000Y-54786480D02*
X144620000Y-99393520D01*
X144620000Y-101786480D02*
X144620000Y-102700000D01*
X147110000Y-51480000D02*
X144620000Y-51480000D01*
X147380000Y-51900063D02*
X147380000Y-51543000D01*
X147380000Y-54020000D02*
X147380000Y-54440000D01*
X147380000Y-56560000D02*
X147380000Y-56980000D01*
X147380000Y-59100000D02*
X147380000Y-59520000D01*
X147380000Y-61640000D02*
X147380000Y-62060000D01*
X147380000Y-64180000D02*
X147380000Y-64600000D01*
X147380000Y-66720000D02*
X147380000Y-67140000D01*
X147380000Y-69260000D02*
X147380000Y-69680000D01*
X147380000Y-71800000D02*
X147380000Y-72220000D01*
X147380000Y-74340000D02*
X147380000Y-74760000D01*
X147380000Y-76880000D02*
X147380000Y-77300000D01*
X147380000Y-79420000D02*
X147380000Y-79840000D01*
X147380000Y-81960000D02*
X147380000Y-82380000D01*
X147380000Y-84500000D02*
X147380000Y-84920000D01*
X147380000Y-87040000D02*
X147380000Y-87460000D01*
X147380000Y-89580000D02*
X147380000Y-90000000D01*
X147380000Y-92120000D02*
X147380000Y-92540000D01*
X147380000Y-94660000D02*
X147380000Y-95080000D01*
X147380000Y-97200000D02*
X147380000Y-97620000D01*
X147380000Y-99740000D02*
X147380000Y-100160000D01*
X147380000Y-102279937D02*
X147380000Y-102637000D01*
X147720000Y-54020000D02*
X147720000Y-54440000D01*
X147720000Y-56560000D02*
X147720000Y-56980000D01*
X147720000Y-59100000D02*
X147720000Y-59520000D01*
X147720000Y-61640000D02*
X147720000Y-62060000D01*
X147720000Y-64180000D02*
X147720000Y-64600000D01*
X147720000Y-66720000D02*
X147720000Y-67140000D01*
X147720000Y-69260000D02*
X147720000Y-69680000D01*
X147720000Y-71800000D02*
X147720000Y-72220000D01*
X147720000Y-74340000D02*
X147720000Y-74760000D01*
X147720000Y-76880000D02*
X147720000Y-77300000D01*
X147720000Y-79420000D02*
X147720000Y-79840000D01*
X147720000Y-81960000D02*
X147720000Y-82380000D01*
X147720000Y-84500000D02*
X147720000Y-84920000D01*
X147720000Y-87040000D02*
X147720000Y-87460000D01*
X147720000Y-89580000D02*
X147720000Y-90000000D01*
X147720000Y-92120000D02*
X147720000Y-92540000D01*
X147720000Y-94660000D02*
X147720000Y-95080000D01*
X147720000Y-97200000D02*
X147720000Y-97620000D01*
X147720000Y-99740000D02*
X147720000Y-100160000D01*
X126530324Y-51900000D02*
G75*
G02*
X127110000Y-51480000I579692J-190051D01*
G01*
X127110000Y-102700000D02*
G75*
G02*
X126530324Y-102279937I1J610002D01*
G01*
X147110000Y-51480000D02*
G75*
G02*
X147689676Y-51900063I0J-610000D01*
G01*
X147689676Y-102279937D02*
G75*
G02*
X147110000Y-102700069I-579676J189837D01*
G01*
%TO.C,R1*%
X164727500Y-86987258D02*
X164727500Y-86512742D01*
X165772500Y-86987258D02*
X165772500Y-86512742D01*
%TO.C,R2*%
X163227500Y-86512742D02*
X163227500Y-86987258D01*
X164272500Y-86512742D02*
X164272500Y-86987258D01*
%TO.C,R3*%
X164727500Y-83987258D02*
X164727500Y-83512742D01*
X165772500Y-83987258D02*
X165772500Y-83512742D01*
%TO.C,R4*%
X163227500Y-83512742D02*
X163227500Y-83987258D01*
X164272500Y-83512742D02*
X164272500Y-83987258D01*
%TO.C,SW1*%
X154750000Y-69750000D02*
X154750000Y-71250000D01*
X156000000Y-73750000D02*
X160500000Y-73750000D01*
X160500000Y-67250000D02*
X156000000Y-67250000D01*
X161750000Y-71250000D02*
X161750000Y-69750000D01*
%TO.C,D1*%
X158500000Y-52500000D02*
X158500000Y-58000000D01*
X158500000Y-52500000D02*
X165500000Y-52500000D01*
X158500000Y-58000000D02*
X165050000Y-58000000D01*
X159300000Y-56150000D02*
X159300000Y-54350000D01*
X164700000Y-56150000D02*
X164700000Y-54350000D01*
X165050000Y-58000000D02*
X165500000Y-57550000D01*
X165500000Y-57550000D02*
X165500000Y-52500000D01*
%TD*%
M02*
