%TF.GenerationSoftware,KiCad,Pcbnew,9.0.6*%
%TF.CreationDate,2025-11-19T19:53:09-08:00*%
%TF.ProjectId,LED sniffer project,4c454420-736e-4696-9666-65722070726f,1.0*%
%TF.SameCoordinates,Original*%
%TF.FileFunction,Copper,L2,Bot*%
%TF.FilePolarity,Positive*%
%FSLAX46Y46*%
G04 Gerber Fmt 4.6, Leading zero omitted, Abs format (unit mm)*
G04 Created by KiCad (PCBNEW 9.0.6) date 2025-11-19 19:53:09*
%MOMM*%
%LPD*%
G01*
G04 APERTURE LIST*
G04 Aperture macros list*
%AMRoundRect*
0 Rectangle with rounded corners*
0 $1 Rounding radius*
0 $2 $3 $4 $5 $6 $7 $8 $9 X,Y pos of 4 corners*
0 Add a 4 corners polygon primitive as box body*
4,1,4,$2,$3,$4,$5,$6,$7,$8,$9,$2,$3,0*
0 Add four circle primitives for the rounded corners*
1,1,$1+$1,$2,$3*
1,1,$1+$1,$4,$5*
1,1,$1+$1,$6,$7*
1,1,$1+$1,$8,$9*
0 Add four rect primitives between the rounded corners*
20,1,$1+$1,$2,$3,$4,$5,0*
20,1,$1+$1,$4,$5,$6,$7,0*
20,1,$1+$1,$6,$7,$8,$9,0*
20,1,$1+$1,$8,$9,$2,$3,0*%
%AMFreePoly0*
4,1,37,0.603843,0.796157,0.639018,0.796157,0.711114,0.766294,0.766294,0.711114,0.796157,0.639018,0.796157,0.603843,0.800000,0.600000,0.800000,-0.600000,0.796157,-0.603843,0.796157,-0.639018,0.766294,-0.711114,0.711114,-0.766294,0.639018,-0.796157,0.603843,-0.796157,0.600000,-0.800000,0.000000,-0.800000,0.000000,-0.796148,-0.078414,-0.796148,-0.232228,-0.765552,-0.377117,-0.705537,
-0.507515,-0.618408,-0.618408,-0.507515,-0.705537,-0.377117,-0.765552,-0.232228,-0.796148,-0.078414,-0.796148,0.078414,-0.765552,0.232228,-0.705537,0.377117,-0.618408,0.507515,-0.507515,0.618408,-0.377117,0.705537,-0.232228,0.765552,-0.078414,0.796148,0.000000,0.796148,0.000000,0.800000,0.600000,0.800000,0.603843,0.796157,0.603843,0.796157,$1*%
%AMFreePoly1*
4,1,37,0.000000,0.796148,0.078414,0.796148,0.232228,0.765552,0.377117,0.705537,0.507515,0.618408,0.618408,0.507515,0.705537,0.377117,0.765552,0.232228,0.796148,0.078414,0.796148,-0.078414,0.765552,-0.232228,0.705537,-0.377117,0.618408,-0.507515,0.507515,-0.618408,0.377117,-0.705537,0.232228,-0.765552,0.078414,-0.796148,0.000000,-0.796148,0.000000,-0.800000,-0.600000,-0.800000,
-0.603843,-0.796157,-0.639018,-0.796157,-0.711114,-0.766294,-0.766294,-0.711114,-0.796157,-0.639018,-0.796157,-0.603843,-0.800000,-0.600000,-0.800000,0.600000,-0.796157,0.603843,-0.796157,0.639018,-0.766294,0.711114,-0.711114,0.766294,-0.639018,0.796157,-0.603843,0.796157,-0.600000,0.800000,0.000000,0.800000,0.000000,0.796148,0.000000,0.796148,$1*%
G04 Aperture macros list end*
%TA.AperFunction,ComponentPad*%
%ADD10C,1.700000*%
%TD*%
%TA.AperFunction,ComponentPad*%
%ADD11R,1.700000X1.700000*%
%TD*%
%TA.AperFunction,ComponentPad*%
%ADD12RoundRect,0.200000X-0.600000X-0.600000X0.600000X-0.600000X0.600000X0.600000X-0.600000X0.600000X0*%
%TD*%
%TA.AperFunction,ComponentPad*%
%ADD13C,1.600000*%
%TD*%
%TA.AperFunction,ComponentPad*%
%ADD14FreePoly0,0.000000*%
%TD*%
%TA.AperFunction,ComponentPad*%
%ADD15FreePoly1,0.000000*%
%TD*%
%TA.AperFunction,ComponentPad*%
%ADD16C,2.000000*%
%TD*%
%TA.AperFunction,ViaPad*%
%ADD17C,0.600000*%
%TD*%
G04 APERTURE END LIST*
D10*
%TO.P,J6,4,Pin_4*%
%TO.N,Net-(J6-Pin_4)*%
X150440000Y-104250000D03*
%TO.P,J6,3,Pin_3*%
%TO.N,Net-(J6-Pin_3)*%
X152980000Y-104250000D03*
%TO.P,J6,2,Pin_2*%
%TO.N,Net-(J6-Pin_2)*%
X155520000Y-104250000D03*
D11*
%TO.P,J6,1,Pin_1*%
%TO.N,GND*%
X158060000Y-104250000D03*
%TD*%
%TO.P,J4,1,Pin_1*%
%TO.N,Net-(J3-Pin_1)*%
X156750000Y-93540000D03*
D10*
%TO.P,J4,2,Pin_2*%
%TO.N,Net-(J4-Pin_2)*%
X156750000Y-91000000D03*
%TO.P,J4,3,Pin_3*%
%TO.N,GND*%
X156750000Y-88460000D03*
%TD*%
D11*
%TO.P,J3,1,Pin_1*%
%TO.N,Net-(J3-Pin_1)*%
X161250000Y-93525000D03*
D10*
%TO.P,J3,2,Pin_2*%
%TO.N,GND*%
X161250000Y-90985000D03*
%TD*%
D11*
%TO.P,J2,1,Pin_1*%
%TO.N,5V*%
X155500000Y-54190000D03*
D10*
%TO.P,J2,2,Pin_2*%
%TO.N,Net-(D1-DIN)*%
X155500000Y-56730000D03*
%TO.P,J2,3,Pin_3*%
%TO.N,Net-(J2-Pin_3)*%
X155500000Y-59270000D03*
%TO.P,J2,4,Pin_4*%
%TO.N,GND*%
X155500000Y-61810000D03*
%TD*%
D11*
%TO.P,J1,1,Pin_1*%
%TO.N,5V*%
X151250000Y-54210000D03*
D10*
%TO.P,J1,2,Pin_2*%
%TO.N,Net-(D1-DIN)*%
X151250000Y-56750000D03*
%TO.P,J1,3,Pin_3*%
%TO.N,GND*%
X151250000Y-59290000D03*
%TD*%
D11*
%TO.P,J5,1,Pin_1*%
%TO.N,Net-(J3-Pin_1)*%
X152000000Y-93560000D03*
D10*
%TO.P,J5,2,Pin_2*%
%TO.N,Net-(J4-Pin_2)*%
X152000000Y-91020000D03*
%TO.P,J5,3,Pin_3*%
%TO.N,Net-(J5-Pin_3)*%
X152000000Y-88480000D03*
%TO.P,J5,4,Pin_4*%
%TO.N,GND*%
X152000000Y-85940000D03*
%TD*%
D12*
%TO.P,PICO_MAIN1,1,GPIO0*%
%TO.N,unconnected-(PICO_MAIN1-GPIO0-Pad1)_1*%
X128220000Y-52960000D03*
D13*
%TO.P,PICO_MAIN1,2,GPIO1*%
%TO.N,unconnected-(PICO_MAIN1-GPIO1-Pad2)_1*%
X128220000Y-55500000D03*
D14*
%TO.P,PICO_MAIN1,3,GND*%
%TO.N,GND*%
X128220000Y-58040000D03*
D13*
%TO.P,PICO_MAIN1,4,GPIO2*%
%TO.N,unconnected-(PICO_MAIN1-GPIO2-Pad4)_1*%
X128220000Y-60580000D03*
%TO.P,PICO_MAIN1,5,GPIO3*%
%TO.N,unconnected-(PICO_MAIN1-GPIO3-Pad5)*%
X128220000Y-63120000D03*
%TO.P,PICO_MAIN1,6,GPIO4*%
%TO.N,unconnected-(PICO_MAIN1-GPIO4-Pad6)_1*%
X128220000Y-65660000D03*
%TO.P,PICO_MAIN1,7,GPIO5*%
%TO.N,unconnected-(PICO_MAIN1-GPIO5-Pad7)*%
X128220000Y-68200000D03*
D14*
%TO.P,PICO_MAIN1,8,GND*%
%TO.N,GND*%
X128220000Y-70740000D03*
D13*
%TO.P,PICO_MAIN1,9,GPIO6*%
%TO.N,unconnected-(PICO_MAIN1-GPIO6-Pad9)*%
X128220000Y-73280000D03*
%TO.P,PICO_MAIN1,10,GPIO7*%
%TO.N,unconnected-(PICO_MAIN1-GPIO7-Pad10)_1*%
X128220000Y-75820000D03*
%TO.P,PICO_MAIN1,11,GPIO8*%
%TO.N,unconnected-(PICO_MAIN1-GPIO8-Pad11)_1*%
X128220000Y-78360000D03*
%TO.P,PICO_MAIN1,12,GPIO9*%
%TO.N,unconnected-(PICO_MAIN1-GPIO9-Pad12)_1*%
X128220000Y-80900000D03*
D14*
%TO.P,PICO_MAIN1,13,GND*%
%TO.N,GND*%
X128220000Y-83440000D03*
D13*
%TO.P,PICO_MAIN1,14,GPIO10*%
%TO.N,unconnected-(PICO_MAIN1-GPIO10-Pad14)_1*%
X128220000Y-85980000D03*
%TO.P,PICO_MAIN1,15,GPIO11*%
%TO.N,unconnected-(PICO_MAIN1-GPIO11-Pad15)*%
X128220000Y-88520000D03*
%TO.P,PICO_MAIN1,16,GPIO12*%
%TO.N,unconnected-(PICO_MAIN1-GPIO12-Pad16)*%
X128220000Y-91060000D03*
%TO.P,PICO_MAIN1,17,GPIO13*%
%TO.N,Net-(J6-Pin_4)*%
X128220000Y-93600000D03*
D14*
%TO.P,PICO_MAIN1,18,GND*%
%TO.N,GND*%
X128220000Y-96140000D03*
D13*
%TO.P,PICO_MAIN1,19,GPIO14*%
%TO.N,Net-(J6-Pin_3)*%
X128220000Y-98680000D03*
%TO.P,PICO_MAIN1,20,GPIO15*%
%TO.N,Net-(J6-Pin_2)*%
X128220000Y-101220000D03*
%TO.P,PICO_MAIN1,21,GPIO16*%
%TO.N,Net-(PICO_MAIN1-GPIO16)*%
X146000000Y-101220000D03*
%TO.P,PICO_MAIN1,22,GPIO17*%
%TO.N,Net-(PICO_MAIN1-GPIO17)*%
X146000000Y-98680000D03*
D15*
%TO.P,PICO_MAIN1,23,GND*%
%TO.N,GND*%
X146000000Y-96140000D03*
D13*
%TO.P,PICO_MAIN1,24,GPIO18*%
%TO.N,Net-(J3-Pin_1)*%
X146000000Y-93600000D03*
%TO.P,PICO_MAIN1,25,GPIO19*%
%TO.N,Net-(J4-Pin_2)*%
X146000000Y-91060000D03*
%TO.P,PICO_MAIN1,26,GPIO20*%
%TO.N,Net-(J5-Pin_3)*%
X146000000Y-88520000D03*
%TO.P,PICO_MAIN1,27,GPIO21*%
%TO.N,unconnected-(PICO_MAIN1-GPIO21-Pad27)*%
X146000000Y-85980000D03*
D15*
%TO.P,PICO_MAIN1,28,GND*%
%TO.N,GND*%
X146000000Y-83440000D03*
D13*
%TO.P,PICO_MAIN1,29,GPIO22*%
%TO.N,unconnected-(PICO_MAIN1-GPIO22-Pad29)_1*%
X146000000Y-80900000D03*
%TO.P,PICO_MAIN1,30,RUN*%
%TO.N,unconnected-(PICO_MAIN1-RUN-Pad30)*%
X146000000Y-78360000D03*
%TO.P,PICO_MAIN1,31,GPIO26_ADC0*%
%TO.N,unconnected-(PICO_MAIN1-GPIO26_ADC0-Pad31)*%
X146000000Y-75820000D03*
%TO.P,PICO_MAIN1,32,GPIO27_ADC1*%
%TO.N,unconnected-(PICO_MAIN1-GPIO27_ADC1-Pad32)*%
X146000000Y-73280000D03*
D15*
%TO.P,PICO_MAIN1,33,AGND*%
%TO.N,unconnected-(PICO_MAIN1-AGND-Pad33)_1*%
X146000000Y-70740000D03*
D13*
%TO.P,PICO_MAIN1,34,GPIO28_ADC2*%
%TO.N,Net-(PICO_MAIN1-GPIO28_ADC2)*%
X146000000Y-68200000D03*
%TO.P,PICO_MAIN1,35,ADC_VREF*%
%TO.N,unconnected-(PICO_MAIN1-ADC_VREF-Pad35)*%
X146000000Y-65660000D03*
%TO.P,PICO_MAIN1,36,3V3*%
%TO.N,unconnected-(PICO_MAIN1-3V3-Pad36)*%
X146000000Y-63120000D03*
%TO.P,PICO_MAIN1,37,3V3_EN*%
%TO.N,unconnected-(PICO_MAIN1-3V3_EN-Pad37)*%
X146000000Y-60580000D03*
D15*
%TO.P,PICO_MAIN1,38,GND*%
%TO.N,GND*%
X146000000Y-58040000D03*
D13*
%TO.P,PICO_MAIN1,39,VSYS*%
%TO.N,5V*%
X146000000Y-55500000D03*
%TO.P,PICO_MAIN1,40,VBUS*%
%TO.N,unconnected-(PICO_MAIN1-VBUS-Pad40)*%
X146000000Y-52960000D03*
%TD*%
D16*
%TO.P,SW1,1*%
%TO.N,Net-(PICO_MAIN1-GPIO28_ADC2)*%
X155000000Y-68250000D03*
X161500000Y-68250000D03*
%TO.P,SW1,2*%
%TO.N,GND*%
X155000000Y-72750000D03*
X161500000Y-72750000D03*
%TD*%
D17*
%TO.N,GND*%
X160000000Y-70250000D03*
X158250000Y-72250000D03*
X158000000Y-70250000D03*
X164750000Y-55500000D03*
X166250000Y-54500000D03*
X165000000Y-52000000D03*
X161000000Y-52000000D03*
X162250000Y-53500000D03*
X162250000Y-57000000D03*
X165750000Y-63500000D03*
X163750000Y-59750000D03*
X162500000Y-61000000D03*
X165750000Y-60000000D03*
X165000000Y-61750000D03*
X161500000Y-60250000D03*
X153000000Y-61500000D03*
X158250000Y-63500000D03*
X158500000Y-64750000D03*
X154250000Y-65000000D03*
X151250000Y-65250000D03*
X151500000Y-62500000D03*
X149750000Y-63250000D03*
X149500000Y-66000000D03*
X152500000Y-66000000D03*
X152250000Y-71750000D03*
X151500000Y-70000000D03*
X149250000Y-70000000D03*
X151250000Y-71750000D03*
X149750000Y-74250000D03*
X161500000Y-75000000D03*
X159250000Y-76750000D03*
X159250000Y-80250000D03*
X158500000Y-80750000D03*
X155250000Y-80250000D03*
X154250000Y-81500000D03*
X161750000Y-80750000D03*
X154750000Y-86250000D03*
X156500000Y-85750000D03*
X156000000Y-85250000D03*
X158750000Y-85750000D03*
X163750000Y-85925000D03*
X160500000Y-85750000D03*
X164250000Y-89500000D03*
X164500000Y-94500000D03*
X158750000Y-96250000D03*
X154500000Y-96500000D03*
X149750000Y-95250000D03*
X151750000Y-97000000D03*
X158500000Y-97250000D03*
X160750000Y-99750000D03*
X150750000Y-99750000D03*
X154750000Y-99750000D03*
X166500000Y-101250000D03*
X163250000Y-103250000D03*
X164500000Y-107250000D03*
X155750000Y-107000000D03*
X157250000Y-107250000D03*
X150250000Y-108500000D03*
X141250000Y-108500000D03*
X127250000Y-107750000D03*
X129500000Y-105500000D03*
X127500000Y-104250000D03*
X126500000Y-105750000D03*
X131000000Y-108250000D03*
X136000000Y-108250000D03*
X146250000Y-109000000D03*
X156250000Y-108500000D03*
X161750000Y-106500000D03*
X166000000Y-104250000D03*
X161750000Y-108000000D03*
X162000000Y-105500000D03*
X143250000Y-79750000D03*
X142250000Y-78000000D03*
X134250000Y-73750000D03*
X139750000Y-67500000D03*
X139250000Y-92500000D03*
X136500000Y-68750000D03*
X135000000Y-82250000D03*
X136500000Y-79000000D03*
X130750000Y-63750000D03*
X138250000Y-86000000D03*
X131250000Y-59500000D03*
X141750000Y-62750000D03*
X142250000Y-91500000D03*
X131500000Y-79000000D03*
X139750000Y-79250000D03*
X142250000Y-58750000D03*
X131000000Y-75000000D03*
X138250000Y-59500000D03*
X132500000Y-70500000D03*
X136250000Y-62000000D03*
X133250000Y-86500000D03*
X132250000Y-88000000D03*
X135750000Y-89250000D03*
X139500000Y-61750000D03*
X132250000Y-76750000D03*
X131750000Y-83250000D03*
X138250000Y-89250000D03*
X137750000Y-63750000D03*
X136250000Y-77000000D03*
X143750000Y-86000000D03*
X141750000Y-87750000D03*
X133750000Y-91250000D03*
%TD*%
%TA.AperFunction,Conductor*%
%TO.N,GND*%
G36*
X168192539Y-51270185D02*
G01*
X168238294Y-51322989D01*
X168249500Y-51374500D01*
X168249500Y-109375500D01*
X168229815Y-109442539D01*
X168177011Y-109488294D01*
X168125500Y-109499500D01*
X125624500Y-109499500D01*
X125557461Y-109479815D01*
X125511706Y-109427011D01*
X125500500Y-109375500D01*
X125500500Y-104143713D01*
X149089500Y-104143713D01*
X149089500Y-104356286D01*
X149122753Y-104566239D01*
X149188444Y-104768414D01*
X149284951Y-104957820D01*
X149409890Y-105129786D01*
X149560213Y-105280109D01*
X149732179Y-105405048D01*
X149732181Y-105405049D01*
X149732184Y-105405051D01*
X149921588Y-105501557D01*
X150123757Y-105567246D01*
X150333713Y-105600500D01*
X150333714Y-105600500D01*
X150546286Y-105600500D01*
X150546287Y-105600500D01*
X150756243Y-105567246D01*
X150958412Y-105501557D01*
X151147816Y-105405051D01*
X151234478Y-105342088D01*
X151319786Y-105280109D01*
X151319788Y-105280106D01*
X151319792Y-105280104D01*
X151470104Y-105129792D01*
X151470106Y-105129788D01*
X151470109Y-105129786D01*
X151595048Y-104957820D01*
X151595047Y-104957820D01*
X151595051Y-104957816D01*
X151599514Y-104949054D01*
X151647488Y-104898259D01*
X151715308Y-104881463D01*
X151781444Y-104903999D01*
X151820486Y-104949056D01*
X151824951Y-104957820D01*
X151949890Y-105129786D01*
X152100213Y-105280109D01*
X152272179Y-105405048D01*
X152272181Y-105405049D01*
X152272184Y-105405051D01*
X152461588Y-105501557D01*
X152663757Y-105567246D01*
X152873713Y-105600500D01*
X152873714Y-105600500D01*
X153086286Y-105600500D01*
X153086287Y-105600500D01*
X153296243Y-105567246D01*
X153498412Y-105501557D01*
X153687816Y-105405051D01*
X153774478Y-105342088D01*
X153859786Y-105280109D01*
X153859788Y-105280106D01*
X153859792Y-105280104D01*
X154010104Y-105129792D01*
X154010106Y-105129788D01*
X154010109Y-105129786D01*
X154135048Y-104957820D01*
X154135047Y-104957820D01*
X154135051Y-104957816D01*
X154139514Y-104949054D01*
X154187488Y-104898259D01*
X154255308Y-104881463D01*
X154321444Y-104903999D01*
X154360486Y-104949056D01*
X154364951Y-104957820D01*
X154489890Y-105129786D01*
X154640213Y-105280109D01*
X154812179Y-105405048D01*
X154812181Y-105405049D01*
X154812184Y-105405051D01*
X155001588Y-105501557D01*
X155203757Y-105567246D01*
X155413713Y-105600500D01*
X155413714Y-105600500D01*
X155626286Y-105600500D01*
X155626287Y-105600500D01*
X155836243Y-105567246D01*
X156038412Y-105501557D01*
X156227816Y-105405051D01*
X156314478Y-105342088D01*
X156399784Y-105280110D01*
X156399784Y-105280109D01*
X156399792Y-105280104D01*
X156513717Y-105166178D01*
X156575036Y-105132696D01*
X156644728Y-105137680D01*
X156700662Y-105179551D01*
X156717577Y-105210528D01*
X156766646Y-105342088D01*
X156766649Y-105342093D01*
X156852809Y-105457187D01*
X156852812Y-105457190D01*
X156967906Y-105543350D01*
X156967913Y-105543354D01*
X157102620Y-105593596D01*
X157102627Y-105593598D01*
X157162155Y-105599999D01*
X157162172Y-105600000D01*
X157810000Y-105600000D01*
X157810000Y-104683012D01*
X157867007Y-104715925D01*
X157994174Y-104750000D01*
X158125826Y-104750000D01*
X158252993Y-104715925D01*
X158310000Y-104683012D01*
X158310000Y-105600000D01*
X158957828Y-105600000D01*
X158957844Y-105599999D01*
X159017372Y-105593598D01*
X159017379Y-105593596D01*
X159152086Y-105543354D01*
X159152093Y-105543350D01*
X159267187Y-105457190D01*
X159267190Y-105457187D01*
X159353350Y-105342093D01*
X159353354Y-105342086D01*
X159403596Y-105207379D01*
X159403598Y-105207372D01*
X159409999Y-105147844D01*
X159410000Y-105147827D01*
X159410000Y-104500000D01*
X158493012Y-104500000D01*
X158525925Y-104442993D01*
X158560000Y-104315826D01*
X158560000Y-104184174D01*
X158525925Y-104057007D01*
X158493012Y-104000000D01*
X159410000Y-104000000D01*
X159410000Y-103352172D01*
X159409999Y-103352155D01*
X159403598Y-103292627D01*
X159403596Y-103292620D01*
X159353354Y-103157913D01*
X159353350Y-103157906D01*
X159267190Y-103042812D01*
X159267187Y-103042809D01*
X159152093Y-102956649D01*
X159152086Y-102956645D01*
X159017379Y-102906403D01*
X159017372Y-102906401D01*
X158957844Y-102900000D01*
X158310000Y-102900000D01*
X158310000Y-103816988D01*
X158252993Y-103784075D01*
X158125826Y-103750000D01*
X157994174Y-103750000D01*
X157867007Y-103784075D01*
X157810000Y-103816988D01*
X157810000Y-102900000D01*
X157162155Y-102900000D01*
X157102627Y-102906401D01*
X157102620Y-102906403D01*
X156967913Y-102956645D01*
X156967906Y-102956649D01*
X156852812Y-103042809D01*
X156852809Y-103042812D01*
X156766649Y-103157906D01*
X156766646Y-103157912D01*
X156717577Y-103289471D01*
X156675705Y-103345404D01*
X156610241Y-103369821D01*
X156541968Y-103354969D01*
X156513714Y-103333818D01*
X156399786Y-103219890D01*
X156227820Y-103094951D01*
X156038414Y-102998444D01*
X156038413Y-102998443D01*
X156038412Y-102998443D01*
X155836243Y-102932754D01*
X155836241Y-102932753D01*
X155836240Y-102932753D01*
X155674957Y-102907208D01*
X155626287Y-102899500D01*
X155413713Y-102899500D01*
X155365042Y-102907208D01*
X155203760Y-102932753D01*
X155001585Y-102998444D01*
X154812179Y-103094951D01*
X154640213Y-103219890D01*
X154489890Y-103370213D01*
X154364949Y-103542182D01*
X154360484Y-103550946D01*
X154312509Y-103601742D01*
X154244688Y-103618536D01*
X154178553Y-103595998D01*
X154139516Y-103550946D01*
X154135050Y-103542182D01*
X154010109Y-103370213D01*
X153859786Y-103219890D01*
X153687820Y-103094951D01*
X153498414Y-102998444D01*
X153498413Y-102998443D01*
X153498412Y-102998443D01*
X153296243Y-102932754D01*
X153296241Y-102932753D01*
X153296240Y-102932753D01*
X153134957Y-102907208D01*
X153086287Y-102899500D01*
X152873713Y-102899500D01*
X152825042Y-102907208D01*
X152663760Y-102932753D01*
X152461585Y-102998444D01*
X152272179Y-103094951D01*
X152100213Y-103219890D01*
X151949890Y-103370213D01*
X151824949Y-103542182D01*
X151820484Y-103550946D01*
X151772509Y-103601742D01*
X151704688Y-103618536D01*
X151638553Y-103595998D01*
X151599516Y-103550946D01*
X151595050Y-103542182D01*
X151470109Y-103370213D01*
X151319786Y-103219890D01*
X151147820Y-103094951D01*
X150958414Y-102998444D01*
X150958413Y-102998443D01*
X150958412Y-102998443D01*
X150756243Y-102932754D01*
X150756241Y-102932753D01*
X150756240Y-102932753D01*
X150594957Y-102907208D01*
X150546287Y-102899500D01*
X150333713Y-102899500D01*
X150285042Y-102907208D01*
X150123760Y-102932753D01*
X149921585Y-102998444D01*
X149732179Y-103094951D01*
X149560213Y-103219890D01*
X149409890Y-103370213D01*
X149284951Y-103542179D01*
X149188444Y-103731585D01*
X149122753Y-103933760D01*
X149089500Y-104143713D01*
X125500500Y-104143713D01*
X125500500Y-57961210D01*
X126915000Y-57961210D01*
X126915000Y-58118789D01*
X126924701Y-58217299D01*
X126924701Y-58217302D01*
X126955444Y-58371864D01*
X126984185Y-58466612D01*
X127044490Y-58612198D01*
X127091155Y-58699501D01*
X127091161Y-58699511D01*
X127137534Y-58768912D01*
X127737037Y-58169410D01*
X127754075Y-58232993D01*
X127819901Y-58347007D01*
X127912993Y-58440099D01*
X128027007Y-58505925D01*
X128090589Y-58522962D01*
X127491085Y-59122465D01*
X127560488Y-59168838D01*
X127560498Y-59168844D01*
X127626454Y-59204099D01*
X127676298Y-59253062D01*
X127691758Y-59321200D01*
X127667926Y-59386879D01*
X127624295Y-59423942D01*
X127538386Y-59467715D01*
X127372786Y-59588028D01*
X127228028Y-59732786D01*
X127107715Y-59898386D01*
X127014781Y-60080776D01*
X126951522Y-60275465D01*
X126919500Y-60477648D01*
X126919500Y-60682351D01*
X126951522Y-60884534D01*
X127014781Y-61079223D01*
X127107715Y-61261613D01*
X127228028Y-61427213D01*
X127372786Y-61571971D01*
X127527749Y-61684556D01*
X127538390Y-61692287D01*
X127629840Y-61738883D01*
X127631080Y-61739515D01*
X127681876Y-61787490D01*
X127698671Y-61855311D01*
X127676134Y-61921446D01*
X127631080Y-61960485D01*
X127538386Y-62007715D01*
X127372786Y-62128028D01*
X127228028Y-62272786D01*
X127107715Y-62438386D01*
X127014781Y-62620776D01*
X126951522Y-62815465D01*
X126919500Y-63017648D01*
X126919500Y-63222351D01*
X126951522Y-63424534D01*
X127014781Y-63619223D01*
X127107715Y-63801613D01*
X127228028Y-63967213D01*
X127372786Y-64111971D01*
X127527749Y-64224556D01*
X127538390Y-64232287D01*
X127629840Y-64278883D01*
X127631080Y-64279515D01*
X127681876Y-64327490D01*
X127698671Y-64395311D01*
X127676134Y-64461446D01*
X127631080Y-64500485D01*
X127538386Y-64547715D01*
X127372786Y-64668028D01*
X127228028Y-64812786D01*
X127107715Y-64978386D01*
X127014781Y-65160776D01*
X126951522Y-65355465D01*
X126919500Y-65557648D01*
X126919500Y-65762351D01*
X126951522Y-65964534D01*
X127014781Y-66159223D01*
X127107715Y-66341613D01*
X127228028Y-66507213D01*
X127372786Y-66651971D01*
X127507026Y-66749500D01*
X127538390Y-66772287D01*
X127629840Y-66818883D01*
X127631080Y-66819515D01*
X127681876Y-66867490D01*
X127698671Y-66935311D01*
X127676134Y-67001446D01*
X127631080Y-67040485D01*
X127538386Y-67087715D01*
X127372786Y-67208028D01*
X127228028Y-67352786D01*
X127107715Y-67518386D01*
X127014781Y-67700776D01*
X126951522Y-67895465D01*
X126919500Y-68097648D01*
X126919500Y-68302351D01*
X126951522Y-68504534D01*
X127014781Y-68699223D01*
X127107715Y-68881613D01*
X127228028Y-69047213D01*
X127372786Y-69191971D01*
X127538388Y-69312286D01*
X127538390Y-69312287D01*
X127624294Y-69356057D01*
X127675090Y-69404031D01*
X127691886Y-69471852D01*
X127669349Y-69537987D01*
X127626455Y-69575899D01*
X127560497Y-69611155D01*
X127491086Y-69657534D01*
X127491085Y-69657534D01*
X128090589Y-70257037D01*
X128027007Y-70274075D01*
X127912993Y-70339901D01*
X127819901Y-70432993D01*
X127754075Y-70547007D01*
X127737037Y-70610588D01*
X127137534Y-70011085D01*
X127137534Y-70011086D01*
X127091158Y-70080493D01*
X127044490Y-70167801D01*
X126984185Y-70313387D01*
X126955444Y-70408135D01*
X126924701Y-70562697D01*
X126924701Y-70562700D01*
X126915000Y-70661210D01*
X126915000Y-70818789D01*
X126924701Y-70917299D01*
X126924701Y-70917302D01*
X126955444Y-71071864D01*
X126984185Y-71166612D01*
X127044490Y-71312198D01*
X127091155Y-71399501D01*
X127091161Y-71399511D01*
X127137534Y-71468912D01*
X127737037Y-70869410D01*
X127754075Y-70932993D01*
X127819901Y-71047007D01*
X127912993Y-71140099D01*
X128027007Y-71205925D01*
X128090589Y-71222962D01*
X127491085Y-71822465D01*
X127560488Y-71868838D01*
X127560498Y-71868844D01*
X127626454Y-71904099D01*
X127676298Y-71953062D01*
X127691758Y-72021200D01*
X127667926Y-72086879D01*
X127624295Y-72123942D01*
X127538386Y-72167715D01*
X127372786Y-72288028D01*
X127228028Y-72432786D01*
X127107715Y-72598386D01*
X127014781Y-72780776D01*
X126951522Y-72975465D01*
X126919500Y-73177648D01*
X126919500Y-73382351D01*
X126951522Y-73584534D01*
X127014781Y-73779223D01*
X127107715Y-73961613D01*
X127228028Y-74127213D01*
X127372786Y-74271971D01*
X127527749Y-74384556D01*
X127538390Y-74392287D01*
X127629840Y-74438883D01*
X127631080Y-74439515D01*
X127681876Y-74487490D01*
X127698671Y-74555311D01*
X127676134Y-74621446D01*
X127631080Y-74660485D01*
X127538386Y-74707715D01*
X127372786Y-74828028D01*
X127228028Y-74972786D01*
X127107715Y-75138386D01*
X127014781Y-75320776D01*
X126951522Y-75515465D01*
X126919500Y-75717648D01*
X126919500Y-75922351D01*
X126951522Y-76124534D01*
X127014781Y-76319223D01*
X127107715Y-76501613D01*
X127228028Y-76667213D01*
X127372786Y-76811971D01*
X127527749Y-76924556D01*
X127538390Y-76932287D01*
X127629840Y-76978883D01*
X127631080Y-76979515D01*
X127681876Y-77027490D01*
X127698671Y-77095311D01*
X127676134Y-77161446D01*
X127631080Y-77200485D01*
X127538386Y-77247715D01*
X127372786Y-77368028D01*
X127228028Y-77512786D01*
X127107715Y-77678386D01*
X127014781Y-77860776D01*
X126951522Y-78055465D01*
X126919500Y-78257648D01*
X126919500Y-78462351D01*
X126951522Y-78664534D01*
X127014781Y-78859223D01*
X127107715Y-79041613D01*
X127228028Y-79207213D01*
X127372786Y-79351971D01*
X127527749Y-79464556D01*
X127538390Y-79472287D01*
X127629840Y-79518883D01*
X127631080Y-79519515D01*
X127681876Y-79567490D01*
X127698671Y-79635311D01*
X127676134Y-79701446D01*
X127631080Y-79740485D01*
X127538386Y-79787715D01*
X127372786Y-79908028D01*
X127228028Y-80052786D01*
X127107715Y-80218386D01*
X127014781Y-80400776D01*
X126951522Y-80595465D01*
X126919500Y-80797648D01*
X126919500Y-81002351D01*
X126951522Y-81204534D01*
X127014781Y-81399223D01*
X127107715Y-81581613D01*
X127228028Y-81747213D01*
X127372786Y-81891971D01*
X127538388Y-82012286D01*
X127538390Y-82012287D01*
X127624294Y-82056057D01*
X127675090Y-82104031D01*
X127691886Y-82171852D01*
X127669349Y-82237987D01*
X127626455Y-82275899D01*
X127560497Y-82311155D01*
X127491086Y-82357534D01*
X127491085Y-82357534D01*
X128090589Y-82957037D01*
X128027007Y-82974075D01*
X127912993Y-83039901D01*
X127819901Y-83132993D01*
X127754075Y-83247007D01*
X127737037Y-83310588D01*
X127137534Y-82711085D01*
X127137534Y-82711086D01*
X127091158Y-82780493D01*
X127044490Y-82867801D01*
X126984185Y-83013387D01*
X126955444Y-83108135D01*
X126924701Y-83262697D01*
X126924701Y-83262700D01*
X126915000Y-83361210D01*
X126915000Y-83518789D01*
X126924701Y-83617299D01*
X126924701Y-83617302D01*
X126955444Y-83771864D01*
X126984185Y-83866612D01*
X127044490Y-84012198D01*
X127091155Y-84099501D01*
X127091161Y-84099511D01*
X127137534Y-84168912D01*
X127737037Y-83569410D01*
X127754075Y-83632993D01*
X127819901Y-83747007D01*
X127912993Y-83840099D01*
X128027007Y-83905925D01*
X128090589Y-83922962D01*
X127491085Y-84522465D01*
X127560488Y-84568838D01*
X127560498Y-84568844D01*
X127626454Y-84604099D01*
X127676298Y-84653062D01*
X127691758Y-84721200D01*
X127667926Y-84786879D01*
X127624295Y-84823942D01*
X127538386Y-84867715D01*
X127372786Y-84988028D01*
X127228028Y-85132786D01*
X127107715Y-85298386D01*
X127014781Y-85480776D01*
X126951522Y-85675465D01*
X126919500Y-85877648D01*
X126919500Y-86082351D01*
X126951522Y-86284534D01*
X127014781Y-86479223D01*
X127107715Y-86661613D01*
X127228028Y-86827213D01*
X127372786Y-86971971D01*
X127487440Y-87055270D01*
X127538390Y-87092287D01*
X127611425Y-87129500D01*
X127631080Y-87139515D01*
X127681876Y-87187490D01*
X127698671Y-87255311D01*
X127676134Y-87321446D01*
X127631080Y-87360485D01*
X127538386Y-87407715D01*
X127372786Y-87528028D01*
X127228028Y-87672786D01*
X127107715Y-87838386D01*
X127014781Y-88020776D01*
X126951522Y-88215465D01*
X126919500Y-88417648D01*
X126919500Y-88622351D01*
X126951522Y-88824534D01*
X127014781Y-89019223D01*
X127107715Y-89201613D01*
X127228028Y-89367213D01*
X127372786Y-89511971D01*
X127520421Y-89619232D01*
X127538390Y-89632287D01*
X127608956Y-89668242D01*
X127631080Y-89679515D01*
X127681876Y-89727490D01*
X127698671Y-89795311D01*
X127676134Y-89861446D01*
X127631080Y-89900485D01*
X127538386Y-89947715D01*
X127372786Y-90068028D01*
X127228028Y-90212786D01*
X127107715Y-90378386D01*
X127014781Y-90560776D01*
X126951522Y-90755465D01*
X126919500Y-90957648D01*
X126919500Y-91162351D01*
X126951522Y-91364534D01*
X127014781Y-91559223D01*
X127107715Y-91741613D01*
X127228028Y-91907213D01*
X127372786Y-92051971D01*
X127514666Y-92155051D01*
X127538390Y-92172287D01*
X127624003Y-92215909D01*
X127631080Y-92219515D01*
X127681876Y-92267490D01*
X127698671Y-92335311D01*
X127676134Y-92401446D01*
X127631080Y-92440485D01*
X127538386Y-92487715D01*
X127372786Y-92608028D01*
X127228028Y-92752786D01*
X127107715Y-92918386D01*
X127014781Y-93100776D01*
X126951522Y-93295465D01*
X126919500Y-93497648D01*
X126919500Y-93702351D01*
X126951522Y-93904534D01*
X127014781Y-94099223D01*
X127107715Y-94281613D01*
X127228028Y-94447213D01*
X127372786Y-94591971D01*
X127538388Y-94712286D01*
X127538390Y-94712287D01*
X127624294Y-94756057D01*
X127675090Y-94804031D01*
X127691886Y-94871852D01*
X127669349Y-94937987D01*
X127626455Y-94975899D01*
X127560497Y-95011155D01*
X127491086Y-95057534D01*
X127491085Y-95057534D01*
X128090589Y-95657037D01*
X128027007Y-95674075D01*
X127912993Y-95739901D01*
X127819901Y-95832993D01*
X127754075Y-95947007D01*
X127737037Y-96010588D01*
X127137534Y-95411085D01*
X127137534Y-95411086D01*
X127091158Y-95480493D01*
X127044490Y-95567801D01*
X126984185Y-95713387D01*
X126955444Y-95808135D01*
X126924701Y-95962697D01*
X126924701Y-95962700D01*
X126915000Y-96061210D01*
X126915000Y-96218789D01*
X126924701Y-96317299D01*
X126924701Y-96317302D01*
X126955444Y-96471864D01*
X126984185Y-96566612D01*
X127044490Y-96712198D01*
X127091155Y-96799501D01*
X127091161Y-96799511D01*
X127137534Y-96868912D01*
X127737037Y-96269410D01*
X127754075Y-96332993D01*
X127819901Y-96447007D01*
X127912993Y-96540099D01*
X128027007Y-96605925D01*
X128090589Y-96622962D01*
X127491085Y-97222465D01*
X127560488Y-97268838D01*
X127560498Y-97268844D01*
X127626454Y-97304099D01*
X127676298Y-97353062D01*
X127691758Y-97421200D01*
X127667926Y-97486879D01*
X127624295Y-97523942D01*
X127538386Y-97567715D01*
X127372786Y-97688028D01*
X127228028Y-97832786D01*
X127107715Y-97998386D01*
X127014781Y-98180776D01*
X126951522Y-98375465D01*
X126919500Y-98577648D01*
X126919500Y-98782351D01*
X126951522Y-98984534D01*
X127014781Y-99179223D01*
X127107715Y-99361613D01*
X127228028Y-99527213D01*
X127372786Y-99671971D01*
X127527749Y-99784556D01*
X127538390Y-99792287D01*
X127629840Y-99838883D01*
X127631080Y-99839515D01*
X127681876Y-99887490D01*
X127698671Y-99955311D01*
X127676134Y-100021446D01*
X127631080Y-100060485D01*
X127538386Y-100107715D01*
X127372786Y-100228028D01*
X127228028Y-100372786D01*
X127107715Y-100538386D01*
X127014781Y-100720776D01*
X126951522Y-100915465D01*
X126919500Y-101117648D01*
X126919500Y-101322351D01*
X126951522Y-101524534D01*
X127014781Y-101719223D01*
X127107715Y-101901613D01*
X127228028Y-102067213D01*
X127372786Y-102211971D01*
X127527749Y-102324556D01*
X127538390Y-102332287D01*
X127654607Y-102391503D01*
X127720776Y-102425218D01*
X127720778Y-102425218D01*
X127720781Y-102425220D01*
X127825137Y-102459127D01*
X127915465Y-102488477D01*
X128016557Y-102504488D01*
X128117648Y-102520500D01*
X128117649Y-102520500D01*
X128322351Y-102520500D01*
X128322352Y-102520500D01*
X128524534Y-102488477D01*
X128719219Y-102425220D01*
X128901610Y-102332287D01*
X128994590Y-102264732D01*
X129067213Y-102211971D01*
X129067215Y-102211968D01*
X129067219Y-102211966D01*
X129211966Y-102067219D01*
X129211968Y-102067215D01*
X129211971Y-102067213D01*
X129264732Y-101994590D01*
X129332287Y-101901610D01*
X129425220Y-101719219D01*
X129488477Y-101524534D01*
X129520500Y-101322352D01*
X129520500Y-101117648D01*
X129488477Y-100915466D01*
X129425220Y-100720781D01*
X129425218Y-100720778D01*
X129425218Y-100720776D01*
X129391503Y-100654607D01*
X129332287Y-100538390D01*
X129324556Y-100527749D01*
X129211971Y-100372786D01*
X129067213Y-100228028D01*
X128901614Y-100107715D01*
X128895006Y-100104348D01*
X128808917Y-100060483D01*
X128758123Y-100012511D01*
X128741328Y-99944690D01*
X128763865Y-99878555D01*
X128808917Y-99839516D01*
X128901610Y-99792287D01*
X128922770Y-99776913D01*
X129067213Y-99671971D01*
X129067215Y-99671968D01*
X129067219Y-99671966D01*
X129211966Y-99527219D01*
X129211968Y-99527215D01*
X129211971Y-99527213D01*
X129264732Y-99454590D01*
X129332287Y-99361610D01*
X129425220Y-99179219D01*
X129488477Y-98984534D01*
X129520500Y-98782352D01*
X129520500Y-98577648D01*
X129497098Y-98429895D01*
X130010000Y-98429895D01*
X134662057Y-102042663D01*
X134702931Y-102099327D01*
X134710000Y-102140597D01*
X134710000Y-103090000D01*
X139510000Y-103090000D01*
X139510000Y-102140597D01*
X139529685Y-102073558D01*
X139557941Y-102042664D01*
X144210000Y-98429895D01*
X144210000Y-94090000D01*
X130010000Y-94090000D01*
X130010000Y-98429895D01*
X129497098Y-98429895D01*
X129488477Y-98375466D01*
X129425220Y-98180781D01*
X129425218Y-98180778D01*
X129425218Y-98180776D01*
X129391503Y-98114607D01*
X129332287Y-97998390D01*
X129324556Y-97987749D01*
X129211971Y-97832786D01*
X129067217Y-97688032D01*
X128990415Y-97632232D01*
X128947750Y-97576902D01*
X128941771Y-97507288D01*
X128974377Y-97445494D01*
X129032640Y-97411765D01*
X129053039Y-97406559D01*
X129109584Y-97383136D01*
X129109584Y-97383135D01*
X128349410Y-96622962D01*
X128412993Y-96605925D01*
X128527007Y-96540099D01*
X128620099Y-96447007D01*
X128685925Y-96332993D01*
X128702962Y-96269411D01*
X129463135Y-97029584D01*
X129463136Y-97029584D01*
X129486552Y-96973053D01*
X129504544Y-96922053D01*
X129524999Y-96779780D01*
X129525000Y-96779779D01*
X129525000Y-95500214D01*
X129522106Y-95446237D01*
X129522106Y-95446235D01*
X129486561Y-95306969D01*
X129486559Y-95306962D01*
X129463135Y-95250414D01*
X128702962Y-96010588D01*
X128685925Y-95947007D01*
X128620099Y-95832993D01*
X128527007Y-95739901D01*
X128412993Y-95674075D01*
X128349410Y-95657037D01*
X129109584Y-94896862D01*
X129053059Y-94873449D01*
X129053048Y-94873445D01*
X129024374Y-94863329D01*
X128967703Y-94822462D01*
X128942122Y-94757443D01*
X128955754Y-94688916D01*
X128992745Y-94646074D01*
X129067215Y-94591969D01*
X129067215Y-94591968D01*
X129067219Y-94591966D01*
X129211966Y-94447219D01*
X129211968Y-94447215D01*
X129211971Y-94447213D01*
X129264732Y-94374590D01*
X129332287Y-94281610D01*
X129425220Y-94099219D01*
X129488477Y-93904534D01*
X129520500Y-93702352D01*
X129520500Y-93497648D01*
X129488477Y-93295466D01*
X129425220Y-93100781D01*
X129425218Y-93100778D01*
X129425218Y-93100776D01*
X129391503Y-93034607D01*
X129332287Y-92918390D01*
X129324556Y-92907749D01*
X129211971Y-92752786D01*
X129067213Y-92608028D01*
X128901614Y-92487715D01*
X128862271Y-92467669D01*
X128808917Y-92440483D01*
X128758123Y-92392511D01*
X128741328Y-92324690D01*
X128763865Y-92258555D01*
X128808917Y-92219516D01*
X128901610Y-92172287D01*
X129015072Y-92089853D01*
X129067213Y-92051971D01*
X129067215Y-92051968D01*
X129067219Y-92051966D01*
X129211966Y-91907219D01*
X129211968Y-91907215D01*
X129211971Y-91907213D01*
X129264732Y-91834590D01*
X129332287Y-91741610D01*
X129425220Y-91559219D01*
X129488477Y-91364534D01*
X129520500Y-91162352D01*
X129520500Y-90957648D01*
X129512674Y-90908237D01*
X129488477Y-90755465D01*
X129425218Y-90560776D01*
X129384869Y-90481588D01*
X129332287Y-90378390D01*
X129284186Y-90312184D01*
X129211971Y-90212786D01*
X129067213Y-90068028D01*
X128901614Y-89947715D01*
X128895006Y-89944348D01*
X128808917Y-89900483D01*
X128758123Y-89852511D01*
X128741328Y-89784690D01*
X128763865Y-89718555D01*
X128808917Y-89679516D01*
X128901610Y-89632287D01*
X128980088Y-89575270D01*
X129067213Y-89511971D01*
X129067215Y-89511968D01*
X129067219Y-89511966D01*
X129211966Y-89367219D01*
X129211968Y-89367215D01*
X129211971Y-89367213D01*
X129264732Y-89294590D01*
X129332287Y-89201610D01*
X129425220Y-89019219D01*
X129488477Y-88824534D01*
X129520500Y-88622352D01*
X129520500Y-88417648D01*
X129510380Y-88353753D01*
X129488477Y-88215465D01*
X129425218Y-88020776D01*
X129384968Y-87941782D01*
X129332287Y-87838390D01*
X129284186Y-87772184D01*
X129211971Y-87672786D01*
X129067213Y-87528028D01*
X128901614Y-87407715D01*
X128895006Y-87404348D01*
X128808917Y-87360483D01*
X128758123Y-87312511D01*
X128741328Y-87244690D01*
X128763865Y-87178555D01*
X128808917Y-87139516D01*
X128901610Y-87092287D01*
X128952560Y-87055270D01*
X129067213Y-86971971D01*
X129067215Y-86971968D01*
X129067219Y-86971966D01*
X129211966Y-86827219D01*
X129211968Y-86827215D01*
X129211971Y-86827213D01*
X129264732Y-86754590D01*
X129332287Y-86661610D01*
X129425220Y-86479219D01*
X129488477Y-86284534D01*
X129520500Y-86082352D01*
X129520500Y-85877648D01*
X129519950Y-85874174D01*
X129488477Y-85675465D01*
X129425218Y-85480776D01*
X129391503Y-85414607D01*
X129332287Y-85298390D01*
X129324556Y-85287749D01*
X129211971Y-85132786D01*
X129067217Y-84988032D01*
X128990415Y-84932232D01*
X128947750Y-84876902D01*
X128941771Y-84807288D01*
X128974377Y-84745494D01*
X129032640Y-84711765D01*
X129053039Y-84706559D01*
X129109584Y-84683136D01*
X129109584Y-84683135D01*
X128349410Y-83922962D01*
X128412993Y-83905925D01*
X128527007Y-83840099D01*
X128620099Y-83747007D01*
X128685925Y-83632993D01*
X128702962Y-83569411D01*
X129463135Y-84329584D01*
X129463136Y-84329584D01*
X129486552Y-84273053D01*
X129504544Y-84222053D01*
X129524999Y-84079780D01*
X129525000Y-84079779D01*
X129525000Y-82800224D01*
X129524999Y-82800204D01*
X129522106Y-82746237D01*
X129522106Y-82746235D01*
X129486561Y-82606969D01*
X129486559Y-82606962D01*
X129463135Y-82550414D01*
X128702962Y-83310588D01*
X128685925Y-83247007D01*
X128620099Y-83132993D01*
X128527007Y-83039901D01*
X128412993Y-82974075D01*
X128349410Y-82957037D01*
X129109584Y-82196862D01*
X129053059Y-82173449D01*
X129053048Y-82173445D01*
X129024374Y-82163329D01*
X128967703Y-82122462D01*
X128942122Y-82057443D01*
X128955754Y-81988916D01*
X128992745Y-81946074D01*
X129067215Y-81891969D01*
X129067215Y-81891968D01*
X129067219Y-81891966D01*
X129211966Y-81747219D01*
X129211968Y-81747215D01*
X129211971Y-81747213D01*
X129264732Y-81674590D01*
X129332287Y-81581610D01*
X129425220Y-81399219D01*
X129488477Y-81204534D01*
X129520500Y-81002352D01*
X129520500Y-80797648D01*
X129488477Y-80595466D01*
X129425220Y-80400781D01*
X129425218Y-80400778D01*
X129425218Y-80400776D01*
X129391503Y-80334607D01*
X129332287Y-80218390D01*
X129324556Y-80207749D01*
X129211971Y-80052786D01*
X129067213Y-79908028D01*
X128901614Y-79787715D01*
X128895006Y-79784348D01*
X128808917Y-79740483D01*
X128758123Y-79692511D01*
X128741328Y-79624690D01*
X128763865Y-79558555D01*
X128808917Y-79519516D01*
X128901610Y-79472287D01*
X128922770Y-79456913D01*
X129067213Y-79351971D01*
X129067215Y-79351968D01*
X129067219Y-79351966D01*
X129211966Y-79207219D01*
X129211968Y-79207215D01*
X129211971Y-79207213D01*
X129264732Y-79134590D01*
X129332287Y-79041610D01*
X129425220Y-78859219D01*
X129488477Y-78664534D01*
X129520500Y-78462352D01*
X129520500Y-78257648D01*
X129488477Y-78055466D01*
X129425220Y-77860781D01*
X129425218Y-77860778D01*
X129425218Y-77860776D01*
X129391503Y-77794607D01*
X129332287Y-77678390D01*
X129324556Y-77667749D01*
X129211971Y-77512786D01*
X129067213Y-77368028D01*
X128901614Y-77247715D01*
X128895006Y-77244348D01*
X128808917Y-77200483D01*
X128758123Y-77152511D01*
X128741328Y-77084690D01*
X128763865Y-77018555D01*
X128808917Y-76979516D01*
X128901610Y-76932287D01*
X128922770Y-76916913D01*
X129067213Y-76811971D01*
X129067215Y-76811968D01*
X129067219Y-76811966D01*
X129211966Y-76667219D01*
X129211968Y-76667215D01*
X129211971Y-76667213D01*
X129264732Y-76594590D01*
X129332287Y-76501610D01*
X129425220Y-76319219D01*
X129488477Y-76124534D01*
X129520500Y-75922352D01*
X129520500Y-75717648D01*
X129488477Y-75515466D01*
X129425220Y-75320781D01*
X129425218Y-75320778D01*
X129425218Y-75320776D01*
X129391503Y-75254607D01*
X129332287Y-75138390D01*
X129324556Y-75127749D01*
X129211971Y-74972786D01*
X129067213Y-74828028D01*
X128901614Y-74707715D01*
X128895006Y-74704348D01*
X128808917Y-74660483D01*
X128758123Y-74612511D01*
X128741328Y-74544690D01*
X128763865Y-74478555D01*
X128808917Y-74439516D01*
X128901610Y-74392287D01*
X128922770Y-74376913D01*
X129067213Y-74271971D01*
X129067215Y-74271968D01*
X129067219Y-74271966D01*
X129211966Y-74127219D01*
X129211968Y-74127215D01*
X129211971Y-74127213D01*
X129324260Y-73972658D01*
X129332287Y-73961610D01*
X129425220Y-73779219D01*
X129488477Y-73584534D01*
X129520500Y-73382352D01*
X129520500Y-73177648D01*
X129488477Y-72975465D01*
X129425218Y-72780776D01*
X129391503Y-72714607D01*
X129332287Y-72598390D01*
X129324556Y-72587749D01*
X129211971Y-72432786D01*
X129067217Y-72288032D01*
X128990415Y-72232232D01*
X128947750Y-72176902D01*
X128941771Y-72107288D01*
X128974377Y-72045494D01*
X129032640Y-72011765D01*
X129053039Y-72006559D01*
X129109584Y-71983136D01*
X129109584Y-71983135D01*
X128349410Y-71222962D01*
X128412993Y-71205925D01*
X128527007Y-71140099D01*
X128620099Y-71047007D01*
X128685925Y-70932993D01*
X128702962Y-70869411D01*
X129463135Y-71629584D01*
X129463136Y-71629584D01*
X129486552Y-71573053D01*
X129504544Y-71522053D01*
X129524999Y-71379780D01*
X129525000Y-71379779D01*
X129525000Y-70100224D01*
X129525000Y-70100219D01*
X144694500Y-70100219D01*
X144694500Y-71379784D01*
X144697395Y-71433814D01*
X144697396Y-71433818D01*
X144732976Y-71573221D01*
X144732980Y-71573233D01*
X144763419Y-71646719D01*
X144763431Y-71646747D01*
X144786779Y-71695548D01*
X144786781Y-71695551D01*
X144873006Y-71810733D01*
X144873010Y-71810737D01*
X144873015Y-71810743D01*
X144929252Y-71866980D01*
X144929261Y-71866988D01*
X144929267Y-71866994D01*
X144944740Y-71880893D01*
X144969524Y-71903156D01*
X144969532Y-71903162D01*
X145093263Y-71976573D01*
X145093262Y-71976573D01*
X145100329Y-71979500D01*
X145166774Y-72007022D01*
X145182645Y-72012621D01*
X145195133Y-72017027D01*
X145251805Y-72057894D01*
X145277386Y-72122912D01*
X145263754Y-72191439D01*
X145226765Y-72234281D01*
X145152782Y-72288032D01*
X145008028Y-72432786D01*
X144887715Y-72598386D01*
X144794781Y-72780776D01*
X144731522Y-72975465D01*
X144699500Y-73177648D01*
X144699500Y-73382351D01*
X144731522Y-73584534D01*
X144794781Y-73779223D01*
X144887715Y-73961613D01*
X145008028Y-74127213D01*
X145152786Y-74271971D01*
X145307749Y-74384556D01*
X145318390Y-74392287D01*
X145409840Y-74438883D01*
X145411080Y-74439515D01*
X145461876Y-74487490D01*
X145478671Y-74555311D01*
X145456134Y-74621446D01*
X145411080Y-74660485D01*
X145318386Y-74707715D01*
X145152786Y-74828028D01*
X145008028Y-74972786D01*
X144887715Y-75138386D01*
X144794781Y-75320776D01*
X144731522Y-75515465D01*
X144699500Y-75717648D01*
X144699500Y-75922351D01*
X144731522Y-76124534D01*
X144794781Y-76319223D01*
X144887715Y-76501613D01*
X145008028Y-76667213D01*
X145152786Y-76811971D01*
X145307749Y-76924556D01*
X145318390Y-76932287D01*
X145409840Y-76978883D01*
X145411080Y-76979515D01*
X145461876Y-77027490D01*
X145478671Y-77095311D01*
X145456134Y-77161446D01*
X145411080Y-77200485D01*
X145318386Y-77247715D01*
X145152786Y-77368028D01*
X145008028Y-77512786D01*
X144887715Y-77678386D01*
X144794781Y-77860776D01*
X144731522Y-78055465D01*
X144699500Y-78257648D01*
X144699500Y-78462351D01*
X144731522Y-78664534D01*
X144794781Y-78859223D01*
X144887715Y-79041613D01*
X145008028Y-79207213D01*
X145152786Y-79351971D01*
X145307749Y-79464556D01*
X145318390Y-79472287D01*
X145409840Y-79518883D01*
X145411080Y-79519515D01*
X145461876Y-79567490D01*
X145478671Y-79635311D01*
X145456134Y-79701446D01*
X145411080Y-79740485D01*
X145318386Y-79787715D01*
X145152786Y-79908028D01*
X145008028Y-80052786D01*
X144887715Y-80218386D01*
X144794781Y-80400776D01*
X144731522Y-80595465D01*
X144699500Y-80797648D01*
X144699500Y-81002351D01*
X144731522Y-81204534D01*
X144794781Y-81399223D01*
X144887715Y-81581613D01*
X145008028Y-81747213D01*
X145152782Y-81891967D01*
X145152787Y-81891971D01*
X145229583Y-81947767D01*
X145272249Y-82003097D01*
X145278228Y-82072710D01*
X145245622Y-82134505D01*
X145187365Y-82168233D01*
X145166973Y-82173437D01*
X145166962Y-82173441D01*
X145110415Y-82196863D01*
X145870589Y-82957037D01*
X145807007Y-82974075D01*
X145692993Y-83039901D01*
X145599901Y-83132993D01*
X145534075Y-83247007D01*
X145517037Y-83310589D01*
X144756863Y-82550415D01*
X144756862Y-82550415D01*
X144733446Y-82606947D01*
X144733431Y-82606987D01*
X144715457Y-82657939D01*
X144715455Y-82657946D01*
X144695000Y-82800219D01*
X144695000Y-84079785D01*
X144697893Y-84133762D01*
X144697893Y-84133764D01*
X144733438Y-84273030D01*
X144733442Y-84273043D01*
X144756862Y-84329584D01*
X145517037Y-83569410D01*
X145534075Y-83632993D01*
X145599901Y-83747007D01*
X145692993Y-83840099D01*
X145807007Y-83905925D01*
X145870589Y-83922962D01*
X145110414Y-84683135D01*
X145166960Y-84706557D01*
X145166986Y-84706567D01*
X145195621Y-84716669D01*
X145252294Y-84757534D01*
X145277876Y-84822552D01*
X145264246Y-84891080D01*
X145227256Y-84933924D01*
X145152782Y-84988032D01*
X145008028Y-85132786D01*
X144887715Y-85298386D01*
X144794781Y-85480776D01*
X144731522Y-85675465D01*
X144699500Y-85877648D01*
X144699500Y-86082351D01*
X144731522Y-86284534D01*
X144794781Y-86479223D01*
X144887715Y-86661613D01*
X145008028Y-86827213D01*
X145152786Y-86971971D01*
X145267440Y-87055270D01*
X145318390Y-87092287D01*
X145391425Y-87129500D01*
X145411080Y-87139515D01*
X145461876Y-87187490D01*
X145478671Y-87255311D01*
X145456134Y-87321446D01*
X145411080Y-87360485D01*
X145318386Y-87407715D01*
X145152786Y-87528028D01*
X145008028Y-87672786D01*
X144887715Y-87838386D01*
X144794781Y-88020776D01*
X144731522Y-88215465D01*
X144699500Y-88417648D01*
X144699500Y-88622351D01*
X144731522Y-88824534D01*
X144794781Y-89019223D01*
X144887715Y-89201613D01*
X145008028Y-89367213D01*
X145152786Y-89511971D01*
X145300421Y-89619232D01*
X145318390Y-89632287D01*
X145388956Y-89668242D01*
X145411080Y-89679515D01*
X145461876Y-89727490D01*
X145478671Y-89795311D01*
X145456134Y-89861446D01*
X145411080Y-89900485D01*
X145318386Y-89947715D01*
X145152786Y-90068028D01*
X145008028Y-90212786D01*
X144887715Y-90378386D01*
X144794781Y-90560776D01*
X144731522Y-90755465D01*
X144699500Y-90957648D01*
X144699500Y-91162351D01*
X144731522Y-91364534D01*
X144794781Y-91559223D01*
X144887715Y-91741613D01*
X145008028Y-91907213D01*
X145152786Y-92051971D01*
X145294666Y-92155051D01*
X145318390Y-92172287D01*
X145404003Y-92215909D01*
X145411080Y-92219515D01*
X145461876Y-92267490D01*
X145478671Y-92335311D01*
X145456134Y-92401446D01*
X145411080Y-92440485D01*
X145318386Y-92487715D01*
X145152786Y-92608028D01*
X145008028Y-92752786D01*
X144887715Y-92918386D01*
X144794781Y-93100776D01*
X144731522Y-93295465D01*
X144699500Y-93497648D01*
X144699500Y-93702351D01*
X144731522Y-93904534D01*
X144794781Y-94099223D01*
X144887715Y-94281613D01*
X145008028Y-94447213D01*
X145152782Y-94591967D01*
X145152787Y-94591971D01*
X145229583Y-94647767D01*
X145272249Y-94703097D01*
X145278228Y-94772710D01*
X145245622Y-94834505D01*
X145187365Y-94868233D01*
X145166973Y-94873437D01*
X145166962Y-94873441D01*
X145110415Y-94896863D01*
X145870589Y-95657037D01*
X145807007Y-95674075D01*
X145692993Y-95739901D01*
X145599901Y-95832993D01*
X145534075Y-95947007D01*
X145517037Y-96010589D01*
X144756863Y-95250415D01*
X144756862Y-95250415D01*
X144733446Y-95306947D01*
X144733431Y-95306987D01*
X144715457Y-95357939D01*
X144715455Y-95357946D01*
X144695000Y-95500219D01*
X144695000Y-96779785D01*
X144697893Y-96833762D01*
X144697893Y-96833764D01*
X144733438Y-96973030D01*
X144733442Y-96973043D01*
X144756862Y-97029584D01*
X145517037Y-96269410D01*
X145534075Y-96332993D01*
X145599901Y-96447007D01*
X145692993Y-96540099D01*
X145807007Y-96605925D01*
X145870589Y-96622962D01*
X145110414Y-97383135D01*
X145166960Y-97406557D01*
X145166986Y-97406567D01*
X145195621Y-97416669D01*
X145252294Y-97457534D01*
X145277876Y-97522552D01*
X145264246Y-97591080D01*
X145227256Y-97633924D01*
X145152782Y-97688032D01*
X145008028Y-97832786D01*
X144887715Y-97998386D01*
X144794781Y-98180776D01*
X144731522Y-98375465D01*
X144699500Y-98577648D01*
X144699500Y-98782351D01*
X144731522Y-98984534D01*
X144794781Y-99179223D01*
X144887715Y-99361613D01*
X145008028Y-99527213D01*
X145152786Y-99671971D01*
X145307749Y-99784556D01*
X145318390Y-99792287D01*
X145409840Y-99838883D01*
X145411080Y-99839515D01*
X145461876Y-99887490D01*
X145478671Y-99955311D01*
X145456134Y-100021446D01*
X145411080Y-100060485D01*
X145318386Y-100107715D01*
X145152786Y-100228028D01*
X145008028Y-100372786D01*
X144887715Y-100538386D01*
X144794781Y-100720776D01*
X144731522Y-100915465D01*
X144699500Y-101117648D01*
X144699500Y-101322351D01*
X144731522Y-101524534D01*
X144794781Y-101719223D01*
X144887715Y-101901613D01*
X145008028Y-102067213D01*
X145152786Y-102211971D01*
X145307749Y-102324556D01*
X145318390Y-102332287D01*
X145434607Y-102391503D01*
X145500776Y-102425218D01*
X145500778Y-102425218D01*
X145500781Y-102425220D01*
X145605137Y-102459127D01*
X145695465Y-102488477D01*
X145796557Y-102504488D01*
X145897648Y-102520500D01*
X145897649Y-102520500D01*
X146102351Y-102520500D01*
X146102352Y-102520500D01*
X146304534Y-102488477D01*
X146499219Y-102425220D01*
X146681610Y-102332287D01*
X146774590Y-102264732D01*
X146847213Y-102211971D01*
X146847215Y-102211968D01*
X146847219Y-102211966D01*
X146991966Y-102067219D01*
X146991968Y-102067215D01*
X146991971Y-102067213D01*
X147044732Y-101994590D01*
X147112287Y-101901610D01*
X147205220Y-101719219D01*
X147268477Y-101524534D01*
X147300500Y-101322352D01*
X147300500Y-101117648D01*
X147268477Y-100915466D01*
X147205220Y-100720781D01*
X147205218Y-100720778D01*
X147205218Y-100720776D01*
X147171503Y-100654607D01*
X147112287Y-100538390D01*
X147104556Y-100527749D01*
X146991971Y-100372786D01*
X146847213Y-100228028D01*
X146681614Y-100107715D01*
X146675006Y-100104348D01*
X146588917Y-100060483D01*
X146538123Y-100012511D01*
X146521328Y-99944690D01*
X146543865Y-99878555D01*
X146588917Y-99839516D01*
X146681610Y-99792287D01*
X146702770Y-99776913D01*
X146847213Y-99671971D01*
X146847215Y-99671968D01*
X146847219Y-99671966D01*
X146991966Y-99527219D01*
X146991968Y-99527215D01*
X146991971Y-99527213D01*
X147044732Y-99454590D01*
X147112287Y-99361610D01*
X147205220Y-99179219D01*
X147268477Y-98984534D01*
X147300500Y-98782352D01*
X147300500Y-98577648D01*
X147268477Y-98375466D01*
X147205220Y-98180781D01*
X147205218Y-98180778D01*
X147205218Y-98180776D01*
X147171503Y-98114607D01*
X147112287Y-97998390D01*
X147104556Y-97987749D01*
X146991971Y-97832786D01*
X146847213Y-97688028D01*
X146681614Y-97567715D01*
X146673410Y-97563535D01*
X146595703Y-97523941D01*
X146544908Y-97475968D01*
X146528113Y-97408147D01*
X146550650Y-97342012D01*
X146593546Y-97304099D01*
X146659503Y-97268843D01*
X146659515Y-97268837D01*
X146728913Y-97222465D01*
X146129410Y-96622962D01*
X146192993Y-96605925D01*
X146307007Y-96540099D01*
X146400099Y-96447007D01*
X146465925Y-96332993D01*
X146482962Y-96269410D01*
X147082465Y-96868913D01*
X147128837Y-96799515D01*
X147128838Y-96799511D01*
X147175509Y-96712198D01*
X147235814Y-96566612D01*
X147264555Y-96471864D01*
X147295298Y-96317302D01*
X147295298Y-96317299D01*
X147305000Y-96218789D01*
X147305000Y-96061210D01*
X147295298Y-95962700D01*
X147295298Y-95962697D01*
X147264555Y-95808135D01*
X147235814Y-95713387D01*
X147175509Y-95567801D01*
X147128844Y-95480498D01*
X147128838Y-95480488D01*
X147082465Y-95411085D01*
X146482962Y-96010588D01*
X146465925Y-95947007D01*
X146400099Y-95832993D01*
X146307007Y-95739901D01*
X146192993Y-95674075D01*
X146129410Y-95657037D01*
X146728912Y-95057534D01*
X146659511Y-95011161D01*
X146659500Y-95011155D01*
X146593545Y-94975900D01*
X146543701Y-94926937D01*
X146528241Y-94858799D01*
X146552073Y-94793119D01*
X146595702Y-94756059D01*
X146681610Y-94712287D01*
X146772745Y-94646074D01*
X146847213Y-94591971D01*
X146847215Y-94591968D01*
X146847219Y-94591966D01*
X146991966Y-94447219D01*
X146991968Y-94447215D01*
X146991971Y-94447213D01*
X147044732Y-94374590D01*
X147112287Y-94281610D01*
X147205220Y-94099219D01*
X147268477Y-93904534D01*
X147300500Y-93702352D01*
X147300500Y-93497648D01*
X147268477Y-93295466D01*
X147205220Y-93100781D01*
X147205218Y-93100778D01*
X147205218Y-93100776D01*
X147171503Y-93034607D01*
X147112287Y-92918390D01*
X147104556Y-92907749D01*
X146991971Y-92752786D01*
X146847213Y-92608028D01*
X146681614Y-92487715D01*
X146642271Y-92467669D01*
X146588917Y-92440483D01*
X146538123Y-92392511D01*
X146521328Y-92324690D01*
X146543865Y-92258555D01*
X146588917Y-92219516D01*
X146681610Y-92172287D01*
X146795072Y-92089853D01*
X146847213Y-92051971D01*
X146847215Y-92051968D01*
X146847219Y-92051966D01*
X146991966Y-91907219D01*
X146991968Y-91907215D01*
X146991971Y-91907213D01*
X147044732Y-91834590D01*
X147112287Y-91741610D01*
X147205220Y-91559219D01*
X147268477Y-91364534D01*
X147300500Y-91162352D01*
X147300500Y-90957648D01*
X147292674Y-90908237D01*
X147268477Y-90755465D01*
X147205218Y-90560776D01*
X147164869Y-90481588D01*
X147112287Y-90378390D01*
X147064186Y-90312184D01*
X146991971Y-90212786D01*
X146847213Y-90068028D01*
X146681614Y-89947715D01*
X146675006Y-89944348D01*
X146588917Y-89900483D01*
X146538123Y-89852511D01*
X146521328Y-89784690D01*
X146543865Y-89718555D01*
X146588917Y-89679516D01*
X146681610Y-89632287D01*
X146760088Y-89575270D01*
X146847213Y-89511971D01*
X146847215Y-89511968D01*
X146847219Y-89511966D01*
X146991966Y-89367219D01*
X146991968Y-89367215D01*
X146991971Y-89367213D01*
X147044732Y-89294590D01*
X147112287Y-89201610D01*
X147205220Y-89019219D01*
X147268477Y-88824534D01*
X147300500Y-88622352D01*
X147300500Y-88417648D01*
X147293541Y-88373713D01*
X150649500Y-88373713D01*
X150649500Y-88586287D01*
X150682754Y-88796243D01*
X150741881Y-88978217D01*
X150748444Y-88998414D01*
X150844951Y-89187820D01*
X150969890Y-89359786D01*
X151120213Y-89510109D01*
X151292182Y-89635050D01*
X151300946Y-89639516D01*
X151351742Y-89687491D01*
X151368536Y-89755312D01*
X151345998Y-89821447D01*
X151300946Y-89860484D01*
X151292182Y-89864949D01*
X151120213Y-89989890D01*
X150969890Y-90140213D01*
X150844951Y-90312179D01*
X150748444Y-90501585D01*
X150682753Y-90703760D01*
X150674564Y-90755465D01*
X150649500Y-90913713D01*
X150649500Y-91126287D01*
X150659534Y-91189644D01*
X150679585Y-91316239D01*
X150682754Y-91336243D01*
X150741945Y-91518414D01*
X150748444Y-91538414D01*
X150844951Y-91727820D01*
X150969890Y-91899786D01*
X151083430Y-92013326D01*
X151116915Y-92074649D01*
X151111931Y-92144341D01*
X151070059Y-92200274D01*
X151039083Y-92217189D01*
X150907669Y-92266203D01*
X150907664Y-92266206D01*
X150792455Y-92352452D01*
X150792452Y-92352455D01*
X150706206Y-92467664D01*
X150706202Y-92467671D01*
X150655908Y-92602517D01*
X150651651Y-92642116D01*
X150649501Y-92662123D01*
X150649500Y-92662135D01*
X150649500Y-94457870D01*
X150649501Y-94457876D01*
X150655908Y-94517483D01*
X150706202Y-94652328D01*
X150706206Y-94652335D01*
X150792452Y-94767544D01*
X150792455Y-94767547D01*
X150907664Y-94853793D01*
X150907671Y-94853797D01*
X151042517Y-94904091D01*
X151042516Y-94904091D01*
X151049444Y-94904835D01*
X151102127Y-94910500D01*
X152897872Y-94910499D01*
X152957483Y-94904091D01*
X153092331Y-94853796D01*
X153207546Y-94767546D01*
X153293796Y-94652331D01*
X153344091Y-94517483D01*
X153350500Y-94457873D01*
X153350499Y-92662128D01*
X153344091Y-92602517D01*
X153336631Y-92582517D01*
X153293797Y-92467671D01*
X153293793Y-92467664D01*
X153207547Y-92352455D01*
X153207544Y-92352452D01*
X153092335Y-92266206D01*
X153092328Y-92266202D01*
X152960917Y-92217189D01*
X152904983Y-92175318D01*
X152880566Y-92109853D01*
X152895418Y-92041580D01*
X152916563Y-92013332D01*
X153030104Y-91899792D01*
X153155051Y-91727816D01*
X153251557Y-91538412D01*
X153317246Y-91336243D01*
X153350500Y-91126287D01*
X153350500Y-90913713D01*
X153347332Y-90893713D01*
X155399500Y-90893713D01*
X155399500Y-91106287D01*
X155432754Y-91316243D01*
X155440003Y-91338554D01*
X155498444Y-91518414D01*
X155594951Y-91707820D01*
X155719890Y-91879786D01*
X155833430Y-91993326D01*
X155866915Y-92054649D01*
X155861931Y-92124341D01*
X155820059Y-92180274D01*
X155789083Y-92197189D01*
X155657669Y-92246203D01*
X155657664Y-92246206D01*
X155542455Y-92332452D01*
X155542452Y-92332455D01*
X155456206Y-92447664D01*
X155456202Y-92447671D01*
X155405908Y-92582517D01*
X155399501Y-92642116D01*
X155399500Y-92642135D01*
X155399500Y-94437870D01*
X155399501Y-94437876D01*
X155405908Y-94497483D01*
X155456202Y-94632328D01*
X155456206Y-94632335D01*
X155542452Y-94747544D01*
X155542455Y-94747547D01*
X155657664Y-94833793D01*
X155657671Y-94833797D01*
X155792517Y-94884091D01*
X155792516Y-94884091D01*
X155799444Y-94884835D01*
X155852127Y-94890500D01*
X157647872Y-94890499D01*
X157707483Y-94884091D01*
X157842331Y-94833796D01*
X157957546Y-94747546D01*
X158043796Y-94632331D01*
X158094091Y-94497483D01*
X158100500Y-94437873D01*
X158100499Y-92642128D01*
X158100498Y-92642116D01*
X158100498Y-92642114D01*
X158099955Y-92637063D01*
X158099955Y-92637062D01*
X158099954Y-92637059D01*
X158098887Y-92627135D01*
X159899500Y-92627135D01*
X159899500Y-94422870D01*
X159899501Y-94422876D01*
X159905908Y-94482483D01*
X159956202Y-94617328D01*
X159956206Y-94617335D01*
X160042452Y-94732544D01*
X160042455Y-94732547D01*
X160157664Y-94818793D01*
X160157671Y-94818797D01*
X160292517Y-94869091D01*
X160292516Y-94869091D01*
X160299444Y-94869835D01*
X160352127Y-94875500D01*
X162147872Y-94875499D01*
X162207483Y-94869091D01*
X162342331Y-94818796D01*
X162457546Y-94732546D01*
X162543796Y-94617331D01*
X162594091Y-94482483D01*
X162600500Y-94422873D01*
X162600499Y-92627128D01*
X162594091Y-92567517D01*
X162556848Y-92467664D01*
X162543797Y-92432671D01*
X162543793Y-92432664D01*
X162457547Y-92317455D01*
X162457544Y-92317452D01*
X162342335Y-92231206D01*
X162342328Y-92231202D01*
X162207482Y-92180908D01*
X162207483Y-92180908D01*
X162147883Y-92174501D01*
X162147881Y-92174500D01*
X162147873Y-92174500D01*
X162147865Y-92174500D01*
X162137309Y-92174500D01*
X162070270Y-92154815D01*
X162049628Y-92138181D01*
X161379408Y-91467962D01*
X161442993Y-91450925D01*
X161557007Y-91385099D01*
X161650099Y-91292007D01*
X161715925Y-91177993D01*
X161732962Y-91114409D01*
X162365270Y-91746717D01*
X162365270Y-91746716D01*
X162404622Y-91692554D01*
X162501095Y-91503217D01*
X162566757Y-91301130D01*
X162566757Y-91301127D01*
X162600000Y-91091246D01*
X162600000Y-90878753D01*
X162566757Y-90668872D01*
X162566757Y-90668869D01*
X162501095Y-90466782D01*
X162404624Y-90277449D01*
X162365270Y-90223282D01*
X162365269Y-90223282D01*
X161732962Y-90855590D01*
X161715925Y-90792007D01*
X161650099Y-90677993D01*
X161557007Y-90584901D01*
X161442993Y-90519075D01*
X161379409Y-90502037D01*
X162011716Y-89869728D01*
X161957550Y-89830375D01*
X161768217Y-89733904D01*
X161566129Y-89668242D01*
X161356246Y-89635000D01*
X161143754Y-89635000D01*
X160933872Y-89668242D01*
X160933869Y-89668242D01*
X160731782Y-89733904D01*
X160542439Y-89830380D01*
X160488282Y-89869727D01*
X160488282Y-89869728D01*
X161120591Y-90502037D01*
X161057007Y-90519075D01*
X160942993Y-90584901D01*
X160849901Y-90677993D01*
X160784075Y-90792007D01*
X160767037Y-90855591D01*
X160134728Y-90223282D01*
X160134727Y-90223282D01*
X160095380Y-90277439D01*
X159998904Y-90466782D01*
X159933242Y-90668869D01*
X159933242Y-90668872D01*
X159900000Y-90878753D01*
X159900000Y-91091246D01*
X159933242Y-91301127D01*
X159933242Y-91301130D01*
X159998904Y-91503217D01*
X160095375Y-91692550D01*
X160134728Y-91746716D01*
X160767037Y-91114408D01*
X160784075Y-91177993D01*
X160849901Y-91292007D01*
X160942993Y-91385099D01*
X161057007Y-91450925D01*
X161120590Y-91467962D01*
X160450370Y-92138181D01*
X160389047Y-92171666D01*
X160362698Y-92174500D01*
X160352134Y-92174500D01*
X160352123Y-92174501D01*
X160292516Y-92180908D01*
X160157671Y-92231202D01*
X160157664Y-92231206D01*
X160042455Y-92317452D01*
X160042452Y-92317455D01*
X159956206Y-92432664D01*
X159956202Y-92432671D01*
X159905908Y-92567517D01*
X159899501Y-92627116D01*
X159899501Y-92627123D01*
X159899500Y-92627135D01*
X158098887Y-92627135D01*
X158098886Y-92627128D01*
X158094091Y-92582517D01*
X158088496Y-92567517D01*
X158043797Y-92447671D01*
X158043793Y-92447664D01*
X157957547Y-92332455D01*
X157957544Y-92332452D01*
X157842335Y-92246206D01*
X157842328Y-92246202D01*
X157710917Y-92197189D01*
X157654983Y-92155318D01*
X157630566Y-92089853D01*
X157645418Y-92021580D01*
X157666563Y-91993332D01*
X157780104Y-91879792D01*
X157905051Y-91707816D01*
X158001557Y-91518412D01*
X158067246Y-91316243D01*
X158100500Y-91106287D01*
X158100500Y-90893713D01*
X158067246Y-90683757D01*
X158001557Y-90481588D01*
X157905051Y-90292184D01*
X157905049Y-90292181D01*
X157905048Y-90292179D01*
X157780109Y-90120213D01*
X157629786Y-89969890D01*
X157457817Y-89844949D01*
X157448504Y-89840204D01*
X157397707Y-89792230D01*
X157380912Y-89724409D01*
X157403449Y-89658274D01*
X157448507Y-89619232D01*
X157457555Y-89614622D01*
X157511716Y-89575270D01*
X157511717Y-89575270D01*
X156879408Y-88942962D01*
X156942993Y-88925925D01*
X157057007Y-88860099D01*
X157150099Y-88767007D01*
X157215925Y-88652993D01*
X157232962Y-88589409D01*
X157865270Y-89221717D01*
X157865270Y-89221716D01*
X157904622Y-89167554D01*
X158001095Y-88978217D01*
X158066757Y-88776130D01*
X158066757Y-88776127D01*
X158100000Y-88566246D01*
X158100000Y-88353753D01*
X158066757Y-88143872D01*
X158066757Y-88143869D01*
X158001095Y-87941782D01*
X157904624Y-87752449D01*
X157865270Y-87698282D01*
X157865269Y-87698282D01*
X157232962Y-88330590D01*
X157215925Y-88267007D01*
X157150099Y-88152993D01*
X157057007Y-88059901D01*
X156942993Y-87994075D01*
X156879409Y-87977037D01*
X157511716Y-87344728D01*
X157457550Y-87305375D01*
X157268217Y-87208904D01*
X157066129Y-87143242D01*
X156856246Y-87110000D01*
X156643754Y-87110000D01*
X156433872Y-87143242D01*
X156433869Y-87143242D01*
X156231782Y-87208904D01*
X156042439Y-87305380D01*
X155988282Y-87344727D01*
X155988282Y-87344728D01*
X156620591Y-87977037D01*
X156557007Y-87994075D01*
X156442993Y-88059901D01*
X156349901Y-88152993D01*
X156284075Y-88267007D01*
X156267037Y-88330591D01*
X155634728Y-87698282D01*
X155634727Y-87698282D01*
X155595380Y-87752439D01*
X155498904Y-87941782D01*
X155433242Y-88143869D01*
X155433242Y-88143872D01*
X155400000Y-88353753D01*
X155400000Y-88566246D01*
X155433242Y-88776127D01*
X155433242Y-88776130D01*
X155498904Y-88978217D01*
X155595375Y-89167550D01*
X155634728Y-89221716D01*
X156267037Y-88589408D01*
X156284075Y-88652993D01*
X156349901Y-88767007D01*
X156442993Y-88860099D01*
X156557007Y-88925925D01*
X156620590Y-88942962D01*
X155988282Y-89575269D01*
X155988282Y-89575270D01*
X156042452Y-89614626D01*
X156042451Y-89614626D01*
X156051495Y-89619234D01*
X156102292Y-89667208D01*
X156119087Y-89735029D01*
X156096550Y-89801164D01*
X156051499Y-89840202D01*
X156042182Y-89844949D01*
X155870213Y-89969890D01*
X155719890Y-90120213D01*
X155594951Y-90292179D01*
X155498444Y-90481585D01*
X155432753Y-90683760D01*
X155421396Y-90755465D01*
X155399500Y-90893713D01*
X153347332Y-90893713D01*
X153317246Y-90703757D01*
X153251557Y-90501588D01*
X153155051Y-90312184D01*
X153155049Y-90312181D01*
X153155048Y-90312179D01*
X153030109Y-90140213D01*
X152879786Y-89989890D01*
X152707820Y-89864951D01*
X152707115Y-89864591D01*
X152699054Y-89860485D01*
X152648259Y-89812512D01*
X152631463Y-89744692D01*
X152653999Y-89678556D01*
X152699054Y-89639515D01*
X152707816Y-89635051D01*
X152790098Y-89575270D01*
X152879786Y-89510109D01*
X152879788Y-89510106D01*
X152879792Y-89510104D01*
X153030104Y-89359792D01*
X153030106Y-89359788D01*
X153030109Y-89359786D01*
X153155048Y-89187820D01*
X153155047Y-89187820D01*
X153155051Y-89187816D01*
X153251557Y-88998412D01*
X153317246Y-88796243D01*
X153350500Y-88586287D01*
X153350500Y-88373713D01*
X153317246Y-88163757D01*
X153251557Y-87961588D01*
X153155051Y-87772184D01*
X153155049Y-87772181D01*
X153155048Y-87772179D01*
X153030109Y-87600213D01*
X152879786Y-87449890D01*
X152707817Y-87324949D01*
X152698504Y-87320204D01*
X152647707Y-87272230D01*
X152630912Y-87204409D01*
X152653449Y-87138274D01*
X152698507Y-87099232D01*
X152707555Y-87094622D01*
X152761716Y-87055270D01*
X152761717Y-87055270D01*
X152129408Y-86422962D01*
X152192993Y-86405925D01*
X152307007Y-86340099D01*
X152400099Y-86247007D01*
X152465925Y-86132993D01*
X152482962Y-86069408D01*
X153115270Y-86701717D01*
X153115270Y-86701716D01*
X153154622Y-86647554D01*
X153251095Y-86458217D01*
X153316757Y-86256130D01*
X153316757Y-86256127D01*
X153350000Y-86046246D01*
X153350000Y-85833753D01*
X153316757Y-85623872D01*
X153316757Y-85623869D01*
X153251095Y-85421782D01*
X153154624Y-85232449D01*
X153115270Y-85178282D01*
X153115269Y-85178282D01*
X152482962Y-85810590D01*
X152465925Y-85747007D01*
X152400099Y-85632993D01*
X152307007Y-85539901D01*
X152192993Y-85474075D01*
X152129409Y-85457037D01*
X152761716Y-84824728D01*
X152707550Y-84785375D01*
X152518217Y-84688904D01*
X152316129Y-84623242D01*
X152106246Y-84590000D01*
X151893754Y-84590000D01*
X151683872Y-84623242D01*
X151683869Y-84623242D01*
X151481782Y-84688904D01*
X151292439Y-84785380D01*
X151238282Y-84824727D01*
X151238282Y-84824728D01*
X151870591Y-85457037D01*
X151807007Y-85474075D01*
X151692993Y-85539901D01*
X151599901Y-85632993D01*
X151534075Y-85747007D01*
X151517037Y-85810591D01*
X150884728Y-85178282D01*
X150884727Y-85178282D01*
X150845380Y-85232439D01*
X150748904Y-85421782D01*
X150683242Y-85623869D01*
X150683242Y-85623872D01*
X150650000Y-85833753D01*
X150650000Y-86046246D01*
X150683242Y-86256127D01*
X150683242Y-86256130D01*
X150748904Y-86458217D01*
X150845375Y-86647550D01*
X150884728Y-86701716D01*
X151517037Y-86069408D01*
X151534075Y-86132993D01*
X151599901Y-86247007D01*
X151692993Y-86340099D01*
X151807007Y-86405925D01*
X151870590Y-86422962D01*
X151238282Y-87055269D01*
X151238282Y-87055270D01*
X151292452Y-87094626D01*
X151292451Y-87094626D01*
X151301495Y-87099234D01*
X151352292Y-87147208D01*
X151369087Y-87215029D01*
X151346550Y-87281164D01*
X151301499Y-87320202D01*
X151292182Y-87324949D01*
X151120213Y-87449890D01*
X150969890Y-87600213D01*
X150844951Y-87772179D01*
X150748444Y-87961585D01*
X150682753Y-88163760D01*
X150652661Y-88353753D01*
X150649500Y-88373713D01*
X147293541Y-88373713D01*
X147290380Y-88353753D01*
X147268477Y-88215465D01*
X147205218Y-88020776D01*
X147164968Y-87941782D01*
X147112287Y-87838390D01*
X147064186Y-87772184D01*
X146991971Y-87672786D01*
X146847213Y-87528028D01*
X146681614Y-87407715D01*
X146675006Y-87404348D01*
X146588917Y-87360483D01*
X146538123Y-87312511D01*
X146521328Y-87244690D01*
X146543865Y-87178555D01*
X146588917Y-87139516D01*
X146681610Y-87092287D01*
X146732560Y-87055270D01*
X146847213Y-86971971D01*
X146847215Y-86971968D01*
X146847219Y-86971966D01*
X146991966Y-86827219D01*
X146991968Y-86827215D01*
X146991971Y-86827213D01*
X147044732Y-86754590D01*
X147112287Y-86661610D01*
X147205220Y-86479219D01*
X147268477Y-86284534D01*
X147300500Y-86082352D01*
X147300500Y-85877648D01*
X147268477Y-85675466D01*
X147205220Y-85480781D01*
X147205218Y-85480778D01*
X147205218Y-85480776D01*
X147171503Y-85414607D01*
X147112287Y-85298390D01*
X147104556Y-85287749D01*
X146991971Y-85132786D01*
X146847219Y-84988034D01*
X146825571Y-84972306D01*
X146825569Y-84972303D01*
X146681614Y-84867715D01*
X146597245Y-84824727D01*
X146595703Y-84823941D01*
X146544908Y-84775968D01*
X146528113Y-84708147D01*
X146550650Y-84642012D01*
X146593546Y-84604099D01*
X146659503Y-84568843D01*
X146659515Y-84568837D01*
X146728913Y-84522465D01*
X146129410Y-83922962D01*
X146192993Y-83905925D01*
X146307007Y-83840099D01*
X146400099Y-83747007D01*
X146465925Y-83632993D01*
X146482962Y-83569410D01*
X147082465Y-84168913D01*
X147128837Y-84099515D01*
X147128838Y-84099511D01*
X147175509Y-84012198D01*
X147235814Y-83866612D01*
X147264555Y-83771864D01*
X147295298Y-83617302D01*
X147295298Y-83617299D01*
X147305000Y-83518789D01*
X147305000Y-83361210D01*
X147295298Y-83262700D01*
X147295298Y-83262697D01*
X147264555Y-83108135D01*
X147235814Y-83013387D01*
X147175509Y-82867801D01*
X147128844Y-82780498D01*
X147128838Y-82780488D01*
X147082465Y-82711085D01*
X146482962Y-83310588D01*
X146465925Y-83247007D01*
X146400099Y-83132993D01*
X146307007Y-83039901D01*
X146192993Y-82974075D01*
X146129410Y-82957037D01*
X146728912Y-82357534D01*
X146659511Y-82311161D01*
X146659500Y-82311155D01*
X146593545Y-82275900D01*
X146543701Y-82226937D01*
X146528241Y-82158799D01*
X146552073Y-82093119D01*
X146595702Y-82056059D01*
X146681610Y-82012287D01*
X146772745Y-81946074D01*
X146847213Y-81891971D01*
X146847215Y-81891968D01*
X146847219Y-81891966D01*
X146991966Y-81747219D01*
X146991968Y-81747215D01*
X146991971Y-81747213D01*
X147044732Y-81674590D01*
X147112287Y-81581610D01*
X147205220Y-81399219D01*
X147268477Y-81204534D01*
X147300500Y-81002352D01*
X147300500Y-80797648D01*
X147268477Y-80595466D01*
X147205220Y-80400781D01*
X147205218Y-80400778D01*
X147205218Y-80400776D01*
X147171503Y-80334607D01*
X147112287Y-80218390D01*
X147104556Y-80207749D01*
X146991971Y-80052786D01*
X146847213Y-79908028D01*
X146681614Y-79787715D01*
X146675006Y-79784348D01*
X146588917Y-79740483D01*
X146538123Y-79692511D01*
X146521328Y-79624690D01*
X146543865Y-79558555D01*
X146588917Y-79519516D01*
X146681610Y-79472287D01*
X146702770Y-79456913D01*
X146847213Y-79351971D01*
X146847215Y-79351968D01*
X146847219Y-79351966D01*
X146991966Y-79207219D01*
X146991968Y-79207215D01*
X146991971Y-79207213D01*
X147044732Y-79134590D01*
X147112287Y-79041610D01*
X147205220Y-78859219D01*
X147268477Y-78664534D01*
X147300500Y-78462352D01*
X147300500Y-78257648D01*
X147268477Y-78055466D01*
X147205220Y-77860781D01*
X147205218Y-77860778D01*
X147205218Y-77860776D01*
X147171503Y-77794607D01*
X147112287Y-77678390D01*
X147104556Y-77667749D01*
X146991971Y-77512786D01*
X146847213Y-77368028D01*
X146681614Y-77247715D01*
X146675006Y-77244348D01*
X146588917Y-77200483D01*
X146538123Y-77152511D01*
X146521328Y-77084690D01*
X146543865Y-77018555D01*
X146588917Y-76979516D01*
X146681610Y-76932287D01*
X146702770Y-76916913D01*
X146847213Y-76811971D01*
X146847215Y-76811968D01*
X146847219Y-76811966D01*
X146991966Y-76667219D01*
X146991968Y-76667215D01*
X146991971Y-76667213D01*
X147044732Y-76594590D01*
X147112287Y-76501610D01*
X147205220Y-76319219D01*
X147268477Y-76124534D01*
X147300500Y-75922352D01*
X147300500Y-75717648D01*
X147268477Y-75515466D01*
X147205220Y-75320781D01*
X147205218Y-75320778D01*
X147205218Y-75320776D01*
X147171503Y-75254607D01*
X147112287Y-75138390D01*
X147104556Y-75127749D01*
X146991971Y-74972786D01*
X146847213Y-74828028D01*
X146681614Y-74707715D01*
X146675006Y-74704348D01*
X146588917Y-74660483D01*
X146538123Y-74612511D01*
X146521328Y-74544690D01*
X146543865Y-74478555D01*
X146588917Y-74439516D01*
X146681610Y-74392287D01*
X146702770Y-74376913D01*
X146847213Y-74271971D01*
X146847215Y-74271968D01*
X146847219Y-74271966D01*
X146991966Y-74127219D01*
X146991968Y-74127215D01*
X146991971Y-74127213D01*
X147112284Y-73961614D01*
X147112285Y-73961613D01*
X147112287Y-73961610D01*
X147205220Y-73779219D01*
X147268477Y-73584534D01*
X147300500Y-73382352D01*
X147300500Y-73177648D01*
X147268477Y-72975465D01*
X147256388Y-72938261D01*
X147205220Y-72780781D01*
X147155587Y-72683370D01*
X147155586Y-72683366D01*
X147129386Y-72631947D01*
X153500000Y-72631947D01*
X153500000Y-72868052D01*
X153536934Y-73101247D01*
X153609897Y-73325802D01*
X153717087Y-73536174D01*
X153777338Y-73619104D01*
X153777340Y-73619105D01*
X154476212Y-72920233D01*
X154487482Y-72962292D01*
X154559890Y-73087708D01*
X154662292Y-73190110D01*
X154787708Y-73262518D01*
X154829765Y-73273787D01*
X154130893Y-73972658D01*
X154213828Y-74032914D01*
X154424197Y-74140102D01*
X154648752Y-74213065D01*
X154648751Y-74213065D01*
X154881948Y-74250000D01*
X155118052Y-74250000D01*
X155351247Y-74213065D01*
X155575802Y-74140102D01*
X155786163Y-74032918D01*
X155786169Y-74032914D01*
X155869104Y-73972658D01*
X155869105Y-73972658D01*
X155170233Y-73273787D01*
X155212292Y-73262518D01*
X155337708Y-73190110D01*
X155440110Y-73087708D01*
X155512518Y-72962292D01*
X155523787Y-72920234D01*
X156222658Y-73619105D01*
X156222658Y-73619104D01*
X156282914Y-73536169D01*
X156282918Y-73536163D01*
X156390102Y-73325802D01*
X156463065Y-73101247D01*
X156500000Y-72868052D01*
X156500000Y-72631947D01*
X160000000Y-72631947D01*
X160000000Y-72868052D01*
X160036934Y-73101247D01*
X160109897Y-73325802D01*
X160217087Y-73536174D01*
X160277338Y-73619104D01*
X160277340Y-73619105D01*
X160976212Y-72920233D01*
X160987482Y-72962292D01*
X161059890Y-73087708D01*
X161162292Y-73190110D01*
X161287708Y-73262518D01*
X161329765Y-73273787D01*
X160630893Y-73972658D01*
X160713828Y-74032914D01*
X160924197Y-74140102D01*
X161148752Y-74213065D01*
X161148751Y-74213065D01*
X161381948Y-74250000D01*
X161618052Y-74250000D01*
X161851247Y-74213065D01*
X162075802Y-74140102D01*
X162286163Y-74032918D01*
X162286169Y-74032914D01*
X162369104Y-73972658D01*
X162369105Y-73972658D01*
X161670233Y-73273787D01*
X161712292Y-73262518D01*
X161837708Y-73190110D01*
X161940110Y-73087708D01*
X162012518Y-72962292D01*
X162023787Y-72920234D01*
X162722658Y-73619105D01*
X162722658Y-73619104D01*
X162782914Y-73536169D01*
X162782918Y-73536163D01*
X162890102Y-73325802D01*
X162963065Y-73101247D01*
X163000000Y-72868052D01*
X163000000Y-72631947D01*
X162963065Y-72398752D01*
X162890102Y-72174197D01*
X162782914Y-71963828D01*
X162722658Y-71880894D01*
X162722658Y-71880893D01*
X162023787Y-72579765D01*
X162012518Y-72537708D01*
X161940110Y-72412292D01*
X161837708Y-72309890D01*
X161712292Y-72237482D01*
X161670234Y-72226212D01*
X162369105Y-71527340D01*
X162369104Y-71527338D01*
X162286174Y-71467087D01*
X162075802Y-71359897D01*
X161851247Y-71286934D01*
X161851248Y-71286934D01*
X161618052Y-71250000D01*
X161381948Y-71250000D01*
X161148752Y-71286934D01*
X160924197Y-71359897D01*
X160713830Y-71467084D01*
X160630894Y-71527340D01*
X161329766Y-72226212D01*
X161287708Y-72237482D01*
X161162292Y-72309890D01*
X161059890Y-72412292D01*
X160987482Y-72537708D01*
X160976212Y-72579766D01*
X160277340Y-71880894D01*
X160217084Y-71963830D01*
X160109897Y-72174197D01*
X160036934Y-72398752D01*
X160000000Y-72631947D01*
X156500000Y-72631947D01*
X156463065Y-72398752D01*
X156390102Y-72174197D01*
X156282914Y-71963828D01*
X156222658Y-71880894D01*
X156222658Y-71880893D01*
X155523787Y-72579765D01*
X155512518Y-72537708D01*
X155440110Y-72412292D01*
X155337708Y-72309890D01*
X155212292Y-72237482D01*
X155170234Y-72226212D01*
X155869105Y-71527340D01*
X155869104Y-71527339D01*
X155786174Y-71467087D01*
X155575802Y-71359897D01*
X155351247Y-71286934D01*
X155351248Y-71286934D01*
X155118052Y-71250000D01*
X154881948Y-71250000D01*
X154648752Y-71286934D01*
X154424197Y-71359897D01*
X154213830Y-71467084D01*
X154130894Y-71527340D01*
X154829766Y-72226212D01*
X154787708Y-72237482D01*
X154662292Y-72309890D01*
X154559890Y-72412292D01*
X154487482Y-72537708D01*
X154476212Y-72579766D01*
X153777340Y-71880894D01*
X153717084Y-71963830D01*
X153609897Y-72174197D01*
X153536934Y-72398752D01*
X153500000Y-72631947D01*
X147129386Y-72631947D01*
X147112288Y-72598391D01*
X147112287Y-72598389D01*
X146991971Y-72432786D01*
X146847213Y-72288028D01*
X146681613Y-72167715D01*
X146681612Y-72167714D01*
X146681610Y-72167713D01*
X146628947Y-72140880D01*
X146596245Y-72124217D01*
X146545449Y-72076242D01*
X146528654Y-72008421D01*
X146551192Y-71942286D01*
X146594083Y-71904376D01*
X146659783Y-71869259D01*
X146790811Y-71781709D01*
X146867412Y-71718843D01*
X146978843Y-71607412D01*
X147041709Y-71530811D01*
X147129259Y-71399783D01*
X147175972Y-71312389D01*
X147236278Y-71166798D01*
X147265044Y-71071968D01*
X147295787Y-70917410D01*
X147305500Y-70818793D01*
X147305500Y-70661207D01*
X147295787Y-70562590D01*
X147265044Y-70408032D01*
X147236278Y-70313202D01*
X147175972Y-70167611D01*
X147129259Y-70080217D01*
X147129248Y-70080200D01*
X147041721Y-69949206D01*
X147041712Y-69949194D01*
X147041709Y-69949189D01*
X146978843Y-69872588D01*
X146867412Y-69761157D01*
X146790811Y-69698291D01*
X146790804Y-69698286D01*
X146790793Y-69698278D01*
X146659799Y-69610751D01*
X146659788Y-69610744D01*
X146659783Y-69610741D01*
X146637645Y-69598908D01*
X146594086Y-69575625D01*
X146544242Y-69526662D01*
X146528782Y-69458524D01*
X146552614Y-69392845D01*
X146596246Y-69355782D01*
X146681610Y-69312287D01*
X146798294Y-69227512D01*
X146847213Y-69191971D01*
X146847215Y-69191968D01*
X146847219Y-69191966D01*
X146991966Y-69047219D01*
X146991968Y-69047215D01*
X146991971Y-69047213D01*
X147044732Y-68974590D01*
X147112287Y-68881610D01*
X147205220Y-68699219D01*
X147268477Y-68504534D01*
X147300500Y-68302352D01*
X147300500Y-68131902D01*
X153499500Y-68131902D01*
X153499500Y-68368097D01*
X153536446Y-68601368D01*
X153609433Y-68825996D01*
X153637772Y-68881613D01*
X153716657Y-69036433D01*
X153855483Y-69227510D01*
X154022490Y-69394517D01*
X154213567Y-69533343D01*
X154273790Y-69564028D01*
X154424003Y-69640566D01*
X154424005Y-69640566D01*
X154424008Y-69640568D01*
X154476224Y-69657534D01*
X154648631Y-69713553D01*
X154881903Y-69750500D01*
X154881908Y-69750500D01*
X155118097Y-69750500D01*
X155351368Y-69713553D01*
X155398339Y-69698291D01*
X155575992Y-69640568D01*
X155786433Y-69533343D01*
X155977510Y-69394517D01*
X156144517Y-69227510D01*
X156283343Y-69036433D01*
X156390568Y-68825992D01*
X156463553Y-68601368D01*
X156478890Y-68504534D01*
X156500500Y-68368097D01*
X156500500Y-68131902D01*
X159999500Y-68131902D01*
X159999500Y-68368097D01*
X160036446Y-68601368D01*
X160109433Y-68825996D01*
X160137772Y-68881613D01*
X160216657Y-69036433D01*
X160355483Y-69227510D01*
X160522490Y-69394517D01*
X160713567Y-69533343D01*
X160773790Y-69564028D01*
X160924003Y-69640566D01*
X160924005Y-69640566D01*
X160924008Y-69640568D01*
X160976224Y-69657534D01*
X161148631Y-69713553D01*
X161381903Y-69750500D01*
X161381908Y-69750500D01*
X161618097Y-69750500D01*
X161851368Y-69713553D01*
X161898339Y-69698291D01*
X162075992Y-69640568D01*
X162286433Y-69533343D01*
X162477510Y-69394517D01*
X162644517Y-69227510D01*
X162783343Y-69036433D01*
X162890568Y-68825992D01*
X162963553Y-68601368D01*
X162978890Y-68504534D01*
X163000500Y-68368097D01*
X163000500Y-68131902D01*
X162963553Y-67898631D01*
X162890566Y-67674003D01*
X162834002Y-67562991D01*
X162783343Y-67463567D01*
X162644517Y-67272490D01*
X162477510Y-67105483D01*
X162286433Y-66966657D01*
X162075996Y-66859433D01*
X161851368Y-66786446D01*
X161618097Y-66749500D01*
X161618092Y-66749500D01*
X161381908Y-66749500D01*
X161381903Y-66749500D01*
X161148631Y-66786446D01*
X160924003Y-66859433D01*
X160713566Y-66966657D01*
X160665684Y-67001446D01*
X160522490Y-67105483D01*
X160522488Y-67105485D01*
X160522487Y-67105485D01*
X160355485Y-67272487D01*
X160355485Y-67272488D01*
X160355483Y-67272490D01*
X160297148Y-67352781D01*
X160216657Y-67463566D01*
X160109433Y-67674003D01*
X160036446Y-67898631D01*
X159999500Y-68131902D01*
X156500500Y-68131902D01*
X156463553Y-67898631D01*
X156390566Y-67674003D01*
X156334002Y-67562991D01*
X156283343Y-67463567D01*
X156144517Y-67272490D01*
X155977510Y-67105483D01*
X155786433Y-66966657D01*
X155575996Y-66859433D01*
X155351368Y-66786446D01*
X155118097Y-66749500D01*
X155118092Y-66749500D01*
X154881908Y-66749500D01*
X154881903Y-66749500D01*
X154648631Y-66786446D01*
X154424003Y-66859433D01*
X154213566Y-66966657D01*
X154165684Y-67001446D01*
X154022490Y-67105483D01*
X154022488Y-67105485D01*
X154022487Y-67105485D01*
X153855485Y-67272487D01*
X153855485Y-67272488D01*
X153855483Y-67272490D01*
X153797148Y-67352781D01*
X153716657Y-67463566D01*
X153609433Y-67674003D01*
X153536446Y-67898631D01*
X153499500Y-68131902D01*
X147300500Y-68131902D01*
X147300500Y-68097648D01*
X147268477Y-67895465D01*
X147205218Y-67700776D01*
X147171503Y-67634607D01*
X147112287Y-67518390D01*
X147072456Y-67463567D01*
X146991971Y-67352786D01*
X146847213Y-67208028D01*
X146681614Y-67087715D01*
X146675006Y-67084348D01*
X146588917Y-67040483D01*
X146538123Y-66992511D01*
X146521328Y-66924690D01*
X146543865Y-66858555D01*
X146588917Y-66819516D01*
X146681610Y-66772287D01*
X146712974Y-66749500D01*
X146847213Y-66651971D01*
X146847215Y-66651968D01*
X146847219Y-66651966D01*
X146991966Y-66507219D01*
X146991968Y-66507215D01*
X146991971Y-66507213D01*
X147044732Y-66434590D01*
X147112287Y-66341610D01*
X147205220Y-66159219D01*
X147268477Y-65964534D01*
X147300500Y-65762352D01*
X147300500Y-65557648D01*
X147268477Y-65355466D01*
X147205220Y-65160781D01*
X147205218Y-65160778D01*
X147205218Y-65160776D01*
X147171503Y-65094607D01*
X147112287Y-64978390D01*
X147104556Y-64967749D01*
X146991971Y-64812786D01*
X146847213Y-64668028D01*
X146681614Y-64547715D01*
X146675006Y-64544348D01*
X146588917Y-64500483D01*
X146538123Y-64452511D01*
X146521328Y-64384690D01*
X146543865Y-64318555D01*
X146588917Y-64279516D01*
X146681610Y-64232287D01*
X146702770Y-64216913D01*
X146847213Y-64111971D01*
X146847215Y-64111968D01*
X146847219Y-64111966D01*
X146991966Y-63967219D01*
X146991968Y-63967215D01*
X146991971Y-63967213D01*
X147044732Y-63894590D01*
X147112287Y-63801610D01*
X147205220Y-63619219D01*
X147268477Y-63424534D01*
X147300500Y-63222352D01*
X147300500Y-63017648D01*
X147292102Y-62964624D01*
X147281456Y-62897409D01*
X147268477Y-62815465D01*
X147205218Y-62620776D01*
X147152621Y-62517550D01*
X147112287Y-62438390D01*
X147104556Y-62427749D01*
X146991971Y-62272786D01*
X146847213Y-62128028D01*
X146681614Y-62007715D01*
X146672346Y-62002993D01*
X146588917Y-61960483D01*
X146538123Y-61912511D01*
X146521328Y-61844690D01*
X146543865Y-61778555D01*
X146588917Y-61739516D01*
X146681610Y-61692287D01*
X146697368Y-61680838D01*
X146810612Y-61598563D01*
X146810613Y-61598562D01*
X146847215Y-61571969D01*
X146847215Y-61571968D01*
X146847219Y-61571966D01*
X146991966Y-61427219D01*
X146991968Y-61427215D01*
X146991971Y-61427213D01*
X147077130Y-61310000D01*
X147112287Y-61261610D01*
X147205220Y-61079219D01*
X147268477Y-60884534D01*
X147300500Y-60682352D01*
X147300500Y-60477648D01*
X147268477Y-60275466D01*
X147205220Y-60080781D01*
X147205218Y-60080778D01*
X147205218Y-60080776D01*
X147162814Y-59997554D01*
X147112287Y-59898390D01*
X147104556Y-59887749D01*
X146991971Y-59732786D01*
X146847213Y-59588028D01*
X146681614Y-59467715D01*
X146673410Y-59463535D01*
X146595703Y-59423941D01*
X146592476Y-59420893D01*
X146588181Y-59419774D01*
X146567308Y-59397123D01*
X146544908Y-59375968D01*
X146543840Y-59371657D01*
X146540833Y-59368394D01*
X146535518Y-59338053D01*
X146528113Y-59308147D01*
X146529544Y-59303945D01*
X146528779Y-59299572D01*
X146540712Y-59271173D01*
X146550650Y-59242012D01*
X146554611Y-59238099D01*
X146555847Y-59235158D01*
X146566338Y-59226514D01*
X146581801Y-59211240D01*
X146721647Y-59115199D01*
X146129410Y-58522962D01*
X146192993Y-58505925D01*
X146307007Y-58440099D01*
X146400099Y-58347007D01*
X146465925Y-58232993D01*
X146482962Y-58169410D01*
X147082465Y-58768913D01*
X147128837Y-58699515D01*
X147128838Y-58699511D01*
X147175509Y-58612198D01*
X147235814Y-58466612D01*
X147264555Y-58371864D01*
X147295298Y-58217302D01*
X147295298Y-58217299D01*
X147305000Y-58118789D01*
X147305000Y-57961210D01*
X147295298Y-57862700D01*
X147295298Y-57862697D01*
X147264555Y-57708135D01*
X147235814Y-57613387D01*
X147175509Y-57467801D01*
X147128844Y-57380498D01*
X147128838Y-57380488D01*
X147082465Y-57311085D01*
X146482962Y-57910588D01*
X146465925Y-57847007D01*
X146400099Y-57732993D01*
X146307007Y-57639901D01*
X146192993Y-57574075D01*
X146129410Y-57557037D01*
X146728912Y-56957534D01*
X146659511Y-56911161D01*
X146659500Y-56911155D01*
X146593545Y-56875900D01*
X146543701Y-56826937D01*
X146528241Y-56758799D01*
X146552073Y-56693119D01*
X146595702Y-56656059D01*
X146681610Y-56612287D01*
X146772745Y-56546074D01*
X146847213Y-56491971D01*
X146847215Y-56491968D01*
X146847219Y-56491966D01*
X146991966Y-56347219D01*
X146991968Y-56347215D01*
X146991971Y-56347213D01*
X147089834Y-56212514D01*
X147112287Y-56181610D01*
X147205220Y-55999219D01*
X147268477Y-55804534D01*
X147300500Y-55602352D01*
X147300500Y-55397648D01*
X147282235Y-55282328D01*
X147268477Y-55195465D01*
X147233515Y-55087864D01*
X147205220Y-55000781D01*
X147205218Y-55000778D01*
X147205218Y-55000776D01*
X147171503Y-54934607D01*
X147112287Y-54818390D01*
X147104556Y-54807749D01*
X146991971Y-54652786D01*
X146847213Y-54508028D01*
X146681614Y-54387715D01*
X146675006Y-54384348D01*
X146588917Y-54340483D01*
X146538123Y-54292511D01*
X146521328Y-54224690D01*
X146543865Y-54158555D01*
X146588917Y-54119516D01*
X146681610Y-54072287D01*
X146787733Y-53995185D01*
X146847213Y-53951971D01*
X146847215Y-53951968D01*
X146847219Y-53951966D01*
X146991966Y-53807219D01*
X146991968Y-53807215D01*
X146991971Y-53807213D01*
X147079170Y-53687192D01*
X147112287Y-53641610D01*
X147205220Y-53459219D01*
X147250542Y-53319730D01*
X147253010Y-53312135D01*
X149899500Y-53312135D01*
X149899500Y-55107870D01*
X149899501Y-55107876D01*
X149905908Y-55167483D01*
X149956202Y-55302328D01*
X149956206Y-55302335D01*
X150042452Y-55417544D01*
X150042455Y-55417547D01*
X150157664Y-55503793D01*
X150157671Y-55503797D01*
X150289082Y-55552810D01*
X150345016Y-55594681D01*
X150369433Y-55660145D01*
X150354582Y-55728418D01*
X150333431Y-55756673D01*
X150219889Y-55870215D01*
X150094951Y-56042179D01*
X149998444Y-56231585D01*
X149932753Y-56433760D01*
X149914696Y-56547767D01*
X149899500Y-56643713D01*
X149899500Y-56856287D01*
X149904172Y-56885787D01*
X149929585Y-57046239D01*
X149932754Y-57066243D01*
X149997839Y-57266554D01*
X149998444Y-57268414D01*
X150094951Y-57457820D01*
X150219890Y-57629786D01*
X150370213Y-57780109D01*
X150542179Y-57905048D01*
X150542181Y-57905049D01*
X150542184Y-57905051D01*
X150551493Y-57909794D01*
X150602290Y-57957766D01*
X150619087Y-58025587D01*
X150596552Y-58091722D01*
X150551505Y-58130760D01*
X150542446Y-58135376D01*
X150542440Y-58135380D01*
X150488282Y-58174727D01*
X150488282Y-58174728D01*
X151120591Y-58807037D01*
X151057007Y-58824075D01*
X150942993Y-58889901D01*
X150849901Y-58982993D01*
X150784075Y-59097007D01*
X150767037Y-59160591D01*
X150134728Y-58528282D01*
X150134727Y-58528282D01*
X150095380Y-58582439D01*
X149998904Y-58771782D01*
X149933242Y-58973869D01*
X149933242Y-58973872D01*
X149900000Y-59183753D01*
X149900000Y-59396246D01*
X149933242Y-59606127D01*
X149933242Y-59606130D01*
X149998904Y-59808217D01*
X150095375Y-59997550D01*
X150134728Y-60051716D01*
X150767037Y-59419408D01*
X150784075Y-59482993D01*
X150849901Y-59597007D01*
X150942993Y-59690099D01*
X151057007Y-59755925D01*
X151120590Y-59772962D01*
X150488282Y-60405269D01*
X150488282Y-60405270D01*
X150542449Y-60444624D01*
X150731782Y-60541095D01*
X150933870Y-60606757D01*
X151143754Y-60640000D01*
X151356246Y-60640000D01*
X151566127Y-60606757D01*
X151566130Y-60606757D01*
X151768217Y-60541095D01*
X151957554Y-60444622D01*
X152011716Y-60405270D01*
X152011717Y-60405270D01*
X151379408Y-59772962D01*
X151442993Y-59755925D01*
X151557007Y-59690099D01*
X151650099Y-59597007D01*
X151715925Y-59482993D01*
X151732962Y-59419408D01*
X152365270Y-60051717D01*
X152365270Y-60051716D01*
X152404622Y-59997554D01*
X152501095Y-59808217D01*
X152566757Y-59606130D01*
X152566757Y-59606127D01*
X152600000Y-59396246D01*
X152600000Y-59183753D01*
X152566757Y-58973872D01*
X152566757Y-58973869D01*
X152501095Y-58771782D01*
X152404624Y-58582449D01*
X152365270Y-58528282D01*
X152365269Y-58528282D01*
X151732962Y-59160590D01*
X151715925Y-59097007D01*
X151650099Y-58982993D01*
X151557007Y-58889901D01*
X151442993Y-58824075D01*
X151379409Y-58807037D01*
X152011716Y-58174728D01*
X151957547Y-58135373D01*
X151957547Y-58135372D01*
X151948500Y-58130763D01*
X151897706Y-58082788D01*
X151880912Y-58014966D01*
X151903451Y-57948832D01*
X151948508Y-57909793D01*
X151957816Y-57905051D01*
X152037707Y-57847007D01*
X152129786Y-57780109D01*
X152129788Y-57780106D01*
X152129792Y-57780104D01*
X152280104Y-57629792D01*
X152280106Y-57629788D01*
X152280109Y-57629786D01*
X152389086Y-57479789D01*
X152405051Y-57457816D01*
X152501557Y-57268412D01*
X152567246Y-57066243D01*
X152600500Y-56856287D01*
X152600500Y-56643713D01*
X152567246Y-56433757D01*
X152501557Y-56231588D01*
X152405051Y-56042184D01*
X152405049Y-56042181D01*
X152405048Y-56042179D01*
X152280109Y-55870213D01*
X152166569Y-55756673D01*
X152133084Y-55695350D01*
X152138068Y-55625658D01*
X152179940Y-55569725D01*
X152210915Y-55552810D01*
X152342331Y-55503796D01*
X152457546Y-55417546D01*
X152543796Y-55302331D01*
X152594091Y-55167483D01*
X152600500Y-55107873D01*
X152600499Y-53312128D01*
X152600498Y-53312116D01*
X152599417Y-53302057D01*
X152598350Y-53292135D01*
X154149500Y-53292135D01*
X154149500Y-55087870D01*
X154149501Y-55087876D01*
X154155908Y-55147483D01*
X154206202Y-55282328D01*
X154206206Y-55282335D01*
X154292452Y-55397544D01*
X154292455Y-55397547D01*
X154407664Y-55483793D01*
X154407671Y-55483797D01*
X154539082Y-55532810D01*
X154595016Y-55574681D01*
X154619433Y-55640145D01*
X154604582Y-55708418D01*
X154583431Y-55736673D01*
X154469889Y-55850215D01*
X154344951Y-56022179D01*
X154248444Y-56211585D01*
X154182753Y-56413760D01*
X154170366Y-56491969D01*
X154149500Y-56623713D01*
X154149500Y-56836287D01*
X154182754Y-57046243D01*
X154235760Y-57209379D01*
X154248444Y-57248414D01*
X154344951Y-57437820D01*
X154469890Y-57609786D01*
X154620213Y-57760109D01*
X154792182Y-57885050D01*
X154800946Y-57889516D01*
X154851742Y-57937491D01*
X154868536Y-58005312D01*
X154845998Y-58071447D01*
X154800946Y-58110484D01*
X154792182Y-58114949D01*
X154620213Y-58239890D01*
X154469890Y-58390213D01*
X154344951Y-58562179D01*
X154248444Y-58751585D01*
X154182753Y-58953760D01*
X154149500Y-59163713D01*
X154149500Y-59376286D01*
X154167681Y-59491080D01*
X154182754Y-59586243D01*
X154237887Y-59755925D01*
X154248444Y-59788414D01*
X154344951Y-59977820D01*
X154469890Y-60149786D01*
X154620213Y-60300109D01*
X154792179Y-60425048D01*
X154792181Y-60425049D01*
X154792184Y-60425051D01*
X154801493Y-60429794D01*
X154852290Y-60477766D01*
X154869087Y-60545587D01*
X154846552Y-60611722D01*
X154801505Y-60650760D01*
X154792446Y-60655376D01*
X154792440Y-60655380D01*
X154738282Y-60694727D01*
X154738282Y-60694728D01*
X155370591Y-61327037D01*
X155307007Y-61344075D01*
X155192993Y-61409901D01*
X155099901Y-61502993D01*
X155034075Y-61617007D01*
X155017037Y-61680591D01*
X154384728Y-61048282D01*
X154384727Y-61048282D01*
X154345380Y-61102439D01*
X154248904Y-61291782D01*
X154183242Y-61493869D01*
X154183242Y-61493872D01*
X154150000Y-61703753D01*
X154150000Y-61916246D01*
X154183242Y-62126127D01*
X154183242Y-62126130D01*
X154248904Y-62328217D01*
X154345375Y-62517550D01*
X154384728Y-62571716D01*
X155017037Y-61939408D01*
X155034075Y-62002993D01*
X155099901Y-62117007D01*
X155192993Y-62210099D01*
X155307007Y-62275925D01*
X155370590Y-62292962D01*
X154738282Y-62925269D01*
X154738282Y-62925270D01*
X154792449Y-62964624D01*
X154981782Y-63061095D01*
X155183870Y-63126757D01*
X155393754Y-63160000D01*
X155606246Y-63160000D01*
X155816127Y-63126757D01*
X155816130Y-63126757D01*
X156018217Y-63061095D01*
X156207554Y-62964622D01*
X156261716Y-62925270D01*
X156261717Y-62925270D01*
X155629408Y-62292962D01*
X155692993Y-62275925D01*
X155807007Y-62210099D01*
X155900099Y-62117007D01*
X155965925Y-62002993D01*
X155982962Y-61939408D01*
X156615270Y-62571717D01*
X156615270Y-62571716D01*
X156654622Y-62517554D01*
X156751095Y-62328217D01*
X156816757Y-62126130D01*
X156816757Y-62126127D01*
X156850000Y-61916246D01*
X156850000Y-61703753D01*
X156816757Y-61493872D01*
X156816757Y-61493869D01*
X156751095Y-61291782D01*
X156654624Y-61102449D01*
X156615270Y-61048282D01*
X156615269Y-61048282D01*
X155982962Y-61680590D01*
X155965925Y-61617007D01*
X155900099Y-61502993D01*
X155807007Y-61409901D01*
X155692993Y-61344075D01*
X155629409Y-61327037D01*
X156261716Y-60694728D01*
X156207547Y-60655373D01*
X156207547Y-60655372D01*
X156198500Y-60650763D01*
X156147706Y-60602788D01*
X156130912Y-60534966D01*
X156153451Y-60468832D01*
X156198508Y-60429793D01*
X156207816Y-60425051D01*
X156287007Y-60367515D01*
X156379786Y-60300109D01*
X156379788Y-60300106D01*
X156379792Y-60300104D01*
X156530104Y-60149792D01*
X156530106Y-60149788D01*
X156530109Y-60149786D01*
X156655048Y-59977820D01*
X156655047Y-59977820D01*
X156655051Y-59977816D01*
X156751557Y-59788412D01*
X156817246Y-59586243D01*
X156850500Y-59376287D01*
X156850500Y-59163713D01*
X156817246Y-58953757D01*
X156751557Y-58751588D01*
X156655051Y-58562184D01*
X156655049Y-58562181D01*
X156655048Y-58562179D01*
X156530109Y-58390213D01*
X156379786Y-58239890D01*
X156207820Y-58114951D01*
X156207115Y-58114591D01*
X156199054Y-58110485D01*
X156148259Y-58062512D01*
X156131463Y-57994692D01*
X156153999Y-57928556D01*
X156199054Y-57889515D01*
X156207816Y-57885051D01*
X156238584Y-57862697D01*
X156379786Y-57760109D01*
X156379788Y-57760106D01*
X156379792Y-57760104D01*
X156530104Y-57609792D01*
X156530106Y-57609788D01*
X156530109Y-57609786D01*
X156655048Y-57437820D01*
X156655047Y-57437820D01*
X156655051Y-57437816D01*
X156751557Y-57248412D01*
X156817246Y-57046243D01*
X156850500Y-56836287D01*
X156850500Y-56623713D01*
X156817246Y-56413757D01*
X156751557Y-56211588D01*
X156655051Y-56022184D01*
X156655049Y-56022181D01*
X156655048Y-56022179D01*
X156530109Y-55850213D01*
X156416569Y-55736673D01*
X156383084Y-55675350D01*
X156388068Y-55605658D01*
X156429940Y-55549725D01*
X156460915Y-55532810D01*
X156592331Y-55483796D01*
X156707546Y-55397546D01*
X156793796Y-55282331D01*
X156844091Y-55147483D01*
X156850500Y-55087873D01*
X156850499Y-53292128D01*
X156844091Y-53232517D01*
X156801256Y-53117671D01*
X156793797Y-53097671D01*
X156793793Y-53097664D01*
X156707547Y-52982455D01*
X156707544Y-52982452D01*
X156592335Y-52896206D01*
X156592328Y-52896202D01*
X156457482Y-52845908D01*
X156457483Y-52845908D01*
X156397883Y-52839501D01*
X156397881Y-52839500D01*
X156397873Y-52839500D01*
X156397864Y-52839500D01*
X154602129Y-52839500D01*
X154602123Y-52839501D01*
X154542516Y-52845908D01*
X154407671Y-52896202D01*
X154407664Y-52896206D01*
X154292455Y-52982452D01*
X154292452Y-52982455D01*
X154206206Y-53097664D01*
X154206202Y-53097671D01*
X154155908Y-53232517D01*
X154149501Y-53292116D01*
X154149501Y-53292123D01*
X154149500Y-53292135D01*
X152598350Y-53292135D01*
X152597271Y-53282107D01*
X152594091Y-53252517D01*
X152543796Y-53117669D01*
X152543795Y-53117668D01*
X152543793Y-53117664D01*
X152457547Y-53002455D01*
X152457544Y-53002452D01*
X152342335Y-52916206D01*
X152342328Y-52916202D01*
X152207482Y-52865908D01*
X152207483Y-52865908D01*
X152147883Y-52859501D01*
X152147881Y-52859500D01*
X152147873Y-52859500D01*
X152147864Y-52859500D01*
X150352129Y-52859500D01*
X150352123Y-52859501D01*
X150292516Y-52865908D01*
X150157671Y-52916202D01*
X150157664Y-52916206D01*
X150042455Y-53002452D01*
X150042452Y-53002455D01*
X149956206Y-53117664D01*
X149956202Y-53117671D01*
X149905908Y-53252517D01*
X149899501Y-53312116D01*
X149899500Y-53312135D01*
X147253010Y-53312135D01*
X147266543Y-53270487D01*
X147268477Y-53264534D01*
X147291738Y-53117671D01*
X147300500Y-53062352D01*
X147300500Y-52857648D01*
X147268477Y-52655466D01*
X147205220Y-52460781D01*
X147205218Y-52460778D01*
X147205218Y-52460776D01*
X147165170Y-52382179D01*
X147112287Y-52278390D01*
X147104556Y-52267749D01*
X146991971Y-52112786D01*
X146847213Y-51968028D01*
X146681613Y-51847715D01*
X146681612Y-51847714D01*
X146681610Y-51847713D01*
X146596855Y-51804528D01*
X146499223Y-51754781D01*
X146304534Y-51691522D01*
X146129995Y-51663878D01*
X146102352Y-51659500D01*
X145897648Y-51659500D01*
X145873329Y-51663351D01*
X145695465Y-51691522D01*
X145500776Y-51754781D01*
X145318386Y-51847715D01*
X145152786Y-51968028D01*
X145008028Y-52112786D01*
X144887715Y-52278386D01*
X144794781Y-52460776D01*
X144731522Y-52655465D01*
X144699500Y-52857648D01*
X144699500Y-53062351D01*
X144731522Y-53264534D01*
X144794781Y-53459223D01*
X144858691Y-53584653D01*
X144874976Y-53616613D01*
X144887715Y-53641613D01*
X145008028Y-53807213D01*
X145152786Y-53951971D01*
X145307749Y-54064556D01*
X145318390Y-54072287D01*
X145403139Y-54115469D01*
X145411080Y-54119515D01*
X145461876Y-54167490D01*
X145478671Y-54235311D01*
X145456134Y-54301446D01*
X145411080Y-54340485D01*
X145318386Y-54387715D01*
X145152786Y-54508028D01*
X145008028Y-54652786D01*
X144887715Y-54818386D01*
X144794781Y-55000776D01*
X144731522Y-55195465D01*
X144699500Y-55397648D01*
X144699500Y-55602351D01*
X144731522Y-55804534D01*
X144794781Y-55999223D01*
X144887715Y-56181613D01*
X145008028Y-56347213D01*
X145152782Y-56491967D01*
X145152787Y-56491971D01*
X145229583Y-56547767D01*
X145272249Y-56603097D01*
X145278228Y-56672710D01*
X145245622Y-56734505D01*
X145187365Y-56768233D01*
X145166973Y-56773437D01*
X145166962Y-56773441D01*
X145110415Y-56796863D01*
X145870589Y-57557037D01*
X145807007Y-57574075D01*
X145692993Y-57639901D01*
X145599901Y-57732993D01*
X145534075Y-57847007D01*
X145517037Y-57910588D01*
X144756863Y-57150414D01*
X144756862Y-57150415D01*
X144733446Y-57206947D01*
X144733431Y-57206987D01*
X144715457Y-57257939D01*
X144715455Y-57257946D01*
X144695000Y-57400219D01*
X144695000Y-58679785D01*
X144697893Y-58733762D01*
X144697893Y-58733764D01*
X144733438Y-58873030D01*
X144733442Y-58873043D01*
X144756862Y-58929584D01*
X145517037Y-58169410D01*
X145534075Y-58232993D01*
X145599901Y-58347007D01*
X145692993Y-58440099D01*
X145807007Y-58505925D01*
X145870589Y-58522962D01*
X145110414Y-59283135D01*
X145166960Y-59306557D01*
X145166986Y-59306567D01*
X145195621Y-59316669D01*
X145252294Y-59357534D01*
X145277876Y-59422552D01*
X145264246Y-59491080D01*
X145227256Y-59533924D01*
X145152782Y-59588032D01*
X145008028Y-59732786D01*
X144887715Y-59898386D01*
X144794781Y-60080776D01*
X144731522Y-60275465D01*
X144699500Y-60477648D01*
X144699500Y-60682351D01*
X144731522Y-60884534D01*
X144794781Y-61079223D01*
X144887715Y-61261613D01*
X145008028Y-61427213D01*
X145152786Y-61571971D01*
X145307749Y-61684556D01*
X145318390Y-61692287D01*
X145409840Y-61738883D01*
X145411080Y-61739515D01*
X145461876Y-61787490D01*
X145478671Y-61855311D01*
X145456134Y-61921446D01*
X145411080Y-61960485D01*
X145318386Y-62007715D01*
X145152786Y-62128028D01*
X145008028Y-62272786D01*
X144887715Y-62438386D01*
X144794781Y-62620776D01*
X144731522Y-62815465D01*
X144699500Y-63017648D01*
X144699500Y-63222351D01*
X144731522Y-63424534D01*
X144794781Y-63619223D01*
X144887715Y-63801613D01*
X145008028Y-63967213D01*
X145152786Y-64111971D01*
X145307749Y-64224556D01*
X145318390Y-64232287D01*
X145409840Y-64278883D01*
X145411080Y-64279515D01*
X145461876Y-64327490D01*
X145478671Y-64395311D01*
X145456134Y-64461446D01*
X145411080Y-64500485D01*
X145318386Y-64547715D01*
X145152786Y-64668028D01*
X145008028Y-64812786D01*
X144887715Y-64978386D01*
X144794781Y-65160776D01*
X144731522Y-65355465D01*
X144699500Y-65557648D01*
X144699500Y-65762351D01*
X144731522Y-65964534D01*
X144794781Y-66159223D01*
X144887715Y-66341613D01*
X145008028Y-66507213D01*
X145152786Y-66651971D01*
X145287026Y-66749500D01*
X145318390Y-66772287D01*
X145409840Y-66818883D01*
X145411080Y-66819515D01*
X145461876Y-66867490D01*
X145478671Y-66935311D01*
X145456134Y-67001446D01*
X145411080Y-67040485D01*
X145318386Y-67087715D01*
X145152786Y-67208028D01*
X145008028Y-67352786D01*
X144887715Y-67518386D01*
X144794781Y-67700776D01*
X144731522Y-67895465D01*
X144699500Y-68097648D01*
X144699500Y-68302351D01*
X144731522Y-68504534D01*
X144794781Y-68699223D01*
X144887715Y-68881613D01*
X145008028Y-69047213D01*
X145152782Y-69191967D01*
X145152787Y-69191971D01*
X145229063Y-69247389D01*
X145271729Y-69302719D01*
X145277708Y-69372332D01*
X145245102Y-69434127D01*
X145186845Y-69467855D01*
X145166776Y-69472977D01*
X145166766Y-69472980D01*
X145093280Y-69503419D01*
X145093252Y-69503431D01*
X145044451Y-69526779D01*
X145044446Y-69526782D01*
X144929268Y-69613005D01*
X144929256Y-69613015D01*
X144873019Y-69669252D01*
X144836843Y-69709524D01*
X144836837Y-69709532D01*
X144763426Y-69833263D01*
X144732978Y-69906774D01*
X144732970Y-69906795D01*
X144714976Y-69957800D01*
X144694500Y-70100219D01*
X129525000Y-70100219D01*
X129524999Y-70100204D01*
X129522106Y-70046237D01*
X129522106Y-70046235D01*
X129486561Y-69906969D01*
X129486559Y-69906962D01*
X129463135Y-69850414D01*
X128702962Y-70610588D01*
X128685925Y-70547007D01*
X128620099Y-70432993D01*
X128527007Y-70339901D01*
X128412993Y-70274075D01*
X128349410Y-70257037D01*
X129109584Y-69496862D01*
X129053059Y-69473449D01*
X129053048Y-69473445D01*
X129024374Y-69463329D01*
X128967703Y-69422462D01*
X128942122Y-69357443D01*
X128955754Y-69288916D01*
X128992745Y-69246074D01*
X129067215Y-69191969D01*
X129067215Y-69191968D01*
X129067219Y-69191966D01*
X129211966Y-69047219D01*
X129211968Y-69047215D01*
X129211971Y-69047213D01*
X129264732Y-68974590D01*
X129332287Y-68881610D01*
X129425220Y-68699219D01*
X129488477Y-68504534D01*
X129520500Y-68302352D01*
X129520500Y-68097648D01*
X129488477Y-67895465D01*
X129425218Y-67700776D01*
X129391503Y-67634607D01*
X129332287Y-67518390D01*
X129292456Y-67463567D01*
X129211971Y-67352786D01*
X129067213Y-67208028D01*
X128901614Y-67087715D01*
X128895006Y-67084348D01*
X128808917Y-67040483D01*
X128758123Y-66992511D01*
X128741328Y-66924690D01*
X128763865Y-66858555D01*
X128808917Y-66819516D01*
X128901610Y-66772287D01*
X128932974Y-66749500D01*
X129067213Y-66651971D01*
X129067215Y-66651968D01*
X129067219Y-66651966D01*
X129211966Y-66507219D01*
X129211968Y-66507215D01*
X129211971Y-66507213D01*
X129264732Y-66434590D01*
X129332287Y-66341610D01*
X129425220Y-66159219D01*
X129488477Y-65964534D01*
X129520500Y-65762352D01*
X129520500Y-65557648D01*
X129488477Y-65355466D01*
X129425220Y-65160781D01*
X129425218Y-65160778D01*
X129425218Y-65160776D01*
X129391503Y-65094607D01*
X129332287Y-64978390D01*
X129324556Y-64967749D01*
X129211971Y-64812786D01*
X129067213Y-64668028D01*
X128901614Y-64547715D01*
X128895006Y-64544348D01*
X128808917Y-64500483D01*
X128758123Y-64452511D01*
X128741328Y-64384690D01*
X128763865Y-64318555D01*
X128808917Y-64279516D01*
X128901610Y-64232287D01*
X128922770Y-64216913D01*
X129067213Y-64111971D01*
X129067215Y-64111968D01*
X129067219Y-64111966D01*
X129211966Y-63967219D01*
X129211968Y-63967215D01*
X129211971Y-63967213D01*
X129264732Y-63894590D01*
X129332287Y-63801610D01*
X129425220Y-63619219D01*
X129488477Y-63424534D01*
X129520500Y-63222352D01*
X129520500Y-63017648D01*
X129488477Y-62815466D01*
X129425220Y-62620781D01*
X129425218Y-62620778D01*
X129425218Y-62620776D01*
X129372621Y-62517550D01*
X129332287Y-62438390D01*
X129324556Y-62427749D01*
X129211971Y-62272786D01*
X129067213Y-62128028D01*
X128901614Y-62007715D01*
X128892346Y-62002993D01*
X128808917Y-61960483D01*
X128758123Y-61912511D01*
X128741328Y-61844690D01*
X128763865Y-61778555D01*
X128808917Y-61739516D01*
X128901610Y-61692287D01*
X129005225Y-61617007D01*
X129067213Y-61571971D01*
X129067215Y-61571968D01*
X129067219Y-61571966D01*
X129211966Y-61427219D01*
X129211968Y-61427215D01*
X129211971Y-61427213D01*
X129297130Y-61310000D01*
X129332287Y-61261610D01*
X129425220Y-61079219D01*
X129488477Y-60884534D01*
X129520500Y-60682352D01*
X129520500Y-60477648D01*
X129504624Y-60377410D01*
X129488477Y-60275465D01*
X129425218Y-60080776D01*
X129382814Y-59997554D01*
X129332287Y-59898390D01*
X129324556Y-59887749D01*
X129211971Y-59732786D01*
X129067217Y-59588032D01*
X128990415Y-59532232D01*
X128947750Y-59476902D01*
X128941771Y-59407288D01*
X128974377Y-59345494D01*
X129032640Y-59311765D01*
X129053039Y-59306559D01*
X129109584Y-59283136D01*
X129109584Y-59283135D01*
X128349410Y-58522962D01*
X128412993Y-58505925D01*
X128527007Y-58440099D01*
X128620099Y-58347007D01*
X128685925Y-58232993D01*
X128702962Y-58169411D01*
X129463135Y-58929584D01*
X129463136Y-58929584D01*
X129486552Y-58873053D01*
X129504544Y-58822053D01*
X129524999Y-58679780D01*
X129525000Y-58679779D01*
X129525000Y-57400214D01*
X129522106Y-57346237D01*
X129522106Y-57346235D01*
X129486561Y-57206969D01*
X129486559Y-57206962D01*
X129463135Y-57150414D01*
X128702962Y-57910588D01*
X128685925Y-57847007D01*
X128620099Y-57732993D01*
X128527007Y-57639901D01*
X128412993Y-57574075D01*
X128349410Y-57557037D01*
X129109584Y-56796862D01*
X129053059Y-56773449D01*
X129053048Y-56773445D01*
X129024374Y-56763329D01*
X128967703Y-56722462D01*
X128942122Y-56657443D01*
X128955754Y-56588916D01*
X128992745Y-56546074D01*
X129067215Y-56491969D01*
X129067215Y-56491968D01*
X129067219Y-56491966D01*
X129211966Y-56347219D01*
X129211968Y-56347215D01*
X129211971Y-56347213D01*
X129309834Y-56212514D01*
X129332287Y-56181610D01*
X129410817Y-56027486D01*
X133509500Y-56027486D01*
X133509500Y-56212513D01*
X133538445Y-56395265D01*
X133595619Y-56571232D01*
X133595620Y-56571235D01*
X133632550Y-56643713D01*
X133679622Y-56736096D01*
X133788379Y-56885787D01*
X133919213Y-57016621D01*
X134068904Y-57125378D01*
X134118040Y-57150414D01*
X134233764Y-57209379D01*
X134233767Y-57209380D01*
X134321750Y-57237967D01*
X134409736Y-57266555D01*
X134592486Y-57295500D01*
X134592487Y-57295500D01*
X134777513Y-57295500D01*
X134777514Y-57295500D01*
X134960264Y-57266555D01*
X135136235Y-57209379D01*
X135301096Y-57125378D01*
X135450787Y-57016621D01*
X135581621Y-56885787D01*
X135690378Y-56736096D01*
X135774379Y-56571235D01*
X135831555Y-56395264D01*
X135860500Y-56212514D01*
X135860500Y-56027486D01*
X138359500Y-56027486D01*
X138359500Y-56212513D01*
X138388445Y-56395265D01*
X138445619Y-56571232D01*
X138445620Y-56571235D01*
X138482550Y-56643713D01*
X138529622Y-56736096D01*
X138638379Y-56885787D01*
X138769213Y-57016621D01*
X138918904Y-57125378D01*
X138968040Y-57150414D01*
X139083764Y-57209379D01*
X139083767Y-57209380D01*
X139171750Y-57237967D01*
X139259736Y-57266555D01*
X139442486Y-57295500D01*
X139442487Y-57295500D01*
X139627513Y-57295500D01*
X139627514Y-57295500D01*
X139700660Y-57283914D01*
X139767578Y-57273316D01*
X139773847Y-57272322D01*
X139810264Y-57266555D01*
X139986235Y-57209379D01*
X140151096Y-57125378D01*
X140300787Y-57016621D01*
X140431621Y-56885787D01*
X140540378Y-56736096D01*
X140624379Y-56571235D01*
X140681555Y-56395264D01*
X140710500Y-56212514D01*
X140710500Y-56027486D01*
X140681555Y-55844736D01*
X140652942Y-55756673D01*
X140624380Y-55668767D01*
X140624379Y-55668764D01*
X140576441Y-55574681D01*
X140540378Y-55503904D01*
X140431621Y-55354213D01*
X140300787Y-55223379D01*
X140151096Y-55114622D01*
X140137856Y-55107876D01*
X139986235Y-55030620D01*
X139986232Y-55030619D01*
X139810265Y-54973445D01*
X139718889Y-54958972D01*
X139627514Y-54944500D01*
X139442486Y-54944500D01*
X139381569Y-54954148D01*
X139259734Y-54973445D01*
X139083767Y-55030619D01*
X139083764Y-55030620D01*
X138918903Y-55114622D01*
X138846147Y-55167483D01*
X138769213Y-55223379D01*
X138769211Y-55223381D01*
X138769210Y-55223381D01*
X138638381Y-55354210D01*
X138638381Y-55354211D01*
X138638379Y-55354213D01*
X138606897Y-55397544D01*
X138529622Y-55503903D01*
X138445620Y-55668764D01*
X138445619Y-55668767D01*
X138388445Y-55844734D01*
X138359500Y-56027486D01*
X135860500Y-56027486D01*
X135831555Y-55844736D01*
X135802942Y-55756673D01*
X135774380Y-55668767D01*
X135774379Y-55668764D01*
X135726441Y-55574681D01*
X135690378Y-55503904D01*
X135581621Y-55354213D01*
X135450787Y-55223379D01*
X135301096Y-55114622D01*
X135287856Y-55107876D01*
X135136235Y-55030620D01*
X135136232Y-55030619D01*
X134960265Y-54973445D01*
X134868889Y-54958972D01*
X134777514Y-54944500D01*
X134592486Y-54944500D01*
X134531569Y-54954148D01*
X134409734Y-54973445D01*
X134233767Y-55030619D01*
X134233764Y-55030620D01*
X134068903Y-55114622D01*
X133996147Y-55167483D01*
X133919213Y-55223379D01*
X133919211Y-55223381D01*
X133919210Y-55223381D01*
X133788381Y-55354210D01*
X133788381Y-55354211D01*
X133788379Y-55354213D01*
X133756897Y-55397544D01*
X133679622Y-55503903D01*
X133595620Y-55668764D01*
X133595619Y-55668767D01*
X133538445Y-55844734D01*
X133509500Y-56027486D01*
X129410817Y-56027486D01*
X129425220Y-55999219D01*
X129467137Y-55870213D01*
X129488476Y-55804538D01*
X129488476Y-55804537D01*
X129488477Y-55804534D01*
X129520500Y-55602352D01*
X129520500Y-55397648D01*
X129502235Y-55282328D01*
X129488477Y-55195465D01*
X129453515Y-55087864D01*
X129425220Y-55000781D01*
X129425218Y-55000778D01*
X129425218Y-55000776D01*
X129391503Y-54934607D01*
X129332287Y-54818390D01*
X129324556Y-54807749D01*
X129211971Y-54652786D01*
X129067217Y-54508032D01*
X129067212Y-54508028D01*
X128986440Y-54449344D01*
X128943774Y-54394015D01*
X128937795Y-54324401D01*
X128970400Y-54262606D01*
X129022433Y-54230641D01*
X129109606Y-54203478D01*
X129255185Y-54115472D01*
X129375472Y-53995185D01*
X129463478Y-53849606D01*
X129514086Y-53687196D01*
X129520500Y-53616616D01*
X129520500Y-52983713D01*
X133034500Y-52983713D01*
X133034500Y-53196286D01*
X133052847Y-53312128D01*
X133067754Y-53406243D01*
X133084968Y-53459223D01*
X133133444Y-53608414D01*
X133229951Y-53797820D01*
X133354890Y-53969786D01*
X133505213Y-54120109D01*
X133677179Y-54245048D01*
X133677181Y-54245049D01*
X133677184Y-54245051D01*
X133866588Y-54341557D01*
X134068757Y-54407246D01*
X134278713Y-54440500D01*
X134278714Y-54440500D01*
X134491286Y-54440500D01*
X134491287Y-54440500D01*
X134701243Y-54407246D01*
X134903412Y-54341557D01*
X135092816Y-54245051D01*
X135150038Y-54203477D01*
X135264786Y-54120109D01*
X135264788Y-54120106D01*
X135264792Y-54120104D01*
X135415104Y-53969792D01*
X135415106Y-53969788D01*
X135415109Y-53969786D01*
X135540048Y-53797820D01*
X135540047Y-53797820D01*
X135540051Y-53797816D01*
X135636557Y-53608412D01*
X135702246Y-53406243D01*
X135735500Y-53196287D01*
X135735500Y-52983713D01*
X138484500Y-52983713D01*
X138484500Y-53196286D01*
X138502847Y-53312128D01*
X138517754Y-53406243D01*
X138534968Y-53459223D01*
X138583444Y-53608414D01*
X138679951Y-53797820D01*
X138804890Y-53969786D01*
X138955213Y-54120109D01*
X139127179Y-54245048D01*
X139127181Y-54245049D01*
X139127184Y-54245051D01*
X139316588Y-54341557D01*
X139518757Y-54407246D01*
X139728713Y-54440500D01*
X139728714Y-54440500D01*
X139941286Y-54440500D01*
X139941287Y-54440500D01*
X140151243Y-54407246D01*
X140353412Y-54341557D01*
X140542816Y-54245051D01*
X140600038Y-54203477D01*
X140714786Y-54120109D01*
X140714788Y-54120106D01*
X140714792Y-54120104D01*
X140865104Y-53969792D01*
X140865106Y-53969788D01*
X140865109Y-53969786D01*
X140990048Y-53797820D01*
X140990047Y-53797820D01*
X140990051Y-53797816D01*
X141086557Y-53608412D01*
X141152246Y-53406243D01*
X141185500Y-53196287D01*
X141185500Y-52983713D01*
X141166841Y-52865908D01*
X141152246Y-52773760D01*
X141152246Y-52773757D01*
X141086557Y-52571588D01*
X140990051Y-52382184D01*
X140990049Y-52382181D01*
X140990048Y-52382179D01*
X140865109Y-52210213D01*
X140714786Y-52059890D01*
X140542820Y-51934951D01*
X140353414Y-51838444D01*
X140353413Y-51838443D01*
X140353412Y-51838443D01*
X140151243Y-51772754D01*
X140151241Y-51772753D01*
X140151240Y-51772753D01*
X139989957Y-51747208D01*
X139941287Y-51739500D01*
X139728713Y-51739500D01*
X139680042Y-51747208D01*
X139518760Y-51772753D01*
X139316585Y-51838444D01*
X139127179Y-51934951D01*
X138955213Y-52059890D01*
X138804890Y-52210213D01*
X138679951Y-52382179D01*
X138583444Y-52571585D01*
X138517753Y-52773760D01*
X138484500Y-52983713D01*
X135735500Y-52983713D01*
X135702246Y-52773757D01*
X135636557Y-52571588D01*
X135540051Y-52382184D01*
X135540049Y-52382181D01*
X135540048Y-52382179D01*
X135415109Y-52210213D01*
X135264786Y-52059890D01*
X135092820Y-51934951D01*
X134903414Y-51838444D01*
X134903413Y-51838443D01*
X134903412Y-51838443D01*
X134701243Y-51772754D01*
X134701241Y-51772753D01*
X134701240Y-51772753D01*
X134539957Y-51747208D01*
X134491287Y-51739500D01*
X134278713Y-51739500D01*
X134230042Y-51747208D01*
X134068760Y-51772753D01*
X133866585Y-51838444D01*
X133677179Y-51934951D01*
X133505213Y-52059890D01*
X133354890Y-52210213D01*
X133229951Y-52382179D01*
X133133444Y-52571585D01*
X133067753Y-52773760D01*
X133034500Y-52983713D01*
X129520500Y-52983713D01*
X129520500Y-52303384D01*
X129514086Y-52232804D01*
X129463478Y-52070394D01*
X129375472Y-51924815D01*
X129375470Y-51924813D01*
X129375469Y-51924811D01*
X129255188Y-51804530D01*
X129202624Y-51772754D01*
X129109606Y-51716522D01*
X128947196Y-51665914D01*
X128947194Y-51665913D01*
X128947192Y-51665913D01*
X128897778Y-51661423D01*
X128876616Y-51659500D01*
X127563384Y-51659500D01*
X127544145Y-51661248D01*
X127492807Y-51665913D01*
X127330393Y-51716522D01*
X127184811Y-51804530D01*
X127064530Y-51924811D01*
X126976522Y-52070393D01*
X126925913Y-52232807D01*
X126919500Y-52303386D01*
X126919500Y-53616613D01*
X126925913Y-53687192D01*
X126976522Y-53849606D01*
X127064530Y-53995188D01*
X127184811Y-54115469D01*
X127184813Y-54115470D01*
X127184815Y-54115472D01*
X127330394Y-54203478D01*
X127417566Y-54230641D01*
X127475712Y-54269378D01*
X127503686Y-54333403D01*
X127492605Y-54402388D01*
X127453560Y-54449344D01*
X127372782Y-54508032D01*
X127228028Y-54652786D01*
X127107715Y-54818386D01*
X127014781Y-55000776D01*
X126951522Y-55195465D01*
X126919500Y-55397648D01*
X126919500Y-55602351D01*
X126951522Y-55804534D01*
X127014781Y-55999223D01*
X127107715Y-56181613D01*
X127228028Y-56347213D01*
X127372786Y-56491971D01*
X127538388Y-56612286D01*
X127538390Y-56612287D01*
X127624294Y-56656057D01*
X127675090Y-56704031D01*
X127691886Y-56771852D01*
X127669349Y-56837987D01*
X127626455Y-56875899D01*
X127560497Y-56911155D01*
X127491086Y-56957534D01*
X127491085Y-56957534D01*
X128090589Y-57557037D01*
X128027007Y-57574075D01*
X127912993Y-57639901D01*
X127819901Y-57732993D01*
X127754075Y-57847007D01*
X127737037Y-57910588D01*
X127137534Y-57311085D01*
X127137534Y-57311086D01*
X127091158Y-57380493D01*
X127044490Y-57467801D01*
X126984185Y-57613387D01*
X126955444Y-57708135D01*
X126924701Y-57862697D01*
X126924701Y-57862700D01*
X126915000Y-57961210D01*
X125500500Y-57961210D01*
X125500500Y-51374500D01*
X125520185Y-51307461D01*
X125572989Y-51261706D01*
X125624500Y-51250500D01*
X168125500Y-51250500D01*
X168192539Y-51270185D01*
G37*
%TD.AperFunction*%
%TD*%
M02*
