%TF.GenerationSoftware,KiCad,Pcbnew,9.0.6*%
%TF.CreationDate,2025-11-19T19:53:09-08:00*%
%TF.ProjectId,LED sniffer project,4c454420-736e-4696-9666-65722070726f,1.0*%
%TF.SameCoordinates,Original*%
%TF.FileFunction,Soldermask,Top*%
%TF.FilePolarity,Negative*%
%FSLAX46Y46*%
G04 Gerber Fmt 4.6, Leading zero omitted, Abs format (unit mm)*
G04 Created by KiCad (PCBNEW 9.0.6) date 2025-11-19 19:53:09*
%MOMM*%
%LPD*%
G01*
G04 APERTURE LIST*
G04 Aperture macros list*
%AMRoundRect*
0 Rectangle with rounded corners*
0 $1 Rounding radius*
0 $2 $3 $4 $5 $6 $7 $8 $9 X,Y pos of 4 corners*
0 Add a 4 corners polygon primitive as box body*
4,1,4,$2,$3,$4,$5,$6,$7,$8,$9,$2,$3,0*
0 Add four circle primitives for the rounded corners*
1,1,$1+$1,$2,$3*
1,1,$1+$1,$4,$5*
1,1,$1+$1,$6,$7*
1,1,$1+$1,$8,$9*
0 Add four rect primitives between the rounded corners*
20,1,$1+$1,$2,$3,$4,$5,0*
20,1,$1+$1,$4,$5,$6,$7,0*
20,1,$1+$1,$6,$7,$8,$9,0*
20,1,$1+$1,$8,$9,$2,$3,0*%
%AMFreePoly0*
4,1,37,0.800000,0.796148,0.878414,0.796148,1.032228,0.765552,1.177117,0.705537,1.307515,0.618408,1.418408,0.507515,1.505537,0.377117,1.565552,0.232228,1.596148,0.078414,1.596148,-0.078414,1.565552,-0.232228,1.505537,-0.377117,1.418408,-0.507515,1.307515,-0.618408,1.177117,-0.705537,1.032228,-0.765552,0.878414,-0.796148,0.800000,-0.796148,0.800000,-0.800000,-1.400000,-0.800000,
-1.403843,-0.796157,-1.439018,-0.796157,-1.511114,-0.766294,-1.566294,-0.711114,-1.596157,-0.639018,-1.596157,-0.603843,-1.600000,-0.600000,-1.600000,0.600000,-1.596157,0.603843,-1.596157,0.639018,-1.566294,0.711114,-1.511114,0.766294,-1.439018,0.796157,-1.403843,0.796157,-1.400000,0.800000,0.800000,0.800000,0.800000,0.796148,0.800000,0.796148,$1*%
%AMFreePoly1*
4,1,37,1.403843,0.796157,1.439018,0.796157,1.511114,0.766294,1.566294,0.711114,1.596157,0.639018,1.596157,0.603843,1.600000,0.600000,1.600000,-0.600000,1.596157,-0.603843,1.596157,-0.639018,1.566294,-0.711114,1.511114,-0.766294,1.439018,-0.796157,1.403843,-0.796157,1.400000,-0.800000,-0.800000,-0.800000,-0.800000,-0.796148,-0.878414,-0.796148,-1.032228,-0.765552,-1.177117,-0.705537,
-1.307515,-0.618408,-1.418408,-0.507515,-1.505537,-0.377117,-1.565552,-0.232228,-1.596148,-0.078414,-1.596148,0.078414,-1.565552,0.232228,-1.505537,0.377117,-1.418408,0.507515,-1.307515,0.618408,-1.177117,0.705537,-1.032228,0.765552,-0.878414,0.796148,-0.800000,0.796148,-0.800000,0.800000,1.400000,0.800000,1.403843,0.796157,1.403843,0.796157,$1*%
%AMFreePoly2*
4,1,37,0.603843,0.796157,0.639018,0.796157,0.711114,0.766294,0.766294,0.711114,0.796157,0.639018,0.796157,0.603843,0.800000,0.600000,0.800000,-0.600000,0.796157,-0.603843,0.796157,-0.639018,0.766294,-0.711114,0.711114,-0.766294,0.639018,-0.796157,0.603843,-0.796157,0.600000,-0.800000,0.000000,-0.800000,0.000000,-0.796148,-0.078414,-0.796148,-0.232228,-0.765552,-0.377117,-0.705537,
-0.507515,-0.618408,-0.618408,-0.507515,-0.705537,-0.377117,-0.765552,-0.232228,-0.796148,-0.078414,-0.796148,0.078414,-0.765552,0.232228,-0.705537,0.377117,-0.618408,0.507515,-0.507515,0.618408,-0.377117,0.705537,-0.232228,0.765552,-0.078414,0.796148,0.000000,0.796148,0.000000,0.800000,0.600000,0.800000,0.603843,0.796157,0.603843,0.796157,$1*%
%AMFreePoly3*
4,1,37,0.000000,0.796148,0.078414,0.796148,0.232228,0.765552,0.377117,0.705537,0.507515,0.618408,0.618408,0.507515,0.705537,0.377117,0.765552,0.232228,0.796148,0.078414,0.796148,-0.078414,0.765552,-0.232228,0.705537,-0.377117,0.618408,-0.507515,0.507515,-0.618408,0.377117,-0.705537,0.232228,-0.765552,0.078414,-0.796148,0.000000,-0.796148,0.000000,-0.800000,-0.600000,-0.800000,
-0.603843,-0.796157,-0.639018,-0.796157,-0.711114,-0.766294,-0.766294,-0.711114,-0.796157,-0.639018,-0.796157,-0.603843,-0.800000,-0.600000,-0.800000,0.600000,-0.796157,0.603843,-0.796157,0.639018,-0.766294,0.711114,-0.711114,0.766294,-0.639018,0.796157,-0.603843,0.796157,-0.600000,0.800000,0.000000,0.800000,0.000000,0.796148,0.000000,0.796148,$1*%
G04 Aperture macros list end*
%ADD10C,1.700000*%
%ADD11R,1.700000X1.700000*%
%ADD12C,2.200000*%
%ADD13C,1.850000*%
%ADD14FreePoly0,0.000000*%
%ADD15RoundRect,0.200000X-0.600000X-0.600000X0.600000X-0.600000X0.600000X0.600000X-0.600000X0.600000X0*%
%ADD16RoundRect,0.800000X-0.800000X-0.000010X0.800000X-0.000010X0.800000X0.000010X-0.800000X0.000010X0*%
%ADD17C,1.600000*%
%ADD18FreePoly1,0.000000*%
%ADD19FreePoly2,0.000000*%
%ADD20FreePoly3,0.000000*%
%ADD21RoundRect,0.200000X0.275000X-0.200000X0.275000X0.200000X-0.275000X0.200000X-0.275000X-0.200000X0*%
%ADD22RoundRect,0.200000X-0.275000X0.200000X-0.275000X-0.200000X0.275000X-0.200000X0.275000X0.200000X0*%
%ADD23C,2.000000*%
%ADD24R,1.500000X1.000000*%
G04 APERTURE END LIST*
D10*
%TO.C,J6*%
X150440000Y-104250000D03*
X152980000Y-104250000D03*
X155520000Y-104250000D03*
D11*
X158060000Y-104250000D03*
%TD*%
%TO.C,J4*%
X156750000Y-93540000D03*
D10*
X156750000Y-91000000D03*
X156750000Y-88460000D03*
%TD*%
D11*
%TO.C,J3*%
X161250000Y-93525000D03*
D10*
X161250000Y-90985000D03*
%TD*%
D11*
%TO.C,J2*%
X155500000Y-54190000D03*
D10*
X155500000Y-56730000D03*
X155500000Y-59270000D03*
X155500000Y-61810000D03*
%TD*%
D11*
%TO.C,J1*%
X151250000Y-54210000D03*
D10*
X151250000Y-56750000D03*
X151250000Y-59290000D03*
%TD*%
D11*
%TO.C,J5*%
X152000000Y-93560000D03*
D10*
X152000000Y-91020000D03*
X152000000Y-88480000D03*
X152000000Y-85940000D03*
%TD*%
D12*
%TO.C,PICO_MAIN1*%
X134385000Y-53090000D03*
D13*
X134685000Y-56120000D03*
X139535000Y-56120000D03*
D12*
X139835000Y-53090000D03*
D14*
X127420000Y-52960000D03*
D15*
X128220000Y-52960000D03*
D16*
X127420000Y-55500000D03*
D17*
X128220000Y-55500000D03*
D18*
X127420000Y-58040000D03*
D19*
X128220000Y-58040000D03*
D16*
X127420000Y-60580000D03*
D17*
X128220000Y-60580000D03*
D16*
X127420000Y-63120000D03*
D17*
X128220000Y-63120000D03*
D16*
X127420000Y-65660000D03*
D17*
X128220000Y-65660000D03*
D16*
X127420000Y-68200000D03*
D17*
X128220000Y-68200000D03*
D18*
X127420000Y-70740000D03*
D19*
X128220000Y-70740000D03*
D16*
X127420000Y-73280000D03*
D17*
X128220000Y-73280000D03*
D16*
X127420000Y-75820000D03*
D17*
X128220000Y-75820000D03*
D16*
X127420000Y-78360000D03*
D17*
X128220000Y-78360000D03*
D16*
X127420000Y-80900000D03*
D17*
X128220000Y-80900000D03*
D18*
X127420000Y-83440000D03*
D19*
X128220000Y-83440000D03*
D16*
X127420000Y-85980000D03*
D17*
X128220000Y-85980000D03*
D16*
X127420000Y-88520000D03*
D17*
X128220000Y-88520000D03*
D16*
X127420000Y-91060000D03*
D17*
X128220000Y-91060000D03*
D16*
X127420000Y-93600000D03*
D17*
X128220000Y-93600000D03*
D18*
X127420000Y-96140000D03*
D19*
X128220000Y-96140000D03*
D16*
X127420000Y-98680000D03*
D17*
X128220000Y-98680000D03*
D16*
X127420000Y-101220000D03*
D17*
X128220000Y-101220000D03*
X146000000Y-101220000D03*
D16*
X146800000Y-101220000D03*
D17*
X146000000Y-98680000D03*
D16*
X146800000Y-98680000D03*
D20*
X146000000Y-96140000D03*
D14*
X146800000Y-96140000D03*
D17*
X146000000Y-93600000D03*
D16*
X146800000Y-93600000D03*
D17*
X146000000Y-91060000D03*
D16*
X146800000Y-91060000D03*
D17*
X146000000Y-88520000D03*
D16*
X146800000Y-88520000D03*
D17*
X146000000Y-85980000D03*
D16*
X146800000Y-85980000D03*
D20*
X146000000Y-83440000D03*
D14*
X146800000Y-83440000D03*
D17*
X146000000Y-80900000D03*
D16*
X146800000Y-80900000D03*
D17*
X146000000Y-78360000D03*
D16*
X146800000Y-78360000D03*
D17*
X146000000Y-75820000D03*
D16*
X146800000Y-75820000D03*
D17*
X146000000Y-73280000D03*
D16*
X146800000Y-73280000D03*
D20*
X146000000Y-70740000D03*
D14*
X146800000Y-70740000D03*
D17*
X146000000Y-68200000D03*
D16*
X146800000Y-68200000D03*
D17*
X146000000Y-65660000D03*
D16*
X146800000Y-65660000D03*
D17*
X146000000Y-63120000D03*
D16*
X146800000Y-63120000D03*
D17*
X146000000Y-60580000D03*
D16*
X146800000Y-60580000D03*
D20*
X146000000Y-58040000D03*
D14*
X146800000Y-58040000D03*
D17*
X146000000Y-55500000D03*
D16*
X146800000Y-55500000D03*
D17*
X146000000Y-52960000D03*
D16*
X146800000Y-52960000D03*
%TD*%
D21*
%TO.C,R1*%
X165250000Y-87575000D03*
X165250000Y-85925000D03*
%TD*%
D22*
%TO.C,R2*%
X163750000Y-85925000D03*
X163750000Y-87575000D03*
%TD*%
D21*
%TO.C,R3*%
X165250000Y-84575000D03*
X165250000Y-82925000D03*
%TD*%
D22*
%TO.C,R4*%
X163750000Y-82925000D03*
X163750000Y-84575000D03*
%TD*%
D23*
%TO.C,SW1*%
X155000000Y-68250000D03*
X161500000Y-68250000D03*
X155000000Y-72750000D03*
X161500000Y-72750000D03*
%TD*%
D24*
%TO.C,D1*%
X164450000Y-56850000D03*
X164450000Y-53650000D03*
X159550000Y-53650000D03*
X159550000Y-56850000D03*
%TD*%
M02*
