%TF.GenerationSoftware,KiCad,Pcbnew,9.0.6*%
%TF.CreationDate,2025-11-19T19:53:09-08:00*%
%TF.ProjectId,LED sniffer project,4c454420-736e-4696-9666-65722070726f,1.0*%
%TF.SameCoordinates,Original*%
%TF.FileFunction,Copper,L1,Top*%
%TF.FilePolarity,Positive*%
%FSLAX46Y46*%
G04 Gerber Fmt 4.6, Leading zero omitted, Abs format (unit mm)*
G04 Created by KiCad (PCBNEW 9.0.6) date 2025-11-19 19:53:09*
%MOMM*%
%LPD*%
G01*
G04 APERTURE LIST*
G04 Aperture macros list*
%AMRoundRect*
0 Rectangle with rounded corners*
0 $1 Rounding radius*
0 $2 $3 $4 $5 $6 $7 $8 $9 X,Y pos of 4 corners*
0 Add a 4 corners polygon primitive as box body*
4,1,4,$2,$3,$4,$5,$6,$7,$8,$9,$2,$3,0*
0 Add four circle primitives for the rounded corners*
1,1,$1+$1,$2,$3*
1,1,$1+$1,$4,$5*
1,1,$1+$1,$6,$7*
1,1,$1+$1,$8,$9*
0 Add four rect primitives between the rounded corners*
20,1,$1+$1,$2,$3,$4,$5,0*
20,1,$1+$1,$4,$5,$6,$7,0*
20,1,$1+$1,$6,$7,$8,$9,0*
20,1,$1+$1,$8,$9,$2,$3,0*%
%AMFreePoly0*
4,1,37,0.800000,0.796148,0.878414,0.796148,1.032228,0.765552,1.177117,0.705537,1.307515,0.618408,1.418408,0.507515,1.505537,0.377117,1.565552,0.232228,1.596148,0.078414,1.596148,-0.078414,1.565552,-0.232228,1.505537,-0.377117,1.418408,-0.507515,1.307515,-0.618408,1.177117,-0.705537,1.032228,-0.765552,0.878414,-0.796148,0.800000,-0.796148,0.800000,-0.800000,-1.400000,-0.800000,
-1.403843,-0.796157,-1.439018,-0.796157,-1.511114,-0.766294,-1.566294,-0.711114,-1.596157,-0.639018,-1.596157,-0.603843,-1.600000,-0.600000,-1.600000,0.600000,-1.596157,0.603843,-1.596157,0.639018,-1.566294,0.711114,-1.511114,0.766294,-1.439018,0.796157,-1.403843,0.796157,-1.400000,0.800000,0.800000,0.800000,0.800000,0.796148,0.800000,0.796148,$1*%
%AMFreePoly1*
4,1,37,1.403843,0.796157,1.439018,0.796157,1.511114,0.766294,1.566294,0.711114,1.596157,0.639018,1.596157,0.603843,1.600000,0.600000,1.600000,-0.600000,1.596157,-0.603843,1.596157,-0.639018,1.566294,-0.711114,1.511114,-0.766294,1.439018,-0.796157,1.403843,-0.796157,1.400000,-0.800000,-0.800000,-0.800000,-0.800000,-0.796148,-0.878414,-0.796148,-1.032228,-0.765552,-1.177117,-0.705537,
-1.307515,-0.618408,-1.418408,-0.507515,-1.505537,-0.377117,-1.565552,-0.232228,-1.596148,-0.078414,-1.596148,0.078414,-1.565552,0.232228,-1.505537,0.377117,-1.418408,0.507515,-1.307515,0.618408,-1.177117,0.705537,-1.032228,0.765552,-0.878414,0.796148,-0.800000,0.796148,-0.800000,0.800000,1.400000,0.800000,1.403843,0.796157,1.403843,0.796157,$1*%
%AMFreePoly2*
4,1,37,0.603843,0.796157,0.639018,0.796157,0.711114,0.766294,0.766294,0.711114,0.796157,0.639018,0.796157,0.603843,0.800000,0.600000,0.800000,-0.600000,0.796157,-0.603843,0.796157,-0.639018,0.766294,-0.711114,0.711114,-0.766294,0.639018,-0.796157,0.603843,-0.796157,0.600000,-0.800000,0.000000,-0.800000,0.000000,-0.796148,-0.078414,-0.796148,-0.232228,-0.765552,-0.377117,-0.705537,
-0.507515,-0.618408,-0.618408,-0.507515,-0.705537,-0.377117,-0.765552,-0.232228,-0.796148,-0.078414,-0.796148,0.078414,-0.765552,0.232228,-0.705537,0.377117,-0.618408,0.507515,-0.507515,0.618408,-0.377117,0.705537,-0.232228,0.765552,-0.078414,0.796148,0.000000,0.796148,0.000000,0.800000,0.600000,0.800000,0.603843,0.796157,0.603843,0.796157,$1*%
%AMFreePoly3*
4,1,37,0.000000,0.796148,0.078414,0.796148,0.232228,0.765552,0.377117,0.705537,0.507515,0.618408,0.618408,0.507515,0.705537,0.377117,0.765552,0.232228,0.796148,0.078414,0.796148,-0.078414,0.765552,-0.232228,0.705537,-0.377117,0.618408,-0.507515,0.507515,-0.618408,0.377117,-0.705537,0.232228,-0.765552,0.078414,-0.796148,0.000000,-0.796148,0.000000,-0.800000,-0.600000,-0.800000,
-0.603843,-0.796157,-0.639018,-0.796157,-0.711114,-0.766294,-0.766294,-0.711114,-0.796157,-0.639018,-0.796157,-0.603843,-0.800000,-0.600000,-0.800000,0.600000,-0.796157,0.603843,-0.796157,0.639018,-0.766294,0.711114,-0.711114,0.766294,-0.639018,0.796157,-0.603843,0.796157,-0.600000,0.800000,0.000000,0.800000,0.000000,0.796148,0.000000,0.796148,$1*%
G04 Aperture macros list end*
%TA.AperFunction,ComponentPad*%
%ADD10C,1.700000*%
%TD*%
%TA.AperFunction,ComponentPad*%
%ADD11R,1.700000X1.700000*%
%TD*%
%TA.AperFunction,SMDPad,CuDef*%
%ADD12FreePoly0,0.000000*%
%TD*%
%TA.AperFunction,ComponentPad*%
%ADD13RoundRect,0.200000X-0.600000X-0.600000X0.600000X-0.600000X0.600000X0.600000X-0.600000X0.600000X0*%
%TD*%
%TA.AperFunction,SMDPad,CuDef*%
%ADD14RoundRect,0.800000X-0.800000X-0.000010X0.800000X-0.000010X0.800000X0.000010X-0.800000X0.000010X0*%
%TD*%
%TA.AperFunction,ComponentPad*%
%ADD15C,1.600000*%
%TD*%
%TA.AperFunction,SMDPad,CuDef*%
%ADD16FreePoly1,0.000000*%
%TD*%
%TA.AperFunction,ComponentPad*%
%ADD17FreePoly2,0.000000*%
%TD*%
%TA.AperFunction,ComponentPad*%
%ADD18FreePoly3,0.000000*%
%TD*%
%TA.AperFunction,SMDPad,CuDef*%
%ADD19RoundRect,0.200000X0.275000X-0.200000X0.275000X0.200000X-0.275000X0.200000X-0.275000X-0.200000X0*%
%TD*%
%TA.AperFunction,SMDPad,CuDef*%
%ADD20RoundRect,0.200000X-0.275000X0.200000X-0.275000X-0.200000X0.275000X-0.200000X0.275000X0.200000X0*%
%TD*%
%TA.AperFunction,ComponentPad*%
%ADD21C,2.000000*%
%TD*%
%TA.AperFunction,SMDPad,CuDef*%
%ADD22R,1.500000X1.000000*%
%TD*%
%TA.AperFunction,ViaPad*%
%ADD23C,0.600000*%
%TD*%
%TA.AperFunction,Conductor*%
%ADD24C,0.500000*%
%TD*%
G04 APERTURE END LIST*
D10*
%TO.P,J6,4,Pin_4*%
%TO.N,Net-(J6-Pin_4)*%
X150440000Y-104250000D03*
%TO.P,J6,3,Pin_3*%
%TO.N,Net-(J6-Pin_3)*%
X152980000Y-104250000D03*
%TO.P,J6,2,Pin_2*%
%TO.N,Net-(J6-Pin_2)*%
X155520000Y-104250000D03*
D11*
%TO.P,J6,1,Pin_1*%
%TO.N,GND*%
X158060000Y-104250000D03*
%TD*%
%TO.P,J4,1,Pin_1*%
%TO.N,Net-(J3-Pin_1)*%
X156750000Y-93540000D03*
D10*
%TO.P,J4,2,Pin_2*%
%TO.N,Net-(J4-Pin_2)*%
X156750000Y-91000000D03*
%TO.P,J4,3,Pin_3*%
%TO.N,GND*%
X156750000Y-88460000D03*
%TD*%
D11*
%TO.P,J3,1,Pin_1*%
%TO.N,Net-(J3-Pin_1)*%
X161250000Y-93525000D03*
D10*
%TO.P,J3,2,Pin_2*%
%TO.N,GND*%
X161250000Y-90985000D03*
%TD*%
D11*
%TO.P,J2,1,Pin_1*%
%TO.N,5V*%
X155500000Y-54190000D03*
D10*
%TO.P,J2,2,Pin_2*%
%TO.N,Net-(D1-DIN)*%
X155500000Y-56730000D03*
%TO.P,J2,3,Pin_3*%
%TO.N,Net-(J2-Pin_3)*%
X155500000Y-59270000D03*
%TO.P,J2,4,Pin_4*%
%TO.N,GND*%
X155500000Y-61810000D03*
%TD*%
D11*
%TO.P,J1,1,Pin_1*%
%TO.N,5V*%
X151250000Y-54210000D03*
D10*
%TO.P,J1,2,Pin_2*%
%TO.N,Net-(D1-DIN)*%
X151250000Y-56750000D03*
%TO.P,J1,3,Pin_3*%
%TO.N,GND*%
X151250000Y-59290000D03*
%TD*%
D11*
%TO.P,J5,1,Pin_1*%
%TO.N,Net-(J3-Pin_1)*%
X152000000Y-93560000D03*
D10*
%TO.P,J5,2,Pin_2*%
%TO.N,Net-(J4-Pin_2)*%
X152000000Y-91020000D03*
%TO.P,J5,3,Pin_3*%
%TO.N,Net-(J5-Pin_3)*%
X152000000Y-88480000D03*
%TO.P,J5,4,Pin_4*%
%TO.N,GND*%
X152000000Y-85940000D03*
%TD*%
D12*
%TO.P,PICO_MAIN1,1,GPIO0*%
%TO.N,unconnected-(PICO_MAIN1-GPIO0-Pad1)*%
X127420000Y-52960000D03*
D13*
%TO.N,unconnected-(PICO_MAIN1-GPIO0-Pad1)_1*%
X128220000Y-52960000D03*
D14*
%TO.P,PICO_MAIN1,2,GPIO1*%
%TO.N,unconnected-(PICO_MAIN1-GPIO1-Pad2)*%
X127420000Y-55500000D03*
D15*
%TO.N,unconnected-(PICO_MAIN1-GPIO1-Pad2)_1*%
X128220000Y-55500000D03*
D16*
%TO.P,PICO_MAIN1,3,GND*%
%TO.N,GND*%
X127420000Y-58040000D03*
D17*
X128220000Y-58040000D03*
D14*
%TO.P,PICO_MAIN1,4,GPIO2*%
%TO.N,unconnected-(PICO_MAIN1-GPIO2-Pad4)*%
X127420000Y-60580000D03*
D15*
%TO.N,unconnected-(PICO_MAIN1-GPIO2-Pad4)_1*%
X128220000Y-60580000D03*
D14*
%TO.P,PICO_MAIN1,5,GPIO3*%
%TO.N,unconnected-(PICO_MAIN1-GPIO3-Pad5)_1*%
X127420000Y-63120000D03*
D15*
%TO.N,unconnected-(PICO_MAIN1-GPIO3-Pad5)*%
X128220000Y-63120000D03*
D14*
%TO.P,PICO_MAIN1,6,GPIO4*%
%TO.N,unconnected-(PICO_MAIN1-GPIO4-Pad6)*%
X127420000Y-65660000D03*
D15*
%TO.N,unconnected-(PICO_MAIN1-GPIO4-Pad6)_1*%
X128220000Y-65660000D03*
D14*
%TO.P,PICO_MAIN1,7,GPIO5*%
%TO.N,unconnected-(PICO_MAIN1-GPIO5-Pad7)_1*%
X127420000Y-68200000D03*
D15*
%TO.N,unconnected-(PICO_MAIN1-GPIO5-Pad7)*%
X128220000Y-68200000D03*
D16*
%TO.P,PICO_MAIN1,8,GND*%
%TO.N,GND*%
X127420000Y-70740000D03*
D17*
X128220000Y-70740000D03*
D14*
%TO.P,PICO_MAIN1,9,GPIO6*%
%TO.N,unconnected-(PICO_MAIN1-GPIO6-Pad9)_1*%
X127420000Y-73280000D03*
D15*
%TO.N,unconnected-(PICO_MAIN1-GPIO6-Pad9)*%
X128220000Y-73280000D03*
D14*
%TO.P,PICO_MAIN1,10,GPIO7*%
%TO.N,unconnected-(PICO_MAIN1-GPIO7-Pad10)*%
X127420000Y-75820000D03*
D15*
%TO.N,unconnected-(PICO_MAIN1-GPIO7-Pad10)_1*%
X128220000Y-75820000D03*
D14*
%TO.P,PICO_MAIN1,11,GPIO8*%
%TO.N,unconnected-(PICO_MAIN1-GPIO8-Pad11)*%
X127420000Y-78360000D03*
D15*
%TO.N,unconnected-(PICO_MAIN1-GPIO8-Pad11)_1*%
X128220000Y-78360000D03*
D14*
%TO.P,PICO_MAIN1,12,GPIO9*%
%TO.N,unconnected-(PICO_MAIN1-GPIO9-Pad12)*%
X127420000Y-80900000D03*
D15*
%TO.N,unconnected-(PICO_MAIN1-GPIO9-Pad12)_1*%
X128220000Y-80900000D03*
D16*
%TO.P,PICO_MAIN1,13,GND*%
%TO.N,GND*%
X127420000Y-83440000D03*
D17*
X128220000Y-83440000D03*
D14*
%TO.P,PICO_MAIN1,14,GPIO10*%
%TO.N,unconnected-(PICO_MAIN1-GPIO10-Pad14)*%
X127420000Y-85980000D03*
D15*
%TO.N,unconnected-(PICO_MAIN1-GPIO10-Pad14)_1*%
X128220000Y-85980000D03*
D14*
%TO.P,PICO_MAIN1,15,GPIO11*%
%TO.N,unconnected-(PICO_MAIN1-GPIO11-Pad15)_1*%
X127420000Y-88520000D03*
D15*
%TO.N,unconnected-(PICO_MAIN1-GPIO11-Pad15)*%
X128220000Y-88520000D03*
D14*
%TO.P,PICO_MAIN1,16,GPIO12*%
%TO.N,unconnected-(PICO_MAIN1-GPIO12-Pad16)_1*%
X127420000Y-91060000D03*
D15*
%TO.N,unconnected-(PICO_MAIN1-GPIO12-Pad16)*%
X128220000Y-91060000D03*
D14*
%TO.P,PICO_MAIN1,17,GPIO13*%
%TO.N,Net-(J6-Pin_4)*%
X127420000Y-93600000D03*
D15*
X128220000Y-93600000D03*
D16*
%TO.P,PICO_MAIN1,18,GND*%
%TO.N,GND*%
X127420000Y-96140000D03*
D17*
X128220000Y-96140000D03*
D14*
%TO.P,PICO_MAIN1,19,GPIO14*%
%TO.N,Net-(J6-Pin_3)*%
X127420000Y-98680000D03*
D15*
X128220000Y-98680000D03*
D14*
%TO.P,PICO_MAIN1,20,GPIO15*%
%TO.N,Net-(J6-Pin_2)*%
X127420000Y-101220000D03*
D15*
X128220000Y-101220000D03*
%TO.P,PICO_MAIN1,21,GPIO16*%
%TO.N,Net-(PICO_MAIN1-GPIO16)*%
X146000000Y-101220000D03*
D14*
X146800000Y-101220000D03*
D15*
%TO.P,PICO_MAIN1,22,GPIO17*%
%TO.N,Net-(PICO_MAIN1-GPIO17)*%
X146000000Y-98680000D03*
D14*
X146800000Y-98680000D03*
D18*
%TO.P,PICO_MAIN1,23,GND*%
%TO.N,GND*%
X146000000Y-96140000D03*
D12*
X146800000Y-96140000D03*
D15*
%TO.P,PICO_MAIN1,24,GPIO18*%
%TO.N,Net-(J3-Pin_1)*%
X146000000Y-93600000D03*
D14*
X146800000Y-93600000D03*
D15*
%TO.P,PICO_MAIN1,25,GPIO19*%
%TO.N,Net-(J4-Pin_2)*%
X146000000Y-91060000D03*
D14*
X146800000Y-91060000D03*
D15*
%TO.P,PICO_MAIN1,26,GPIO20*%
%TO.N,Net-(J5-Pin_3)*%
X146000000Y-88520000D03*
D14*
X146800000Y-88520000D03*
D15*
%TO.P,PICO_MAIN1,27,GPIO21*%
%TO.N,unconnected-(PICO_MAIN1-GPIO21-Pad27)*%
X146000000Y-85980000D03*
D14*
%TO.N,unconnected-(PICO_MAIN1-GPIO21-Pad27)_1*%
X146800000Y-85980000D03*
D18*
%TO.P,PICO_MAIN1,28,GND*%
%TO.N,GND*%
X146000000Y-83440000D03*
D12*
X146800000Y-83440000D03*
D15*
%TO.P,PICO_MAIN1,29,GPIO22*%
%TO.N,unconnected-(PICO_MAIN1-GPIO22-Pad29)_1*%
X146000000Y-80900000D03*
D14*
%TO.N,unconnected-(PICO_MAIN1-GPIO22-Pad29)*%
X146800000Y-80900000D03*
D15*
%TO.P,PICO_MAIN1,30,RUN*%
%TO.N,unconnected-(PICO_MAIN1-RUN-Pad30)*%
X146000000Y-78360000D03*
D14*
%TO.N,unconnected-(PICO_MAIN1-RUN-Pad30)_1*%
X146800000Y-78360000D03*
D15*
%TO.P,PICO_MAIN1,31,GPIO26_ADC0*%
%TO.N,unconnected-(PICO_MAIN1-GPIO26_ADC0-Pad31)*%
X146000000Y-75820000D03*
D14*
%TO.N,unconnected-(PICO_MAIN1-GPIO26_ADC0-Pad31)_1*%
X146800000Y-75820000D03*
D15*
%TO.P,PICO_MAIN1,32,GPIO27_ADC1*%
%TO.N,unconnected-(PICO_MAIN1-GPIO27_ADC1-Pad32)*%
X146000000Y-73280000D03*
D14*
%TO.N,unconnected-(PICO_MAIN1-GPIO27_ADC1-Pad32)_1*%
X146800000Y-73280000D03*
D18*
%TO.P,PICO_MAIN1,33,AGND*%
%TO.N,unconnected-(PICO_MAIN1-AGND-Pad33)_1*%
X146000000Y-70740000D03*
D12*
%TO.N,unconnected-(PICO_MAIN1-AGND-Pad33)*%
X146800000Y-70740000D03*
D15*
%TO.P,PICO_MAIN1,34,GPIO28_ADC2*%
%TO.N,Net-(PICO_MAIN1-GPIO28_ADC2)*%
X146000000Y-68200000D03*
D14*
X146800000Y-68200000D03*
D15*
%TO.P,PICO_MAIN1,35,ADC_VREF*%
%TO.N,unconnected-(PICO_MAIN1-ADC_VREF-Pad35)*%
X146000000Y-65660000D03*
D14*
%TO.N,unconnected-(PICO_MAIN1-ADC_VREF-Pad35)_1*%
X146800000Y-65660000D03*
D15*
%TO.P,PICO_MAIN1,36,3V3*%
%TO.N,unconnected-(PICO_MAIN1-3V3-Pad36)*%
X146000000Y-63120000D03*
D14*
%TO.N,unconnected-(PICO_MAIN1-3V3-Pad36)_1*%
X146800000Y-63120000D03*
D15*
%TO.P,PICO_MAIN1,37,3V3_EN*%
%TO.N,unconnected-(PICO_MAIN1-3V3_EN-Pad37)*%
X146000000Y-60580000D03*
D14*
%TO.N,unconnected-(PICO_MAIN1-3V3_EN-Pad37)_1*%
X146800000Y-60580000D03*
D18*
%TO.P,PICO_MAIN1,38,GND*%
%TO.N,GND*%
X146000000Y-58040000D03*
D12*
X146800000Y-58040000D03*
D15*
%TO.P,PICO_MAIN1,39,VSYS*%
%TO.N,5V*%
X146000000Y-55500000D03*
D14*
X146800000Y-55500000D03*
D15*
%TO.P,PICO_MAIN1,40,VBUS*%
%TO.N,unconnected-(PICO_MAIN1-VBUS-Pad40)*%
X146000000Y-52960000D03*
D14*
%TO.N,unconnected-(PICO_MAIN1-VBUS-Pad40)_1*%
X146800000Y-52960000D03*
%TD*%
D19*
%TO.P,R1,1*%
%TO.N,Net-(PICO_MAIN1-GPIO16)*%
X165250000Y-87575000D03*
%TO.P,R1,2*%
%TO.N,Net-(D1-DIN)*%
X165250000Y-85925000D03*
%TD*%
D20*
%TO.P,R2,1*%
%TO.N,GND*%
X163750000Y-85925000D03*
%TO.P,R2,2*%
%TO.N,Net-(PICO_MAIN1-GPIO16)*%
X163750000Y-87575000D03*
%TD*%
D19*
%TO.P,R3,1*%
%TO.N,Net-(PICO_MAIN1-GPIO17)*%
X165250000Y-84575000D03*
%TO.P,R3,2*%
%TO.N,Net-(J2-Pin_3)*%
X165250000Y-82925000D03*
%TD*%
D20*
%TO.P,R4,1*%
%TO.N,GND*%
X163750000Y-82925000D03*
%TO.P,R4,2*%
%TO.N,Net-(PICO_MAIN1-GPIO17)*%
X163750000Y-84575000D03*
%TD*%
D21*
%TO.P,SW1,1*%
%TO.N,Net-(PICO_MAIN1-GPIO28_ADC2)*%
X155000000Y-68250000D03*
X161500000Y-68250000D03*
%TO.P,SW1,2*%
%TO.N,GND*%
X155000000Y-72750000D03*
X161500000Y-72750000D03*
%TD*%
D22*
%TO.P,D1,1,VSS*%
%TO.N,GND*%
X164450000Y-56850000D03*
%TO.P,D1,2,DIN*%
%TO.N,Net-(D1-DIN)*%
X164450000Y-53650000D03*
%TO.P,D1,3,VDD*%
%TO.N,5V*%
X159550000Y-53650000D03*
%TO.P,D1,4,DOUT*%
%TO.N,unconnected-(D1-DOUT-Pad4)*%
X159550000Y-56850000D03*
%TD*%
D23*
%TO.N,GND*%
X160000000Y-70250000D03*
X158250000Y-72250000D03*
X158000000Y-70250000D03*
X164750000Y-55500000D03*
X166250000Y-54500000D03*
X165000000Y-52000000D03*
X161000000Y-52000000D03*
X162250000Y-53500000D03*
X162250000Y-57000000D03*
X165750000Y-63500000D03*
X163750000Y-59750000D03*
X162500000Y-61000000D03*
X165750000Y-60000000D03*
X165000000Y-61750000D03*
X161500000Y-60250000D03*
X153000000Y-61500000D03*
X158250000Y-63500000D03*
X158500000Y-64750000D03*
X154250000Y-65000000D03*
X151250000Y-65250000D03*
X151500000Y-62500000D03*
X149750000Y-63250000D03*
X149500000Y-66000000D03*
X152500000Y-66000000D03*
X152250000Y-71750000D03*
X151500000Y-70000000D03*
X149250000Y-70000000D03*
X151250000Y-71750000D03*
X149750000Y-74250000D03*
X161500000Y-75000000D03*
X159250000Y-76750000D03*
X159250000Y-80250000D03*
X158500000Y-80750000D03*
X155250000Y-80250000D03*
X154250000Y-81500000D03*
X161750000Y-80750000D03*
X154750000Y-86250000D03*
X156500000Y-85750000D03*
X156000000Y-85250000D03*
X158750000Y-85750000D03*
X163750000Y-85925000D03*
X160500000Y-85750000D03*
X164250000Y-89500000D03*
X164500000Y-94500000D03*
X158750000Y-96250000D03*
X154500000Y-96500000D03*
X149750000Y-95250000D03*
X151750000Y-97000000D03*
X158500000Y-97250000D03*
X160750000Y-99750000D03*
X150750000Y-99750000D03*
X154750000Y-99750000D03*
X166500000Y-101250000D03*
X163250000Y-103250000D03*
X164500000Y-107250000D03*
X155750000Y-107000000D03*
X157250000Y-107250000D03*
X150250000Y-108500000D03*
X141250000Y-108500000D03*
X127250000Y-107750000D03*
X129500000Y-105500000D03*
X127500000Y-104250000D03*
X126500000Y-105750000D03*
X131000000Y-108250000D03*
X136000000Y-108250000D03*
X146250000Y-109000000D03*
X156250000Y-108500000D03*
X161750000Y-106500000D03*
X166000000Y-104250000D03*
X161750000Y-108000000D03*
X162000000Y-105500000D03*
X143250000Y-79750000D03*
X142250000Y-78000000D03*
X134250000Y-73750000D03*
X139750000Y-67500000D03*
X139250000Y-92500000D03*
X136500000Y-68750000D03*
X135000000Y-82250000D03*
X136500000Y-79000000D03*
X130750000Y-63750000D03*
X138250000Y-86000000D03*
X131250000Y-59500000D03*
X141750000Y-62750000D03*
X142250000Y-91500000D03*
X131500000Y-79000000D03*
X139750000Y-79250000D03*
X142250000Y-58750000D03*
X131000000Y-75000000D03*
X138250000Y-59500000D03*
X132500000Y-70500000D03*
X136250000Y-62000000D03*
X133250000Y-86500000D03*
X132250000Y-88000000D03*
X135750000Y-89250000D03*
X139500000Y-61750000D03*
X132250000Y-76750000D03*
X131750000Y-83250000D03*
X138250000Y-89250000D03*
X137750000Y-63750000D03*
X136250000Y-77000000D03*
X143750000Y-86000000D03*
X141750000Y-87750000D03*
X133750000Y-91250000D03*
%TD*%
D24*
%TO.N,5V*%
X159010000Y-54190000D02*
X159550000Y-53650000D01*
X155500000Y-54190000D02*
X159010000Y-54190000D01*
%TO.N,Net-(J6-Pin_2)*%
X133750000Y-106750000D02*
X128220000Y-101220000D01*
X153020000Y-106750000D02*
X133750000Y-106750000D01*
X155520000Y-104250000D02*
X153020000Y-106750000D01*
%TO.N,Net-(J6-Pin_3)*%
X136750000Y-105750000D02*
X129680000Y-98680000D01*
X129680000Y-98680000D02*
X127420000Y-98680000D01*
X151480000Y-105750000D02*
X136750000Y-105750000D01*
X152980000Y-104250000D02*
X151480000Y-105750000D01*
%TO.N,Net-(J6-Pin_4)*%
X138870000Y-104250000D02*
X128220000Y-93600000D01*
X150440000Y-104250000D02*
X138870000Y-104250000D01*
%TO.N,Net-(PICO_MAIN1-GPIO16)*%
X165250000Y-98500000D02*
X165250000Y-87575000D01*
X162530000Y-101220000D02*
X165250000Y-98500000D01*
X146800000Y-101220000D02*
X162530000Y-101220000D01*
%TO.N,Net-(PICO_MAIN1-GPIO17)*%
X162500000Y-85250000D02*
X163175000Y-84575000D01*
X162500000Y-88000000D02*
X162500000Y-85250000D01*
X163500000Y-89000000D02*
X162500000Y-88000000D01*
X163500000Y-97500000D02*
X163500000Y-89000000D01*
X163175000Y-84575000D02*
X163750000Y-84575000D01*
%TO.N,Net-(PICO_MAIN1-GPIO16)*%
X165250000Y-87575000D02*
X163750000Y-87575000D01*
%TO.N,Net-(PICO_MAIN1-GPIO17)*%
X165250000Y-84575000D02*
X163750000Y-84575000D01*
%TO.N,Net-(J2-Pin_3)*%
X165250000Y-81000000D02*
X163500000Y-79250000D01*
X165250000Y-82925000D02*
X165250000Y-81000000D01*
%TO.N,Net-(D1-DIN)*%
X166075000Y-85925000D02*
X167000000Y-85000000D01*
X165250000Y-85925000D02*
X166075000Y-85925000D01*
%TO.N,Net-(J2-Pin_3)*%
X163500000Y-66000000D02*
X163500000Y-79250000D01*
%TO.N,Net-(D1-DIN)*%
X167000000Y-85000000D02*
X167000000Y-81500000D01*
X167000000Y-81500000D02*
X165250000Y-79750000D01*
%TO.N,Net-(PICO_MAIN1-GPIO17)*%
X164250000Y-84575000D02*
X164075000Y-84750000D01*
X163500000Y-97500000D02*
X162250000Y-98750000D01*
X162250000Y-98750000D02*
X146870000Y-98750000D01*
X146870000Y-98750000D02*
X146800000Y-98680000D01*
%TO.N,Net-(PICO_MAIN1-GPIO28_ADC2)*%
X146850000Y-68250000D02*
X146800000Y-68200000D01*
X155000000Y-68250000D02*
X146850000Y-68250000D01*
X161500000Y-68250000D02*
X155000000Y-68250000D01*
%TO.N,Net-(J2-Pin_3)*%
X163500000Y-66000000D02*
X156770000Y-59270000D01*
X156770000Y-59270000D02*
X155500000Y-59270000D01*
%TO.N,Net-(D1-DIN)*%
X165250000Y-79750000D02*
X165250000Y-66480000D01*
X165250000Y-66480000D02*
X155500000Y-56730000D01*
%TO.N,5V*%
X149000000Y-55500000D02*
X146000000Y-55500000D01*
X150290000Y-54210000D02*
X149000000Y-55500000D01*
X151250000Y-54210000D02*
X150290000Y-54210000D01*
X155500000Y-54190000D02*
X151270000Y-54190000D01*
X151270000Y-54190000D02*
X151250000Y-54210000D01*
X156040000Y-53650000D02*
X155500000Y-54190000D01*
%TO.N,Net-(D1-DIN)*%
X162600000Y-55500000D02*
X164450000Y-53650000D01*
X156730000Y-55500000D02*
X162600000Y-55500000D01*
X155500000Y-56730000D02*
X156730000Y-55500000D01*
X151270000Y-56730000D02*
X151250000Y-56750000D01*
X155500000Y-56730000D02*
X151270000Y-56730000D01*
%TO.N,Net-(J5-Pin_3)*%
X146840000Y-88480000D02*
X146800000Y-88520000D01*
X152000000Y-88480000D02*
X146840000Y-88480000D01*
%TO.N,Net-(J4-Pin_2)*%
X146040000Y-91020000D02*
X146000000Y-91060000D01*
X152000000Y-91020000D02*
X146040000Y-91020000D01*
X152020000Y-91000000D02*
X152000000Y-91020000D01*
X156750000Y-91000000D02*
X152020000Y-91000000D01*
%TO.N,Net-(J3-Pin_1)*%
X146040000Y-93560000D02*
X146000000Y-93600000D01*
X152000000Y-93560000D02*
X146040000Y-93560000D01*
X152020000Y-93540000D02*
X152000000Y-93560000D01*
X156750000Y-93540000D02*
X152020000Y-93540000D01*
X156765000Y-93525000D02*
X156750000Y-93540000D01*
X161250000Y-93525000D02*
X156765000Y-93525000D01*
%TD*%
%TA.AperFunction,Conductor*%
%TO.N,GND*%
G36*
X164445357Y-88424112D02*
G01*
X164489656Y-88478143D01*
X164499500Y-88526562D01*
X164499500Y-98137770D01*
X164479815Y-98204809D01*
X164463181Y-98225451D01*
X162255451Y-100433181D01*
X162194128Y-100466666D01*
X162167770Y-100469500D01*
X148726663Y-100469500D01*
X148659624Y-100449815D01*
X148625088Y-100416623D01*
X148600045Y-100380858D01*
X148439141Y-100219954D01*
X148252734Y-100089432D01*
X148252728Y-100089429D01*
X148194725Y-100062382D01*
X148142285Y-100016210D01*
X148123133Y-99949017D01*
X148143348Y-99882135D01*
X148194725Y-99837618D01*
X148252734Y-99810568D01*
X148439139Y-99680047D01*
X148507818Y-99611368D01*
X148582368Y-99536819D01*
X148643691Y-99503334D01*
X148670049Y-99500500D01*
X162323920Y-99500500D01*
X162421597Y-99481070D01*
X162468913Y-99471658D01*
X162605495Y-99415084D01*
X162685525Y-99361610D01*
X162728416Y-99332952D01*
X164082952Y-97978416D01*
X164133435Y-97902861D01*
X164165084Y-97855495D01*
X164175917Y-97829343D01*
X164195478Y-97782117D01*
X164221658Y-97718913D01*
X164250500Y-97573918D01*
X164250500Y-88926082D01*
X164250500Y-88926079D01*
X164234134Y-88843807D01*
X164232481Y-88835495D01*
X164221659Y-88781088D01*
X164165992Y-88646699D01*
X164165394Y-88644968D01*
X164158010Y-88633917D01*
X164137132Y-88567240D01*
X164155617Y-88499860D01*
X164207596Y-88453170D01*
X164224211Y-88446645D01*
X164314606Y-88418478D01*
X164314613Y-88418473D01*
X164321445Y-88415400D01*
X164322404Y-88417531D01*
X164378879Y-88402608D01*
X164445357Y-88424112D01*
G37*
%TD.AperFunction*%
%TA.AperFunction,Conductor*%
G36*
X159842540Y-94295185D02*
G01*
X159888295Y-94347989D01*
X159899501Y-94399500D01*
X159899501Y-94422876D01*
X159905908Y-94482483D01*
X159956202Y-94617328D01*
X159956206Y-94617335D01*
X160042452Y-94732544D01*
X160042455Y-94732547D01*
X160157664Y-94818793D01*
X160157671Y-94818797D01*
X160292517Y-94869091D01*
X160292516Y-94869091D01*
X160299444Y-94869835D01*
X160352127Y-94875500D01*
X162147872Y-94875499D01*
X162207483Y-94869091D01*
X162342331Y-94818796D01*
X162457546Y-94732546D01*
X162526234Y-94640789D01*
X162582167Y-94598920D01*
X162651859Y-94593936D01*
X162713182Y-94627421D01*
X162746666Y-94688745D01*
X162749500Y-94715102D01*
X162749500Y-97137770D01*
X162729815Y-97204809D01*
X162713181Y-97225451D01*
X161975451Y-97963181D01*
X161914128Y-97996666D01*
X161887770Y-97999500D01*
X148775677Y-97999500D01*
X148708638Y-97979815D01*
X148674102Y-97946623D01*
X148600045Y-97840858D01*
X148439141Y-97679954D01*
X148252734Y-97549432D01*
X148252732Y-97549431D01*
X148200779Y-97525205D01*
X148148340Y-97479032D01*
X148129188Y-97411839D01*
X148149404Y-97344958D01*
X148194732Y-97303464D01*
X148259500Y-97268844D01*
X148259521Y-97268832D01*
X148390530Y-97181295D01*
X148390536Y-97181291D01*
X148467064Y-97118485D01*
X148578485Y-97007064D01*
X148641291Y-96930536D01*
X148641295Y-96930530D01*
X148728832Y-96799521D01*
X148728844Y-96799501D01*
X148775509Y-96712198D01*
X148835814Y-96566612D01*
X148864556Y-96471860D01*
X148864559Y-96471849D01*
X148880839Y-96390000D01*
X146433012Y-96390000D01*
X146465925Y-96332993D01*
X146500000Y-96205826D01*
X146500000Y-96074174D01*
X146465925Y-95947007D01*
X146433012Y-95890000D01*
X148880839Y-95890000D01*
X148880839Y-95889999D01*
X148864559Y-95808150D01*
X148864556Y-95808139D01*
X148835814Y-95713387D01*
X148775509Y-95567801D01*
X148728844Y-95480498D01*
X148728832Y-95480478D01*
X148641295Y-95349469D01*
X148641291Y-95349463D01*
X148578485Y-95272935D01*
X148467064Y-95161514D01*
X148390536Y-95098708D01*
X148390530Y-95098704D01*
X148259521Y-95011167D01*
X148259501Y-95011155D01*
X148194730Y-94976534D01*
X148144886Y-94927571D01*
X148129426Y-94859434D01*
X148153258Y-94793754D01*
X148200777Y-94754795D01*
X148252734Y-94730568D01*
X148439139Y-94600047D01*
X148600047Y-94439139D01*
X148653096Y-94363377D01*
X148707673Y-94319752D01*
X148754671Y-94310500D01*
X150525501Y-94310500D01*
X150592540Y-94330185D01*
X150638295Y-94382989D01*
X150649501Y-94434500D01*
X150649501Y-94457876D01*
X150655908Y-94517483D01*
X150706202Y-94652328D01*
X150706206Y-94652335D01*
X150792452Y-94767544D01*
X150792455Y-94767547D01*
X150907664Y-94853793D01*
X150907671Y-94853797D01*
X151042517Y-94904091D01*
X151042516Y-94904091D01*
X151049444Y-94904835D01*
X151102127Y-94910500D01*
X152897872Y-94910499D01*
X152957483Y-94904091D01*
X153092331Y-94853796D01*
X153207546Y-94767546D01*
X153293796Y-94652331D01*
X153344091Y-94517483D01*
X153350500Y-94457873D01*
X153350500Y-94414500D01*
X153370185Y-94347461D01*
X153422989Y-94301706D01*
X153474500Y-94290500D01*
X155275501Y-94290500D01*
X155342540Y-94310185D01*
X155388295Y-94362989D01*
X155399501Y-94414500D01*
X155399501Y-94437876D01*
X155405908Y-94497483D01*
X155456202Y-94632328D01*
X155456206Y-94632335D01*
X155542452Y-94747544D01*
X155542455Y-94747547D01*
X155657664Y-94833793D01*
X155657671Y-94833797D01*
X155792517Y-94884091D01*
X155792516Y-94884091D01*
X155799444Y-94884835D01*
X155852127Y-94890500D01*
X157647872Y-94890499D01*
X157707483Y-94884091D01*
X157842331Y-94833796D01*
X157957546Y-94747546D01*
X158043796Y-94632331D01*
X158094091Y-94497483D01*
X158100500Y-94437873D01*
X158100500Y-94399500D01*
X158120185Y-94332461D01*
X158172989Y-94286706D01*
X158224500Y-94275500D01*
X159775501Y-94275500D01*
X159842540Y-94295185D01*
G37*
%TD.AperFunction*%
%TA.AperFunction,Conductor*%
G36*
X153694408Y-69020185D02*
G01*
X153727685Y-69051613D01*
X153855483Y-69227510D01*
X154022490Y-69394517D01*
X154213567Y-69533343D01*
X154216900Y-69535041D01*
X154424003Y-69640566D01*
X154424005Y-69640566D01*
X154424008Y-69640568D01*
X154512288Y-69669252D01*
X154648631Y-69713553D01*
X154881903Y-69750500D01*
X154881908Y-69750500D01*
X155118097Y-69750500D01*
X155351368Y-69713553D01*
X155398339Y-69698291D01*
X155575992Y-69640568D01*
X155786433Y-69533343D01*
X155977510Y-69394517D01*
X156144517Y-69227510D01*
X156272313Y-69051613D01*
X156327643Y-69008949D01*
X156372631Y-69000500D01*
X160127369Y-69000500D01*
X160194408Y-69020185D01*
X160227685Y-69051613D01*
X160355483Y-69227510D01*
X160522490Y-69394517D01*
X160713567Y-69533343D01*
X160716900Y-69535041D01*
X160924003Y-69640566D01*
X160924005Y-69640566D01*
X160924008Y-69640568D01*
X161012288Y-69669252D01*
X161148631Y-69713553D01*
X161381903Y-69750500D01*
X161381908Y-69750500D01*
X161618097Y-69750500D01*
X161851368Y-69713553D01*
X161898339Y-69698291D01*
X162075992Y-69640568D01*
X162286433Y-69533343D01*
X162477510Y-69394517D01*
X162537819Y-69334208D01*
X162599142Y-69300723D01*
X162668834Y-69305707D01*
X162724767Y-69347579D01*
X162749184Y-69413043D01*
X162749500Y-69421889D01*
X162749500Y-71802690D01*
X162729815Y-71869729D01*
X162713181Y-71890371D01*
X162023787Y-72579765D01*
X162012518Y-72537708D01*
X161940110Y-72412292D01*
X161837708Y-72309890D01*
X161712292Y-72237482D01*
X161670234Y-72226212D01*
X162369105Y-71527340D01*
X162369104Y-71527338D01*
X162286174Y-71467087D01*
X162075802Y-71359897D01*
X161851247Y-71286934D01*
X161851248Y-71286934D01*
X161618052Y-71250000D01*
X161381948Y-71250000D01*
X161148752Y-71286934D01*
X160924197Y-71359897D01*
X160713830Y-71467084D01*
X160630894Y-71527340D01*
X161329766Y-72226212D01*
X161287708Y-72237482D01*
X161162292Y-72309890D01*
X161059890Y-72412292D01*
X160987482Y-72537708D01*
X160976212Y-72579766D01*
X160277340Y-71880894D01*
X160217084Y-71963830D01*
X160109897Y-72174197D01*
X160036934Y-72398752D01*
X160000000Y-72631947D01*
X160000000Y-72868052D01*
X160036934Y-73101247D01*
X160109897Y-73325802D01*
X160217087Y-73536174D01*
X160277338Y-73619104D01*
X160277340Y-73619105D01*
X160976212Y-72920233D01*
X160987482Y-72962292D01*
X161059890Y-73087708D01*
X161162292Y-73190110D01*
X161287708Y-73262518D01*
X161329765Y-73273787D01*
X160630893Y-73972658D01*
X160713828Y-74032914D01*
X160924197Y-74140102D01*
X161148752Y-74213065D01*
X161148751Y-74213065D01*
X161381948Y-74250000D01*
X161618052Y-74250000D01*
X161851247Y-74213065D01*
X162075802Y-74140102D01*
X162286163Y-74032918D01*
X162286169Y-74032914D01*
X162369104Y-73972658D01*
X162369105Y-73972658D01*
X161670233Y-73273787D01*
X161712292Y-73262518D01*
X161837708Y-73190110D01*
X161940110Y-73087708D01*
X162012518Y-72962292D01*
X162023787Y-72920234D01*
X162713181Y-73609628D01*
X162746666Y-73670951D01*
X162749500Y-73697309D01*
X162749500Y-79323918D01*
X162749500Y-79323920D01*
X162749499Y-79323920D01*
X162778340Y-79468907D01*
X162778343Y-79468917D01*
X162834913Y-79605490D01*
X162834914Y-79605492D01*
X162861737Y-79645635D01*
X162861738Y-79645637D01*
X162917043Y-79728410D01*
X162917047Y-79728415D01*
X164463181Y-81274549D01*
X164496666Y-81335872D01*
X164499500Y-81362230D01*
X164499500Y-81974022D01*
X164479815Y-82041061D01*
X164427011Y-82086816D01*
X164357853Y-82096760D01*
X164321775Y-82083865D01*
X164321238Y-82085060D01*
X164314396Y-82081980D01*
X164152105Y-82031409D01*
X164152106Y-82031409D01*
X164081572Y-82025000D01*
X164000000Y-82025000D01*
X164000000Y-82801000D01*
X163980315Y-82868039D01*
X163927511Y-82913794D01*
X163876000Y-82925000D01*
X163750000Y-82925000D01*
X163750000Y-83051000D01*
X163730315Y-83118039D01*
X163677511Y-83163794D01*
X163626000Y-83175000D01*
X162775001Y-83175000D01*
X162775001Y-83181582D01*
X162781408Y-83252102D01*
X162781409Y-83252107D01*
X162831981Y-83414396D01*
X162919927Y-83559877D01*
X163007218Y-83647168D01*
X163040703Y-83708491D01*
X163035719Y-83778183D01*
X162993847Y-83834116D01*
X162961499Y-83850492D01*
X162961714Y-83851011D01*
X162819511Y-83909912D01*
X162819498Y-83909919D01*
X162696584Y-83992048D01*
X162696580Y-83992051D01*
X161917050Y-84771581D01*
X161917048Y-84771584D01*
X161902129Y-84793913D01*
X161902127Y-84793914D01*
X161902127Y-84793915D01*
X161834916Y-84894503D01*
X161834914Y-84894506D01*
X161778343Y-85031082D01*
X161778340Y-85031092D01*
X161749500Y-85176079D01*
X161749500Y-85176082D01*
X161749500Y-88073918D01*
X161749500Y-88073920D01*
X161749499Y-88073920D01*
X161778340Y-88218907D01*
X161778343Y-88218917D01*
X161834913Y-88355490D01*
X161834914Y-88355491D01*
X161834916Y-88355495D01*
X161847089Y-88373713D01*
X161904742Y-88459999D01*
X161917051Y-88478420D01*
X161917052Y-88478421D01*
X162713181Y-89274548D01*
X162746666Y-89335871D01*
X162749500Y-89362229D01*
X162749500Y-90448388D01*
X162729815Y-90515427D01*
X162677011Y-90561182D01*
X162607853Y-90571126D01*
X162544297Y-90542101D01*
X162507569Y-90486706D01*
X162501095Y-90466782D01*
X162404624Y-90277449D01*
X162365270Y-90223282D01*
X162365269Y-90223282D01*
X161732962Y-90855590D01*
X161715925Y-90792007D01*
X161650099Y-90677993D01*
X161557007Y-90584901D01*
X161442993Y-90519075D01*
X161379409Y-90502037D01*
X162011716Y-89869728D01*
X161957550Y-89830375D01*
X161768217Y-89733904D01*
X161566129Y-89668242D01*
X161356246Y-89635000D01*
X161143754Y-89635000D01*
X160933872Y-89668242D01*
X160933869Y-89668242D01*
X160731782Y-89733904D01*
X160542439Y-89830380D01*
X160488282Y-89869727D01*
X160488282Y-89869728D01*
X161120591Y-90502037D01*
X161057007Y-90519075D01*
X160942993Y-90584901D01*
X160849901Y-90677993D01*
X160784075Y-90792007D01*
X160767037Y-90855591D01*
X160134728Y-90223282D01*
X160134727Y-90223282D01*
X160095380Y-90277439D01*
X159998904Y-90466782D01*
X159933242Y-90668869D01*
X159933242Y-90668872D01*
X159900000Y-90878753D01*
X159900000Y-91091246D01*
X159933242Y-91301127D01*
X159933242Y-91301130D01*
X159998904Y-91503217D01*
X160095375Y-91692550D01*
X160134728Y-91746716D01*
X160767037Y-91114408D01*
X160784075Y-91177993D01*
X160849901Y-91292007D01*
X160942993Y-91385099D01*
X161057007Y-91450925D01*
X161120590Y-91467962D01*
X160450370Y-92138181D01*
X160389047Y-92171666D01*
X160362698Y-92174500D01*
X160352134Y-92174500D01*
X160352123Y-92174501D01*
X160292516Y-92180908D01*
X160157671Y-92231202D01*
X160157664Y-92231206D01*
X160042455Y-92317452D01*
X160042452Y-92317455D01*
X159956206Y-92432664D01*
X159956202Y-92432671D01*
X159905908Y-92567517D01*
X159899501Y-92627116D01*
X159899500Y-92627135D01*
X159899500Y-92650500D01*
X159879815Y-92717539D01*
X159827011Y-92763294D01*
X159775500Y-92774500D01*
X158224499Y-92774500D01*
X158157460Y-92754815D01*
X158111705Y-92702011D01*
X158100499Y-92650500D01*
X158100499Y-92642129D01*
X158100498Y-92642123D01*
X158100497Y-92642116D01*
X158094091Y-92582517D01*
X158088496Y-92567517D01*
X158043797Y-92447671D01*
X158043793Y-92447664D01*
X157957547Y-92332455D01*
X157957544Y-92332452D01*
X157842335Y-92246206D01*
X157842328Y-92246202D01*
X157710917Y-92197189D01*
X157654983Y-92155318D01*
X157630566Y-92089853D01*
X157645418Y-92021580D01*
X157666563Y-91993332D01*
X157780104Y-91879792D01*
X157905051Y-91707816D01*
X158001557Y-91518412D01*
X158067246Y-91316243D01*
X158100500Y-91106287D01*
X158100500Y-90893713D01*
X158067246Y-90683757D01*
X158001557Y-90481588D01*
X157905051Y-90292184D01*
X157905049Y-90292181D01*
X157905048Y-90292179D01*
X157780109Y-90120213D01*
X157629786Y-89969890D01*
X157457817Y-89844949D01*
X157448504Y-89840204D01*
X157397707Y-89792230D01*
X157380912Y-89724409D01*
X157403449Y-89658274D01*
X157448507Y-89619232D01*
X157457555Y-89614622D01*
X157511716Y-89575270D01*
X157511717Y-89575270D01*
X156879408Y-88942962D01*
X156942993Y-88925925D01*
X157057007Y-88860099D01*
X157150099Y-88767007D01*
X157215925Y-88652993D01*
X157232962Y-88589409D01*
X157865270Y-89221717D01*
X157865270Y-89221716D01*
X157904622Y-89167554D01*
X158001095Y-88978217D01*
X158066757Y-88776130D01*
X158066757Y-88776127D01*
X158100000Y-88566246D01*
X158100000Y-88353753D01*
X158066757Y-88143872D01*
X158066757Y-88143869D01*
X158001095Y-87941782D01*
X157904624Y-87752449D01*
X157865270Y-87698282D01*
X157865269Y-87698282D01*
X157232962Y-88330590D01*
X157215925Y-88267007D01*
X157150099Y-88152993D01*
X157057007Y-88059901D01*
X156942993Y-87994075D01*
X156879409Y-87977037D01*
X157511716Y-87344728D01*
X157457550Y-87305375D01*
X157268217Y-87208904D01*
X157066129Y-87143242D01*
X156856246Y-87110000D01*
X156643754Y-87110000D01*
X156433872Y-87143242D01*
X156433869Y-87143242D01*
X156231782Y-87208904D01*
X156042439Y-87305380D01*
X155988282Y-87344727D01*
X155988282Y-87344728D01*
X156620591Y-87977037D01*
X156557007Y-87994075D01*
X156442993Y-88059901D01*
X156349901Y-88152993D01*
X156284075Y-88267007D01*
X156267037Y-88330591D01*
X155634728Y-87698282D01*
X155634727Y-87698282D01*
X155595380Y-87752439D01*
X155498904Y-87941782D01*
X155433242Y-88143869D01*
X155433242Y-88143872D01*
X155400000Y-88353753D01*
X155400000Y-88566246D01*
X155433242Y-88776127D01*
X155433242Y-88776130D01*
X155498904Y-88978217D01*
X155595375Y-89167550D01*
X155634728Y-89221716D01*
X156267037Y-88589408D01*
X156284075Y-88652993D01*
X156349901Y-88767007D01*
X156442993Y-88860099D01*
X156557007Y-88925925D01*
X156620590Y-88942962D01*
X155988282Y-89575269D01*
X155988282Y-89575270D01*
X156042452Y-89614626D01*
X156042451Y-89614626D01*
X156051495Y-89619234D01*
X156102292Y-89667208D01*
X156119087Y-89735029D01*
X156096550Y-89801164D01*
X156051499Y-89840202D01*
X156042182Y-89844949D01*
X155870213Y-89969890D01*
X155719892Y-90120211D01*
X155663097Y-90198385D01*
X155607767Y-90241051D01*
X155562779Y-90249500D01*
X153172690Y-90249500D01*
X153105651Y-90229815D01*
X153072371Y-90198384D01*
X153030107Y-90140211D01*
X152879786Y-89989890D01*
X152707820Y-89864951D01*
X152707115Y-89864591D01*
X152699054Y-89860485D01*
X152648259Y-89812512D01*
X152631463Y-89744692D01*
X152653999Y-89678556D01*
X152699054Y-89639515D01*
X152707816Y-89635051D01*
X152784342Y-89579452D01*
X152879786Y-89510109D01*
X152879788Y-89510106D01*
X152879792Y-89510104D01*
X153030104Y-89359792D01*
X153030106Y-89359788D01*
X153030109Y-89359786D01*
X153155048Y-89187820D01*
X153155047Y-89187820D01*
X153155051Y-89187816D01*
X153251557Y-88998412D01*
X153317246Y-88796243D01*
X153350500Y-88586287D01*
X153350500Y-88373713D01*
X153317246Y-88163757D01*
X153251557Y-87961588D01*
X153155051Y-87772184D01*
X153155049Y-87772181D01*
X153155048Y-87772179D01*
X153030109Y-87600213D01*
X152879786Y-87449890D01*
X152707817Y-87324949D01*
X152698504Y-87320204D01*
X152647707Y-87272230D01*
X152630912Y-87204409D01*
X152653449Y-87138274D01*
X152698507Y-87099232D01*
X152707555Y-87094622D01*
X152761716Y-87055270D01*
X152761717Y-87055270D01*
X152129408Y-86422962D01*
X152192993Y-86405925D01*
X152307007Y-86340099D01*
X152400099Y-86247007D01*
X152465925Y-86132993D01*
X152482962Y-86069408D01*
X153115270Y-86701717D01*
X153115270Y-86701716D01*
X153154622Y-86647554D01*
X153251095Y-86458217D01*
X153316757Y-86256130D01*
X153316757Y-86256127D01*
X153350000Y-86046246D01*
X153350000Y-85833753D01*
X153316757Y-85623872D01*
X153316757Y-85623869D01*
X153251095Y-85421782D01*
X153154624Y-85232449D01*
X153115270Y-85178282D01*
X153115269Y-85178282D01*
X152482962Y-85810590D01*
X152465925Y-85747007D01*
X152400099Y-85632993D01*
X152307007Y-85539901D01*
X152192993Y-85474075D01*
X152129409Y-85457037D01*
X152761716Y-84824728D01*
X152707550Y-84785375D01*
X152518217Y-84688904D01*
X152316129Y-84623242D01*
X152106246Y-84590000D01*
X151893754Y-84590000D01*
X151683872Y-84623242D01*
X151683869Y-84623242D01*
X151481782Y-84688904D01*
X151292439Y-84785380D01*
X151238282Y-84824727D01*
X151238282Y-84824728D01*
X151870591Y-85457037D01*
X151807007Y-85474075D01*
X151692993Y-85539901D01*
X151599901Y-85632993D01*
X151534075Y-85747007D01*
X151517037Y-85810591D01*
X150884728Y-85178282D01*
X150884727Y-85178282D01*
X150845380Y-85232439D01*
X150748904Y-85421782D01*
X150683242Y-85623869D01*
X150683242Y-85623872D01*
X150650000Y-85833753D01*
X150650000Y-86046246D01*
X150683242Y-86256127D01*
X150683242Y-86256130D01*
X150748904Y-86458217D01*
X150845375Y-86647550D01*
X150884728Y-86701716D01*
X151517037Y-86069408D01*
X151534075Y-86132993D01*
X151599901Y-86247007D01*
X151692993Y-86340099D01*
X151807007Y-86405925D01*
X151870590Y-86422962D01*
X151238282Y-87055269D01*
X151238282Y-87055270D01*
X151292452Y-87094626D01*
X151292451Y-87094626D01*
X151301495Y-87099234D01*
X151352292Y-87147208D01*
X151369087Y-87215029D01*
X151346550Y-87281164D01*
X151301499Y-87320202D01*
X151292182Y-87324949D01*
X151120213Y-87449890D01*
X150969892Y-87600211D01*
X150913097Y-87678385D01*
X150857767Y-87721051D01*
X150812779Y-87729500D01*
X148698655Y-87729500D01*
X148631616Y-87709815D01*
X148604738Y-87683988D01*
X148603526Y-87685006D01*
X148600048Y-87680861D01*
X148439141Y-87519954D01*
X148252734Y-87389432D01*
X148252728Y-87389429D01*
X148194725Y-87362382D01*
X148142285Y-87316210D01*
X148123133Y-87249017D01*
X148143348Y-87182135D01*
X148194725Y-87137618D01*
X148252734Y-87110568D01*
X148439139Y-86980047D01*
X148600047Y-86819139D01*
X148730568Y-86632734D01*
X148826739Y-86426496D01*
X148885635Y-86206692D01*
X148900500Y-86036784D01*
X148900500Y-85923216D01*
X148885635Y-85753308D01*
X148828453Y-85539901D01*
X148826741Y-85533511D01*
X148826738Y-85533503D01*
X148730568Y-85327266D01*
X148600047Y-85140861D01*
X148600045Y-85140858D01*
X148439142Y-84979955D01*
X148430013Y-84973563D01*
X148430012Y-84973562D01*
X148252734Y-84849432D01*
X148252732Y-84849431D01*
X148200779Y-84825205D01*
X148148340Y-84779032D01*
X148129188Y-84711839D01*
X148149404Y-84644958D01*
X148194732Y-84603464D01*
X148259500Y-84568844D01*
X148259521Y-84568832D01*
X148390530Y-84481295D01*
X148390536Y-84481291D01*
X148467064Y-84418485D01*
X148578485Y-84307064D01*
X148641291Y-84230536D01*
X148641295Y-84230530D01*
X148728832Y-84099521D01*
X148728844Y-84099501D01*
X148775509Y-84012198D01*
X148835814Y-83866612D01*
X148864556Y-83771860D01*
X148864559Y-83771849D01*
X148880839Y-83690000D01*
X146433012Y-83690000D01*
X146465925Y-83632993D01*
X146500000Y-83505826D01*
X146500000Y-83374174D01*
X146465925Y-83247007D01*
X146433012Y-83190000D01*
X148880839Y-83190000D01*
X148880839Y-83189999D01*
X148864559Y-83108150D01*
X148864556Y-83108139D01*
X148835814Y-83013387D01*
X148775509Y-82867801D01*
X148728844Y-82780498D01*
X148728833Y-82780480D01*
X148698114Y-82734506D01*
X148698113Y-82734504D01*
X148653963Y-82668427D01*
X162775000Y-82668427D01*
X162775000Y-82675000D01*
X163500000Y-82675000D01*
X163500000Y-82025000D01*
X163499999Y-82024999D01*
X163418417Y-82025000D01*
X163347897Y-82031408D01*
X163347892Y-82031409D01*
X163185603Y-82081981D01*
X163040122Y-82169927D01*
X162919927Y-82290122D01*
X162831980Y-82435604D01*
X162781409Y-82597893D01*
X162775000Y-82668427D01*
X148653963Y-82668427D01*
X148641295Y-82649468D01*
X148641291Y-82649463D01*
X148578485Y-82572935D01*
X148467064Y-82461514D01*
X148390536Y-82398708D01*
X148390530Y-82398704D01*
X148259521Y-82311167D01*
X148259501Y-82311155D01*
X148194730Y-82276534D01*
X148144886Y-82227571D01*
X148129426Y-82159434D01*
X148153258Y-82093754D01*
X148200777Y-82054795D01*
X148252734Y-82030568D01*
X148439139Y-81900047D01*
X148600047Y-81739139D01*
X148730568Y-81552734D01*
X148826739Y-81346496D01*
X148885635Y-81126692D01*
X148900500Y-80956784D01*
X148900500Y-80843216D01*
X148885635Y-80673308D01*
X148840916Y-80506415D01*
X148826741Y-80453511D01*
X148826738Y-80453503D01*
X148730568Y-80247266D01*
X148600047Y-80060861D01*
X148600045Y-80060858D01*
X148439141Y-79899954D01*
X148252734Y-79769432D01*
X148252728Y-79769429D01*
X148194725Y-79742382D01*
X148142285Y-79696210D01*
X148123133Y-79629017D01*
X148143348Y-79562135D01*
X148194725Y-79517618D01*
X148252734Y-79490568D01*
X148439139Y-79360047D01*
X148600047Y-79199139D01*
X148730568Y-79012734D01*
X148826739Y-78806496D01*
X148885635Y-78586692D01*
X148900500Y-78416784D01*
X148900500Y-78303216D01*
X148885635Y-78133308D01*
X148840916Y-77966415D01*
X148826741Y-77913511D01*
X148826738Y-77913503D01*
X148730568Y-77707266D01*
X148600047Y-77520861D01*
X148600045Y-77520858D01*
X148439141Y-77359954D01*
X148252734Y-77229432D01*
X148252728Y-77229429D01*
X148194725Y-77202382D01*
X148142285Y-77156210D01*
X148123133Y-77089017D01*
X148143348Y-77022135D01*
X148194725Y-76977618D01*
X148252734Y-76950568D01*
X148439139Y-76820047D01*
X148600047Y-76659139D01*
X148730568Y-76472734D01*
X148826739Y-76266496D01*
X148885635Y-76046692D01*
X148900500Y-75876784D01*
X148900500Y-75763216D01*
X148885635Y-75593308D01*
X148840916Y-75426415D01*
X148826741Y-75373511D01*
X148826738Y-75373503D01*
X148730568Y-75167266D01*
X148600047Y-74980861D01*
X148600045Y-74980858D01*
X148439141Y-74819954D01*
X148252734Y-74689432D01*
X148252728Y-74689429D01*
X148194725Y-74662382D01*
X148142285Y-74616210D01*
X148123133Y-74549017D01*
X148143348Y-74482135D01*
X148194725Y-74437618D01*
X148252734Y-74410568D01*
X148439139Y-74280047D01*
X148600047Y-74119139D01*
X148730568Y-73932734D01*
X148826739Y-73726496D01*
X148885635Y-73506692D01*
X148900500Y-73336784D01*
X148900500Y-73223216D01*
X148885635Y-73053308D01*
X148830005Y-72845692D01*
X148826741Y-72833511D01*
X148826740Y-72833510D01*
X148826739Y-72833504D01*
X148732751Y-72631947D01*
X153500000Y-72631947D01*
X153500000Y-72868052D01*
X153536934Y-73101247D01*
X153609897Y-73325802D01*
X153717087Y-73536174D01*
X153777338Y-73619104D01*
X153777340Y-73619105D01*
X154476212Y-72920233D01*
X154487482Y-72962292D01*
X154559890Y-73087708D01*
X154662292Y-73190110D01*
X154787708Y-73262518D01*
X154829765Y-73273787D01*
X154130893Y-73972658D01*
X154213828Y-74032914D01*
X154424197Y-74140102D01*
X154648752Y-74213065D01*
X154648751Y-74213065D01*
X154881948Y-74250000D01*
X155118052Y-74250000D01*
X155351247Y-74213065D01*
X155575802Y-74140102D01*
X155786163Y-74032918D01*
X155786169Y-74032914D01*
X155869104Y-73972658D01*
X155869105Y-73972658D01*
X155170233Y-73273787D01*
X155212292Y-73262518D01*
X155337708Y-73190110D01*
X155440110Y-73087708D01*
X155512518Y-72962292D01*
X155523787Y-72920234D01*
X156222658Y-73619105D01*
X156222658Y-73619104D01*
X156282914Y-73536169D01*
X156282918Y-73536163D01*
X156390102Y-73325802D01*
X156463065Y-73101247D01*
X156500000Y-72868052D01*
X156500000Y-72631947D01*
X156463065Y-72398752D01*
X156390102Y-72174197D01*
X156282914Y-71963828D01*
X156222658Y-71880894D01*
X156222658Y-71880893D01*
X155523787Y-72579765D01*
X155512518Y-72537708D01*
X155440110Y-72412292D01*
X155337708Y-72309890D01*
X155212292Y-72237482D01*
X155170234Y-72226212D01*
X155869105Y-71527340D01*
X155869104Y-71527339D01*
X155786174Y-71467087D01*
X155575802Y-71359897D01*
X155351247Y-71286934D01*
X155351248Y-71286934D01*
X155118052Y-71250000D01*
X154881948Y-71250000D01*
X154648752Y-71286934D01*
X154424197Y-71359897D01*
X154213830Y-71467084D01*
X154130894Y-71527340D01*
X154829766Y-72226212D01*
X154787708Y-72237482D01*
X154662292Y-72309890D01*
X154559890Y-72412292D01*
X154487482Y-72537708D01*
X154476212Y-72579766D01*
X153777340Y-71880894D01*
X153717084Y-71963830D01*
X153609897Y-72174197D01*
X153536934Y-72398752D01*
X153500000Y-72631947D01*
X148732751Y-72631947D01*
X148730568Y-72627266D01*
X148600047Y-72440861D01*
X148600045Y-72440858D01*
X148439141Y-72279954D01*
X148252734Y-72149432D01*
X148252732Y-72149431D01*
X148201343Y-72125468D01*
X148148904Y-72079295D01*
X148129752Y-72012102D01*
X148149968Y-71945221D01*
X148195293Y-71903729D01*
X148259783Y-71869259D01*
X148390811Y-71781709D01*
X148467412Y-71718843D01*
X148578843Y-71607412D01*
X148641709Y-71530811D01*
X148729259Y-71399783D01*
X148775972Y-71312389D01*
X148836278Y-71166798D01*
X148865044Y-71071968D01*
X148895787Y-70917410D01*
X148905500Y-70818793D01*
X148905500Y-70661207D01*
X148895787Y-70562590D01*
X148865044Y-70408032D01*
X148836278Y-70313202D01*
X148775972Y-70167611D01*
X148729259Y-70080217D01*
X148729248Y-70080200D01*
X148641721Y-69949206D01*
X148641712Y-69949194D01*
X148641709Y-69949189D01*
X148578843Y-69872588D01*
X148467412Y-69761157D01*
X148390811Y-69698291D01*
X148390804Y-69698286D01*
X148390793Y-69698278D01*
X148259799Y-69610751D01*
X148259788Y-69610744D01*
X148259783Y-69610741D01*
X148195293Y-69576270D01*
X148145450Y-69527308D01*
X148129990Y-69459171D01*
X148153822Y-69393491D01*
X148201341Y-69354532D01*
X148252734Y-69330568D01*
X148439139Y-69200047D01*
X148519404Y-69119782D01*
X148602368Y-69036819D01*
X148663691Y-69003334D01*
X148690049Y-69000500D01*
X153627369Y-69000500D01*
X153694408Y-69020185D01*
G37*
%TD.AperFunction*%
%TA.AperFunction,Conductor*%
G36*
X162365270Y-91746717D02*
G01*
X162365270Y-91746716D01*
X162404622Y-91692554D01*
X162501093Y-91503221D01*
X162507568Y-91483294D01*
X162547005Y-91425618D01*
X162611363Y-91398419D01*
X162680210Y-91410333D01*
X162731686Y-91457576D01*
X162749500Y-91521611D01*
X162749500Y-92334897D01*
X162729815Y-92401936D01*
X162677011Y-92447691D01*
X162607853Y-92457635D01*
X162544297Y-92428610D01*
X162526234Y-92409208D01*
X162457547Y-92317455D01*
X162457544Y-92317452D01*
X162342335Y-92231206D01*
X162342328Y-92231202D01*
X162207482Y-92180908D01*
X162207483Y-92180908D01*
X162147883Y-92174501D01*
X162147881Y-92174500D01*
X162147873Y-92174500D01*
X162147865Y-92174500D01*
X162137309Y-92174500D01*
X162070270Y-92154815D01*
X162049628Y-92138181D01*
X161379408Y-91467962D01*
X161442993Y-91450925D01*
X161557007Y-91385099D01*
X161650099Y-91292007D01*
X161715925Y-91177993D01*
X161732962Y-91114409D01*
X162365270Y-91746717D01*
G37*
%TD.AperFunction*%
%TA.AperFunction,Conductor*%
G36*
X150159427Y-55504452D02*
G01*
X150289082Y-55552810D01*
X150345016Y-55594681D01*
X150369433Y-55660145D01*
X150354582Y-55728418D01*
X150333431Y-55756673D01*
X150219889Y-55870215D01*
X150094951Y-56042179D01*
X149998444Y-56231585D01*
X149932753Y-56433760D01*
X149899500Y-56643713D01*
X149899500Y-56856286D01*
X149929965Y-57048638D01*
X149932754Y-57066243D01*
X149997839Y-57266554D01*
X149998444Y-57268414D01*
X150094951Y-57457820D01*
X150219890Y-57629786D01*
X150370213Y-57780109D01*
X150542179Y-57905048D01*
X150542181Y-57905049D01*
X150542184Y-57905051D01*
X150551493Y-57909794D01*
X150602290Y-57957766D01*
X150619087Y-58025587D01*
X150596552Y-58091722D01*
X150551505Y-58130760D01*
X150542446Y-58135376D01*
X150542440Y-58135380D01*
X150488282Y-58174727D01*
X150488282Y-58174728D01*
X151120591Y-58807037D01*
X151057007Y-58824075D01*
X150942993Y-58889901D01*
X150849901Y-58982993D01*
X150784075Y-59097007D01*
X150767037Y-59160591D01*
X150134728Y-58528282D01*
X150134727Y-58528282D01*
X150095380Y-58582439D01*
X149998904Y-58771782D01*
X149933242Y-58973869D01*
X149933242Y-58973872D01*
X149900000Y-59183753D01*
X149900000Y-59396246D01*
X149933242Y-59606127D01*
X149933242Y-59606130D01*
X149998904Y-59808217D01*
X150095375Y-59997550D01*
X150134728Y-60051716D01*
X150767037Y-59419408D01*
X150784075Y-59482993D01*
X150849901Y-59597007D01*
X150942993Y-59690099D01*
X151057007Y-59755925D01*
X151120590Y-59772962D01*
X150488282Y-60405269D01*
X150488282Y-60405270D01*
X150542449Y-60444624D01*
X150731782Y-60541095D01*
X150933870Y-60606757D01*
X151143754Y-60640000D01*
X151356246Y-60640000D01*
X151566127Y-60606757D01*
X151566130Y-60606757D01*
X151768217Y-60541095D01*
X151957554Y-60444622D01*
X152011716Y-60405270D01*
X152011717Y-60405270D01*
X151379408Y-59772962D01*
X151442993Y-59755925D01*
X151557007Y-59690099D01*
X151650099Y-59597007D01*
X151715925Y-59482993D01*
X151732962Y-59419408D01*
X152365270Y-60051717D01*
X152365270Y-60051716D01*
X152404622Y-59997554D01*
X152501095Y-59808217D01*
X152566757Y-59606130D01*
X152566757Y-59606127D01*
X152600000Y-59396246D01*
X152600000Y-59183753D01*
X152566757Y-58973872D01*
X152566757Y-58973869D01*
X152501095Y-58771782D01*
X152404624Y-58582449D01*
X152365270Y-58528282D01*
X152365269Y-58528282D01*
X151732962Y-59160590D01*
X151715925Y-59097007D01*
X151650099Y-58982993D01*
X151557007Y-58889901D01*
X151442993Y-58824075D01*
X151379409Y-58807037D01*
X152011716Y-58174728D01*
X151957547Y-58135373D01*
X151957547Y-58135372D01*
X151948500Y-58130763D01*
X151897706Y-58082788D01*
X151880912Y-58014966D01*
X151903451Y-57948832D01*
X151948508Y-57909793D01*
X151957816Y-57905051D01*
X152042402Y-57843596D01*
X152129786Y-57780109D01*
X152129788Y-57780106D01*
X152129792Y-57780104D01*
X152280104Y-57629792D01*
X152351432Y-57531615D01*
X152406762Y-57488949D01*
X152451751Y-57480500D01*
X154312779Y-57480500D01*
X154379818Y-57500185D01*
X154413097Y-57531615D01*
X154469892Y-57609788D01*
X154620213Y-57760109D01*
X154792182Y-57885050D01*
X154800946Y-57889516D01*
X154851742Y-57937491D01*
X154868536Y-58005312D01*
X154845998Y-58071447D01*
X154800946Y-58110484D01*
X154792182Y-58114949D01*
X154620213Y-58239890D01*
X154469890Y-58390213D01*
X154344951Y-58562179D01*
X154248444Y-58751585D01*
X154182753Y-58953760D01*
X154149500Y-59163713D01*
X154149500Y-59376286D01*
X154181757Y-59579953D01*
X154182754Y-59586243D01*
X154237887Y-59755925D01*
X154248444Y-59788414D01*
X154344951Y-59977820D01*
X154469890Y-60149786D01*
X154620213Y-60300109D01*
X154792179Y-60425048D01*
X154792181Y-60425049D01*
X154792184Y-60425051D01*
X154801493Y-60429794D01*
X154852290Y-60477766D01*
X154869087Y-60545587D01*
X154846552Y-60611722D01*
X154801505Y-60650760D01*
X154792446Y-60655376D01*
X154792440Y-60655380D01*
X154738282Y-60694727D01*
X154738282Y-60694728D01*
X155370591Y-61327037D01*
X155307007Y-61344075D01*
X155192993Y-61409901D01*
X155099901Y-61502993D01*
X155034075Y-61617007D01*
X155017037Y-61680591D01*
X154384728Y-61048282D01*
X154384727Y-61048282D01*
X154345380Y-61102439D01*
X154248904Y-61291782D01*
X154183242Y-61493869D01*
X154183242Y-61493872D01*
X154150000Y-61703753D01*
X154150000Y-61916246D01*
X154183242Y-62126127D01*
X154183242Y-62126130D01*
X154248904Y-62328217D01*
X154345375Y-62517550D01*
X154384728Y-62571716D01*
X155017037Y-61939408D01*
X155034075Y-62002993D01*
X155099901Y-62117007D01*
X155192993Y-62210099D01*
X155307007Y-62275925D01*
X155370590Y-62292962D01*
X154738282Y-62925269D01*
X154738282Y-62925270D01*
X154792449Y-62964624D01*
X154981782Y-63061095D01*
X155183870Y-63126757D01*
X155393754Y-63160000D01*
X155606246Y-63160000D01*
X155816127Y-63126757D01*
X155816130Y-63126757D01*
X156018217Y-63061095D01*
X156207554Y-62964622D01*
X156261716Y-62925270D01*
X156261717Y-62925270D01*
X155629408Y-62292962D01*
X155692993Y-62275925D01*
X155807007Y-62210099D01*
X155900099Y-62117007D01*
X155965925Y-62002993D01*
X155982962Y-61939408D01*
X156615270Y-62571717D01*
X156615270Y-62571716D01*
X156654622Y-62517554D01*
X156751095Y-62328217D01*
X156816757Y-62126130D01*
X156816757Y-62126127D01*
X156850000Y-61916246D01*
X156850000Y-61703753D01*
X156816757Y-61493872D01*
X156816757Y-61493869D01*
X156751095Y-61291782D01*
X156654624Y-61102449D01*
X156615270Y-61048282D01*
X156615269Y-61048282D01*
X155982962Y-61680590D01*
X155965925Y-61617007D01*
X155900099Y-61502993D01*
X155807007Y-61409901D01*
X155692993Y-61344075D01*
X155629409Y-61327037D01*
X156261716Y-60694728D01*
X156207547Y-60655373D01*
X156207547Y-60655372D01*
X156198500Y-60650763D01*
X156147706Y-60602788D01*
X156130912Y-60534966D01*
X156153451Y-60468832D01*
X156198508Y-60429793D01*
X156207816Y-60425051D01*
X156306557Y-60353312D01*
X156379786Y-60300109D01*
X156379788Y-60300106D01*
X156379792Y-60300104D01*
X156471583Y-60208313D01*
X156532906Y-60174828D01*
X156602598Y-60179812D01*
X156646945Y-60208313D01*
X162713181Y-66274548D01*
X162746666Y-66335871D01*
X162749500Y-66362229D01*
X162749500Y-67078111D01*
X162729815Y-67145150D01*
X162677011Y-67190905D01*
X162607853Y-67200849D01*
X162544297Y-67171824D01*
X162537819Y-67165792D01*
X162477512Y-67105485D01*
X162477510Y-67105483D01*
X162286433Y-66966657D01*
X162075996Y-66859433D01*
X161851368Y-66786446D01*
X161618097Y-66749500D01*
X161618092Y-66749500D01*
X161381908Y-66749500D01*
X161381903Y-66749500D01*
X161148631Y-66786446D01*
X160924003Y-66859433D01*
X160713566Y-66966657D01*
X160640971Y-67019401D01*
X160522490Y-67105483D01*
X160522488Y-67105485D01*
X160522487Y-67105485D01*
X160355485Y-67272487D01*
X160355485Y-67272488D01*
X160355483Y-67272490D01*
X160230921Y-67443935D01*
X160227687Y-67448386D01*
X160172357Y-67491051D01*
X160127369Y-67499500D01*
X156372631Y-67499500D01*
X156305592Y-67479815D01*
X156272313Y-67448386D01*
X156269079Y-67443935D01*
X156144517Y-67272490D01*
X155977510Y-67105483D01*
X155786433Y-66966657D01*
X155575996Y-66859433D01*
X155351368Y-66786446D01*
X155118097Y-66749500D01*
X155118092Y-66749500D01*
X154881908Y-66749500D01*
X154881903Y-66749500D01*
X154648631Y-66786446D01*
X154424003Y-66859433D01*
X154213566Y-66966657D01*
X154140971Y-67019401D01*
X154022490Y-67105483D01*
X154022488Y-67105485D01*
X154022487Y-67105485D01*
X153855485Y-67272487D01*
X153855485Y-67272488D01*
X153855483Y-67272490D01*
X153730921Y-67443935D01*
X153727687Y-67448386D01*
X153672357Y-67491051D01*
X153627369Y-67499500D01*
X148761673Y-67499500D01*
X148694634Y-67479815D01*
X148660098Y-67446623D01*
X148600045Y-67360858D01*
X148439141Y-67199954D01*
X148252734Y-67069432D01*
X148252728Y-67069429D01*
X148194725Y-67042382D01*
X148142285Y-66996210D01*
X148123133Y-66929017D01*
X148143348Y-66862135D01*
X148194725Y-66817618D01*
X148252734Y-66790568D01*
X148439139Y-66660047D01*
X148600047Y-66499139D01*
X148730568Y-66312734D01*
X148826739Y-66106496D01*
X148885635Y-65886692D01*
X148900500Y-65716784D01*
X148900500Y-65603216D01*
X148885635Y-65433308D01*
X148840916Y-65266415D01*
X148826741Y-65213511D01*
X148826738Y-65213503D01*
X148730568Y-65007266D01*
X148600047Y-64820861D01*
X148600045Y-64820858D01*
X148439141Y-64659954D01*
X148252734Y-64529432D01*
X148252728Y-64529429D01*
X148194725Y-64502382D01*
X148142285Y-64456210D01*
X148123133Y-64389017D01*
X148143348Y-64322135D01*
X148194725Y-64277618D01*
X148252734Y-64250568D01*
X148439139Y-64120047D01*
X148600047Y-63959139D01*
X148730568Y-63772734D01*
X148826739Y-63566496D01*
X148885635Y-63346692D01*
X148900500Y-63176784D01*
X148900500Y-63063216D01*
X148885635Y-62893308D01*
X148840916Y-62726415D01*
X148826741Y-62673511D01*
X148826738Y-62673503D01*
X148730568Y-62467266D01*
X148600047Y-62280861D01*
X148600045Y-62280858D01*
X148439141Y-62119954D01*
X148252734Y-61989432D01*
X148252728Y-61989429D01*
X148194725Y-61962382D01*
X148142285Y-61916210D01*
X148123133Y-61849017D01*
X148143348Y-61782135D01*
X148194725Y-61737618D01*
X148252734Y-61710568D01*
X148386354Y-61617007D01*
X148414491Y-61597306D01*
X148424943Y-61589986D01*
X148439139Y-61580047D01*
X148600047Y-61419139D01*
X148730568Y-61232734D01*
X148826739Y-61026496D01*
X148885635Y-60806692D01*
X148900500Y-60636784D01*
X148900500Y-60523216D01*
X148885635Y-60353308D01*
X148831102Y-60149786D01*
X148826741Y-60133511D01*
X148826738Y-60133503D01*
X148730568Y-59927266D01*
X148600047Y-59740861D01*
X148600045Y-59740858D01*
X148439141Y-59579954D01*
X148252734Y-59449432D01*
X148252732Y-59449431D01*
X148200779Y-59425205D01*
X148148340Y-59379032D01*
X148129188Y-59311839D01*
X148149404Y-59244958D01*
X148194732Y-59203464D01*
X148259500Y-59168844D01*
X148259521Y-59168832D01*
X148390530Y-59081295D01*
X148390535Y-59081291D01*
X148467064Y-59018485D01*
X148578485Y-58907064D01*
X148641291Y-58830536D01*
X148641295Y-58830530D01*
X148728832Y-58699521D01*
X148728844Y-58699501D01*
X148775509Y-58612198D01*
X148835814Y-58466612D01*
X148864556Y-58371860D01*
X148864559Y-58371849D01*
X148880839Y-58290000D01*
X146433012Y-58290000D01*
X146465925Y-58232993D01*
X146500000Y-58105826D01*
X146500000Y-57974174D01*
X146465925Y-57847007D01*
X146433012Y-57790000D01*
X148880839Y-57790000D01*
X148880839Y-57789999D01*
X148864559Y-57708150D01*
X148864556Y-57708139D01*
X148835814Y-57613387D01*
X148775509Y-57467801D01*
X148728844Y-57380498D01*
X148728832Y-57380478D01*
X148641295Y-57249469D01*
X148641291Y-57249463D01*
X148578485Y-57172935D01*
X148467064Y-57061514D01*
X148390536Y-56998708D01*
X148390530Y-56998704D01*
X148259521Y-56911167D01*
X148259501Y-56911155D01*
X148194730Y-56876534D01*
X148144886Y-56827571D01*
X148129426Y-56759434D01*
X148153258Y-56693754D01*
X148200777Y-56654795D01*
X148252734Y-56630568D01*
X148439139Y-56500047D01*
X148600047Y-56339139D01*
X148625088Y-56303377D01*
X148679665Y-56259752D01*
X148726663Y-56250500D01*
X149073920Y-56250500D01*
X149171462Y-56231096D01*
X149218913Y-56221658D01*
X149355495Y-56165084D01*
X149434615Y-56112218D01*
X149478416Y-56082952D01*
X150028413Y-55532952D01*
X150044059Y-55524409D01*
X150056667Y-55511802D01*
X150074088Y-55508012D01*
X150089736Y-55499468D01*
X150107518Y-55500739D01*
X150124939Y-55496950D01*
X150159427Y-55504452D01*
G37*
%TD.AperFunction*%
%TA.AperFunction,Conductor*%
G36*
X168192539Y-51270185D02*
G01*
X168238294Y-51322989D01*
X168249500Y-51374500D01*
X168249500Y-109375500D01*
X168229815Y-109442539D01*
X168177011Y-109488294D01*
X168125500Y-109499500D01*
X125624500Y-109499500D01*
X125557461Y-109479815D01*
X125511706Y-109427011D01*
X125500500Y-109375500D01*
X125500500Y-102239049D01*
X125520185Y-102172010D01*
X125572989Y-102126255D01*
X125642147Y-102116311D01*
X125705703Y-102145336D01*
X125712181Y-102151368D01*
X125780858Y-102220045D01*
X125780861Y-102220047D01*
X125967266Y-102350568D01*
X126173504Y-102446739D01*
X126393308Y-102505635D01*
X126563214Y-102520499D01*
X126563215Y-102520500D01*
X126563216Y-102520500D01*
X128322350Y-102520500D01*
X128322352Y-102520500D01*
X128374315Y-102512268D01*
X128382858Y-102511218D01*
X128386846Y-102510870D01*
X128455344Y-102524627D01*
X128485347Y-102546715D01*
X133271586Y-107332954D01*
X133301058Y-107352645D01*
X133345270Y-107382186D01*
X133394505Y-107415084D01*
X133394506Y-107415084D01*
X133394507Y-107415085D01*
X133394509Y-107415086D01*
X133531082Y-107471656D01*
X133531087Y-107471658D01*
X133531091Y-107471658D01*
X133531092Y-107471659D01*
X133676079Y-107500500D01*
X133676082Y-107500500D01*
X153093920Y-107500500D01*
X153191462Y-107481096D01*
X153238913Y-107471658D01*
X153375495Y-107415084D01*
X153424729Y-107382186D01*
X153424734Y-107382183D01*
X153449071Y-107365921D01*
X153498416Y-107332952D01*
X155211194Y-105620172D01*
X155272515Y-105586689D01*
X155318265Y-105585382D01*
X155413713Y-105600500D01*
X155413715Y-105600500D01*
X155626286Y-105600500D01*
X155626287Y-105600500D01*
X155836243Y-105567246D01*
X156038412Y-105501557D01*
X156227816Y-105405051D01*
X156314478Y-105342088D01*
X156399784Y-105280110D01*
X156399784Y-105280109D01*
X156399792Y-105280104D01*
X156513717Y-105166178D01*
X156575036Y-105132696D01*
X156644728Y-105137680D01*
X156700662Y-105179551D01*
X156717577Y-105210528D01*
X156766646Y-105342088D01*
X156766649Y-105342093D01*
X156852809Y-105457187D01*
X156852812Y-105457190D01*
X156967906Y-105543350D01*
X156967913Y-105543354D01*
X157102620Y-105593596D01*
X157102627Y-105593598D01*
X157162155Y-105599999D01*
X157162172Y-105600000D01*
X157810000Y-105600000D01*
X157810000Y-104683012D01*
X157867007Y-104715925D01*
X157994174Y-104750000D01*
X158125826Y-104750000D01*
X158252993Y-104715925D01*
X158310000Y-104683012D01*
X158310000Y-105600000D01*
X158957828Y-105600000D01*
X158957844Y-105599999D01*
X159017372Y-105593598D01*
X159017379Y-105593596D01*
X159152086Y-105543354D01*
X159152093Y-105543350D01*
X159267187Y-105457190D01*
X159267190Y-105457187D01*
X159353350Y-105342093D01*
X159353354Y-105342086D01*
X159403596Y-105207379D01*
X159403598Y-105207372D01*
X159409999Y-105147844D01*
X159410000Y-105147827D01*
X159410000Y-104500000D01*
X158493012Y-104500000D01*
X158525925Y-104442993D01*
X158560000Y-104315826D01*
X158560000Y-104184174D01*
X158525925Y-104057007D01*
X158493012Y-104000000D01*
X159410000Y-104000000D01*
X159410000Y-103352172D01*
X159409999Y-103352155D01*
X159403598Y-103292627D01*
X159403596Y-103292620D01*
X159353354Y-103157913D01*
X159353350Y-103157906D01*
X159267190Y-103042812D01*
X159267187Y-103042809D01*
X159152093Y-102956649D01*
X159152086Y-102956645D01*
X159017379Y-102906403D01*
X159017372Y-102906401D01*
X158957844Y-102900000D01*
X158310000Y-102900000D01*
X158310000Y-103816988D01*
X158252993Y-103784075D01*
X158125826Y-103750000D01*
X157994174Y-103750000D01*
X157867007Y-103784075D01*
X157810000Y-103816988D01*
X157810000Y-102900000D01*
X157162155Y-102900000D01*
X157102627Y-102906401D01*
X157102620Y-102906403D01*
X156967913Y-102956645D01*
X156967906Y-102956649D01*
X156852812Y-103042809D01*
X156852809Y-103042812D01*
X156766649Y-103157906D01*
X156766646Y-103157912D01*
X156717577Y-103289471D01*
X156675705Y-103345404D01*
X156610241Y-103369821D01*
X156541968Y-103354969D01*
X156513714Y-103333818D01*
X156399786Y-103219890D01*
X156227820Y-103094951D01*
X156038414Y-102998444D01*
X156038413Y-102998443D01*
X156038412Y-102998443D01*
X155836243Y-102932754D01*
X155836241Y-102932753D01*
X155836240Y-102932753D01*
X155674957Y-102907208D01*
X155626287Y-102899500D01*
X155413713Y-102899500D01*
X155365042Y-102907208D01*
X155203760Y-102932753D01*
X155001585Y-102998444D01*
X154812179Y-103094951D01*
X154640213Y-103219890D01*
X154489890Y-103370213D01*
X154364949Y-103542182D01*
X154360484Y-103550946D01*
X154312509Y-103601742D01*
X154244688Y-103618536D01*
X154178553Y-103595998D01*
X154139516Y-103550946D01*
X154135050Y-103542182D01*
X154010109Y-103370213D01*
X153859786Y-103219890D01*
X153687820Y-103094951D01*
X153498414Y-102998444D01*
X153498413Y-102998443D01*
X153498412Y-102998443D01*
X153296243Y-102932754D01*
X153296241Y-102932753D01*
X153296240Y-102932753D01*
X153134957Y-102907208D01*
X153086287Y-102899500D01*
X152873713Y-102899500D01*
X152825042Y-102907208D01*
X152663760Y-102932753D01*
X152461585Y-102998444D01*
X152272179Y-103094951D01*
X152100213Y-103219890D01*
X151949890Y-103370213D01*
X151824949Y-103542182D01*
X151820484Y-103550946D01*
X151772509Y-103601742D01*
X151704688Y-103618536D01*
X151638553Y-103595998D01*
X151599516Y-103550946D01*
X151595050Y-103542182D01*
X151470109Y-103370213D01*
X151319786Y-103219890D01*
X151147820Y-103094951D01*
X150958414Y-102998444D01*
X150958413Y-102998443D01*
X150958412Y-102998443D01*
X150756243Y-102932754D01*
X150756241Y-102932753D01*
X150756240Y-102932753D01*
X150594957Y-102907208D01*
X150546287Y-102899500D01*
X150333713Y-102899500D01*
X150285042Y-102907208D01*
X150123760Y-102932753D01*
X149921585Y-102998444D01*
X149732179Y-103094951D01*
X149560213Y-103219890D01*
X149409892Y-103370211D01*
X149353097Y-103448385D01*
X149297767Y-103491051D01*
X149252779Y-103499500D01*
X140453438Y-103499500D01*
X140386399Y-103479815D01*
X140340644Y-103427011D01*
X140330700Y-103357853D01*
X140359725Y-103294297D01*
X140365757Y-103287819D01*
X140387747Y-103265828D01*
X140387746Y-103265828D01*
X140387751Y-103265824D01*
X140443853Y-103198965D01*
X140493914Y-103127470D01*
X140537553Y-103051884D01*
X140574440Y-102972783D01*
X140604292Y-102890768D01*
X140626882Y-102806464D01*
X140642040Y-102720511D01*
X140649648Y-102633564D01*
X140650141Y-102589925D01*
X140650141Y-101255168D01*
X140669826Y-101188129D01*
X140698082Y-101157235D01*
X144210000Y-98429895D01*
X144210000Y-96779785D01*
X144695000Y-96779785D01*
X144697893Y-96833762D01*
X144697893Y-96833764D01*
X144733438Y-96973030D01*
X144733442Y-96973043D01*
X144756862Y-97029584D01*
X145396448Y-96390000D01*
X144695000Y-96390000D01*
X144695000Y-96779785D01*
X144210000Y-96779785D01*
X144210000Y-95500219D01*
X144695000Y-95500219D01*
X144695000Y-95890000D01*
X145396448Y-95890000D01*
X145396448Y-95889999D01*
X144756863Y-95250414D01*
X144756862Y-95250415D01*
X144733446Y-95306947D01*
X144733431Y-95306987D01*
X144715457Y-95357939D01*
X144715455Y-95357946D01*
X144695000Y-95500219D01*
X144210000Y-95500219D01*
X144210000Y-94090000D01*
X130010000Y-94090000D01*
X129978365Y-94121635D01*
X129917042Y-94155120D01*
X129847350Y-94150136D01*
X129803003Y-94121635D01*
X129546715Y-93865347D01*
X129546220Y-93864442D01*
X129545323Y-93863933D01*
X129529513Y-93833845D01*
X129513230Y-93804024D01*
X129513145Y-93802693D01*
X129512824Y-93802082D01*
X129510869Y-93766852D01*
X129511218Y-93762858D01*
X129512270Y-93754306D01*
X129520500Y-93702350D01*
X129520500Y-93497649D01*
X129512270Y-93445691D01*
X129512270Y-93445690D01*
X129511592Y-93441414D01*
X129505635Y-93373308D01*
X129493825Y-93329233D01*
X129488477Y-93295466D01*
X129468378Y-93233609D01*
X129466535Y-93227386D01*
X129446742Y-93153513D01*
X129446740Y-93153510D01*
X129446739Y-93153504D01*
X129432266Y-93122467D01*
X129425220Y-93100781D01*
X129389067Y-93029827D01*
X129350568Y-92947266D01*
X129342436Y-92935652D01*
X129342436Y-92935651D01*
X129337462Y-92928548D01*
X129332287Y-92918390D01*
X129278821Y-92844800D01*
X129278215Y-92843935D01*
X129278205Y-92843920D01*
X129220045Y-92760858D01*
X129059140Y-92599953D01*
X128976078Y-92541793D01*
X128975180Y-92541164D01*
X128901610Y-92487713D01*
X128891448Y-92482535D01*
X128884346Y-92477562D01*
X128872736Y-92469433D01*
X128872727Y-92469429D01*
X128814723Y-92442380D01*
X128804066Y-92432996D01*
X128790866Y-92427773D01*
X128778368Y-92410369D01*
X128762285Y-92396208D01*
X128758393Y-92382552D01*
X128750112Y-92371021D01*
X128749007Y-92349621D01*
X128743134Y-92329014D01*
X128747241Y-92315423D01*
X128746510Y-92301244D01*
X128757149Y-92282644D01*
X128763350Y-92262133D01*
X128774830Y-92251737D01*
X128781204Y-92240597D01*
X128805623Y-92223856D01*
X128809872Y-92220010D01*
X128812252Y-92218770D01*
X128872734Y-92190568D01*
X128891002Y-92177775D01*
X128898207Y-92174025D01*
X128898416Y-92173983D01*
X128899180Y-92173524D01*
X128901610Y-92172287D01*
X128974358Y-92119432D01*
X128976047Y-92118227D01*
X129059139Y-92060047D01*
X129220047Y-91899139D01*
X129278821Y-91815199D01*
X129332287Y-91741610D01*
X129337465Y-91731446D01*
X129350568Y-91712734D01*
X129389067Y-91630172D01*
X129425220Y-91559219D01*
X129432266Y-91537532D01*
X129446739Y-91506496D01*
X129467377Y-91429471D01*
X129488477Y-91364534D01*
X129493825Y-91330766D01*
X129505635Y-91286692D01*
X129511215Y-91222892D01*
X129512270Y-91214306D01*
X129520500Y-91162350D01*
X129520500Y-90957649D01*
X129512270Y-90905691D01*
X129512270Y-90905690D01*
X129511592Y-90901414D01*
X129505635Y-90833308D01*
X129493825Y-90789233D01*
X129488477Y-90755466D01*
X129468378Y-90693609D01*
X129466535Y-90687386D01*
X129465563Y-90683760D01*
X129461574Y-90668869D01*
X129446742Y-90613513D01*
X129446740Y-90613510D01*
X129446739Y-90613504D01*
X129432266Y-90582467D01*
X129425220Y-90560781D01*
X129389067Y-90489827D01*
X129350568Y-90407266D01*
X129342436Y-90395652D01*
X129342436Y-90395651D01*
X129337462Y-90388548D01*
X129332287Y-90378390D01*
X129278821Y-90304800D01*
X129278215Y-90303935D01*
X129278205Y-90303920D01*
X129220045Y-90220858D01*
X129059140Y-90059953D01*
X128976078Y-90001793D01*
X128975180Y-90001164D01*
X128901610Y-89947713D01*
X128891448Y-89942535D01*
X128884346Y-89937562D01*
X128872736Y-89929433D01*
X128872727Y-89929429D01*
X128814723Y-89902380D01*
X128804066Y-89892996D01*
X128790866Y-89887773D01*
X128778368Y-89870369D01*
X128762285Y-89856208D01*
X128758393Y-89842552D01*
X128750112Y-89831021D01*
X128749007Y-89809621D01*
X128743134Y-89789014D01*
X128747241Y-89775423D01*
X128746510Y-89761244D01*
X128757149Y-89742644D01*
X128763350Y-89722133D01*
X128774830Y-89711737D01*
X128781204Y-89700597D01*
X128805623Y-89683856D01*
X128809872Y-89680010D01*
X128812252Y-89678770D01*
X128872734Y-89650568D01*
X128891002Y-89637775D01*
X128898207Y-89634025D01*
X128898416Y-89633983D01*
X128899180Y-89633524D01*
X128901610Y-89632287D01*
X128974358Y-89579432D01*
X128976047Y-89578227D01*
X129059139Y-89520047D01*
X129220047Y-89359139D01*
X129278821Y-89275199D01*
X129332287Y-89201610D01*
X129337465Y-89191446D01*
X129350568Y-89172734D01*
X129389067Y-89090172D01*
X129425220Y-89019219D01*
X129432266Y-88997532D01*
X129446739Y-88966496D01*
X129457568Y-88926082D01*
X129466534Y-88892617D01*
X129467377Y-88889471D01*
X129488477Y-88824534D01*
X129493825Y-88790766D01*
X129505635Y-88746692D01*
X129511215Y-88682892D01*
X129512270Y-88674306D01*
X129516918Y-88644968D01*
X129520500Y-88622352D01*
X129520500Y-88417648D01*
X129511593Y-88361417D01*
X129505635Y-88293308D01*
X129493825Y-88249233D01*
X129488477Y-88215466D01*
X129468378Y-88153609D01*
X129466535Y-88147386D01*
X129465593Y-88143872D01*
X129455566Y-88106446D01*
X129446742Y-88073513D01*
X129446740Y-88073510D01*
X129446739Y-88073504D01*
X129432266Y-88042467D01*
X129425220Y-88020781D01*
X129389067Y-87949827D01*
X129350568Y-87867266D01*
X129342436Y-87855652D01*
X129342436Y-87855651D01*
X129337462Y-87848548D01*
X129332287Y-87838390D01*
X129278821Y-87764800D01*
X129278215Y-87763935D01*
X129278205Y-87763920D01*
X129220045Y-87680858D01*
X129059140Y-87519953D01*
X128976078Y-87461793D01*
X128975180Y-87461164D01*
X128901610Y-87407713D01*
X128891448Y-87402535D01*
X128884346Y-87397562D01*
X128872736Y-87389433D01*
X128872727Y-87389429D01*
X128814723Y-87362380D01*
X128804066Y-87352996D01*
X128790866Y-87347773D01*
X128778368Y-87330369D01*
X128762285Y-87316208D01*
X128758393Y-87302552D01*
X128750112Y-87291021D01*
X128749007Y-87269621D01*
X128743134Y-87249014D01*
X128747241Y-87235423D01*
X128746510Y-87221244D01*
X128757149Y-87202644D01*
X128763350Y-87182133D01*
X128774830Y-87171737D01*
X128781204Y-87160597D01*
X128805623Y-87143856D01*
X128809872Y-87140010D01*
X128812252Y-87138770D01*
X128872734Y-87110568D01*
X128891002Y-87097775D01*
X128898207Y-87094025D01*
X128898416Y-87093983D01*
X128899180Y-87093524D01*
X128901610Y-87092287D01*
X128974358Y-87039432D01*
X128976047Y-87038227D01*
X129059139Y-86980047D01*
X129220047Y-86819139D01*
X129278821Y-86735199D01*
X129332287Y-86661610D01*
X129337465Y-86651446D01*
X129350568Y-86632734D01*
X129389067Y-86550172D01*
X129425220Y-86479219D01*
X129432266Y-86457532D01*
X129446739Y-86426496D01*
X129446742Y-86426488D01*
X129466534Y-86352617D01*
X129467377Y-86349471D01*
X129488477Y-86284534D01*
X129493825Y-86250766D01*
X129505635Y-86206692D01*
X129511215Y-86142892D01*
X129512270Y-86134306D01*
X129520500Y-86082350D01*
X129520500Y-85877649D01*
X129512270Y-85825691D01*
X129512270Y-85825690D01*
X129511592Y-85821414D01*
X129505635Y-85753308D01*
X129493825Y-85709233D01*
X129488477Y-85675466D01*
X129468378Y-85613609D01*
X129466535Y-85607386D01*
X129446742Y-85533513D01*
X129446740Y-85533510D01*
X129446739Y-85533504D01*
X129432266Y-85502467D01*
X129425220Y-85480781D01*
X129389067Y-85409827D01*
X129350568Y-85327266D01*
X129342436Y-85315652D01*
X129342436Y-85315651D01*
X129337462Y-85308548D01*
X129332287Y-85298390D01*
X129278821Y-85224800D01*
X129278215Y-85223935D01*
X129278205Y-85223920D01*
X129220045Y-85140858D01*
X129059143Y-84979956D01*
X129050011Y-84973562D01*
X128992620Y-84933376D01*
X128948996Y-84878799D01*
X128941803Y-84809300D01*
X128973325Y-84746946D01*
X129033082Y-84711652D01*
X129053040Y-84706558D01*
X129109584Y-84683136D01*
X129109584Y-84683135D01*
X128349410Y-83922962D01*
X128412993Y-83905925D01*
X128527007Y-83840099D01*
X128620099Y-83747007D01*
X128653012Y-83690000D01*
X128823551Y-83690000D01*
X129463135Y-84329584D01*
X129463136Y-84329584D01*
X129486552Y-84273053D01*
X129504544Y-84222053D01*
X129524998Y-84079785D01*
X144695000Y-84079785D01*
X144697893Y-84133762D01*
X144697893Y-84133764D01*
X144733438Y-84273030D01*
X144733442Y-84273043D01*
X144756862Y-84329584D01*
X145396448Y-83690000D01*
X144695000Y-83690000D01*
X144695000Y-84079785D01*
X129524998Y-84079785D01*
X129524999Y-84079780D01*
X129525000Y-84079779D01*
X129525000Y-83690000D01*
X128823551Y-83690000D01*
X128653012Y-83690000D01*
X128685925Y-83632993D01*
X128720000Y-83505826D01*
X128720000Y-83374174D01*
X128685925Y-83247007D01*
X128653011Y-83189999D01*
X128823551Y-83189999D01*
X128823552Y-83190000D01*
X129525000Y-83190000D01*
X129525000Y-82800214D01*
X129522106Y-82746237D01*
X129522106Y-82746235D01*
X129486561Y-82606969D01*
X129486559Y-82606962D01*
X129463135Y-82550414D01*
X128823551Y-83189999D01*
X128653011Y-83189999D01*
X128620099Y-83132993D01*
X128527007Y-83039901D01*
X128412993Y-82974075D01*
X128349410Y-82957037D01*
X129109584Y-82196862D01*
X129053059Y-82173449D01*
X129053048Y-82173445D01*
X129024833Y-82163491D01*
X129014996Y-82156397D01*
X129003235Y-82153445D01*
X128987186Y-82136342D01*
X128968162Y-82122624D01*
X128963721Y-82111338D01*
X128955424Y-82102496D01*
X128951168Y-82079432D01*
X128942581Y-82057605D01*
X128944947Y-82045710D01*
X128942747Y-82033786D01*
X128951636Y-82012084D01*
X128953523Y-82002600D01*
X136706700Y-82002600D01*
X136706700Y-83577400D01*
X136708622Y-83616800D01*
X136721201Y-83647168D01*
X136738778Y-83689603D01*
X136794496Y-83745321D01*
X136794497Y-83745321D01*
X136794498Y-83745322D01*
X136867300Y-83775478D01*
X136906700Y-83777400D01*
X136906715Y-83777400D01*
X138481485Y-83777400D01*
X138481500Y-83777400D01*
X138520900Y-83775478D01*
X138593702Y-83745323D01*
X138649423Y-83689602D01*
X138679578Y-83616800D01*
X138681500Y-83577400D01*
X138681500Y-82776146D01*
X139242019Y-82776146D01*
X139242019Y-82776153D01*
X139258221Y-82969101D01*
X139258222Y-82969107D01*
X139305215Y-83132993D01*
X139311596Y-83155245D01*
X139400106Y-83327468D01*
X139400107Y-83327470D01*
X139469171Y-83414606D01*
X139520387Y-83479225D01*
X139667851Y-83604726D01*
X139667854Y-83604728D01*
X139667857Y-83604730D01*
X139718428Y-83632993D01*
X139836882Y-83699195D01*
X140021044Y-83759033D01*
X140213321Y-83781960D01*
X140406390Y-83767105D01*
X140592896Y-83715031D01*
X140765736Y-83627724D01*
X140918325Y-83508507D01*
X141044853Y-83361923D01*
X141140500Y-83193555D01*
X141201622Y-83009816D01*
X141225891Y-82817703D01*
X141226278Y-82790000D01*
X141224920Y-82776146D01*
X141782019Y-82776146D01*
X141782019Y-82776153D01*
X141798221Y-82969101D01*
X141798222Y-82969107D01*
X141845215Y-83132993D01*
X141851596Y-83155245D01*
X141940106Y-83327468D01*
X141940107Y-83327470D01*
X142009171Y-83414606D01*
X142060387Y-83479225D01*
X142207851Y-83604726D01*
X142207854Y-83604728D01*
X142207857Y-83604730D01*
X142258428Y-83632993D01*
X142376882Y-83699195D01*
X142561044Y-83759033D01*
X142753321Y-83781960D01*
X142946390Y-83767105D01*
X143132896Y-83715031D01*
X143305736Y-83627724D01*
X143458325Y-83508507D01*
X143584853Y-83361923D01*
X143680500Y-83193555D01*
X143741622Y-83009816D01*
X143765891Y-82817703D01*
X143766135Y-82800219D01*
X144695000Y-82800219D01*
X144695000Y-83190000D01*
X145396448Y-83190000D01*
X145396448Y-83189999D01*
X144756863Y-82550414D01*
X144756862Y-82550415D01*
X144733446Y-82606947D01*
X144733431Y-82606987D01*
X144715457Y-82657939D01*
X144715455Y-82657946D01*
X144695000Y-82800219D01*
X143766135Y-82800219D01*
X143766278Y-82790000D01*
X143747382Y-82597285D01*
X143691414Y-82411910D01*
X143691413Y-82411908D01*
X143691413Y-82411907D01*
X143626495Y-82289815D01*
X143600506Y-82240937D01*
X143478120Y-82090877D01*
X143328919Y-81967447D01*
X143158584Y-81875348D01*
X143158583Y-81875347D01*
X143158580Y-81875346D01*
X142973609Y-81818087D01*
X142781029Y-81797846D01*
X142781027Y-81797846D01*
X142707670Y-81804522D01*
X142588182Y-81815396D01*
X142402426Y-81870067D01*
X142402422Y-81870069D01*
X142230831Y-81959773D01*
X142230819Y-81959781D01*
X142079910Y-82081115D01*
X142079909Y-82081116D01*
X141955444Y-82229446D01*
X141955442Y-82229449D01*
X141862154Y-82399139D01*
X141803602Y-82583718D01*
X141803602Y-82583719D01*
X141782019Y-82776146D01*
X141224920Y-82776146D01*
X141207382Y-82597285D01*
X141151414Y-82411910D01*
X141151413Y-82411908D01*
X141151413Y-82411907D01*
X141086495Y-82289815D01*
X141060506Y-82240937D01*
X140938120Y-82090877D01*
X140788919Y-81967447D01*
X140618584Y-81875348D01*
X140618583Y-81875347D01*
X140618580Y-81875346D01*
X140433609Y-81818087D01*
X140241029Y-81797846D01*
X140241027Y-81797846D01*
X140167670Y-81804522D01*
X140048182Y-81815396D01*
X139862426Y-81870067D01*
X139862422Y-81870069D01*
X139690831Y-81959773D01*
X139690819Y-81959781D01*
X139539910Y-82081115D01*
X139539909Y-82081116D01*
X139415444Y-82229446D01*
X139415442Y-82229449D01*
X139322154Y-82399139D01*
X139263602Y-82583718D01*
X139263602Y-82583719D01*
X139242019Y-82776146D01*
X138681500Y-82776146D01*
X138681500Y-82002600D01*
X138679578Y-81963200D01*
X138672030Y-81944978D01*
X138649425Y-81890403D01*
X138649423Y-81890398D01*
X138593702Y-81834677D01*
X138593698Y-81834675D01*
X138593696Y-81834674D01*
X138520901Y-81804522D01*
X138520903Y-81804522D01*
X138512457Y-81804110D01*
X138481500Y-81802600D01*
X137694100Y-81802600D01*
X136906700Y-81802600D01*
X136867300Y-81804522D01*
X136794496Y-81834678D01*
X136794495Y-81834680D01*
X136738780Y-81890395D01*
X136738778Y-81890396D01*
X136710038Y-81959781D01*
X136708622Y-81963200D01*
X136706700Y-82002600D01*
X128953523Y-82002600D01*
X128956213Y-81989078D01*
X128965291Y-81978746D01*
X128969231Y-81969130D01*
X128994960Y-81944984D01*
X129059139Y-81900047D01*
X129220047Y-81739139D01*
X129278821Y-81655199D01*
X129332287Y-81581610D01*
X129337465Y-81571446D01*
X129350568Y-81552734D01*
X129389067Y-81470172D01*
X129425220Y-81399219D01*
X129432266Y-81377532D01*
X129446739Y-81346496D01*
X129446742Y-81346488D01*
X129466534Y-81272617D01*
X129467377Y-81269471D01*
X129488477Y-81204534D01*
X129493825Y-81170766D01*
X129505635Y-81126692D01*
X129511215Y-81062892D01*
X129512270Y-81054306D01*
X129517453Y-81021589D01*
X129520500Y-81002352D01*
X129520500Y-80797648D01*
X129511593Y-80741417D01*
X129505635Y-80673308D01*
X129493825Y-80629233D01*
X129488477Y-80595466D01*
X129468378Y-80533609D01*
X129466535Y-80527386D01*
X129446742Y-80453513D01*
X129446740Y-80453510D01*
X129446739Y-80453504D01*
X129432266Y-80422467D01*
X129425220Y-80400781D01*
X129389067Y-80329827D01*
X129350568Y-80247266D01*
X129342436Y-80235652D01*
X129342436Y-80235651D01*
X129337462Y-80228548D01*
X129332287Y-80218390D01*
X129278821Y-80144800D01*
X129278215Y-80143935D01*
X129278205Y-80143920D01*
X129220045Y-80060858D01*
X129059140Y-79899953D01*
X128976078Y-79841793D01*
X128975180Y-79841164D01*
X128901610Y-79787713D01*
X128891448Y-79782535D01*
X128884346Y-79777562D01*
X128872736Y-79769433D01*
X128872727Y-79769429D01*
X128814723Y-79742380D01*
X128804066Y-79732996D01*
X128790866Y-79727773D01*
X128778368Y-79710369D01*
X128762285Y-79696208D01*
X128758393Y-79682552D01*
X128750112Y-79671021D01*
X128749007Y-79649621D01*
X128743134Y-79629014D01*
X128747241Y-79615423D01*
X128746510Y-79601244D01*
X128757149Y-79582644D01*
X128763350Y-79562133D01*
X128774830Y-79551737D01*
X128781204Y-79540597D01*
X128805623Y-79523856D01*
X128809872Y-79520010D01*
X128812252Y-79518770D01*
X128872734Y-79490568D01*
X128891002Y-79477775D01*
X128898207Y-79474025D01*
X128898416Y-79473983D01*
X128899180Y-79473524D01*
X128901610Y-79472287D01*
X128974358Y-79419432D01*
X128976047Y-79418227D01*
X129059139Y-79360047D01*
X129220047Y-79199139D01*
X129278821Y-79115199D01*
X129332287Y-79041610D01*
X129337465Y-79031446D01*
X129350568Y-79012734D01*
X129389067Y-78930172D01*
X129425220Y-78859219D01*
X129432266Y-78837532D01*
X129446739Y-78806496D01*
X129446742Y-78806488D01*
X129466534Y-78732617D01*
X129467377Y-78729471D01*
X129488477Y-78664534D01*
X129493825Y-78630766D01*
X129505635Y-78586692D01*
X129511215Y-78522892D01*
X129512270Y-78514306D01*
X129520500Y-78462350D01*
X129520500Y-78257649D01*
X129512270Y-78205691D01*
X129512270Y-78205690D01*
X129511592Y-78201414D01*
X129505635Y-78133308D01*
X129493825Y-78089233D01*
X129488477Y-78055466D01*
X129468378Y-77993609D01*
X129466535Y-77987386D01*
X129446742Y-77913513D01*
X129446740Y-77913510D01*
X129446739Y-77913504D01*
X129432266Y-77882467D01*
X129425220Y-77860781D01*
X129389067Y-77789827D01*
X129350568Y-77707266D01*
X129342436Y-77695652D01*
X129342436Y-77695651D01*
X129337462Y-77688548D01*
X129332287Y-77678390D01*
X129278821Y-77604800D01*
X129278215Y-77603935D01*
X129278205Y-77603920D01*
X129220045Y-77520858D01*
X129059140Y-77359953D01*
X128976078Y-77301793D01*
X128975180Y-77301164D01*
X128901610Y-77247713D01*
X128891448Y-77242535D01*
X128884346Y-77237562D01*
X128872736Y-77229433D01*
X128872727Y-77229429D01*
X128814723Y-77202380D01*
X128804066Y-77192996D01*
X128790866Y-77187773D01*
X128778368Y-77170369D01*
X128762285Y-77156208D01*
X128758393Y-77142552D01*
X128750112Y-77131021D01*
X128749007Y-77109621D01*
X128743134Y-77089014D01*
X128747241Y-77075423D01*
X128746510Y-77061244D01*
X128757149Y-77042644D01*
X128763350Y-77022133D01*
X128774830Y-77011737D01*
X128781204Y-77000597D01*
X128805623Y-76983856D01*
X128809872Y-76980010D01*
X128812252Y-76978770D01*
X128872734Y-76950568D01*
X128891002Y-76937775D01*
X128898207Y-76934025D01*
X128898416Y-76933983D01*
X128899180Y-76933524D01*
X128901610Y-76932287D01*
X128974358Y-76879432D01*
X128976047Y-76878227D01*
X129059139Y-76820047D01*
X129220047Y-76659139D01*
X129278821Y-76575199D01*
X129332287Y-76501610D01*
X129337465Y-76491446D01*
X129350568Y-76472734D01*
X129389067Y-76390172D01*
X129425220Y-76319219D01*
X129432266Y-76297532D01*
X129446739Y-76266496D01*
X129446742Y-76266488D01*
X129466534Y-76192617D01*
X129467377Y-76189471D01*
X129488477Y-76124534D01*
X129493825Y-76090766D01*
X129505635Y-76046692D01*
X129511215Y-75982892D01*
X129512270Y-75974306D01*
X129520500Y-75922350D01*
X129520500Y-75717649D01*
X129512270Y-75665691D01*
X129512270Y-75665690D01*
X129511592Y-75661414D01*
X129505635Y-75593308D01*
X129493825Y-75549233D01*
X129488477Y-75515466D01*
X129468378Y-75453609D01*
X129466535Y-75447386D01*
X129446742Y-75373513D01*
X129446740Y-75373510D01*
X129446739Y-75373504D01*
X129432266Y-75342467D01*
X129425220Y-75320781D01*
X129389067Y-75249827D01*
X129350568Y-75167266D01*
X129342436Y-75155652D01*
X129342436Y-75155651D01*
X129337462Y-75148548D01*
X129332287Y-75138390D01*
X129278821Y-75064800D01*
X129278215Y-75063935D01*
X129278205Y-75063920D01*
X129220045Y-74980858D01*
X129059140Y-74819953D01*
X128976078Y-74761793D01*
X128975180Y-74761164D01*
X128901610Y-74707713D01*
X128891448Y-74702535D01*
X128884346Y-74697562D01*
X128872736Y-74689433D01*
X128872727Y-74689429D01*
X128814723Y-74662380D01*
X128804066Y-74652996D01*
X128790866Y-74647773D01*
X128778368Y-74630369D01*
X128762285Y-74616208D01*
X128758393Y-74602552D01*
X128750112Y-74591021D01*
X128749007Y-74569621D01*
X128743134Y-74549014D01*
X128747241Y-74535423D01*
X128746510Y-74521244D01*
X128757149Y-74502644D01*
X128763350Y-74482133D01*
X128774830Y-74471737D01*
X128781204Y-74460597D01*
X128805623Y-74443856D01*
X128809872Y-74440010D01*
X128812252Y-74438770D01*
X128872734Y-74410568D01*
X128891002Y-74397775D01*
X128898207Y-74394025D01*
X128898416Y-74393983D01*
X128899180Y-74393524D01*
X128901610Y-74392287D01*
X128974358Y-74339432D01*
X128976047Y-74338227D01*
X129059139Y-74280047D01*
X129220047Y-74119139D01*
X129278821Y-74035199D01*
X129332287Y-73961610D01*
X129337465Y-73951446D01*
X129350568Y-73932734D01*
X129389067Y-73850172D01*
X129425220Y-73779219D01*
X129432266Y-73757532D01*
X129446739Y-73726496D01*
X129446742Y-73726488D01*
X129466534Y-73652617D01*
X129467377Y-73649471D01*
X129488477Y-73584534D01*
X129493825Y-73550766D01*
X129505635Y-73506692D01*
X129511215Y-73442892D01*
X129512270Y-73434306D01*
X129520500Y-73382350D01*
X129520500Y-73177649D01*
X129512270Y-73125691D01*
X129512270Y-73125690D01*
X129511592Y-73121414D01*
X129505635Y-73053308D01*
X129493825Y-73009233D01*
X129488477Y-72975466D01*
X129468378Y-72913609D01*
X129466535Y-72907386D01*
X129446742Y-72833513D01*
X129446740Y-72833510D01*
X129446739Y-72833504D01*
X129432266Y-72802467D01*
X129425220Y-72780781D01*
X129389067Y-72709827D01*
X129350568Y-72627266D01*
X129342436Y-72615652D01*
X129342436Y-72615651D01*
X129337462Y-72608548D01*
X129332287Y-72598390D01*
X129278821Y-72524800D01*
X129278215Y-72523935D01*
X129278205Y-72523920D01*
X129220045Y-72440858D01*
X129059143Y-72279956D01*
X129044634Y-72269797D01*
X128998484Y-72237482D01*
X128992620Y-72233376D01*
X128948996Y-72178799D01*
X128941803Y-72109300D01*
X128973325Y-72046946D01*
X129033082Y-72011652D01*
X129053040Y-72006558D01*
X129109584Y-71983136D01*
X129109584Y-71983135D01*
X128766448Y-71639999D01*
X137160000Y-71639999D01*
X137160000Y-72540000D01*
X137162138Y-72605541D01*
X137162138Y-72605544D01*
X137162139Y-72605545D01*
X137196068Y-72732167D01*
X137261612Y-72845694D01*
X137354306Y-72938388D01*
X137467833Y-73003932D01*
X137594455Y-73037861D01*
X137660000Y-73040000D01*
X138560000Y-73040000D01*
X138625545Y-73037861D01*
X138752167Y-73003933D01*
X138865694Y-72938388D01*
X138958388Y-72845694D01*
X139023933Y-72732167D01*
X139057861Y-72605545D01*
X139060000Y-72540000D01*
X139060000Y-71640000D01*
X139057861Y-71574455D01*
X139023933Y-71447833D01*
X138958388Y-71334306D01*
X138865694Y-71241612D01*
X138752167Y-71176067D01*
X138625545Y-71142139D01*
X138560000Y-71140000D01*
X138110000Y-71140000D01*
X137660000Y-71140000D01*
X137594458Y-71142138D01*
X137467832Y-71176068D01*
X137354307Y-71241611D01*
X137354304Y-71241613D01*
X137261613Y-71334304D01*
X137261611Y-71334307D01*
X137196068Y-71447832D01*
X137162138Y-71574458D01*
X137160000Y-71639999D01*
X128766448Y-71639999D01*
X128349410Y-71222962D01*
X128412993Y-71205925D01*
X128527007Y-71140099D01*
X128620099Y-71047007D01*
X128653012Y-70990000D01*
X128823551Y-70990000D01*
X129463135Y-71629584D01*
X129463136Y-71629584D01*
X129479317Y-71590522D01*
X129479317Y-71590521D01*
X129486553Y-71573051D01*
X129504544Y-71522053D01*
X129524999Y-71379780D01*
X129525000Y-71379779D01*
X129525000Y-70990000D01*
X128823551Y-70990000D01*
X128653012Y-70990000D01*
X128685925Y-70932993D01*
X128720000Y-70805826D01*
X128720000Y-70674174D01*
X128685925Y-70547007D01*
X128653011Y-70489999D01*
X128823551Y-70489999D01*
X128823552Y-70490000D01*
X129525000Y-70490000D01*
X129525000Y-70100224D01*
X129525000Y-70100219D01*
X144694500Y-70100219D01*
X144694500Y-71379784D01*
X144697395Y-71433814D01*
X144697396Y-71433818D01*
X144732976Y-71573221D01*
X144732980Y-71573233D01*
X144763419Y-71646719D01*
X144763431Y-71646747D01*
X144786779Y-71695548D01*
X144786782Y-71695553D01*
X144803949Y-71718485D01*
X144873006Y-71810733D01*
X144873010Y-71810737D01*
X144873015Y-71810743D01*
X144929252Y-71866980D01*
X144929261Y-71866988D01*
X144929267Y-71866994D01*
X144931790Y-71869260D01*
X144969524Y-71903156D01*
X144969532Y-71903162D01*
X145093263Y-71976573D01*
X145093262Y-71976573D01*
X145100329Y-71979500D01*
X145166774Y-72007022D01*
X145179898Y-72011652D01*
X145194660Y-72016860D01*
X145251332Y-72057726D01*
X145276913Y-72122745D01*
X145263281Y-72191272D01*
X145224531Y-72235370D01*
X145160858Y-72279955D01*
X144999954Y-72440859D01*
X144941781Y-72523934D01*
X144941782Y-72523935D01*
X144941132Y-72524863D01*
X144887713Y-72598390D01*
X144882535Y-72608550D01*
X144877560Y-72615656D01*
X144877558Y-72615656D01*
X144869433Y-72627262D01*
X144831838Y-72707882D01*
X144830920Y-72709849D01*
X144794780Y-72780781D01*
X144787735Y-72802458D01*
X144784532Y-72809329D01*
X144784529Y-72809338D01*
X144773261Y-72833503D01*
X144773261Y-72833504D01*
X144753459Y-72907404D01*
X144753458Y-72907403D01*
X144752614Y-72910551D01*
X144731523Y-72975466D01*
X144726175Y-73009224D01*
X144724492Y-73015507D01*
X144724492Y-73015511D01*
X144714366Y-73053304D01*
X144714364Y-73053313D01*
X144708783Y-73117106D01*
X144707728Y-73125697D01*
X144699500Y-73177643D01*
X144699500Y-73177648D01*
X144699500Y-73382352D01*
X144708406Y-73438582D01*
X144714365Y-73506692D01*
X144726171Y-73550756D01*
X144727188Y-73557175D01*
X144727190Y-73557181D01*
X144731521Y-73584525D01*
X144731522Y-73584530D01*
X144731523Y-73584534D01*
X144742755Y-73619104D01*
X144751617Y-73646378D01*
X144753460Y-73652600D01*
X144773260Y-73726494D01*
X144784529Y-73750662D01*
X144787733Y-73757532D01*
X144794780Y-73779219D01*
X144830930Y-73850169D01*
X144831844Y-73852128D01*
X144869432Y-73932734D01*
X144877562Y-73944346D01*
X144882535Y-73951448D01*
X144887713Y-73961610D01*
X144941164Y-74035180D01*
X144941793Y-74036078D01*
X144999953Y-74119140D01*
X145160858Y-74280045D01*
X145160861Y-74280047D01*
X145244800Y-74338821D01*
X145318390Y-74392287D01*
X145328547Y-74397462D01*
X145335648Y-74402434D01*
X145335652Y-74402436D01*
X145347266Y-74410568D01*
X145347270Y-74410570D01*
X145405272Y-74437617D01*
X145415927Y-74446999D01*
X145429131Y-74452224D01*
X145441629Y-74469629D01*
X145457712Y-74483789D01*
X145461604Y-74497444D01*
X145469886Y-74508977D01*
X145470990Y-74530375D01*
X145476864Y-74550982D01*
X145472755Y-74564573D01*
X145473488Y-74578754D01*
X145462848Y-74597352D01*
X145456649Y-74617864D01*
X145445167Y-74628259D01*
X145438794Y-74639401D01*
X145414369Y-74656145D01*
X145410126Y-74659988D01*
X145407711Y-74661244D01*
X145347266Y-74689432D01*
X145329002Y-74702219D01*
X145321792Y-74705973D01*
X145321591Y-74706012D01*
X145320847Y-74706460D01*
X145318397Y-74707708D01*
X145318394Y-74707710D01*
X145245696Y-74760526D01*
X145243939Y-74761779D01*
X145160859Y-74819954D01*
X144999954Y-74980859D01*
X144941781Y-75063934D01*
X144941782Y-75063935D01*
X144941132Y-75064863D01*
X144887713Y-75138390D01*
X144882535Y-75148550D01*
X144877560Y-75155656D01*
X144877558Y-75155656D01*
X144869433Y-75167262D01*
X144831838Y-75247882D01*
X144830920Y-75249849D01*
X144794780Y-75320781D01*
X144787735Y-75342458D01*
X144784532Y-75349329D01*
X144784529Y-75349338D01*
X144773261Y-75373503D01*
X144773261Y-75373504D01*
X144753459Y-75447404D01*
X144753458Y-75447403D01*
X144752614Y-75450551D01*
X144731523Y-75515466D01*
X144726175Y-75549224D01*
X144724492Y-75555507D01*
X144724492Y-75555511D01*
X144714366Y-75593304D01*
X144714364Y-75593313D01*
X144708783Y-75657106D01*
X144707728Y-75665697D01*
X144699500Y-75717643D01*
X144699500Y-75717648D01*
X144699500Y-75922352D01*
X144708406Y-75978582D01*
X144714365Y-76046692D01*
X144726171Y-76090756D01*
X144727188Y-76097175D01*
X144727190Y-76097181D01*
X144731521Y-76124525D01*
X144731522Y-76124530D01*
X144751617Y-76186378D01*
X144753460Y-76192600D01*
X144773260Y-76266494D01*
X144784529Y-76290662D01*
X144787733Y-76297532D01*
X144794780Y-76319219D01*
X144830930Y-76390169D01*
X144831844Y-76392128D01*
X144869432Y-76472734D01*
X144877562Y-76484346D01*
X144882535Y-76491448D01*
X144887713Y-76501610D01*
X144941164Y-76575180D01*
X144941793Y-76576078D01*
X144999953Y-76659140D01*
X145160858Y-76820045D01*
X145160861Y-76820047D01*
X145244800Y-76878821D01*
X145318390Y-76932287D01*
X145328547Y-76937462D01*
X145335648Y-76942434D01*
X145335652Y-76942436D01*
X145347266Y-76950568D01*
X145347270Y-76950570D01*
X145405272Y-76977617D01*
X145415927Y-76986999D01*
X145429131Y-76992224D01*
X145441629Y-77009629D01*
X145457712Y-77023789D01*
X145461604Y-77037444D01*
X145469886Y-77048977D01*
X145470990Y-77070375D01*
X145476864Y-77090982D01*
X145472755Y-77104573D01*
X145473488Y-77118754D01*
X145462848Y-77137352D01*
X145456649Y-77157864D01*
X145445167Y-77168259D01*
X145438794Y-77179401D01*
X145414369Y-77196145D01*
X145410126Y-77199988D01*
X145407711Y-77201244D01*
X145347266Y-77229432D01*
X145329002Y-77242219D01*
X145321792Y-77245973D01*
X145321591Y-77246012D01*
X145320847Y-77246460D01*
X145318397Y-77247708D01*
X145318394Y-77247710D01*
X145245696Y-77300526D01*
X145243939Y-77301779D01*
X145160859Y-77359954D01*
X144999954Y-77520859D01*
X144941781Y-77603934D01*
X144941782Y-77603935D01*
X144941132Y-77604863D01*
X144887713Y-77678390D01*
X144882535Y-77688550D01*
X144877560Y-77695656D01*
X144877558Y-77695656D01*
X144869433Y-77707262D01*
X144831838Y-77787882D01*
X144830920Y-77789849D01*
X144794780Y-77860781D01*
X144787735Y-77882458D01*
X144784532Y-77889329D01*
X144784529Y-77889338D01*
X144773261Y-77913503D01*
X144773261Y-77913504D01*
X144753459Y-77987404D01*
X144753458Y-77987403D01*
X144752614Y-77990551D01*
X144731523Y-78055466D01*
X144726175Y-78089224D01*
X144724492Y-78095507D01*
X144724492Y-78095511D01*
X144714366Y-78133304D01*
X144714364Y-78133313D01*
X144708783Y-78197106D01*
X144707728Y-78205697D01*
X144699500Y-78257643D01*
X144699500Y-78257648D01*
X144699500Y-78462352D01*
X144708406Y-78518582D01*
X144714365Y-78586692D01*
X144726171Y-78630756D01*
X144727188Y-78637175D01*
X144727190Y-78637181D01*
X144731521Y-78664525D01*
X144731522Y-78664530D01*
X144751617Y-78726378D01*
X144753460Y-78732600D01*
X144773260Y-78806494D01*
X144784529Y-78830662D01*
X144787733Y-78837532D01*
X144794780Y-78859219D01*
X144830930Y-78930169D01*
X144831844Y-78932128D01*
X144869432Y-79012734D01*
X144877562Y-79024346D01*
X144882535Y-79031448D01*
X144887713Y-79041610D01*
X144941164Y-79115180D01*
X144941793Y-79116078D01*
X144999953Y-79199140D01*
X145160858Y-79360045D01*
X145238097Y-79414128D01*
X145244800Y-79418821D01*
X145318390Y-79472287D01*
X145328547Y-79477462D01*
X145335648Y-79482434D01*
X145335652Y-79482436D01*
X145347266Y-79490568D01*
X145347270Y-79490570D01*
X145405272Y-79517617D01*
X145415927Y-79526999D01*
X145429131Y-79532224D01*
X145441629Y-79549629D01*
X145457712Y-79563789D01*
X145461604Y-79577444D01*
X145469886Y-79588977D01*
X145470990Y-79610375D01*
X145476864Y-79630982D01*
X145472755Y-79644573D01*
X145473488Y-79658754D01*
X145462848Y-79677352D01*
X145456649Y-79697864D01*
X145445167Y-79708259D01*
X145438794Y-79719401D01*
X145414369Y-79736145D01*
X145410126Y-79739988D01*
X145407711Y-79741244D01*
X145347266Y-79769432D01*
X145329002Y-79782219D01*
X145321792Y-79785973D01*
X145321591Y-79786012D01*
X145320847Y-79786460D01*
X145318397Y-79787708D01*
X145318394Y-79787710D01*
X145245696Y-79840526D01*
X145243939Y-79841779D01*
X145160859Y-79899954D01*
X144999954Y-80060859D01*
X144941781Y-80143934D01*
X144941782Y-80143935D01*
X144941132Y-80144863D01*
X144887713Y-80218390D01*
X144882535Y-80228550D01*
X144877560Y-80235656D01*
X144877558Y-80235656D01*
X144869433Y-80247262D01*
X144831838Y-80327882D01*
X144830920Y-80329849D01*
X144794780Y-80400781D01*
X144787735Y-80422458D01*
X144784532Y-80429329D01*
X144784529Y-80429338D01*
X144773261Y-80453503D01*
X144773261Y-80453504D01*
X144753459Y-80527404D01*
X144753458Y-80527403D01*
X144752614Y-80530551D01*
X144731523Y-80595466D01*
X144726175Y-80629224D01*
X144724492Y-80635507D01*
X144724492Y-80635511D01*
X144714366Y-80673304D01*
X144714364Y-80673313D01*
X144708783Y-80737106D01*
X144707728Y-80745697D01*
X144699500Y-80797643D01*
X144699500Y-80797648D01*
X144699500Y-81002352D01*
X144708406Y-81058582D01*
X144714365Y-81126692D01*
X144726171Y-81170756D01*
X144727188Y-81177175D01*
X144727190Y-81177181D01*
X144731521Y-81204525D01*
X144731522Y-81204530D01*
X144751617Y-81266378D01*
X144753460Y-81272600D01*
X144773260Y-81346494D01*
X144784529Y-81370662D01*
X144787733Y-81377532D01*
X144794780Y-81399219D01*
X144830930Y-81470169D01*
X144831844Y-81472128D01*
X144869432Y-81552734D01*
X144877562Y-81564346D01*
X144882535Y-81571448D01*
X144887713Y-81581610D01*
X144941164Y-81655180D01*
X144941793Y-81656078D01*
X144999953Y-81739140D01*
X145160858Y-81900045D01*
X145227379Y-81946623D01*
X145271004Y-82001199D01*
X145278198Y-82070698D01*
X145246676Y-82133052D01*
X145186922Y-82168346D01*
X145166976Y-82173436D01*
X145166962Y-82173441D01*
X145110415Y-82196863D01*
X145870589Y-82957037D01*
X145807007Y-82974075D01*
X145692993Y-83039901D01*
X145599901Y-83132993D01*
X145534075Y-83247007D01*
X145500000Y-83374174D01*
X145500000Y-83505826D01*
X145534075Y-83632993D01*
X145599901Y-83747007D01*
X145692993Y-83840099D01*
X145807007Y-83905925D01*
X145870588Y-83922961D01*
X145110414Y-84683135D01*
X145166960Y-84706557D01*
X145166965Y-84706559D01*
X145195159Y-84716505D01*
X145251832Y-84757370D01*
X145277415Y-84822388D01*
X145263786Y-84890915D01*
X145225035Y-84935016D01*
X145160859Y-84979954D01*
X144999954Y-85140859D01*
X144941781Y-85223934D01*
X144941782Y-85223935D01*
X144941132Y-85224863D01*
X144887713Y-85298390D01*
X144882535Y-85308550D01*
X144877560Y-85315656D01*
X144877558Y-85315656D01*
X144869433Y-85327262D01*
X144831838Y-85407882D01*
X144830920Y-85409849D01*
X144794780Y-85480781D01*
X144787735Y-85502458D01*
X144784532Y-85509329D01*
X144784529Y-85509338D01*
X144773261Y-85533503D01*
X144773261Y-85533504D01*
X144753459Y-85607404D01*
X144753458Y-85607403D01*
X144752614Y-85610551D01*
X144731523Y-85675466D01*
X144726175Y-85709224D01*
X144724492Y-85715507D01*
X144724492Y-85715511D01*
X144714366Y-85753304D01*
X144714364Y-85753313D01*
X144708783Y-85817106D01*
X144707728Y-85825697D01*
X144699500Y-85877643D01*
X144699500Y-85877648D01*
X144699500Y-86082352D01*
X144708406Y-86138582D01*
X144714365Y-86206692D01*
X144726171Y-86250756D01*
X144727188Y-86257175D01*
X144727190Y-86257181D01*
X144731521Y-86284525D01*
X144731522Y-86284530D01*
X144751617Y-86346378D01*
X144753460Y-86352600D01*
X144773260Y-86426494D01*
X144784529Y-86450662D01*
X144787733Y-86457532D01*
X144794780Y-86479219D01*
X144830930Y-86550169D01*
X144831844Y-86552128D01*
X144869432Y-86632734D01*
X144877562Y-86644346D01*
X144882535Y-86651448D01*
X144887713Y-86661610D01*
X144941164Y-86735180D01*
X144941793Y-86736078D01*
X144999953Y-86819140D01*
X145160858Y-86980045D01*
X145160861Y-86980047D01*
X145244800Y-87038821D01*
X145318390Y-87092287D01*
X145328547Y-87097462D01*
X145335648Y-87102434D01*
X145335652Y-87102436D01*
X145347266Y-87110568D01*
X145347270Y-87110570D01*
X145405272Y-87137617D01*
X145415927Y-87146999D01*
X145429131Y-87152224D01*
X145441629Y-87169629D01*
X145457712Y-87183789D01*
X145461604Y-87197444D01*
X145469886Y-87208977D01*
X145470990Y-87230375D01*
X145476864Y-87250982D01*
X145472755Y-87264573D01*
X145473488Y-87278754D01*
X145462848Y-87297352D01*
X145456649Y-87317864D01*
X145445167Y-87328259D01*
X145438794Y-87339401D01*
X145414369Y-87356145D01*
X145410126Y-87359988D01*
X145407711Y-87361244D01*
X145347266Y-87389432D01*
X145329002Y-87402219D01*
X145321792Y-87405973D01*
X145321591Y-87406012D01*
X145320847Y-87406460D01*
X145318397Y-87407708D01*
X145318394Y-87407710D01*
X145245696Y-87460526D01*
X145243939Y-87461779D01*
X145160859Y-87519954D01*
X144999954Y-87680859D01*
X144941781Y-87763934D01*
X144941782Y-87763935D01*
X144941132Y-87764863D01*
X144887713Y-87838390D01*
X144882535Y-87848550D01*
X144877560Y-87855656D01*
X144877558Y-87855656D01*
X144869433Y-87867262D01*
X144831838Y-87947882D01*
X144830920Y-87949849D01*
X144794780Y-88020781D01*
X144787735Y-88042458D01*
X144784532Y-88049329D01*
X144784529Y-88049338D01*
X144773261Y-88073503D01*
X144773261Y-88073504D01*
X144753459Y-88147404D01*
X144753458Y-88147403D01*
X144752614Y-88150551D01*
X144731523Y-88215466D01*
X144726175Y-88249224D01*
X144724492Y-88255507D01*
X144724492Y-88255511D01*
X144714366Y-88293304D01*
X144714364Y-88293313D01*
X144708783Y-88357106D01*
X144707728Y-88365697D01*
X144699500Y-88417643D01*
X144699500Y-88417648D01*
X144699500Y-88622352D01*
X144708406Y-88678582D01*
X144714365Y-88746692D01*
X144726171Y-88790756D01*
X144727188Y-88797175D01*
X144727190Y-88797181D01*
X144731521Y-88824525D01*
X144731522Y-88824530D01*
X144731523Y-88824534D01*
X144737785Y-88843807D01*
X144751617Y-88886378D01*
X144753460Y-88892600D01*
X144773260Y-88966494D01*
X144784529Y-88990662D01*
X144787733Y-88997532D01*
X144794780Y-89019219D01*
X144830930Y-89090169D01*
X144831844Y-89092128D01*
X144869432Y-89172734D01*
X144877562Y-89184346D01*
X144882535Y-89191448D01*
X144887713Y-89201610D01*
X144941164Y-89275180D01*
X144941793Y-89276078D01*
X144999953Y-89359140D01*
X145160858Y-89520045D01*
X145239728Y-89575270D01*
X145244800Y-89578821D01*
X145318390Y-89632287D01*
X145328547Y-89637462D01*
X145335648Y-89642434D01*
X145335652Y-89642436D01*
X145347266Y-89650568D01*
X145347270Y-89650570D01*
X145405272Y-89677617D01*
X145415927Y-89686999D01*
X145429131Y-89692224D01*
X145441629Y-89709629D01*
X145457712Y-89723789D01*
X145461604Y-89737444D01*
X145469886Y-89748977D01*
X145470990Y-89770375D01*
X145476864Y-89790982D01*
X145472755Y-89804573D01*
X145473488Y-89818754D01*
X145462848Y-89837352D01*
X145456649Y-89857864D01*
X145445167Y-89868259D01*
X145438794Y-89879401D01*
X145414369Y-89896145D01*
X145410126Y-89899988D01*
X145407711Y-89901244D01*
X145347266Y-89929432D01*
X145329002Y-89942219D01*
X145321792Y-89945973D01*
X145321591Y-89946012D01*
X145320847Y-89946460D01*
X145318397Y-89947708D01*
X145318394Y-89947710D01*
X145245696Y-90000526D01*
X145243939Y-90001779D01*
X145160859Y-90059954D01*
X144999954Y-90220859D01*
X144941781Y-90303934D01*
X144941782Y-90303935D01*
X144941132Y-90304863D01*
X144887713Y-90378390D01*
X144882535Y-90388550D01*
X144877560Y-90395656D01*
X144877558Y-90395656D01*
X144869433Y-90407262D01*
X144831838Y-90487882D01*
X144830920Y-90489849D01*
X144794780Y-90560781D01*
X144787735Y-90582458D01*
X144784532Y-90589329D01*
X144784529Y-90589338D01*
X144773261Y-90613503D01*
X144773261Y-90613504D01*
X144753459Y-90687404D01*
X144753458Y-90687403D01*
X144752614Y-90690551D01*
X144731523Y-90755466D01*
X144726175Y-90789224D01*
X144724492Y-90795507D01*
X144724492Y-90795511D01*
X144714366Y-90833304D01*
X144714364Y-90833313D01*
X144708783Y-90897106D01*
X144707728Y-90905697D01*
X144699500Y-90957643D01*
X144699500Y-90957648D01*
X144699500Y-91162352D01*
X144708406Y-91218582D01*
X144714365Y-91286692D01*
X144726171Y-91330756D01*
X144727188Y-91337175D01*
X144727190Y-91337181D01*
X144731521Y-91364525D01*
X144731522Y-91364530D01*
X144751617Y-91426378D01*
X144753460Y-91432600D01*
X144773260Y-91506494D01*
X144784529Y-91530662D01*
X144787733Y-91537532D01*
X144794780Y-91559219D01*
X144830930Y-91630169D01*
X144831844Y-91632128D01*
X144869432Y-91712734D01*
X144877562Y-91724346D01*
X144882535Y-91731448D01*
X144887713Y-91741610D01*
X144941164Y-91815180D01*
X144941793Y-91816078D01*
X144999953Y-91899140D01*
X145160858Y-92060045D01*
X145160861Y-92060047D01*
X145244800Y-92118821D01*
X145318390Y-92172287D01*
X145328547Y-92177462D01*
X145335648Y-92182434D01*
X145335652Y-92182436D01*
X145347266Y-92190568D01*
X145347270Y-92190570D01*
X145405272Y-92217617D01*
X145415927Y-92226999D01*
X145429131Y-92232224D01*
X145441629Y-92249629D01*
X145457712Y-92263789D01*
X145461604Y-92277444D01*
X145469886Y-92288977D01*
X145470990Y-92310375D01*
X145476864Y-92330982D01*
X145472755Y-92344573D01*
X145473488Y-92358754D01*
X145462848Y-92377352D01*
X145456649Y-92397864D01*
X145445167Y-92408259D01*
X145438794Y-92419401D01*
X145414369Y-92436145D01*
X145410126Y-92439988D01*
X145407711Y-92441244D01*
X145347266Y-92469432D01*
X145329002Y-92482219D01*
X145321792Y-92485973D01*
X145321591Y-92486012D01*
X145320847Y-92486460D01*
X145318397Y-92487708D01*
X145318394Y-92487710D01*
X145245696Y-92540526D01*
X145243939Y-92541779D01*
X145160859Y-92599954D01*
X144999954Y-92760859D01*
X144941781Y-92843934D01*
X144941782Y-92843935D01*
X144941132Y-92844863D01*
X144887713Y-92918390D01*
X144882535Y-92928550D01*
X144877560Y-92935656D01*
X144877558Y-92935656D01*
X144869433Y-92947262D01*
X144831838Y-93027882D01*
X144830920Y-93029849D01*
X144794780Y-93100781D01*
X144787735Y-93122458D01*
X144784532Y-93129329D01*
X144784529Y-93129338D01*
X144773261Y-93153503D01*
X144773261Y-93153504D01*
X144753459Y-93227404D01*
X144753458Y-93227403D01*
X144752614Y-93230551D01*
X144731523Y-93295466D01*
X144726175Y-93329224D01*
X144724492Y-93335507D01*
X144724492Y-93335511D01*
X144714366Y-93373304D01*
X144714364Y-93373313D01*
X144708783Y-93437106D01*
X144707728Y-93445697D01*
X144699500Y-93497643D01*
X144699500Y-93497648D01*
X144699500Y-93702352D01*
X144708406Y-93758582D01*
X144714365Y-93826692D01*
X144726171Y-93870756D01*
X144727188Y-93877175D01*
X144727190Y-93877181D01*
X144731521Y-93904525D01*
X144731522Y-93904530D01*
X144751617Y-93966378D01*
X144753460Y-93972600D01*
X144773260Y-94046494D01*
X144784529Y-94070662D01*
X144787733Y-94077532D01*
X144794780Y-94099219D01*
X144830930Y-94170169D01*
X144831844Y-94172128D01*
X144869432Y-94252734D01*
X144877562Y-94264346D01*
X144882535Y-94271448D01*
X144887713Y-94281610D01*
X144941164Y-94355180D01*
X144941793Y-94356078D01*
X144999953Y-94439140D01*
X145160858Y-94600045D01*
X145227379Y-94646623D01*
X145271004Y-94701199D01*
X145278198Y-94770698D01*
X145246676Y-94833052D01*
X145186922Y-94868346D01*
X145166976Y-94873436D01*
X145166962Y-94873441D01*
X145110415Y-94896863D01*
X145870589Y-95657037D01*
X145807007Y-95674075D01*
X145692993Y-95739901D01*
X145599901Y-95832993D01*
X145534075Y-95947007D01*
X145500000Y-96074174D01*
X145500000Y-96205826D01*
X145534075Y-96332993D01*
X145599901Y-96447007D01*
X145692993Y-96540099D01*
X145807007Y-96605925D01*
X145870588Y-96622961D01*
X145110414Y-97383135D01*
X145166960Y-97406557D01*
X145166965Y-97406559D01*
X145195159Y-97416505D01*
X145251832Y-97457370D01*
X145277415Y-97522388D01*
X145263786Y-97590915D01*
X145225035Y-97635016D01*
X145160859Y-97679954D01*
X144999954Y-97840859D01*
X144941781Y-97923934D01*
X144941782Y-97923935D01*
X144941132Y-97924863D01*
X144887713Y-97998390D01*
X144882535Y-98008550D01*
X144877560Y-98015656D01*
X144877558Y-98015656D01*
X144869433Y-98027262D01*
X144831838Y-98107882D01*
X144830920Y-98109849D01*
X144794780Y-98180781D01*
X144787735Y-98202458D01*
X144784532Y-98209329D01*
X144784529Y-98209338D01*
X144773261Y-98233503D01*
X144773261Y-98233504D01*
X144753459Y-98307404D01*
X144753458Y-98307403D01*
X144752614Y-98310551D01*
X144731523Y-98375466D01*
X144726175Y-98409224D01*
X144724492Y-98415507D01*
X144724492Y-98415511D01*
X144714366Y-98453304D01*
X144714364Y-98453313D01*
X144708783Y-98517106D01*
X144707728Y-98525697D01*
X144699500Y-98577643D01*
X144699500Y-98577648D01*
X144699500Y-98782352D01*
X144708406Y-98838582D01*
X144714365Y-98906692D01*
X144726171Y-98950756D01*
X144727188Y-98957175D01*
X144727190Y-98957181D01*
X144731521Y-98984525D01*
X144731522Y-98984530D01*
X144751617Y-99046378D01*
X144753460Y-99052600D01*
X144773260Y-99126494D01*
X144784529Y-99150662D01*
X144787733Y-99157532D01*
X144794780Y-99179219D01*
X144830930Y-99250169D01*
X144831844Y-99252128D01*
X144869432Y-99332734D01*
X144877562Y-99344346D01*
X144882535Y-99351448D01*
X144887713Y-99361610D01*
X144941164Y-99435180D01*
X144941793Y-99436078D01*
X144999953Y-99519140D01*
X145160858Y-99680045D01*
X145160861Y-99680047D01*
X145244800Y-99738821D01*
X145318390Y-99792287D01*
X145328547Y-99797462D01*
X145335648Y-99802434D01*
X145335652Y-99802436D01*
X145347266Y-99810568D01*
X145347270Y-99810570D01*
X145405272Y-99837617D01*
X145415927Y-99846999D01*
X145429131Y-99852224D01*
X145441629Y-99869629D01*
X145457712Y-99883789D01*
X145461604Y-99897444D01*
X145469886Y-99908977D01*
X145470990Y-99930375D01*
X145476864Y-99950982D01*
X145472755Y-99964573D01*
X145473488Y-99978754D01*
X145462848Y-99997352D01*
X145456649Y-100017864D01*
X145445167Y-100028259D01*
X145438794Y-100039401D01*
X145414369Y-100056145D01*
X145410126Y-100059988D01*
X145407711Y-100061244D01*
X145347266Y-100089432D01*
X145329002Y-100102219D01*
X145321792Y-100105973D01*
X145321591Y-100106012D01*
X145320847Y-100106460D01*
X145318397Y-100107708D01*
X145318394Y-100107710D01*
X145245696Y-100160526D01*
X145243939Y-100161779D01*
X145160859Y-100219954D01*
X144999954Y-100380859D01*
X144941781Y-100463934D01*
X144941782Y-100463935D01*
X144941132Y-100464863D01*
X144887713Y-100538390D01*
X144882535Y-100548550D01*
X144877560Y-100555656D01*
X144877558Y-100555656D01*
X144869433Y-100567262D01*
X144831838Y-100647882D01*
X144830920Y-100649849D01*
X144794780Y-100720781D01*
X144787735Y-100742458D01*
X144784532Y-100749329D01*
X144784529Y-100749338D01*
X144773261Y-100773503D01*
X144773261Y-100773504D01*
X144753459Y-100847404D01*
X144753458Y-100847403D01*
X144752614Y-100850551D01*
X144731523Y-100915466D01*
X144726175Y-100949224D01*
X144724492Y-100955507D01*
X144724492Y-100955511D01*
X144714366Y-100993304D01*
X144714364Y-100993313D01*
X144708783Y-101057106D01*
X144707728Y-101065697D01*
X144699500Y-101117643D01*
X144699500Y-101117648D01*
X144699500Y-101322352D01*
X144708406Y-101378582D01*
X144714365Y-101446692D01*
X144726171Y-101490756D01*
X144727188Y-101497175D01*
X144727190Y-101497181D01*
X144731521Y-101524525D01*
X144731522Y-101524530D01*
X144751617Y-101586378D01*
X144753460Y-101592600D01*
X144773260Y-101666494D01*
X144784529Y-101690662D01*
X144787733Y-101697532D01*
X144794780Y-101719219D01*
X144830930Y-101790169D01*
X144831844Y-101792128D01*
X144869432Y-101872734D01*
X144877562Y-101884346D01*
X144882535Y-101891448D01*
X144887713Y-101901610D01*
X144941164Y-101975180D01*
X144941793Y-101976078D01*
X144999953Y-102059140D01*
X145160858Y-102220045D01*
X145160861Y-102220047D01*
X145244800Y-102278821D01*
X145318390Y-102332287D01*
X145328547Y-102337462D01*
X145335648Y-102342434D01*
X145335653Y-102342436D01*
X145347266Y-102350568D01*
X145429827Y-102389067D01*
X145500781Y-102425220D01*
X145522467Y-102432266D01*
X145553504Y-102446739D01*
X145553510Y-102446740D01*
X145553513Y-102446742D01*
X145627386Y-102466535D01*
X145630528Y-102467377D01*
X145695466Y-102488477D01*
X145729233Y-102493825D01*
X145773308Y-102505635D01*
X145837103Y-102511215D01*
X145845690Y-102512269D01*
X145897648Y-102520500D01*
X145897649Y-102520500D01*
X147656785Y-102520500D01*
X147656785Y-102520499D01*
X147826692Y-102505635D01*
X148046496Y-102446739D01*
X148252734Y-102350568D01*
X148439139Y-102220047D01*
X148600047Y-102059139D01*
X148625088Y-102023377D01*
X148679665Y-101979752D01*
X148726663Y-101970500D01*
X162603920Y-101970500D01*
X162701462Y-101951096D01*
X162748913Y-101941658D01*
X162885495Y-101885084D01*
X162934729Y-101852186D01*
X163008416Y-101802952D01*
X165832952Y-98978416D01*
X165886074Y-98898912D01*
X165915084Y-98855495D01*
X165971658Y-98718913D01*
X166000500Y-98573918D01*
X166000500Y-88341519D01*
X166020185Y-88274480D01*
X166036820Y-88253837D01*
X166047852Y-88242805D01*
X166080472Y-88210185D01*
X166168478Y-88064606D01*
X166219086Y-87902196D01*
X166225500Y-87831616D01*
X166225500Y-87318384D01*
X166219086Y-87247804D01*
X166168478Y-87085394D01*
X166080472Y-86939815D01*
X166080470Y-86939813D01*
X166080469Y-86939811D01*
X166027839Y-86887181D01*
X165994354Y-86825858D01*
X165999338Y-86756166D01*
X166041210Y-86700233D01*
X166106674Y-86675816D01*
X166115520Y-86675500D01*
X166148920Y-86675500D01*
X166246462Y-86656096D01*
X166293913Y-86646658D01*
X166430495Y-86590084D01*
X166479729Y-86557186D01*
X166487279Y-86552142D01*
X166504071Y-86540921D01*
X166553416Y-86507952D01*
X167582952Y-85478415D01*
X167625268Y-85415084D01*
X167665084Y-85355495D01*
X167689455Y-85296658D01*
X167721659Y-85218912D01*
X167750500Y-85073917D01*
X167750500Y-84926082D01*
X167750500Y-81426082D01*
X167734669Y-81346496D01*
X167721659Y-81281088D01*
X167665829Y-81146306D01*
X167665361Y-81144921D01*
X167665084Y-81144506D01*
X167665084Y-81144505D01*
X167632186Y-81095270D01*
X167604813Y-81054302D01*
X167582956Y-81021589D01*
X167582952Y-81021584D01*
X166036819Y-79475451D01*
X166003334Y-79414128D01*
X166000500Y-79387770D01*
X166000500Y-66406079D01*
X165971659Y-66261092D01*
X165971658Y-66261091D01*
X165971658Y-66261087D01*
X165920480Y-66137532D01*
X165915087Y-66124511D01*
X165915080Y-66124498D01*
X165832952Y-66001585D01*
X165795892Y-65964525D01*
X165728416Y-65897049D01*
X161307678Y-61476311D01*
X156870175Y-57038807D01*
X156836690Y-56977484D01*
X156835383Y-56931728D01*
X156842659Y-56885789D01*
X156850500Y-56836287D01*
X156850500Y-56623713D01*
X156835382Y-56528267D01*
X156836083Y-56522844D01*
X156834171Y-56517717D01*
X156840512Y-56488563D01*
X156844336Y-56458978D01*
X156848168Y-56453373D01*
X156849023Y-56449444D01*
X156870167Y-56421198D01*
X157004549Y-56286817D01*
X157065872Y-56253334D01*
X157092229Y-56250500D01*
X158175500Y-56250500D01*
X158242539Y-56270185D01*
X158288294Y-56322989D01*
X158299500Y-56374500D01*
X158299500Y-57397870D01*
X158299501Y-57397876D01*
X158305908Y-57457483D01*
X158356202Y-57592328D01*
X158356206Y-57592335D01*
X158442452Y-57707544D01*
X158442455Y-57707547D01*
X158557664Y-57793793D01*
X158557671Y-57793797D01*
X158692517Y-57844091D01*
X158692516Y-57844091D01*
X158699444Y-57844835D01*
X158752127Y-57850500D01*
X160347872Y-57850499D01*
X160407483Y-57844091D01*
X160542331Y-57793796D01*
X160657546Y-57707546D01*
X160743796Y-57592331D01*
X160794091Y-57457483D01*
X160800500Y-57397873D01*
X160800500Y-57397844D01*
X163200000Y-57397844D01*
X163206401Y-57457372D01*
X163206403Y-57457379D01*
X163256645Y-57592086D01*
X163256649Y-57592093D01*
X163342809Y-57707187D01*
X163342812Y-57707190D01*
X163457906Y-57793350D01*
X163457913Y-57793354D01*
X163592620Y-57843596D01*
X163592627Y-57843598D01*
X163652155Y-57849999D01*
X163652172Y-57850000D01*
X164200000Y-57850000D01*
X164700000Y-57850000D01*
X165247828Y-57850000D01*
X165247844Y-57849999D01*
X165307372Y-57843598D01*
X165307379Y-57843596D01*
X165442086Y-57793354D01*
X165442093Y-57793350D01*
X165557187Y-57707190D01*
X165557190Y-57707187D01*
X165643350Y-57592093D01*
X165643354Y-57592086D01*
X165693596Y-57457379D01*
X165693598Y-57457372D01*
X165699999Y-57397844D01*
X165700000Y-57397827D01*
X165700000Y-57100000D01*
X164700000Y-57100000D01*
X164700000Y-57850000D01*
X164200000Y-57850000D01*
X164200000Y-57100000D01*
X163200000Y-57100000D01*
X163200000Y-57397844D01*
X160800500Y-57397844D01*
X160800499Y-56845696D01*
X160800499Y-56374500D01*
X160820183Y-56307461D01*
X160872987Y-56261706D01*
X160924499Y-56250500D01*
X162673920Y-56250500D01*
X162771462Y-56231096D01*
X162818913Y-56221658D01*
X162955495Y-56165084D01*
X163014274Y-56125808D01*
X163080945Y-56104932D01*
X163148326Y-56123415D01*
X163195017Y-56175393D01*
X163206451Y-56242167D01*
X163200000Y-56302171D01*
X163200000Y-56600000D01*
X164200000Y-56600000D01*
X164700000Y-56600000D01*
X165700000Y-56600000D01*
X165700000Y-56302172D01*
X165699999Y-56302155D01*
X165693598Y-56242627D01*
X165693596Y-56242620D01*
X165643354Y-56107913D01*
X165643350Y-56107906D01*
X165557190Y-55992812D01*
X165557187Y-55992809D01*
X165442093Y-55906649D01*
X165442086Y-55906645D01*
X165307379Y-55856403D01*
X165307372Y-55856401D01*
X165247844Y-55850000D01*
X164700000Y-55850000D01*
X164700000Y-56600000D01*
X164200000Y-56600000D01*
X164200000Y-55850000D01*
X163652169Y-55850000D01*
X163619791Y-55853481D01*
X163551032Y-55841075D01*
X163499895Y-55793464D01*
X163482616Y-55725764D01*
X163504681Y-55659470D01*
X163518848Y-55642518D01*
X164474548Y-54686817D01*
X164535871Y-54653333D01*
X164562229Y-54650499D01*
X165247871Y-54650499D01*
X165247872Y-54650499D01*
X165307483Y-54644091D01*
X165442331Y-54593796D01*
X165557546Y-54507546D01*
X165643796Y-54392331D01*
X165694091Y-54257483D01*
X165700500Y-54197873D01*
X165700499Y-53102128D01*
X165694091Y-53042517D01*
X165684493Y-53016784D01*
X165643797Y-52907671D01*
X165643793Y-52907664D01*
X165557547Y-52792455D01*
X165557544Y-52792452D01*
X165442335Y-52706206D01*
X165442328Y-52706202D01*
X165307482Y-52655908D01*
X165307483Y-52655908D01*
X165247883Y-52649501D01*
X165247881Y-52649500D01*
X165247873Y-52649500D01*
X165247864Y-52649500D01*
X163652129Y-52649500D01*
X163652123Y-52649501D01*
X163592516Y-52655908D01*
X163457671Y-52706202D01*
X163457664Y-52706206D01*
X163342455Y-52792452D01*
X163342452Y-52792455D01*
X163256206Y-52907664D01*
X163256202Y-52907671D01*
X163205908Y-53042517D01*
X163200196Y-53095650D01*
X163199501Y-53102123D01*
X163199500Y-53102135D01*
X163199500Y-53787769D01*
X163179815Y-53854808D01*
X163163181Y-53875450D01*
X162325451Y-54713181D01*
X162264128Y-54746666D01*
X162237770Y-54749500D01*
X160706894Y-54749500D01*
X160639855Y-54729815D01*
X160594100Y-54677011D01*
X160584156Y-54607853D01*
X160613181Y-54544297D01*
X160632582Y-54526234D01*
X160657546Y-54507546D01*
X160743796Y-54392331D01*
X160794091Y-54257483D01*
X160800500Y-54197873D01*
X160800499Y-53102128D01*
X160794091Y-53042517D01*
X160784493Y-53016784D01*
X160743797Y-52907671D01*
X160743793Y-52907664D01*
X160657547Y-52792455D01*
X160657544Y-52792452D01*
X160542335Y-52706206D01*
X160542328Y-52706202D01*
X160407482Y-52655908D01*
X160407483Y-52655908D01*
X160347883Y-52649501D01*
X160347881Y-52649500D01*
X160347873Y-52649500D01*
X160347864Y-52649500D01*
X158752129Y-52649500D01*
X158752123Y-52649501D01*
X158692516Y-52655908D01*
X158557671Y-52706202D01*
X158557664Y-52706206D01*
X158442455Y-52792452D01*
X158442452Y-52792455D01*
X158356206Y-52907664D01*
X158356202Y-52907671D01*
X158305908Y-53042517D01*
X158300196Y-53095650D01*
X158299501Y-53102123D01*
X158299500Y-53102135D01*
X158299500Y-53315500D01*
X158279815Y-53382539D01*
X158227011Y-53428294D01*
X158175500Y-53439500D01*
X156974499Y-53439500D01*
X156907460Y-53419815D01*
X156861705Y-53367011D01*
X156850499Y-53315500D01*
X156850499Y-53292129D01*
X156850498Y-53292123D01*
X156850497Y-53292116D01*
X156844091Y-53232517D01*
X156827001Y-53186697D01*
X156793797Y-53097671D01*
X156793793Y-53097664D01*
X156707547Y-52982455D01*
X156707544Y-52982452D01*
X156592335Y-52896206D01*
X156592328Y-52896202D01*
X156457482Y-52845908D01*
X156457483Y-52845908D01*
X156397883Y-52839501D01*
X156397881Y-52839500D01*
X156397873Y-52839500D01*
X156397864Y-52839500D01*
X154602129Y-52839500D01*
X154602123Y-52839501D01*
X154542516Y-52845908D01*
X154407671Y-52896202D01*
X154407664Y-52896206D01*
X154292455Y-52982452D01*
X154292452Y-52982455D01*
X154206206Y-53097664D01*
X154206202Y-53097671D01*
X154155908Y-53232517D01*
X154149501Y-53292116D01*
X154149501Y-53292123D01*
X154149500Y-53292135D01*
X154149500Y-53315500D01*
X154129815Y-53382539D01*
X154077011Y-53428294D01*
X154025500Y-53439500D01*
X152724499Y-53439500D01*
X152657460Y-53419815D01*
X152611705Y-53367011D01*
X152600499Y-53315500D01*
X152600499Y-53312129D01*
X152600498Y-53312123D01*
X152600497Y-53312116D01*
X152594091Y-53252517D01*
X152589422Y-53240000D01*
X152543797Y-53117671D01*
X152543793Y-53117664D01*
X152457547Y-53002455D01*
X152457544Y-53002452D01*
X152342335Y-52916206D01*
X152342328Y-52916202D01*
X152207482Y-52865908D01*
X152207483Y-52865908D01*
X152147883Y-52859501D01*
X152147881Y-52859500D01*
X152147873Y-52859500D01*
X152147864Y-52859500D01*
X150352129Y-52859500D01*
X150352123Y-52859501D01*
X150292516Y-52865908D01*
X150157671Y-52916202D01*
X150157664Y-52916206D01*
X150042455Y-53002452D01*
X150042452Y-53002455D01*
X149956206Y-53117664D01*
X149956202Y-53117671D01*
X149905908Y-53252517D01*
X149899501Y-53312116D01*
X149899501Y-53312123D01*
X149899500Y-53312135D01*
X149899500Y-53502025D01*
X149879815Y-53569064D01*
X149844392Y-53605126D01*
X149811586Y-53627046D01*
X149811580Y-53627051D01*
X148776590Y-54662041D01*
X148715267Y-54695526D01*
X148645575Y-54690542D01*
X148601228Y-54662041D01*
X148439141Y-54499954D01*
X148252734Y-54369432D01*
X148252728Y-54369429D01*
X148194725Y-54342382D01*
X148142285Y-54296210D01*
X148123133Y-54229017D01*
X148143348Y-54162135D01*
X148194725Y-54117618D01*
X148252734Y-54090568D01*
X148439139Y-53960047D01*
X148600047Y-53799139D01*
X148730568Y-53612734D01*
X148826739Y-53406496D01*
X148885635Y-53186692D01*
X148900500Y-53016784D01*
X148900500Y-52903216D01*
X148885635Y-52733308D01*
X148826739Y-52513504D01*
X148730568Y-52307266D01*
X148600047Y-52120861D01*
X148600045Y-52120858D01*
X148439141Y-51959954D01*
X148252734Y-51829432D01*
X148252732Y-51829431D01*
X148046497Y-51733261D01*
X148046488Y-51733258D01*
X147826697Y-51674366D01*
X147826687Y-51674364D01*
X147656785Y-51659500D01*
X147656784Y-51659500D01*
X146102352Y-51659500D01*
X145897648Y-51659500D01*
X145897644Y-51659500D01*
X145845697Y-51667728D01*
X145845695Y-51667728D01*
X145841410Y-51668406D01*
X145773308Y-51674365D01*
X145729245Y-51686170D01*
X145722841Y-51687185D01*
X145722824Y-51687189D01*
X145695463Y-51691523D01*
X145695459Y-51691524D01*
X145633627Y-51711615D01*
X145627404Y-51713459D01*
X145553504Y-51733261D01*
X145553503Y-51733261D01*
X145529338Y-51744529D01*
X145529337Y-51744528D01*
X145522456Y-51747736D01*
X145500781Y-51754780D01*
X145429886Y-51790901D01*
X145427900Y-51791828D01*
X145427882Y-51791838D01*
X145347262Y-51829433D01*
X145335655Y-51837559D01*
X145335656Y-51837560D01*
X145328549Y-51842535D01*
X145318390Y-51847713D01*
X145244870Y-51901126D01*
X145243939Y-51901779D01*
X145160859Y-51959954D01*
X144999954Y-52120859D01*
X144941781Y-52203934D01*
X144941782Y-52203935D01*
X144941132Y-52204863D01*
X144887713Y-52278390D01*
X144882535Y-52288550D01*
X144877560Y-52295656D01*
X144877558Y-52295656D01*
X144869433Y-52307262D01*
X144831838Y-52387882D01*
X144830920Y-52389849D01*
X144794780Y-52460781D01*
X144787735Y-52482458D01*
X144784532Y-52489329D01*
X144784529Y-52489338D01*
X144773261Y-52513503D01*
X144773261Y-52513504D01*
X144753459Y-52587404D01*
X144753458Y-52587403D01*
X144752614Y-52590551D01*
X144731523Y-52655466D01*
X144726175Y-52689224D01*
X144724492Y-52695507D01*
X144724492Y-52695511D01*
X144714366Y-52733304D01*
X144714364Y-52733313D01*
X144708783Y-52797106D01*
X144707728Y-52805697D01*
X144699500Y-52857643D01*
X144699500Y-53062351D01*
X144707728Y-53114301D01*
X144707728Y-53114302D01*
X144708260Y-53117664D01*
X144708406Y-53118582D01*
X144714365Y-53186692D01*
X144726171Y-53230756D01*
X144727188Y-53237175D01*
X144727190Y-53237181D01*
X144731521Y-53264525D01*
X144731522Y-53264530D01*
X144731523Y-53264534D01*
X144740489Y-53292128D01*
X144751617Y-53326378D01*
X144753460Y-53332600D01*
X144773260Y-53406494D01*
X144784529Y-53430662D01*
X144785231Y-53432167D01*
X144787733Y-53437532D01*
X144794780Y-53459219D01*
X144830930Y-53530169D01*
X144831844Y-53532128D01*
X144869432Y-53612734D01*
X144877562Y-53624346D01*
X144882535Y-53631448D01*
X144887713Y-53641610D01*
X144941164Y-53715180D01*
X144941793Y-53716078D01*
X144999953Y-53799140D01*
X145160858Y-53960045D01*
X145160861Y-53960047D01*
X145244800Y-54018821D01*
X145318390Y-54072287D01*
X145328547Y-54077462D01*
X145335648Y-54082434D01*
X145335652Y-54082436D01*
X145347266Y-54090568D01*
X145347270Y-54090570D01*
X145405272Y-54117617D01*
X145415927Y-54126999D01*
X145429131Y-54132224D01*
X145441629Y-54149629D01*
X145457712Y-54163789D01*
X145461604Y-54177444D01*
X145469886Y-54188977D01*
X145470990Y-54210375D01*
X145476864Y-54230982D01*
X145472755Y-54244573D01*
X145473488Y-54258754D01*
X145462848Y-54277352D01*
X145456649Y-54297864D01*
X145445167Y-54308259D01*
X145438794Y-54319401D01*
X145414369Y-54336145D01*
X145410126Y-54339988D01*
X145407711Y-54341244D01*
X145347266Y-54369432D01*
X145329002Y-54382219D01*
X145321792Y-54385973D01*
X145321591Y-54386012D01*
X145320847Y-54386460D01*
X145318397Y-54387708D01*
X145318394Y-54387710D01*
X145245696Y-54440526D01*
X145243939Y-54441779D01*
X145160859Y-54499954D01*
X144999954Y-54660859D01*
X144941781Y-54743934D01*
X144941782Y-54743935D01*
X144941132Y-54744863D01*
X144887713Y-54818390D01*
X144882535Y-54828550D01*
X144877560Y-54835656D01*
X144877558Y-54835656D01*
X144869433Y-54847262D01*
X144831838Y-54927882D01*
X144830920Y-54929849D01*
X144794780Y-55000781D01*
X144787735Y-55022458D01*
X144784532Y-55029329D01*
X144784529Y-55029338D01*
X144773261Y-55053503D01*
X144773261Y-55053504D01*
X144753459Y-55127404D01*
X144753458Y-55127403D01*
X144752614Y-55130551D01*
X144731523Y-55195466D01*
X144726175Y-55229224D01*
X144724492Y-55235507D01*
X144724492Y-55235511D01*
X144714366Y-55273304D01*
X144714364Y-55273313D01*
X144708783Y-55337106D01*
X144707728Y-55345697D01*
X144699500Y-55397643D01*
X144699500Y-55397648D01*
X144699500Y-55602352D01*
X144708406Y-55658582D01*
X144714365Y-55726692D01*
X144726171Y-55770756D01*
X144727188Y-55777175D01*
X144727190Y-55777181D01*
X144731521Y-55804525D01*
X144731522Y-55804530D01*
X144731523Y-55804534D01*
X144747427Y-55853481D01*
X144751617Y-55866378D01*
X144753460Y-55872600D01*
X144773260Y-55946494D01*
X144784529Y-55970662D01*
X144787733Y-55977532D01*
X144794780Y-55999219D01*
X144830930Y-56070169D01*
X144831844Y-56072128D01*
X144869432Y-56152734D01*
X144877562Y-56164346D01*
X144882535Y-56171448D01*
X144887713Y-56181610D01*
X144941164Y-56255180D01*
X144941793Y-56256078D01*
X144999953Y-56339140D01*
X145160858Y-56500045D01*
X145227379Y-56546623D01*
X145271004Y-56601199D01*
X145278198Y-56670698D01*
X145246676Y-56733052D01*
X145186922Y-56768346D01*
X145166976Y-56773436D01*
X145166962Y-56773441D01*
X145110415Y-56796863D01*
X145870589Y-57557037D01*
X145807007Y-57574075D01*
X145692993Y-57639901D01*
X145599901Y-57732993D01*
X145534075Y-57847007D01*
X145500000Y-57974174D01*
X145500000Y-58105826D01*
X145534075Y-58232993D01*
X145599901Y-58347007D01*
X145692993Y-58440099D01*
X145807007Y-58505925D01*
X145870588Y-58522961D01*
X145110414Y-59283135D01*
X145166960Y-59306557D01*
X145166965Y-59306559D01*
X145195159Y-59316505D01*
X145251832Y-59357370D01*
X145277415Y-59422388D01*
X145263786Y-59490915D01*
X145225035Y-59535016D01*
X145160859Y-59579954D01*
X144999954Y-59740859D01*
X144941781Y-59823934D01*
X144941782Y-59823935D01*
X144941132Y-59824863D01*
X144887713Y-59898390D01*
X144882535Y-59908550D01*
X144877560Y-59915656D01*
X144877558Y-59915656D01*
X144869433Y-59927262D01*
X144831838Y-60007882D01*
X144830920Y-60009849D01*
X144794780Y-60080781D01*
X144787735Y-60102458D01*
X144784532Y-60109329D01*
X144784529Y-60109338D01*
X144773261Y-60133503D01*
X144773261Y-60133504D01*
X144753459Y-60207404D01*
X144753458Y-60207403D01*
X144752614Y-60210551D01*
X144731523Y-60275466D01*
X144726175Y-60309224D01*
X144724492Y-60315507D01*
X144724492Y-60315511D01*
X144714366Y-60353304D01*
X144714364Y-60353313D01*
X144708783Y-60417106D01*
X144707728Y-60425697D01*
X144699500Y-60477643D01*
X144699500Y-60477648D01*
X144699500Y-60682352D01*
X144708406Y-60738582D01*
X144714365Y-60806692D01*
X144726171Y-60850756D01*
X144727188Y-60857175D01*
X144727190Y-60857181D01*
X144731521Y-60884525D01*
X144731522Y-60884530D01*
X144751617Y-60946378D01*
X144753460Y-60952600D01*
X144773260Y-61026494D01*
X144784529Y-61050662D01*
X144787733Y-61057532D01*
X144794780Y-61079219D01*
X144830930Y-61150169D01*
X144831844Y-61152128D01*
X144869432Y-61232734D01*
X144877562Y-61244346D01*
X144882535Y-61251448D01*
X144887713Y-61261610D01*
X144941164Y-61335180D01*
X144941793Y-61336078D01*
X144999953Y-61419140D01*
X145160858Y-61580045D01*
X145160861Y-61580047D01*
X145244800Y-61638821D01*
X145318390Y-61692287D01*
X145328547Y-61697462D01*
X145335648Y-61702434D01*
X145335652Y-61702436D01*
X145347266Y-61710568D01*
X145347270Y-61710570D01*
X145405272Y-61737617D01*
X145415927Y-61746999D01*
X145429131Y-61752224D01*
X145441629Y-61769629D01*
X145457712Y-61783789D01*
X145461604Y-61797444D01*
X145469886Y-61808977D01*
X145470990Y-61830375D01*
X145476864Y-61850982D01*
X145472755Y-61864573D01*
X145473488Y-61878754D01*
X145462848Y-61897352D01*
X145456649Y-61917864D01*
X145445167Y-61928259D01*
X145438794Y-61939401D01*
X145414369Y-61956145D01*
X145410126Y-61959988D01*
X145407711Y-61961244D01*
X145347266Y-61989432D01*
X145329002Y-62002219D01*
X145321792Y-62005973D01*
X145321591Y-62006012D01*
X145320847Y-62006460D01*
X145318397Y-62007708D01*
X145318394Y-62007710D01*
X145245696Y-62060526D01*
X145243939Y-62061779D01*
X145160859Y-62119954D01*
X144999954Y-62280859D01*
X144941781Y-62363934D01*
X144941782Y-62363935D01*
X144941132Y-62364863D01*
X144887713Y-62438390D01*
X144882535Y-62448550D01*
X144877560Y-62455656D01*
X144877558Y-62455656D01*
X144869433Y-62467262D01*
X144831838Y-62547882D01*
X144830920Y-62549849D01*
X144794780Y-62620781D01*
X144787735Y-62642458D01*
X144784532Y-62649329D01*
X144784529Y-62649338D01*
X144773261Y-62673503D01*
X144773261Y-62673504D01*
X144753459Y-62747404D01*
X144753458Y-62747403D01*
X144752614Y-62750551D01*
X144731523Y-62815466D01*
X144726175Y-62849224D01*
X144724492Y-62855507D01*
X144724492Y-62855511D01*
X144714366Y-62893304D01*
X144714364Y-62893313D01*
X144708783Y-62957106D01*
X144707728Y-62965697D01*
X144699500Y-63017643D01*
X144699500Y-63017648D01*
X144699500Y-63222352D01*
X144708406Y-63278582D01*
X144714365Y-63346692D01*
X144726171Y-63390756D01*
X144727188Y-63397175D01*
X144727190Y-63397181D01*
X144731521Y-63424525D01*
X144731522Y-63424530D01*
X144751617Y-63486378D01*
X144753460Y-63492600D01*
X144773260Y-63566494D01*
X144784529Y-63590662D01*
X144787733Y-63597532D01*
X144794780Y-63619219D01*
X144830930Y-63690169D01*
X144831844Y-63692128D01*
X144869432Y-63772734D01*
X144877562Y-63784346D01*
X144882535Y-63791448D01*
X144887713Y-63801610D01*
X144941164Y-63875180D01*
X144941793Y-63876078D01*
X144999953Y-63959140D01*
X145160858Y-64120045D01*
X145160861Y-64120047D01*
X145244800Y-64178821D01*
X145318390Y-64232287D01*
X145328547Y-64237462D01*
X145335648Y-64242434D01*
X145335652Y-64242436D01*
X145347266Y-64250568D01*
X145347270Y-64250570D01*
X145405272Y-64277617D01*
X145415927Y-64286999D01*
X145429131Y-64292224D01*
X145441629Y-64309629D01*
X145457712Y-64323789D01*
X145461604Y-64337444D01*
X145469886Y-64348977D01*
X145470990Y-64370375D01*
X145476864Y-64390982D01*
X145472755Y-64404573D01*
X145473488Y-64418754D01*
X145462848Y-64437352D01*
X145456649Y-64457864D01*
X145445167Y-64468259D01*
X145438794Y-64479401D01*
X145414369Y-64496145D01*
X145410126Y-64499988D01*
X145407711Y-64501244D01*
X145347266Y-64529432D01*
X145329002Y-64542219D01*
X145321792Y-64545973D01*
X145321591Y-64546012D01*
X145320847Y-64546460D01*
X145318397Y-64547708D01*
X145318394Y-64547710D01*
X145245696Y-64600526D01*
X145243939Y-64601779D01*
X145160859Y-64659954D01*
X144999954Y-64820859D01*
X144941781Y-64903934D01*
X144941782Y-64903935D01*
X144941132Y-64904863D01*
X144887713Y-64978390D01*
X144882535Y-64988550D01*
X144877560Y-64995656D01*
X144877558Y-64995656D01*
X144869433Y-65007262D01*
X144831838Y-65087882D01*
X144830920Y-65089849D01*
X144794780Y-65160781D01*
X144787735Y-65182458D01*
X144784532Y-65189329D01*
X144784529Y-65189338D01*
X144773261Y-65213503D01*
X144773261Y-65213504D01*
X144753459Y-65287404D01*
X144753458Y-65287403D01*
X144752614Y-65290551D01*
X144731523Y-65355466D01*
X144726175Y-65389224D01*
X144724492Y-65395507D01*
X144724492Y-65395511D01*
X144714366Y-65433304D01*
X144714364Y-65433313D01*
X144708783Y-65497106D01*
X144707728Y-65505697D01*
X144699500Y-65557643D01*
X144699500Y-65557648D01*
X144699500Y-65762352D01*
X144708406Y-65818582D01*
X144714365Y-65886692D01*
X144726171Y-65930756D01*
X144727188Y-65937175D01*
X144727190Y-65937181D01*
X144731521Y-65964525D01*
X144731522Y-65964530D01*
X144731523Y-65964534D01*
X144749347Y-66019391D01*
X144751617Y-66026378D01*
X144753460Y-66032600D01*
X144773260Y-66106494D01*
X144784529Y-66130662D01*
X144787733Y-66137532D01*
X144794780Y-66159219D01*
X144830930Y-66230169D01*
X144831844Y-66232128D01*
X144869432Y-66312734D01*
X144877562Y-66324346D01*
X144882535Y-66331448D01*
X144887713Y-66341610D01*
X144941164Y-66415180D01*
X144941793Y-66416078D01*
X144999953Y-66499140D01*
X145160858Y-66660045D01*
X145243920Y-66718205D01*
X145244328Y-66718491D01*
X145244800Y-66718821D01*
X145318390Y-66772287D01*
X145328547Y-66777462D01*
X145335648Y-66782434D01*
X145335652Y-66782436D01*
X145347266Y-66790568D01*
X145347270Y-66790570D01*
X145405272Y-66817617D01*
X145415927Y-66826999D01*
X145429131Y-66832224D01*
X145441629Y-66849629D01*
X145457712Y-66863789D01*
X145461604Y-66877444D01*
X145469886Y-66888977D01*
X145470990Y-66910375D01*
X145476864Y-66930982D01*
X145472755Y-66944573D01*
X145473488Y-66958754D01*
X145462848Y-66977352D01*
X145456649Y-66997864D01*
X145445167Y-67008259D01*
X145438794Y-67019401D01*
X145414369Y-67036145D01*
X145410126Y-67039988D01*
X145407711Y-67041244D01*
X145347266Y-67069432D01*
X145329002Y-67082219D01*
X145321792Y-67085973D01*
X145321591Y-67086012D01*
X145320847Y-67086460D01*
X145318397Y-67087708D01*
X145318394Y-67087710D01*
X145245696Y-67140526D01*
X145243939Y-67141779D01*
X145160859Y-67199954D01*
X144999954Y-67360859D01*
X144941781Y-67443934D01*
X144941782Y-67443935D01*
X144941132Y-67444863D01*
X144887713Y-67518390D01*
X144882535Y-67528550D01*
X144877560Y-67535656D01*
X144877558Y-67535656D01*
X144869433Y-67547262D01*
X144831838Y-67627882D01*
X144830920Y-67629849D01*
X144794780Y-67700781D01*
X144787735Y-67722458D01*
X144784532Y-67729329D01*
X144784529Y-67729338D01*
X144773261Y-67753503D01*
X144773261Y-67753504D01*
X144753459Y-67827404D01*
X144753458Y-67827403D01*
X144752614Y-67830551D01*
X144731523Y-67895466D01*
X144726175Y-67929224D01*
X144724492Y-67935507D01*
X144724492Y-67935511D01*
X144714366Y-67973304D01*
X144714364Y-67973313D01*
X144708783Y-68037106D01*
X144707728Y-68045697D01*
X144699500Y-68097643D01*
X144699500Y-68097648D01*
X144699500Y-68302352D01*
X144708406Y-68358582D01*
X144714365Y-68426692D01*
X144726171Y-68470756D01*
X144727188Y-68477175D01*
X144727190Y-68477181D01*
X144731521Y-68504525D01*
X144731522Y-68504530D01*
X144751617Y-68566378D01*
X144753460Y-68572600D01*
X144773260Y-68646494D01*
X144784529Y-68670662D01*
X144787733Y-68677532D01*
X144794780Y-68699219D01*
X144830930Y-68770169D01*
X144831844Y-68772128D01*
X144869432Y-68852734D01*
X144877562Y-68864346D01*
X144882535Y-68871448D01*
X144887713Y-68881610D01*
X144941164Y-68955180D01*
X144941793Y-68956078D01*
X144999953Y-69039140D01*
X145160857Y-69200044D01*
X145160860Y-69200046D01*
X145160861Y-69200047D01*
X145226843Y-69246248D01*
X145270469Y-69300824D01*
X145277663Y-69370322D01*
X145246141Y-69432677D01*
X145186391Y-69467970D01*
X145166780Y-69472975D01*
X145166766Y-69472980D01*
X145093280Y-69503419D01*
X145093252Y-69503431D01*
X145044451Y-69526779D01*
X145044446Y-69526782D01*
X144929268Y-69613005D01*
X144929256Y-69613015D01*
X144873019Y-69669252D01*
X144836843Y-69709524D01*
X144836837Y-69709532D01*
X144763426Y-69833263D01*
X144732978Y-69906774D01*
X144732970Y-69906795D01*
X144714976Y-69957800D01*
X144694500Y-70100219D01*
X129525000Y-70100219D01*
X129524999Y-70100204D01*
X129522106Y-70046237D01*
X129522106Y-70046235D01*
X129486561Y-69906969D01*
X129486559Y-69906962D01*
X129463135Y-69850414D01*
X128823551Y-70489999D01*
X128653011Y-70489999D01*
X128620099Y-70432993D01*
X128527007Y-70339901D01*
X128412993Y-70274075D01*
X128349410Y-70257037D01*
X129109584Y-69496862D01*
X129053059Y-69473449D01*
X129053048Y-69473445D01*
X129024833Y-69463491D01*
X128968162Y-69422624D01*
X128942581Y-69357605D01*
X128956213Y-69289078D01*
X128994963Y-69244982D01*
X129059139Y-69200047D01*
X129220047Y-69039139D01*
X129278821Y-68955199D01*
X129332287Y-68881610D01*
X129337465Y-68871446D01*
X129350568Y-68852734D01*
X129389067Y-68770172D01*
X129425220Y-68699219D01*
X129432266Y-68677532D01*
X129446739Y-68646496D01*
X129467377Y-68569471D01*
X129488477Y-68504534D01*
X129493825Y-68470766D01*
X129505635Y-68426692D01*
X129511215Y-68362892D01*
X129512270Y-68354306D01*
X129520500Y-68302350D01*
X129520500Y-68097649D01*
X129512270Y-68045691D01*
X129512270Y-68045690D01*
X129511592Y-68041414D01*
X129505635Y-67973308D01*
X129493825Y-67929233D01*
X129488477Y-67895466D01*
X129468378Y-67833609D01*
X129466535Y-67827386D01*
X129446742Y-67753513D01*
X129446740Y-67753510D01*
X129446739Y-67753504D01*
X129432266Y-67722467D01*
X129425220Y-67700781D01*
X129389067Y-67629827D01*
X129350568Y-67547266D01*
X129342436Y-67535652D01*
X129342436Y-67535651D01*
X129337462Y-67528548D01*
X129332287Y-67518390D01*
X129278821Y-67444800D01*
X129278215Y-67443935D01*
X129278205Y-67443920D01*
X129220045Y-67360858D01*
X129059140Y-67199953D01*
X128976078Y-67141793D01*
X128975180Y-67141164D01*
X128901610Y-67087713D01*
X128891448Y-67082535D01*
X128884346Y-67077562D01*
X128872736Y-67069433D01*
X128872727Y-67069429D01*
X128814723Y-67042380D01*
X128804066Y-67032996D01*
X128790866Y-67027773D01*
X128778368Y-67010369D01*
X128762285Y-66996208D01*
X128758393Y-66982552D01*
X128750112Y-66971021D01*
X128749007Y-66949621D01*
X128743134Y-66929014D01*
X128747241Y-66915423D01*
X128746510Y-66901244D01*
X128757149Y-66882644D01*
X128763350Y-66862133D01*
X128774830Y-66851737D01*
X128781204Y-66840597D01*
X128805623Y-66823856D01*
X128809872Y-66820010D01*
X128812252Y-66818770D01*
X128872734Y-66790568D01*
X128891002Y-66777775D01*
X128898207Y-66774025D01*
X128898416Y-66773983D01*
X128899180Y-66773524D01*
X128901610Y-66772287D01*
X128974358Y-66719432D01*
X128976047Y-66718227D01*
X129059139Y-66660047D01*
X129220047Y-66499139D01*
X129278821Y-66415199D01*
X129332287Y-66341610D01*
X129337465Y-66331446D01*
X129350568Y-66312734D01*
X129389067Y-66230172D01*
X129425220Y-66159219D01*
X129432266Y-66137532D01*
X129446739Y-66106496D01*
X129446742Y-66106488D01*
X129466534Y-66032617D01*
X129467377Y-66029471D01*
X129488477Y-65964534D01*
X129493825Y-65930766D01*
X129505635Y-65886692D01*
X129511215Y-65822892D01*
X129512270Y-65814306D01*
X129520500Y-65762350D01*
X129520500Y-65557649D01*
X129512270Y-65505691D01*
X129512270Y-65505690D01*
X129511592Y-65501414D01*
X129505635Y-65433308D01*
X129493825Y-65389233D01*
X129488477Y-65355466D01*
X129468378Y-65293609D01*
X129466535Y-65287386D01*
X129446742Y-65213513D01*
X129446740Y-65213510D01*
X129446739Y-65213504D01*
X129432266Y-65182467D01*
X129425220Y-65160781D01*
X129389067Y-65089827D01*
X129350568Y-65007266D01*
X129342436Y-64995652D01*
X129342436Y-64995651D01*
X129337462Y-64988548D01*
X129332287Y-64978390D01*
X129278821Y-64904800D01*
X129278215Y-64903935D01*
X129278205Y-64903920D01*
X129220045Y-64820858D01*
X129059140Y-64659953D01*
X128976078Y-64601793D01*
X128975180Y-64601164D01*
X128901610Y-64547713D01*
X128891448Y-64542535D01*
X128884346Y-64537562D01*
X128872736Y-64529433D01*
X128872727Y-64529429D01*
X128814723Y-64502380D01*
X128804066Y-64492996D01*
X128790866Y-64487773D01*
X128778368Y-64470369D01*
X128762285Y-64456208D01*
X128758393Y-64442552D01*
X128750112Y-64431021D01*
X128749007Y-64409621D01*
X128743134Y-64389014D01*
X128747241Y-64375423D01*
X128746510Y-64361244D01*
X128757149Y-64342644D01*
X128763350Y-64322133D01*
X128774830Y-64311737D01*
X128781204Y-64300597D01*
X128805623Y-64283856D01*
X128809872Y-64280010D01*
X128812252Y-64278770D01*
X128872734Y-64250568D01*
X128891002Y-64237775D01*
X128898207Y-64234025D01*
X128898416Y-64233983D01*
X128899180Y-64233524D01*
X128901610Y-64232287D01*
X128974358Y-64179432D01*
X128976047Y-64178227D01*
X129059139Y-64120047D01*
X129220047Y-63959139D01*
X129278821Y-63875199D01*
X129332287Y-63801610D01*
X129337465Y-63791446D01*
X129350568Y-63772734D01*
X129389067Y-63690172D01*
X129425220Y-63619219D01*
X129432266Y-63597532D01*
X129446739Y-63566496D01*
X129446742Y-63566488D01*
X129466534Y-63492617D01*
X129467377Y-63489471D01*
X129488477Y-63424534D01*
X129493825Y-63390766D01*
X129505635Y-63346692D01*
X129511215Y-63282892D01*
X129512270Y-63274306D01*
X129520500Y-63222350D01*
X129520500Y-63017649D01*
X129512270Y-62965691D01*
X129512270Y-62965690D01*
X129511592Y-62961414D01*
X129505635Y-62893308D01*
X129493825Y-62849233D01*
X129488477Y-62815466D01*
X129468378Y-62753609D01*
X129466535Y-62747386D01*
X129446742Y-62673513D01*
X129446740Y-62673510D01*
X129446739Y-62673504D01*
X129432266Y-62642467D01*
X129425220Y-62620781D01*
X129389067Y-62549827D01*
X129350568Y-62467266D01*
X129342436Y-62455652D01*
X129342436Y-62455651D01*
X129337462Y-62448548D01*
X129332287Y-62438390D01*
X129278821Y-62364800D01*
X129278215Y-62363935D01*
X129278205Y-62363920D01*
X129220045Y-62280858D01*
X129059140Y-62119953D01*
X128976078Y-62061793D01*
X128975180Y-62061164D01*
X128901610Y-62007713D01*
X128891448Y-62002535D01*
X128884346Y-61997562D01*
X128872736Y-61989433D01*
X128872727Y-61989429D01*
X128814723Y-61962380D01*
X128804066Y-61952996D01*
X128790866Y-61947773D01*
X128778368Y-61930369D01*
X128762285Y-61916208D01*
X128758393Y-61902552D01*
X128750112Y-61891021D01*
X128749007Y-61869621D01*
X128743134Y-61849014D01*
X128747241Y-61835423D01*
X128746510Y-61821244D01*
X128757149Y-61802644D01*
X128763350Y-61782133D01*
X128774830Y-61771737D01*
X128781204Y-61760597D01*
X128805623Y-61743856D01*
X128809872Y-61740010D01*
X128812252Y-61738770D01*
X128872734Y-61710568D01*
X128891002Y-61697775D01*
X128898207Y-61694025D01*
X128898416Y-61693983D01*
X128899180Y-61693524D01*
X128901610Y-61692287D01*
X128974358Y-61639432D01*
X128976047Y-61638227D01*
X129059139Y-61580047D01*
X129220047Y-61419139D01*
X129278821Y-61335199D01*
X129332287Y-61261610D01*
X129337465Y-61251446D01*
X129350568Y-61232734D01*
X129389067Y-61150172D01*
X129425220Y-61079219D01*
X129432266Y-61057532D01*
X129446739Y-61026496D01*
X129446742Y-61026488D01*
X129466534Y-60952617D01*
X129467377Y-60949471D01*
X129488477Y-60884534D01*
X129493825Y-60850766D01*
X129505635Y-60806692D01*
X129511215Y-60742892D01*
X129512270Y-60734306D01*
X129518540Y-60694728D01*
X129520500Y-60682352D01*
X129520500Y-60477648D01*
X129511593Y-60421417D01*
X129505635Y-60353308D01*
X129493825Y-60309233D01*
X129488477Y-60275466D01*
X129468378Y-60213609D01*
X129466535Y-60207386D01*
X129446742Y-60133513D01*
X129446740Y-60133510D01*
X129446739Y-60133504D01*
X129432266Y-60102467D01*
X129425220Y-60080781D01*
X129389067Y-60009827D01*
X129350568Y-59927266D01*
X129342436Y-59915652D01*
X129342436Y-59915651D01*
X129337462Y-59908548D01*
X129332287Y-59898390D01*
X129278821Y-59824800D01*
X129278215Y-59823935D01*
X129278205Y-59823920D01*
X129220045Y-59740858D01*
X129059143Y-59579956D01*
X129044634Y-59569797D01*
X128992620Y-59533376D01*
X128948996Y-59478799D01*
X128941803Y-59409300D01*
X128973325Y-59346946D01*
X129033082Y-59311652D01*
X129053040Y-59306558D01*
X129109584Y-59283136D01*
X129109584Y-59283135D01*
X129052107Y-59225658D01*
X128966448Y-59139999D01*
X133660000Y-59139999D01*
X133660000Y-66540000D01*
X133662138Y-66605541D01*
X133662138Y-66605544D01*
X133662139Y-66605545D01*
X133696068Y-66732167D01*
X133761612Y-66845694D01*
X133854306Y-66938388D01*
X133967833Y-67003932D01*
X134094455Y-67037861D01*
X134160000Y-67040000D01*
X135060000Y-67040000D01*
X135125545Y-67037861D01*
X135252167Y-67003932D01*
X135365694Y-66938388D01*
X135458388Y-66845694D01*
X135523932Y-66732167D01*
X135557861Y-66605545D01*
X135560000Y-66540000D01*
X135560000Y-62840000D01*
X135560000Y-59140000D01*
X135557861Y-59074455D01*
X135523933Y-58947833D01*
X135458388Y-58834306D01*
X135365694Y-58741612D01*
X135258607Y-58679785D01*
X144695000Y-58679785D01*
X144697893Y-58733762D01*
X144697893Y-58733764D01*
X144733438Y-58873030D01*
X144733442Y-58873043D01*
X144756862Y-58929584D01*
X145396448Y-58290000D01*
X144695000Y-58290000D01*
X144695000Y-58679785D01*
X135258607Y-58679785D01*
X135252167Y-58676067D01*
X135125545Y-58642139D01*
X135060000Y-58640000D01*
X134160000Y-58640000D01*
X134094455Y-58642139D01*
X133967833Y-58676067D01*
X133967831Y-58676067D01*
X133967831Y-58676068D01*
X133854306Y-58741612D01*
X133854303Y-58741614D01*
X133761614Y-58834303D01*
X133761612Y-58834306D01*
X133699046Y-58942674D01*
X133696067Y-58947833D01*
X133682525Y-58998373D01*
X133662139Y-59074455D01*
X133660000Y-59139999D01*
X128966448Y-59139999D01*
X128349410Y-58522962D01*
X128412993Y-58505925D01*
X128527007Y-58440099D01*
X128620099Y-58347007D01*
X128653012Y-58290000D01*
X128823551Y-58290000D01*
X129463135Y-58929584D01*
X129463136Y-58929584D01*
X129486552Y-58873053D01*
X129504544Y-58822053D01*
X129524999Y-58679780D01*
X129525000Y-58679779D01*
X129525000Y-58290000D01*
X128823551Y-58290000D01*
X128653012Y-58290000D01*
X128685925Y-58232993D01*
X128720000Y-58105826D01*
X128720000Y-57974174D01*
X128685925Y-57847007D01*
X128653011Y-57789999D01*
X128823551Y-57789999D01*
X128823552Y-57790000D01*
X129525000Y-57790000D01*
X129525000Y-57400219D01*
X144695000Y-57400219D01*
X144695000Y-57790000D01*
X145396448Y-57790000D01*
X145396448Y-57789999D01*
X144756863Y-57150414D01*
X144756862Y-57150415D01*
X144733446Y-57206947D01*
X144733431Y-57206987D01*
X144715457Y-57257939D01*
X144715455Y-57257946D01*
X144695000Y-57400219D01*
X129525000Y-57400219D01*
X129525000Y-57400214D01*
X129522106Y-57346237D01*
X129522106Y-57346235D01*
X129486561Y-57206969D01*
X129486559Y-57206962D01*
X129463135Y-57150414D01*
X128823551Y-57789999D01*
X128653011Y-57789999D01*
X128620099Y-57732993D01*
X128527007Y-57639901D01*
X128412993Y-57574075D01*
X128349410Y-57557037D01*
X129109584Y-56796862D01*
X129053059Y-56773449D01*
X129053048Y-56773445D01*
X129024833Y-56763491D01*
X128968162Y-56722624D01*
X128942581Y-56657605D01*
X128956213Y-56589078D01*
X128994963Y-56544982D01*
X129059139Y-56500047D01*
X129220047Y-56339139D01*
X129278821Y-56255199D01*
X129332287Y-56181610D01*
X129337465Y-56171446D01*
X129350568Y-56152734D01*
X129389067Y-56070172D01*
X129410817Y-56027486D01*
X133509500Y-56027486D01*
X133509500Y-56212514D01*
X133516403Y-56256095D01*
X133538445Y-56395265D01*
X133595619Y-56571232D01*
X133595620Y-56571235D01*
X133661722Y-56700966D01*
X133679622Y-56736096D01*
X133788379Y-56885787D01*
X133919213Y-57016621D01*
X134068904Y-57125378D01*
X134118040Y-57150414D01*
X134233764Y-57209379D01*
X134233767Y-57209380D01*
X134321750Y-57237967D01*
X134409736Y-57266555D01*
X134592486Y-57295500D01*
X134592487Y-57295500D01*
X134777513Y-57295500D01*
X134777514Y-57295500D01*
X134960264Y-57266555D01*
X135136235Y-57209379D01*
X135301096Y-57125378D01*
X135450787Y-57016621D01*
X135581621Y-56885787D01*
X135690378Y-56736096D01*
X135774379Y-56571235D01*
X135831555Y-56395264D01*
X135860500Y-56212514D01*
X135860500Y-56027486D01*
X135831555Y-55844736D01*
X135802942Y-55756673D01*
X135776826Y-55676295D01*
X135774380Y-55668767D01*
X135774379Y-55668764D01*
X135759722Y-55639999D01*
X136160000Y-55639999D01*
X136160000Y-56540000D01*
X136162138Y-56605541D01*
X136162138Y-56605544D01*
X136162139Y-56605545D01*
X136196068Y-56732167D01*
X136261612Y-56845694D01*
X136354306Y-56938388D01*
X136467833Y-57003932D01*
X136594455Y-57037861D01*
X136660000Y-57040000D01*
X137560000Y-57040000D01*
X137625545Y-57037861D01*
X137752167Y-57003933D01*
X137865694Y-56938388D01*
X137958388Y-56845694D01*
X138023933Y-56732167D01*
X138057861Y-56605545D01*
X138060000Y-56540000D01*
X138060000Y-56027486D01*
X138359500Y-56027486D01*
X138359500Y-56212514D01*
X138366403Y-56256095D01*
X138388445Y-56395265D01*
X138445619Y-56571232D01*
X138445620Y-56571235D01*
X138511722Y-56700966D01*
X138529622Y-56736096D01*
X138638379Y-56885787D01*
X138769213Y-57016621D01*
X138918904Y-57125378D01*
X138968040Y-57150414D01*
X139083764Y-57209379D01*
X139083767Y-57209380D01*
X139171750Y-57237967D01*
X139259736Y-57266555D01*
X139442486Y-57295500D01*
X139442487Y-57295500D01*
X139627513Y-57295500D01*
X139627514Y-57295500D01*
X139700660Y-57283914D01*
X139767578Y-57273316D01*
X139773847Y-57272322D01*
X139810264Y-57266555D01*
X139986235Y-57209379D01*
X140151096Y-57125378D01*
X140300787Y-57016621D01*
X140431621Y-56885787D01*
X140540378Y-56736096D01*
X140624379Y-56571235D01*
X140681555Y-56395264D01*
X140710500Y-56212514D01*
X140710500Y-56027486D01*
X140681555Y-55844736D01*
X140652942Y-55756673D01*
X140624380Y-55668767D01*
X140624379Y-55668764D01*
X140576326Y-55574455D01*
X140540378Y-55503904D01*
X140431621Y-55354213D01*
X140300787Y-55223379D01*
X140151096Y-55114622D01*
X140137870Y-55107883D01*
X139986235Y-55030620D01*
X139986232Y-55030619D01*
X139810265Y-54973445D01*
X139718889Y-54958972D01*
X139627514Y-54944500D01*
X139442486Y-54944500D01*
X139381569Y-54954148D01*
X139259734Y-54973445D01*
X139083767Y-55030619D01*
X139083764Y-55030620D01*
X138918903Y-55114622D01*
X138846147Y-55167483D01*
X138769213Y-55223379D01*
X138769211Y-55223381D01*
X138769210Y-55223381D01*
X138638381Y-55354210D01*
X138638381Y-55354211D01*
X138638379Y-55354213D01*
X138606897Y-55397544D01*
X138529622Y-55503903D01*
X138445620Y-55668764D01*
X138445619Y-55668767D01*
X138388445Y-55844734D01*
X138367412Y-55977532D01*
X138359500Y-56027486D01*
X138060000Y-56027486D01*
X138060000Y-55640000D01*
X138057861Y-55574455D01*
X138023933Y-55447833D01*
X137958388Y-55334306D01*
X137865694Y-55241612D01*
X137752167Y-55176067D01*
X137625545Y-55142139D01*
X137560000Y-55140000D01*
X137110000Y-55140000D01*
X136660000Y-55140000D01*
X136594458Y-55142138D01*
X136467832Y-55176068D01*
X136354307Y-55241611D01*
X136354304Y-55241613D01*
X136261613Y-55334304D01*
X136261611Y-55334307D01*
X136196068Y-55447832D01*
X136162138Y-55574458D01*
X136160000Y-55639999D01*
X135759722Y-55639999D01*
X135726326Y-55574455D01*
X135690378Y-55503904D01*
X135581621Y-55354213D01*
X135450787Y-55223379D01*
X135301096Y-55114622D01*
X135287870Y-55107883D01*
X135136235Y-55030620D01*
X135136232Y-55030619D01*
X134960265Y-54973445D01*
X134868889Y-54958972D01*
X134777514Y-54944500D01*
X134592486Y-54944500D01*
X134531569Y-54954148D01*
X134409734Y-54973445D01*
X134233767Y-55030619D01*
X134233764Y-55030620D01*
X134068903Y-55114622D01*
X133996147Y-55167483D01*
X133919213Y-55223379D01*
X133919211Y-55223381D01*
X133919210Y-55223381D01*
X133788381Y-55354210D01*
X133788381Y-55354211D01*
X133788379Y-55354213D01*
X133756897Y-55397544D01*
X133679622Y-55503903D01*
X133595620Y-55668764D01*
X133595619Y-55668767D01*
X133538445Y-55844734D01*
X133517412Y-55977532D01*
X133509500Y-56027486D01*
X129410817Y-56027486D01*
X129425220Y-55999219D01*
X129432266Y-55977532D01*
X129435646Y-55970283D01*
X129435664Y-55970262D01*
X129435679Y-55970212D01*
X129446739Y-55946496D01*
X129467377Y-55869471D01*
X129488477Y-55804534D01*
X129493825Y-55770766D01*
X129505635Y-55726692D01*
X129511215Y-55662892D01*
X129512270Y-55654306D01*
X129514537Y-55639999D01*
X129520500Y-55602352D01*
X129520500Y-55397648D01*
X129511593Y-55341417D01*
X129505635Y-55273308D01*
X129493825Y-55229233D01*
X129488477Y-55195466D01*
X129468378Y-55133609D01*
X129466535Y-55127386D01*
X129446742Y-55053513D01*
X129446740Y-55053510D01*
X129446739Y-55053504D01*
X129432266Y-55022467D01*
X129425220Y-55000781D01*
X129389067Y-54929827D01*
X129350568Y-54847266D01*
X129342436Y-54835652D01*
X129342436Y-54835651D01*
X129337462Y-54828548D01*
X129332287Y-54818390D01*
X129278821Y-54744800D01*
X129278215Y-54743935D01*
X129278205Y-54743920D01*
X129220045Y-54660858D01*
X129059142Y-54499955D01*
X129050297Y-54493762D01*
X128988515Y-54450502D01*
X128944891Y-54395927D01*
X128937697Y-54326429D01*
X128969219Y-54264074D01*
X129022747Y-54230543D01*
X129109606Y-54203478D01*
X129255185Y-54115472D01*
X129375472Y-53995185D01*
X129463478Y-53849606D01*
X129514086Y-53687196D01*
X129520500Y-53616616D01*
X129520500Y-53095650D01*
X129520613Y-53090347D01*
X129520759Y-53086922D01*
X129525500Y-53038793D01*
X129525500Y-52983713D01*
X133034500Y-52983713D01*
X133034500Y-53196286D01*
X133063999Y-53382539D01*
X133067754Y-53406243D01*
X133132375Y-53605126D01*
X133133444Y-53608414D01*
X133229951Y-53797820D01*
X133354890Y-53969786D01*
X133505213Y-54120109D01*
X133677179Y-54245048D01*
X133677181Y-54245049D01*
X133677184Y-54245051D01*
X133866588Y-54341557D01*
X134068757Y-54407246D01*
X134278713Y-54440500D01*
X134278714Y-54440500D01*
X134491286Y-54440500D01*
X134491287Y-54440500D01*
X134701243Y-54407246D01*
X134903412Y-54341557D01*
X135092816Y-54245051D01*
X135157738Y-54197883D01*
X135264786Y-54120109D01*
X135264788Y-54120106D01*
X135264792Y-54120104D01*
X135415104Y-53969792D01*
X135540051Y-53797816D01*
X135540053Y-53797811D01*
X135542914Y-53793874D01*
X135544013Y-53794672D01*
X135591241Y-53751928D01*
X135649225Y-53739648D01*
X135660000Y-53740000D01*
X135660004Y-53740000D01*
X136560000Y-53740000D01*
X136625545Y-53737861D01*
X136752167Y-53703933D01*
X136865694Y-53638388D01*
X136958388Y-53545694D01*
X136998283Y-53476594D01*
X137048850Y-53428378D01*
X137117457Y-53415155D01*
X137182322Y-53441124D01*
X137213057Y-53476594D01*
X137261609Y-53560690D01*
X137261611Y-53560693D01*
X137261612Y-53560694D01*
X137354306Y-53653388D01*
X137467833Y-53718932D01*
X137594455Y-53752861D01*
X137660000Y-53755000D01*
X138559997Y-53755000D01*
X138560000Y-53755000D01*
X138581066Y-53754312D01*
X138648711Y-53771798D01*
X138685430Y-53805361D01*
X138804890Y-53969786D01*
X138955213Y-54120109D01*
X139127179Y-54245048D01*
X139127181Y-54245049D01*
X139127184Y-54245051D01*
X139316588Y-54341557D01*
X139518757Y-54407246D01*
X139728713Y-54440500D01*
X139728714Y-54440500D01*
X139941286Y-54440500D01*
X139941287Y-54440500D01*
X140151243Y-54407246D01*
X140353412Y-54341557D01*
X140542816Y-54245051D01*
X140607738Y-54197883D01*
X140714786Y-54120109D01*
X140714788Y-54120106D01*
X140714792Y-54120104D01*
X140865104Y-53969792D01*
X140865106Y-53969788D01*
X140865109Y-53969786D01*
X140990048Y-53797820D01*
X140990047Y-53797820D01*
X140990051Y-53797816D01*
X141086557Y-53608412D01*
X141152246Y-53406243D01*
X141185500Y-53196287D01*
X141185500Y-52983713D01*
X141152246Y-52773757D01*
X141086557Y-52571588D01*
X140990051Y-52382184D01*
X140990049Y-52382181D01*
X140990048Y-52382179D01*
X140865109Y-52210213D01*
X140714786Y-52059890D01*
X140542820Y-51934951D01*
X140353414Y-51838444D01*
X140353413Y-51838443D01*
X140353412Y-51838443D01*
X140151243Y-51772754D01*
X140151241Y-51772753D01*
X140151240Y-51772753D01*
X139987257Y-51746781D01*
X139941287Y-51739500D01*
X139728713Y-51739500D01*
X139682743Y-51746781D01*
X139518760Y-51772753D01*
X139316585Y-51838444D01*
X139127181Y-51934950D01*
X139048861Y-51991852D01*
X138983054Y-52015331D01*
X138915000Y-51999504D01*
X138888296Y-51979214D01*
X138865696Y-51956614D01*
X138865694Y-51956612D01*
X138752167Y-51891067D01*
X138625545Y-51857139D01*
X138560000Y-51855000D01*
X138110000Y-51855000D01*
X137660000Y-51855000D01*
X137594458Y-51857138D01*
X137467832Y-51891068D01*
X137354307Y-51956611D01*
X137354304Y-51956613D01*
X137261613Y-52049304D01*
X137261609Y-52049309D01*
X137221717Y-52118405D01*
X137171150Y-52166621D01*
X137102543Y-52179843D01*
X137037678Y-52153875D01*
X137006943Y-52118405D01*
X136970415Y-52055138D01*
X136958388Y-52034306D01*
X136865694Y-51941612D01*
X136752167Y-51876067D01*
X136625545Y-51842139D01*
X136560000Y-51840000D01*
X136110000Y-51840000D01*
X135660000Y-51840000D01*
X135594458Y-51842138D01*
X135467832Y-51876068D01*
X135354307Y-51941611D01*
X135354304Y-51941613D01*
X135323014Y-51972903D01*
X135261690Y-52006388D01*
X135191999Y-52001402D01*
X135162449Y-51985540D01*
X135092815Y-51934948D01*
X134903414Y-51838444D01*
X134903413Y-51838443D01*
X134903412Y-51838443D01*
X134701243Y-51772754D01*
X134701241Y-51772753D01*
X134701240Y-51772753D01*
X134537257Y-51746781D01*
X134491287Y-51739500D01*
X134278713Y-51739500D01*
X134232743Y-51746781D01*
X134068760Y-51772753D01*
X133866585Y-51838444D01*
X133677179Y-51934951D01*
X133505213Y-52059890D01*
X133354890Y-52210213D01*
X133229951Y-52382179D01*
X133133444Y-52571585D01*
X133067753Y-52773760D01*
X133034500Y-52983713D01*
X129525500Y-52983713D01*
X129525500Y-52881207D01*
X129522955Y-52855369D01*
X129521097Y-52836501D01*
X129520500Y-52824348D01*
X129520500Y-52303386D01*
X129519152Y-52288553D01*
X129514086Y-52232804D01*
X129463478Y-52070394D01*
X129375472Y-51924815D01*
X129375470Y-51924813D01*
X129375469Y-51924811D01*
X129255188Y-51804530D01*
X129234176Y-51791828D01*
X129109606Y-51716522D01*
X128947196Y-51665914D01*
X128947194Y-51665913D01*
X128947192Y-51665913D01*
X128897778Y-51661423D01*
X128876616Y-51659500D01*
X128876613Y-51659500D01*
X128355650Y-51659500D01*
X128343497Y-51658903D01*
X128298793Y-51654500D01*
X125980218Y-51654500D01*
X125980216Y-51654500D01*
X125926185Y-51657395D01*
X125926181Y-51657396D01*
X125786778Y-51692976D01*
X125786766Y-51692980D01*
X125713280Y-51723419D01*
X125713252Y-51723431D01*
X125678016Y-51740290D01*
X125609046Y-51751466D01*
X125544983Y-51723580D01*
X125506165Y-51665486D01*
X125500500Y-51628433D01*
X125500500Y-51374500D01*
X125520185Y-51307461D01*
X125572989Y-51261706D01*
X125624500Y-51250500D01*
X168125500Y-51250500D01*
X168192539Y-51270185D01*
G37*
%TD.AperFunction*%
%TA.AperFunction,Conductor*%
G36*
X129464310Y-95909685D02*
G01*
X129484952Y-95926319D01*
X129973681Y-96415048D01*
X130007166Y-96476371D01*
X130010000Y-96502729D01*
X130010000Y-97829343D01*
X129990315Y-97896382D01*
X129937511Y-97942137D01*
X129868353Y-97952081D01*
X129861809Y-97950960D01*
X129753922Y-97929500D01*
X129753918Y-97929500D01*
X129346663Y-97929500D01*
X129279624Y-97909815D01*
X129245088Y-97876623D01*
X129220045Y-97840858D01*
X129059143Y-97679956D01*
X129044634Y-97669797D01*
X128992620Y-97633376D01*
X128948996Y-97578799D01*
X128941803Y-97509300D01*
X128973325Y-97446946D01*
X129033082Y-97411652D01*
X129053040Y-97406558D01*
X129109584Y-97383136D01*
X129109584Y-97383135D01*
X128349410Y-96622962D01*
X128412993Y-96605925D01*
X128527007Y-96540099D01*
X128620099Y-96447007D01*
X128653012Y-96390000D01*
X128823551Y-96390000D01*
X129463135Y-97029584D01*
X129463136Y-97029584D01*
X129486552Y-96973053D01*
X129504544Y-96922053D01*
X129524999Y-96779780D01*
X129525000Y-96779779D01*
X129525000Y-96390000D01*
X128823551Y-96390000D01*
X128653012Y-96390000D01*
X128685925Y-96332993D01*
X128720000Y-96205826D01*
X128720000Y-96074174D01*
X128685925Y-95947007D01*
X128653012Y-95890000D01*
X129397271Y-95890000D01*
X129464310Y-95909685D01*
G37*
%TD.AperFunction*%
%TA.AperFunction,Conductor*%
G36*
X127754075Y-95947007D02*
G01*
X127720000Y-96074174D01*
X127720000Y-96205826D01*
X127754075Y-96332993D01*
X127786988Y-96390000D01*
X127544000Y-96390000D01*
X127476961Y-96370315D01*
X127431206Y-96317511D01*
X127420000Y-96266000D01*
X127420000Y-96014000D01*
X127439685Y-95946961D01*
X127492489Y-95901206D01*
X127544000Y-95890000D01*
X127786988Y-95890000D01*
X127754075Y-95947007D01*
G37*
%TD.AperFunction*%
%TA.AperFunction,Conductor*%
G36*
X127754075Y-83247007D02*
G01*
X127720000Y-83374174D01*
X127720000Y-83505826D01*
X127754075Y-83632993D01*
X127786988Y-83690000D01*
X127544000Y-83690000D01*
X127476961Y-83670315D01*
X127431206Y-83617511D01*
X127420000Y-83566000D01*
X127420000Y-83314000D01*
X127439685Y-83246961D01*
X127492489Y-83201206D01*
X127544000Y-83190000D01*
X127786988Y-83190000D01*
X127754075Y-83247007D01*
G37*
%TD.AperFunction*%
%TA.AperFunction,Conductor*%
G36*
X127754075Y-70547007D02*
G01*
X127720000Y-70674174D01*
X127720000Y-70805826D01*
X127754075Y-70932993D01*
X127786988Y-70990000D01*
X127544000Y-70990000D01*
X127476961Y-70970315D01*
X127431206Y-70917511D01*
X127420000Y-70866000D01*
X127420000Y-70614000D01*
X127439685Y-70546961D01*
X127492489Y-70501206D01*
X127544000Y-70490000D01*
X127786988Y-70490000D01*
X127754075Y-70547007D01*
G37*
%TD.AperFunction*%
%TA.AperFunction,Conductor*%
G36*
X127754075Y-57847007D02*
G01*
X127720000Y-57974174D01*
X127720000Y-58105826D01*
X127754075Y-58232993D01*
X127786988Y-58290000D01*
X127544000Y-58290000D01*
X127476961Y-58270315D01*
X127431206Y-58217511D01*
X127420000Y-58166000D01*
X127420000Y-57914000D01*
X127439685Y-57846961D01*
X127492489Y-57801206D01*
X127544000Y-57790000D01*
X127786988Y-57790000D01*
X127754075Y-57847007D01*
G37*
%TD.AperFunction*%
%TD*%
M02*
